<mxfile host="app.diagrams.net" modified="2023-01-29T21:00:50.643Z" agent="5.0 (Windows NT 10.0; Win64; x64) AppleWebKit/537.36 (KHTML, like Gecko) Chrome/107.0.0.0 Safari/537.36 OPR/93.0.0.0" etag="iLjvdaDI0vHdCjmbPheJ" version="20.8.10" type="github">
  <diagram name="Страница 1" id="5APGDmCaDtXqfdYM-Xta">
    <mxGraphModel dx="1990" dy="1109" grid="1" gridSize="10" guides="1" tooltips="1" connect="1" arrows="1" fold="1" page="1" pageScale="1" pageWidth="827" pageHeight="1169" math="0" shadow="0">
      <root>
        <mxCell id="0" />
        <mxCell id="1" parent="0" />
        <mxCell id="2XhEkTOICneemovFG1xt-1" value="" style="shape=image;verticalLabelPosition=bottom;labelBackgroundColor=default;verticalAlign=top;aspect=fixed;imageAspect=0;image=data:image/png,iVBORw0KGgoAAAANSUhEUgAAA6kAAAH2CAYAAACSmMq4AAAAAXNSR0IArs4c6QAAAARnQU1BAACxjwv8YQUAAAAJcEhZcwAADsMAAA7DAcdvqGQAAP+lSURBVHhe7N0HgBxl/T/+9+zMbL1+uSR36b0nBAgJvQTpKIhSFQRsoURQxK4gFooFUYpSlGYBqVIE6b2EECC993a5vn1nZv+fz3NZvhHR/9fvD2Xv7v0Kw7Zpuzsz97z3eeYZa2BjUxHvw8L7Pk1ERERERET0HxPaeUtERERERET0oWNIJSIiIiIiorLBkEpERERERERlgyGViIiIiIiIygZDKhEREREREZUNhlQiIiIiIiIqGwypREREREREVDYYUomIiIiIiKhsMKQSERERERFR2WBIJSIiIiIiorLBkEpERERERERlgyGViIiIiIiIygZDKhEREREREZUNhlQiIiIiIiIqGwypREREREREVDYYUomIiIiIiKhsMKQSERERERFR2WBIJSIiIiIiorLBkEpERERERERlgyGViIiIiIiIygZDKhEREREREZUNhlQiIiIiIiIqGwypREREREREVDYYUomIiIiIiKhsMKQSERERERFR2WBIJSIiIiIiorLBkEpERERERERlgyGViIiIiIiIygZDKhEREREREZUNhlQiIiIiIiIqGwypREREREREVDYYUomIiIiIiKhs9ImQalkWXNeFbds7nwEcx0EkEvm754h6I93WdR9Qelu6T0RERERUjqyBjU3Fnff/joX3fbpH0iDq+/4/LaAXi0WEQiETZPP5vHlM1NPodqvbt27Lu27nnuftvPc/IVUH3SeIiIiIiMpNn6hJ1cL4ewvuatcCu9LCPAMq9VS6Hev2GwSBGXS73zWgEhERERH1BH0ipGoNqRbatQBfCqEaWvW+1rLqfX2dBXrq6Uo/uOz6Y4s299V9QIddgywRERERUTnqE819dw2kSmuYhgwZgpEjR6KhoQH19fWIxWLmNR1v1wI+UU+x63arITSXy6FQKOCFF15Ac3Mzurq6zDil/YFBlYiIiIjKUZ8IqVp7pLVJWmCvqqrCaaedhhNOOAE1NTWIRqPmdR20JnXXTmaIepL3/riSzWZNUNUa1GeeeQZ/+tOfsGDBArMfEBERERGVq14VUjVcljpJ0lsNnVpr5Di2FNQdzJo1E+eeew7GT5iMfD6DcDjWXaNU9FAMfATynp1QmCGVeiTNqLrpWlZ38/Wg2H1uqmtrq/4Quro6ce+99+H22+9AS0uLeU33lXA4bMKs/mCjwZaIiIiI6MPUq0Kq1oKWakNL55dqWI1Ew/joscfi5JNPwqhRo+X1sLxeMLequ+mj9nSqPaPa8n+GVOp5NJQWJXgWzXa8cxs2P8L4ZhvX/SKVSuHRRx/FNddcg9bWVvMjTmmf0cD63tpYIiIiIqL/tl7X3FcL3TrsWpt6yCEH4oILLsSYMeNMbROKFnwvgFcI0LKjFR0d7fAlpErRHvF4gjWp1COZc03lttScNxaNmnOtK2viCIddZHPaeiCMbDaNl156AT/60eXYsmWLmU73FTYDJiIiIqJy0OtCqtYIKQ2nWviurq7Gtdddg8mTpnTXoBa0YyQLSxevwLNPPo9lS5dh3fp1ppmjFbLgOt0dKBH1NPrjSqkmNBIJo7qyGhVVFZi53+6YPXs2Bjb2g+8XYDt6jdQCfvrTn+OOO+4wQTaZTLIWlYiIiIjKQq8KqVobpAVtLaxrTarenn322bjgwi/BDmlzRqCQ9/Hyy6/jvrsfxMqla804Gmzj8RgqKirR2tpupiXqaQr5vKkt1W1dO0sKS1ANhyNo7tiEjxw2W/aFM9B/YB2CwDM/yCxdshQXXngh1q9fv3MO3RhWiYiIiOjD1KtCqjZlLDVZ1EJ6//79ccMNN2Do8MFAoF3HRPDG62/hd7fcicWLlqEyUWXG00J5Xgr4XsEzj4l6opBtmx9qdNcteAXzY0ugP7i4PhKJOGYfejDOOPM0ROOOqU1NJVO46qqr8Oc//9n8WKPbvnagxJBKRERERB8m7faz19AmviVa0B4+fDiamppMz72hkINsOo9nn3oBa1ZuQCJWIeP4Ek6zEmxzUkgvwg1LAd+SNMuBQw8cgqAg27Jsz5720KvnZEs+lW06HAojJ9v+vFcXYM3qDRJcu68FrM18d999d7O/aEjV3n0ZUImIiIjow9arQqpeUkPPQ9UCtxa2GxoaTFPekO2a57Zvb8amTZvMfaI+Q7b3kBWS7X873nn7HViyjyjdV4YMGWJuzSVrZOC+QUREREQftl4VUpVp7ii0wK3Nfc3jnYX0zq5O05upCa7ymKhP0NpR2Qe6ujrwzkIJqfKURFKzjwwaNMg0k9f72hKhtP8QEREREX1YemVSK3WgpM0ZtZaoVEiPhiNIdiXNONpxDFFfUJDwqTWkYTeC5m3N3WebFwPzmvZ+XWriq+dla1glIiIiIvow9aqQqoFUC9ylkKoFbh1CltYOSWiNx1DwC6bGqBjw3DvqG3xfz9UuorKqylwP2A5115bq/qKtCnR/0E6T9JYhlYiIiIg+bL0qpJaaLGqNUIkWxDWkFvWfFSDiVMO2XMDiZWaob9AaVMmm8ArdP9hYElItq/t6wqXzUXW/4fmoRERERFQOemVz31Lzxf/x94XvIsvi1IeY8Ckb/T/uF/+j9BqDKhERERF92HplSCUiIiIiIqKeiSGViIiIiIiIygZDKhEREREREZUNhlQiIiIiIiIqGwyp9C/pZWYt+Z/2BhuyIrAQlUGvP6uXLimaIRRyEY0mEAlHEQT62O6+9I+tvch2d9gTDrtyG8hjdF8GxbFRDEJmcN0YCgXtuMc2l0LR5Skdt/t6tno5Ie2N1oUdisj8w3Jf5i0DERERERH1Lgyp9K9ZsokEEhMldGpodCRcOk4Ivq/BM4xoJArf89GyYwtS6bQJo/lcDoEEU70UkAbUbCaLTCaPfME3oda1wwg8iZkSYjXIZjIZRCJhOLYj93PI5fJmSKVSMm3OhFE7JCG26Ms88hJoC5pbu1MsERERERH1Kgyp9C/5niRU2UpsDaZBHulsBzLZLgmnrmRESYpWgHDERnVNvYTOkAmdtuOgpqpaxomYeVTVVMvzIcQk0GqIdSXcFiRs6jxtx5JwqrWpDgpezsyjMlGBuvo69OvXH/F4XAJvIDlZAi88GR8yrl7rU2tozeyJiIiIiKgXYUil/x8W7JAGVB+eX0AsFka/hmpE4iE0DKhB06B6CaFx5L2UjFPYOU0RnV2dyOcLiEZjiMUdpJJtiMZt1PerkqFSponJ/PJIJjsRiTrI5dKmaXG/hhozry1b1yOb70K//jUYNqwR1dUJWRUf2WxqZ63uv77uJxERERER9UzWwMam9y3pSwTYea9n0fCiNMDMnTsXc+bMkUcheTc+1q/ZjPM+901TA2dZBdbE/S/YtotAm9nmMqivr8WBBx2A/fbbG+PGj0A4GjFNe9euXYtFixbh8Uefx/r1W0wtZy6bw0EHHYQTTzoJLa3r8fY7b2PWzFkSOIchkUhg69btuPW3f8Bjjz+OmpoapNNp7L/ffjj1U5/E2nWrsHHDBowbNx4TJ02EY9t4/fX5eO7ZF/Dqq/Mk/BYRDSfkOw3kOywFY/qXiiHzk9SApjrcdOv18snl5GF30J86dSp83/+7fYeIiIiI6MPCmlT6l/zAQyABRoUjUYwfPwFjJTxu2roZq9esQWeyC6PGjMRhRx6CY447DJYDc+5prpCHZRcxetwQzJg1BbMPPRCxRBxbtm1FV7oDg4f2xymfOgH7HTAD2VzWdL7Uv7EBw0c3Yt8DZ+Dg2Qei/4AGbN++3XSmdMDsfXD8Jz+KSVMmoJDPwnVseJ5n1ouIiIiIiHoPhlT6l6yiZTpJ0hrVrVu24d5778cVV/wE3/3u5fjaxZfi0kt/ghdfmod4ogp7ztoDsH0JtkUkKmqRyaflcQaFIIfWjg7c8ts7cO11N+KBBx9GMVTEgKZa7HPAnghgIRqrQiaXRr6YgRtxsH7zJtx62x9x3a9uxOOPPyPzCTB6/AiMnzgGftGDE3aQl7BKRERERES9C0Mq/f8Im0u+VFXWIexGsXzZcjzxt6cksLairS2NlcvXY/XKjRJkHSTilTJeFcKRCOxQ9+VhtOlo0Xfx9JMv4Omnnsabb7yNhx96DF2dWUSiEQwfMQLRaNT0BBwEPqKRBFKpPJ59+iU898yLeO3VV3DPnx8084qEIxjYqOen1pimqXZIL0tDRERERES9CUMq/UsaBMNOBF1dnUimkxg+fBiO//ix+O4lF+OnP/8hLr/yezho9iwZMw03HEIsHoPrOJBoqgnVzCNkd1/XNBGvR//+g5FMZpBOZU2Pv0MGDTaXsvGDAAWvAEs2ySCwkE7nEY9Vob5+iIybM2FXr4bT0K8esVgMgd99HVYiIiIiIupdGFLpXzJhMxTA83OYMnU8vjDnTFz45XOx224T0TiwHnX9qhCPu9BL0eh5opb800549Nqpeq1U0wtvIPfluXw+bS4z43seOjrazfzj8YSEUp1W5rFrfz162RkZijK0tbWYzptQtBCRgKry+ZzpdZiIiIiIiHoXlvLpXyqigHSmCzEJoofM3g+77T4RLa1bcdvv/ozzz/savvDZL+HPdz2CdEqCaKAB1YMnAbUgQVSb70quhBUqImRL4JT55XIZmVcEkajWrkLCr47vIRyRkCo0jDqOJbceMpmkmTYej8or+lwAvTRrQQJqLp9nTSoRERERUS/EkEr/UhAUEXEjqK6qRuPARtNEt6OjC88//7qEyCxS6U4z6PmlmXQG/RrqZJq8BEoJkaEwigWtIY1JeLWhVzhJpbowetRI1FRXw/ItvPnqYkmqEl7THYhFYrA06BbyKBQ8ROMJ5L0ixoyfglRrGxzZXJctWoXAD8m8LQmzO1eSiIiIiIh6DYZU+pf08i96GZp8voBsJich0ka1BMzJU0ZIEE3joEP2wwknHIew4yISiWDwoCHdTYSLFiRHQpKlhMkAs2ZNx6y9d8eUaeOw7wGzkKiImvm99fY7ptMkc86pTKdBtrKqEocfcQjGjB2CocMb8MmTj0BtfT/s2NaCRYsXm2uqhmREb+elcYiIiIiIqPdgSKV/yXG6N5HOri6sWLHadHhUL4Hx3Lmn47obfoovfekcebWIzZu2wQ5HMHHiJNRU1yAej8vzgYTaQLayPGbMnIpvfPPLuPTSb+Oooz4iYbSIN954Cy+9+KqMF5LAW4RX0GuyeqYZ78EHH4jvX/Yd/PBH38Iee46Hny/i1Vfn4+23FkKTrNbc6rmtRERERETUuzCk0r+ktZxam5rLFfDMM8/i97+/C/PnvY3OzqSESQdvv70I11xzA2644bd45YXXsX79JplGwqOEUCukdaM+stkUnnvuOaxdux75nC+3m/Dssy/i/vsewob1GxB2I6ZZsR/4sB0XrS0teOSRR7F06XIUixZWLF+FP999Px595HE0b9+GWDRmOmTS81+JiIiIiKh3sQY2Nu3ap+q7NF70RBpelDYfnTt3LubMmSOPQiYsrV+zGed97pvymo5XMLf0r+klYRzXkeCZRSaTRiweRUNDP0QSMbS2tiGVSiPZlTbXRR0ybJDp1XfTxq1ww2Hst990XHLZ15DJ5vCjH1yFtxYsRX1df5kmKZ99gGRHFxCEZf4RmXcHjv7oIbjwonPRLs//8LKfYMniVbKsBnheAYVcJ9rb0vALIVOLCvk+C14ejt3d4RL9/yiGzE9SA5rqcNOt1yNATh7KXi47wdSpU02PzLvuO0REREREHxbWpNK/pGFTa1Mj0Rjq6xvkmRA2b27GxnXtCBUr4IQq0K++CVXV9di2dTu6OpOorKyGbdumN15tkmtbMfSrG4TO9gxaWzTU+uhozyLwi6itqYdX0MvVBAi72uOvhFA3LqE3CteuRPO2JDpaCzLvHSaQ1tXVmXFz+QLCYQZUIiIiIqLehiGV/iWtQdUKtnwuh0wmY2pWw64Lq5hBqmsHgkIa+Uwn/FxaQquFqBuBl8uikE0jIqHSscKwUUDRyyDihEwvvvGIbHZBAY7jIpPrQMgpmGueFnI2ikUH8AMJv56E2S2yvIyE2TTisWpT851MdchzGmgdeX7nShIRERERUa/BkEofGD13Vc8t1VrUyspKwHKwccMWLHxnKVpbJVxKENUeebU5qdaCBkHQ3bRUBu1oKZvNYcPqjVi8aBm6OpIIWbZpPuzYvNYMEREREVFfwXNS6QOknSXZpllud0dIGdTXV5ow2tGRlpcjCElQLRZ95HJphN2oOd/VkyCq56g6joO6umqksyl0tHdJ6A0j8EyGlS8s6F4E/d/wnFQiIiIi6iFYk0ofmJAdQqGQh+RN2NqhUdFG8452tLR2SlC1u2tG/cD0yqvhNJBQm81mzTmmWvuazmSwZct2CahJiU+2TAPzGgMqEREREVHfwZBKHxitiSsUCsjl8+YcVomqcOwoXCdmAmo2K8/La0qbBmsVqdas6q3W5FVVViIWjSMSjsNxwshnC/K6ZWpYiYiIiIiob2BIpQ9M4AcIO64EUBu2o41JYUKrV/BME1LHlcApr2nz33yuoKlWxrPNbV7Gy0qwTWfSJsh2j2+bRuc6DyIiIiIi6hsYUukDo6cy2o4jIdSD70vQhG+un6o1rHoeql7bVHvm1dpTy9pZg+rJ83LrynRFCa+2ra8VzTzMKZLyWulcSSIiIiIi6v0YUomIiIiIiKhsMKQSERERERFR2WBIJSIiIiIiorLBkEpERERERERlo0+E1MDLA74F3yuiK70DcAJkctrjrM2BQ68f8r6PZDaFzlQHorGI7BAFOKbvZSIiIiKi8tMnQqptu7Asx1x7MxpPIByOIBqNml5jOXDo7UM8Hkd1dQ1i0QRCIReSWXlZHyIiIiIqW30ipGqhXN9qKpkylzZpb29FwcshgMeBQ68fMpm0bO955At5hKwQir5erzZq9g0iIiIionJjDWxsKu68/3csvO/TZU9rjlSxWMTcuXMxZ84cUygPWTY2b9qKW2+9Qwrteg3PIgo51iZR75cvZBGNxmWfsDBs6GCc9ukTUVkVlQAbmP1k6tSp8H3/7/YdIiIiIqIPS58IqZ4nodQvIhSykU5nEYvG4IRdfZNEvV7g+QhZzs5mvnlEYyHIE2YfYUglIiIionLTN2pSiwGSXW1IJCqQL3jy3izYdgiW7ZhxiXozx7LhB4Fu9fB8D56XgRt2ZB+IMqQSERERUdnpEyHVl7fi+nnk5M62pIdE1EXCtRBywmZcot7Mz2eQ8ySkOlFs2boFwwY3wkGAkK29/zKkEhEREVF56RMhNZvJwM8msXprG35x673o6uqCXyigPeuZcYl6s4YKF3bIQiyeQF1FBBd88Wz0q4rBicQYUomIiIio7PSJkGrJ/ZAM85evxelfuQztqW2Iu1UIOREzLlFvls62wHVicIsWJo4YjFt+eSWqIza002uGVCIiIiIqN33iEjSZdBKBXzDNfvNyG4n3QyRagbC8ew4cevsQSQyAm+iPPALkA8j/LeRymZ17BxERERFReZEibO8XicUQCjlIJOKIRWKIOnEEgQ9PO5LhwKGXD0U/j1AxQMStQFVlJeLhCBwZiIiIiIjKUZ8IqZ5fhF/04OUL8D0fUmqH9vAbWCEOHHr94IRcFL3uawKn0hkEsv0XvZx5TERERERUbvpESLUdFyE7DNuVwrr88wM9Gw+wihw49P5BL0FTNL356rVSfXkcQthmTSoRERERlac+EVKJiIiIiIioZ2BIJSIiIiIiorLBkEpERERERERlgyGViIiIiIiIygZDKhEREREREZUNhlQiIiIiIiIqGwypREREREREVDYYUomIiIiIiKhsMKQSERERERFR2WBIJSIiIiIiorLBkEpERERERERlgyGViIiIiIiIygZDKhEREREREZUNhlQiIiIiIiIqGwypREREREREVDYYUsuUY9tw7RDy+Q54fhY+AtjhKHKp7XLPQzHIA/kULDeMglVELB6H4zoIyf1cZgc8L41srg3RSNR8yYGXQSHXYW5zxYLM30XIL5jHndlm5Py0mc7y88inm5HW+5EKBEVPthILeVkHy3HkfsisS8EKzG1elqPr5VtALteOWMSF69iy3p0ymayzjisroGND5m2jaOal6+zJekQTMfO4GCrCltkXZf6BDLo+Ou+i/NP37xWSgCzDl/Vx5T3retsyTVHuZ70UCn7GfG5FWUYxKCBX6JRPyUcoHDHrqe/Dls+iKPdtS9ZFpi96WTiyHvlsm1kHNxaV8WSaQJZh6Ws5OI6PVKa5+zOS5cmCzbpY8p5CjiWfv3we+hkREREREdEHwq6orLxk5/2/I3mgR7Ks/1nzmTNnYsaMGRJMutN4c0cKdz/8pDy2zGO9LVfJrk2IuDGMHj4MA+vr0NbSKiEziUP23gejxwzFwLpaBDkf21rWI+clJfxFkE01Y/igwWjs1w+1FXHU1A7GhrVvoCZejYmjRmLGbrvJ64PQlpQAmM4gHE3A9wqorqjGrOm7YdLo0dht4hgMbmyS0Gdj67aVCDuRnZ+pBDIJqdlMK0LFImokUE4ePRwjBzdi+MA6VEhYKxY8tLc3w/c9VFbUyyQSOGX+Xtd2TBg2GJNHNGLs8EaEJY2mu7qQzLRLZHRktJCEwRAK+SwybetQJ4F7ylhZl3GjMbKpnzx25fUoCjL/jo5NElIrYAU+XAmNuVQbhg0cgEkjR2D88EEYJ0P/frXIZgvo7NwhobMIJySBXL7tvATYbNcW+TxiGDdyCEYNH4KRQ4agJlGNHe2bkS8EiDgJGddHoWgjldwh7yuGCUOHYs/xEzB9zAgMHdQIS+aZzaTR2rZBYzBcCb+Sx8tWSL6/QN6/3tZWRHHSR4+QT12i+8595frrr0dR3tOu+w4RERER0YfFGtjYpBnuH1gm2vU8pYK2Frrnzp2LOXPmSFCBFMqLWLx+G0485xtSPLfkMUzAKFeS2TCoXzW+OvfzEjprsXjxEglRPvbfZxb8iAUv42HlotW45c/3YeHqdbBDNkYMGoDzPv8ZCYQDEWSTeGnJZtx915/w2TPPkFA2FI31Esa2bcPPfnsf7n38XsSqGjCicSBOOeow7L/XdERiYfn8bHjyeS1dtQ5/uOtezF+yTMJdCFY4JiE5hUTEwX57TMVZxx6IsRLc3EgM+VwWuVwOKze34CfX3YIlqzbAjVeiq3Mbxo8ah/NO/AimTZ2CikQCkUgEre3teGvxMtx498N4c+FCRCv7wZeAagceTj7iAMzefxbGjRmN6soKBH4BmVQKCzd24OkXXsE9D/8NBflC87ku9K+txeH7TsNxxx6Lpv79zXccjYSxoyOF1Rub8cDjT+OvTz0vKc3u/kyRxUH7zcTxR34Eo0cOQ3WiAvIxYsumzfjLY/fj0adeR1dGIqqE34IE7UENQ/DxQ2fhmAP2REONrLsbRofMZVtrG9Zu3obb/nQv3ly0BK58NpKZy5Yt+4RX9OU2hBEDqnHvjVcjUsyjEJLoLvvJ1KlT4fuyV+yy7xARERERfVjKN6X1cVbIQVdHG5rqKjFuSH/M3ndP7LPnbnjzzXlYt2YVmmorzHOH7TsDDdVx+IUcCl4BG9atRaazFcMH9MP0sUNw4jGHY+89doNT9GDlk6iOAkE+B9sOo7Y2gROO/QhOPvojaKhKYPPGDVi06B1J7wUcsMcUXHzO6Rg1aBA04klMBQoZHDRrBj7/6RMxddo0CXNhvLVsDd5cugq5IITBg4egpqoKIcdFhwTUAXUD8MXPnIYDDzwQWd/G7x98Arfe8zB2tHXhgL1n4bOnfhKD+jfCy6YReHlMGD0Cp5x0InafPh1btu/A7yWA3//Xp/HOqk2YPGYUGgc0mObEWiPo2FEMGzYcZ5z+aYyR2w3btuPPf/kr7nv0KexobsGUieMxYcwYM25IQmqhkMTu44fjbFnmXlMnYOniRfjtnXfisccfw7BBDfKeTsKRB+yNYj5tAioKaRx5yDR88uOz0TRkAJ5fsgJ/fHE+nn32SVOLO17mPbBff1h+IAE73/2lERERERHR/zM29y1T8aoaVIQtfPQjB6K6MoHVG7fh9j8/gNvveRCvLViApoYBGDNkKEK2hYUrVqG5LYnWjiSWLV+JqEw3Zfxo9K+rQW19PyxYvAz3/+UhDB40GJWV1bj5/r+itXkrZkyZhjM+eTxqKxz8UQLeDb9/AI8++RzWbdiIaZPGY8TggUjli1jw9iIUJdRWROM45zMnY8bEsVi0dhN+eM1NuOHOe/HXp1/GK/Pfxquvv4GX33gb2WKgJ4fiiAP3xYlHHgAPDn4t491890N4dcFiFCXkzdxzOhrra7B89QasXLsejmVj3xnTccTB+yKbzeDBR5/EDbfejcdffhMvvLUCC995Gy+8Ph+r1i2G4yZQmajAbpPG4qgDZmJraxv+cPeDuPWuv+DFN5fgpVdfxUvz5uOFeQuwrXUD4hV1sj4hXPjZEzF98gQsW7MOP/3VjXjshflYvm4zok6AvaZNQUW8CvMWLMO2VCvqK8I46WOHYcLwQVi8ahV+euNtuPXBB7Hg9bfx+tuL8bq8j/kLFkn4zSEarYQflG97Xzb3JSIiIqKehDWpZaq1fTssJyzh0JU44WBLewZ/fvRpbM/beGv1eqxYtwmeF2Bo40BUJeKw3TDgRtHclUZHzkLGiqCQTSLZ1YWf/eJavP7WcqSKYXQVXWxOdsEOOThw91loqqvHmg1r8MrS1VjWnMLGZNLUXK5av8nUGB5y4AGIhMOmqevgpiaMHDIIuVQHVkvQW7BwMTplGYVQBEtWrJFlLEZewpAdrkDYrcQek8ehXzSEjrZWvPzqa+a9BFZIwt0CbNmwDpURF9OnTEE8Vgkvn0RXeyvsQhKVbhGz9twNB8+ejabhY7G1sx1PvvwatralEa1shO1EkE6nkE91Iupn0D9h49CD9sN++x8AJ1qBbck8Xlq4FBtbO+BWDEQmn0Vd/1oJxrubpsIvvvoGNrSmkJbPa2NXDm8tW41kPo+mAQMxcsRwCXM2soUw0ikH8B2MGzgInz7qKBw1Y3/4Ff2xZMM2vPbOMqRyebjhSuRz6Z3fGhERERER/b9iSC1T2vNswQ/kC4rIPx9eLoWcrd0j5VAVrZeQuBEIe7ArHVTVVJrmsplsK4KggJhjocaVaSMR/PGBh7AtVcSy7Vtx+gXfxAmfPQfJ1ja4VQMk1HoIBSmkshZat+1ARKatiPfHpu07sKm5QwKng6ITwuAhTVi39iUMGdQf/eqrzbmrq9dvwOatK5CI1yGVbkFFVQX8QgEROwIv24HKhItBgwZJMI0iGonhoi+cjp989XO45lvn4hvnnoE6eT0m72vEoHrI24Kd6Id5S9fjOQnTeUvC64RRuPzC0/Hw1V/Fo1d+FUcfciAKndsRlZDrug48C1i0oQWPzFspQbmIA6aNww3f+gJevP37+Nk3v4xDZ+6GmqiPfOcmhOV99K+rRGUsDkn22Gf3qfjRBWfj5m98DjdefDrOOG62fJRFVFUlUFkpu4SXQ8b38NcXXsayTdsRrojjE4fvi1u+PxeP/+IifP+cj2HCyHp4QR4t7StQpW2oiYiIiIjoA8GQWqYq45WmOXJewqc2TNaOlCJaq1oMS6iLIh7VXmhDEr9CKHiBqaWMxhvghCtkGh9ByEFBXmvrTMrreURj9RIJi9jR1gpHgqQqSuArWrZp9FwoAjkJZkExkHnHEQk70N6AEpEwvEIOtdUj4MpKaIda2rNtVzqHvJ+ToOuaZeYk5BVDrulIyQknJCwHElrzErZzaKiJYcyIoRg3dhyGjhiJqvoBSAZhLNzcik0tnSjKcm1ZfmemgGtuuhM/v+WPeOL1RVi1rQsZRDFw6Eic95mTcMEXz5LPJYqujm0IybI2btyMa3/7B9zxwN/wzJtLsXx7O7pC1Zi5524458xTcNLHjkRD7XB5o4F8NhKiZV0qYxEMGTIMg0ePR/3wyageOhF2dRM2tuewYuN2ZCT9hvTzCdl4fcFC/OTaG/G7ux/GCwtXYn3KQ9WA0Zg9+1Bc+NlTcezBB8n6NKIry3NSiYiIiIg+KAypZcq1wxKuJLnpNyQpsihBMcimzFOOBKiaREV3pz0ekJJwF1gSSgsp5HMdaO/sksBpSeC05bUcstk2mSYsQa0GdkTCr19AvpBFOpuT0BugtqoSFZXVEjTTyKS2I2wHiIVtCZqeOVcxlUohLiEvleySZeQlv9noP3AgqqqHy6rZso4h04Oy1ixmZB21NjeXzZrpbMfBO0tX4NuX/RCf/PTZ+PJ3r8BFl16NU875Jj7/rStxy+/vNeeohl29NmoGyzdtw2/veRDfuPxX+PoPr8G1t9yJtBfCqIF1OGTfGaiIurJOEp5jUXjyPt5ZtQg3/vEenPuty/HVH/4S9z09D76sw4ShA7HvjGmoSkTNNV87utKIOC6SySQeefRRXPytS/HFi76DL1/yE3z5O1fgvG99H9/80VV48fUFEsOL8j7TErptLFyxDldefyMu/vG1+PpPbsJN9z1pfhSYNWEsDpkxWT6XBJJZNvclIiIiIvqgMKSWqXwmK9lPImDYkVAWIO7aGDagv7yQNj3xTho7XLMhtra0oaWjC4Gk1UK6RcJrlTlHVcNlIdAa2SgqI9UyWbM5dzKRqIQl8wsk6G3ausME1X796jBq6CAknDgqnQhGNPbD0IH9zLmoy1atk9Ar4dcHVq/fgo2btyESq8DEkYMxZkgT0m2bUEy3o6kuIc+NRFirZYNAAmQRq9ZvRCofoGnEaAwcMQ4pCbJL167Cuu3bkdeGy7mczH8BfEvCY6odjTV15vqoVRKIM7msvLYSDz78V7z44ovIp9pkfVwkqqoRidaiq6MF/SrjmD5+Gpr6D5RF+nhn4Ru48Te/xttvvSkbtoVENIqKigQsK4R169dj+YatiMWrMGLYUPkMPGzbug4b1q/Epg3rZV3y8lnukPe6HZFIFeJOAjWxMKol5FZV1qKzK4mnnnkATzzxBHZs3SbRPISKuNY4RyW0h7u/NCIiIiIi+n/G3n3LVMjzUFFZgSMO3Q91iTDiErgqawagoaEKs3afisMO2EvClI3HXnwDjz33KrRKtaaiGscceiD233Mqhjc1wJOgqmGtf0MDOuW9N7dsMh0mhe2QvGbB8gsYN3Qghg5qRKKiEjXxCKZNGIn999oNM3bfDe0d7bj6lj9i5YZtsCIVaG9vlfVwMXXCaAztX40RQwdjcFMj9tljOj76kQNwwKw9sW6dhNquFHKy/l4+j2FDh2NEUzWaGgegaYCsf2UV9pu+G8765LHYa+poLFiyEclCASFZ15OPPADnnv5xTB4zAlUVFRjQvz/2lvd6xMHyGdTVYtGarfjL068gmcnAkZB9xic/is9+4ghMkPGjbgiN9f1wzGHy/vfaE+GYi7dXrMaTz81D1itK6E0hJGF4rITgMcMHob6mCv1q6zF80CAcecA++OhHj4Aln8vKVRvlM3IxbGAdzv3cp3HqCceivjImYTWMMUNH49gD98F0WW/LcfDUi+/gxTfeguVq0+idX1wZYu++RERERNSTMKSWKduyEauI45D990K/hIVItAL9B43AwftOx5QJ4xCPOFi2ahXueexZvLXkbUTDcYyW8HXSccdg2qSxsIICIq6L4cNGYPio0di0ZSvWrt8MX8JIxLZMx0Cpzi5URkMYOmw4hg8Zgr2mT8Fukydg9KiRSKYzeOnVN3DTn+5DIIEsWtEPqeRW5DMFCaeD0FgdxjCZ97Qpk7DbxPESivsjGoli4bJlWLd5O9L5NHbsaIdtu9h74gAMqK/B3rtJuN5vBg7YfQJGDKhGrpDD8/MWYUdXO2JuDLP3moK9JQBOlNC5/6xZOOLAA7DPnrub97p2exvuk/f69MtPmZrLQQP644wTP4aJg2owVtb30P33xdGHHmwuS+PKZ7V6y3bc+9Bf8cq8V+CGqyR4AivXbJSQ3w/DBzdi0tiROHDWDOwjgXbapHGorq1CS2sr3ljwDkKhCMYNbzSfx5hhgzB90hgcLuuiYXncsCEoWgHeXLwa9z/2ApatfhMRbUItob9cMaQSERERUU9iDWxs0gz3D7SDnJ6oVNDWQvfcuXMxZ84cc76kI+9n8fptOPGcb0jx3JLHkFuNquUpm+9A08DhuO7H38b4xgq8Mn8Rbn/oGRy022gJjNXYLAHw2ZfnYfGKNfCKPjw/i4aaAZg5fRIG9a9DPp1EMQgQjifQmS7gtbcWY+2mdRLgquEGnlmGfkZ5CZPjxk3C/ntMRFO/GoTCUXSmcpj31juYN38BcoFtxt1VLOLikN3HYuSoUaipqZFl+9i2dSveXL4OS9es7z4X1bbhe/IJSzqcNW4Ixo0di8GDB0tYtJHJZrB1+w48N38p1q5djXA4gkKhgGg0JiF1FMaMaEJtbT0cJ2Sa4ba2tuHZheuxSkK5rnMoFDLnxvarrsKsCSMxZswY1NfVyfdcRCGfx+rmTrw6/y2Z91qZh/vutpzOdKJfXQN2lyC+++SxqElE4XkFtCTzeGfRUixcuhI72jtgORH4hTQGNTZhz2mTMGH0MFSGbdNEuD1nYeXqtZj/ziJs3tYinz1guxEEupGVKVv2Cd1GbCtkfhy498arESnmUZDPUT/PqVOnwpfvcNd9h4iIiIjow8KQWqZcyYb96mpw/RXfw+j+CTz+7Mv4xlU3mJ5wHTeMjIS3gpdDPFGDcKwCOQl5el6qE7JMr7q+53V/hxIKHQmBWtNXlFDiui4yXRLE5H4sFpPngUwmDauQQcSxEHKjyHkB8jIvNxyXz+4fa9eCYgGpbBuqqoZIwAybZSVTO0zTYu1J17bDiES6g6eG1db2DYhrz8NuXL6fEDwJgIV8F8JW2CxDv6BwtHv8ztR2uJFKxKKVpoMmDbrpjHb85Jr5am2thuJ8PivB0EO+kEI81g+2EzXL1uf0mquuE0NVZSVy+RzSqU75nKrgyPxSySQCLyvziZjH+nlmCx4CXfeQI+9feyeOmuu55vWyP5kd5hzbWLQWCQn82c4d3duNvK7jhuS7sCxblpnd+emUH4ZUIiIiIupJyjel9XGxsANfAlayq1PikyUhzEVRe/B1q5C1JJBJ4HMiVfADSAjrkkCV0SyFrATMQigsM6iWoRaBjJfzi/AkCOo5omkJqBpyIxJck8lOpGVwbAeWBC7PjqMgwTGQ6S0JfYEEw/ejl3+pqGg0gTCZbEU2nzKh0AwScjWgKg07RVlubd0YE1A1Eet7ccOVSCQGyngVcBz9+UDWTQOthCZ9PhyplvWFqUXV8OiGK2S+MROIs9msqUV15T2EZfqqqqG6QvI5yLgSUjVTJxK1ZsNu72g1nTM5sk6+fFDZTEZyqANbAnBePsN00UVabvV8W1c+LztaIQE0QDLdCj/ThYjcr0w0ICHvVQNsZyaFoqyLE6uUocoE2WwuKSG63bxfIiIiIiL6f8eQWqZ2tGwx1/aMV9aYmjuJZchKcNNzC/3AN5dHCTlhCWWWqQXTAKhBzQRBrQXMJyWgdcjD7h59fF9DnA+/6KGQ16BXkJAYR0VlFayQ1rLqdVUt5LVGTUKfo/Pe2Sz4vTRoxkOBqY0Ly/hxWadK1za1v1ob53meLL9gxtUAGvYzMuRlfA+2l4Yt6+YEOVnfQIJzwYRPbXZrmvw63fMOFwsyjrwmtzFdP3kf+rq+B23ua2r9ZP1CftqM58q8XXkHYXldL7HjyjwT8UoTmHVcfc/6mWnYhGWb9dL6Qkue09rigkzjyzroe4tKiI7IOriybFfWO1zMyrx9RM37kUCsod+MK+/NTUjgrzDvlYiIiIiI/t8xpJapRFUjOtM5vPjaG7j7wUfwsvYiqzWPEsgs30PRk5CnwUqSlu1G4UZicOwwLAmwroTVcFCUWxkkaIXkuZAEs7CMo7WXeg6oL/PQoJVOpZHPdTdVLTXX1WbDZj7drT//gQbFdCYjoVFCptzXy81ok9m8NpuV4Bn4gQRDmBpajbQFWQ8Nh9rsGJYDT8YJ6WM7ZEK2Nt/Vc0e1KXLeC5DxfOS15lcCd07yd0bCqYZHDZt63mp3CM+ZkKnnhBZtiZDyXEHuezJOrpCXdckjK+8rk0mZddbrvGoY9eS9aWAPyft0ZLDl83Qk9JodQT5PSc0o5tPw7ChydgLpYghZWYdAbi15P7asc8gqms+nKOMGMm6xUL5NfYmIiIiIehqG1DKlnQDtaNmK63/3B1x10x/x0JMvIJ9pMc1ftfZPe83VoKfnQ2ozVz13UztK0nQoEdDUsur5kkVorWF32tRxtNmrL2Et5EZM6OqukZX7EtTkf6Ypr4ZAU8upbYnfh/aNbEkwtmQedrhS0mgYgaXrI4OEUGvnepnNS5alNcF6hqwGTg2TkOUV9HldDw2yWrsp70eb+JpzQ808ZF6OLMO8Vz2nVl6T131JpXpfz0/VS8VozaaGz6KESH3feuuY99O9Ho4bk/nZElw9XXET1s171BpUWUOdRkOzvmdb3kdp0JpVT38Q0PnI8gO59WTe+vmZT0ADq4ynyzLvgYiIiIiIPhAMqWVKm/A6ThzpbAHZwEVeAl7E1oa1EsQkJGnlpOngRgKqPGHumzAqIUxrV3XQ2j+9laRlhlKHODqt9karoc88r/OTx2Ye786ne5p/ysxDl62dFXXfdjN1nvK4e57/81jGN82Su5/RaUrvQ8fT8KePzbgaGnW80qD/NFzKoG/BhGQZdDrz2s5xZAxza+b5PoMuu0Qflz7L0uPSoJ9ZSAO0DJYu0HzGsn67fn47B72kj94SEREREdEHgyGViIiIiIiIygZDKhEREREREZUNhlQiIiIiIiIqGwypREREREREVDYYUomIiIiIiKhsMKQSERERERFR2WBIJSIiIiIiorLBkEpERERERERlgyGViIiIiIiIykafCKkWivIP8LwCIvKOXcuSN16EzYFDHxhQ9OHI9m/DRzTsoBB4CGQfICIiIiIqR9bAxibNb/9Ag11PZO0sfBeLRcydOxdz5syR+4G+gi0tHXj19bcQjlXBCwL4Rc+MS9SrFR24TgiFXAo1lWHMmjEdYceS0CoRVvaTqVOnwvf9v9t3iIiIiIg+LH0ipBb8AjwvQDgcQVCUwrmlFci+DBpeiXo3C9Gd9wKkM0nEolEUgwAhW/ZyhlQiIiIiKjN9I6RKgVyfDcn/rGKAgpdFxInJOGZUol5Nm/r6vuwDjo1croCQE5aAasvO4DOkEhEREVHZ6RMh1Q98eSFkmvfm8znEI3FToxr4rhmXqDdz3YK5TafT6OpKYmD/RuTyeYTDbO5LREREROWnb4RUKYAXij7mL1iAi7/5LfgSWHe0tiIciZlxiXqzfC6HyooEcpk0Dpi1D37w/UtQW1ll9nGGVCIiIiIqN32j46TAN72ZLlq+HKeeeRaCkAUvKMJiYZz6hBBcx0Ehn8XE0aNx1623I2yHEDCkEhEREVEZ6huXoJHCd0gGKxQy9wueZ964POLAofcPRQu+bvOy/ecLBRNYLeZQIiIiIipTfSKkEhERERERUc/AkEpERERERERlgyGViIiIiIiIygZDKhEREREREZUNhlQiIiIiIiIqGwypREREREREVDYYUomIiIiIiKhsMKQSERERERFR2WBIJSIiIiIiorLBkEpERERERERlgyGViIiIiIiIygZDKhEREREREZUNhlQiIiIiIiIqGwypREREREREVDYYUomIiIiIiKhsMKT2QZb8C9m2uR/IULQseH4A3y/CD4rI5z1zPxqNw3FcM7hhVyYMyX8hBDKOYztmPB0s2OaxmbO8rkNIB1lGwfPhmnmEdakoyrQ6Xigky5dxbNeFZYdkPE9WpGie13nm8nnII/NYbwN5TZevU+tdva+CorwDS56Tf9lcRu7LPXk/Bd+HF/hmPVw3jHA4bMYnIiIiIqLyxpDax1gS7jS4eRIKNfhZEu40tEbjcUTiMUSiUVTX1SJeUYGudAr5Ql4CYw7ZbM6MqwlRM2Iul0dEgl9NTQ0qKhKwJaSWgmAQBDJdQcbJIR6LmWm9goRQmUMo5CAioTEaiUpg9ZFOdiEv86qqrELIcWSwUduvHv0a+sONhE3Y1BBryzpL9jTrb4KohNNA1sSR8Gy7NsKxCKKyLA3dOl48FkU8GpOwHSCZSiKVTJp1IyIiIiKi8saQ2sdouCv4ntxKwJPA50podCXV5bNpZHIp+MUCsnKbzkqoswIJkxG4Eh4DCYu23GroC0swrK2vQTjqIp1Joq2jVaZNS5jNIp/PIyTz1cCqYdiXIOpGJJjKuLZroeBlJfx2oSvZibAsu6FfAyKOa+av06UzaXR2tcs8W9CZ7EAg6+C4IbO+RQm/8j9Tk6t1p2EJu3mvgGQ63b1c10FRAmrElflJKM6k0jJPoFICd0IGIiIiIiIqfwypfYwlgTSeSKBaay4lFBYLPvLpDCRNIqpNeLNZZDq65Lk0YhL6tBmuRsJYPG6CpNaqZuS1HZs2obOlBYE81ga5kLDo2Dbi8ZhMU0ChUEAsGjPhMtvRgVRnhyzDQ1QCbpWMU1tZgfGjx+Kkj38CI4ePQGdbi6kxrZTlhCSIerksoo4NW+4nW9tk9bSOFCb8aq2q5/mmxjamTXktG1kJpKmOThSSaSRlvbxsHglZvhOykZH3lJLwS0RERERE5c8a2NikGeQfmKadPZCGMKXhaO7cuZgzZ46pfdPzFBeuWIFTP3MmshKWbAkvVs98i/9PzDmo8s+RbzgejmLvGXuhacBAzH9rPryggGm77YYhQ4Zg+7btWLhoEd5ettyEUq2JTMvthAnjTagc3K8eAwc2mlrVTRJY31m4EEtXrcaO9nZT86rno2rtpiP3950+HY2NjWgcOBCVVVWoqqxEVXU1JoybiJqqavzs2l/iptt+Z6ZxZA2HDR6M6TLNsKFDzfmkrW2teOXNt7Bq5Up0JZOIRCImMOv5rdWxuIy7G4bKuHV1daiQ8NvZ2oEVy1fgncWLsKV5Ozx91xJs++wvMsXuJtL67Y+U7/bhu/6MkAR83zSbLmLq1KnwtVn1LvsOEREREdGHhSG1z7HgFX142RxGDxuBS7/zXeyx2+5YuPAtFPw8Jk6YiEQsilzBQ2dnB87/5rewbNlS08xXz1396sVfxRGHfgT12px3Z+dLWmva1dWJG++8E3+85x5T26odHuk3ccjs2fjGF+eYc1e1FlS/Hx00bD7++FNobm3B408/hcUrliFeXYlRjU0449RTMPuQ2bBd7YxJq/strGpuxq9//Ws88sgjppMmK6QhO4JjDz0MZ5x+OhoaGkxzZG3ea0koS2cymP/2W7jm+mvx5ttvoqq+H/LyXJ/EkEpEREREPYhdUVl5yc77f6e7uNrzlAraaubMmZgxY4bck0K3PL+9tRX33P+AhLTANHXtqe/x/40lmSWEmAS8qITATxx/HPrX1aBfXT9s296MBx56CJs2bcWQxkEYUFePqVMm4om/PSmBRoJfLot4Iop4zMFLzzyP515+EctXr0J1ZSUG9W/E5MkT8NCjjyDr+UgmuzBz2u74/lcvQlVtLRauWIpvX3YJ7n/oQUmdFqZNmox0Vxd+fPXV2NrWYpoKV7o2Lj73XBx1+BFYtnolbrr5d3j+uRfghlzsPnECpo6fgC2bNmLpksWoq+uPqqpKXHjuHIwcMRQLly3Gb+/4HZ564Tms2rAGnuVjzbq1ePrJJ+HlA1S4MeT8ws7PoK/R5K63RdRWV+O0T54omVUC6s4d4PrrrzfBdNd9h4iIiIjow8JzUslYumI5fnzVVfjdnXfgp7/8Bf7y2KPwJdk09G9Av4YGrV5D2HYk9D2Fyy79Pq68/hr84uZf4/s/uxLX3nYzdmQ7UVERx5DBg8y4GoKaBg2SIFmFQLLPXX++Gy+89BIWvPMO/vLwQzLvIsaOH4d999vX1Hqmk504+KCDsfs+e6E504Vb7/4j7rj/btx239246NJvY8uWzahvqMd+Mn5Vda2pva2sqMToESNNs9/5r8/DXx96GPf88U/4+c9/jou//jXccutvsaOjHVFZr84sz0klIiIiIuoJGFLJSEmIW7ZmJYpOCNtad2Dtxg3IFX244TCGDRtmzkvNZrLIJlPwcnn079eAWTNmYN9Ze2NAQ3+9YKmpne5XV498vrvGsqqmCpZjm0CaK+TNJWUc10FXKoVc4CFRVWnOf00kEvJaFIMGNqIynkDL9ma0t7aivrYWwwYPQU1VDd6WcJvL5DBk6FDT43A2lzWXuFm6bKk5B/b4jx2Hr3zpQnz82I9i/NgxZvlbtmw1HS450UgfrkUlIiIiIupZGFLJ0F58taMjK9S9SbS2t8HzfXMJmZrqagmIaVRJmDz9lFPxy5/+HHfdcituvuY6XHflT3Hu6WdjQGUN7KKFiO3CtiwEMmzcsgUbt21BOGRj/332w9BBg9FQ3w8H7rsfYjKeno+6aOkS5LI5NNT1Q52etxpYGDNwMC6acz5u+Ok1+NXlP8HPLvuRabZdkYijXkJwoiJh1m3L9m34wz13451lS+DGojjuuI/hggsuxPe//T2c/4U5OGCffRGX8JtJZ0wQJiIiIiKi8seQSoZthVBfU4sgX4B2eaTXMI073dc6zeZyppZ01oxZOPuMMzFzzxnm/N4fX3Ulvnj+ubjmhuuwYfNmc16jDnqJmGgsgddffx333HcfEm4Exx99LH7zq+twwzW/wudkHp3tHfjr44/hzQVvolDIoSABORaOmvNlPauI1q4OtCc70ZFOIp3PYsmSJXjhpZfxyquvmFAbkhDc0dmJB//2V1x6xY/xk19cjUef/BvyRR+Tx03AyR87AXPO+iwmjhmHTGc7/Ly3850SEREREVE5Y0glI5VKmlsNgDVVVWhqHGhqUYOihVYJpLbtYI/dp6Ghvh47mlvwy5t+gzvu/TNekCC6csM6uJUJBKYW1oJX0GumhtDW1orNm7fA9wJs2rARG9dvxJbNW/Hiq6/iD3+6C7fdeQfaO9pRVVODtvZ2bN6ul4sBNjRvx61/+D2+eMFcfOa8L+JzX56Li77+DXzn+5fi5t/+Ds16fVb5p82HixKmFy9fgTvuugvfv+JKfPlrX8NTTz8tQRsYNXwEhg/T5sFxVMRZk0pERERE1BMwpJJR168fxowbh4pYDLWV1Zg2ZZpp+tvS1ontO5rhFz3YjmwuARB2oggVQ3B8C/2r6jB+xBhUV1QjkyugoqYaQSDjWkXUV9fikyechJSE1mdeeAk/+NGP8X0Zvv697+HXd9yG9q5OCcLazDiDgty+tXQZ2jszGDpgCA6auT/qK2sQtmx4noeKujr0G9CIjVs2w5Zwmi/kUVtbi31n7Yfx4yYiEomheXszlq1cjbUb1iPr5QFZX62Zzfsekhl2nERERERE1BPwEjR9jmUuPaLnjcajERxz5JHoJ2GvccBANPTvb66Zus/e+2Bv+ez0Oqi3//4OvDH/TSRTSQwZNFjC61Rz7uiAxkZzvufHjz8exx51DCLhCOLhqPmcX5v3uukoSS/PefDsQzBmyDCMHTsW++67D445+mgce8yxOGz2oaiprkJnMmnCZUWiAl0dsozBTRg2fBhGDB+BMSNHYfep0zBjym4477y5ZvrVq1Zj48ZNpmb04AMOwGXf+Rb22XMGRg0biskTJuDQgw7CwTLUSFheuWYNHv3rY9i4eSNcNyxbQV+9/qd84WZj5yVoiIiIiKj8MaT2Oe8fUlvb2tHZ0Yk99tgDkyZOMOehPvnUk/jdbbdhW/N2rUBF4AeolmCZkECpvfIeuP8BpjbzpZdfwnPPv4ABA/ojCAI8/dxzSOcy6OrqQsuOHWjqPwAxCZWJRBxh10X/+n4YLoF30qQJEkiHY/GSJUins0inMli7fp1pyttfAvO40WMwXULxntN3l++siOXLV+C1115DUuYbCtkSbGPoV1WJYbIuM3afjj133x2TJoyTNxfCG28twB/+9Ce89Mor8tU7SFRWoCDBuW+SL9xs7AypRERERFT+rIGNTe9bvSRRZue9nqVU0NZC99y5czFnzhx5EEiB3MLCFStw6mfORNb3JMfYUlA3o/YxFnz5iMJ6uRgJnNdfcw3GjRyJx598GrfecYepIY1JmGxta8W8efNMvi8UfeQCGdIZjBw6DKOGDUfjQD1nNcC6devw5ttvmfnuPWumqbH82zNPya2LmsoqFDI5tHW0IhyJoTKRgC0Bsr6mDgcfeCAuOO9cFGQBX/3ut/HUU8/Kd+KgK9mOGgm+0yZPxYB+/eDqjwmyDm8tWoR169cjle5EoroWvny/tr6PkIUpk6eYUKs/ROjX397VgXcWLcS27c0IWTZikQRSmQycsJ6p2gdplbbZ2AOMlED/8F1/Rki+O1+e0/1k6tSp8H3/7/YdIiIiIqIPC0Nqn/P+IfWJZ5/Dty+9RAJel8k0gYQ//SxrwjFkCgXYEVcCZBKOzCFsOwhLGC14PjL5LOywC4RC8GW8eCxmamFjTtj0rjtl7Hg8/Nrz+MuDD8LLy+cuy9cehA856CD85LLLYEcj+N6Pf4R7H/hLd+++8qWkMylTIxuPx/WLNJfH0arcSCSKgl+AJ69J+uy+XI4fmMvR6PpoT8SeV5DAlTOdN+n0li5R35C+b/nXJzGkEhEREVEPoqV36kM0hyQkSOo1USEBLpXKSXRxJYRGkdYwaNtw5X48EoNrh5EueKbW0iv45rxTx41IgLWRk3CoQTYs4zrm2qghhCS8FvVWXtf7gcxr0ow98cWTT8UlF3wFZ57wSXzulFPx4+99D1/64hxEYpXYuGkbVixbaQJSYFumKbary5HBD4oSKy2EHBch15XXfFnXogmnprm2ZCk9b9ZxJDrL+yrKq/qa60YRk3nDciGzkHlIGAsxeBERERER9QQMqX1MICFQa0S11rGyqsLUSOYksCbTKQl8IXOpGQ2kesKiXu9U4p0JkMVAAuAuOU+fL9W46WuaBvWh1sjprc7v5VdewRNPP4W6+n446uijMefcc3D25z+Lw448Ag0DB+DFl1/Gr667FsuXLzfzCvSSN2b6oqyWLFNudd5mkPXW2lVLQ6ssU8+p1EGe7N6IdRwJzua57tXqXq/ue2ZaIiIiIiIqf2zu2wfZjmMCnTbb3W+ffdGvtg7L1qzEa2/MQywWR8ErIBx2Jax65nP839LOjXQ6/VwzqbTp/bexsVGGBvQfMMCcN6qdLzU3N6NlRws2r9+MDRs3IJKImxrUgnwvpXBKHyA29yUiIiKiHoQhtQ9yXBeBnk+a6pJQGTPnkgaSY7SusbKi0pzXaWpU5fbfoee6uhKAtbYzkHnqeaHaGVImn5HlhBGOhOV7AfL5nAmrETuMQJ7Q5rqZXBa265j7/1MDSh8IhlQiIiIi6kFMS0nqSyxks1ltrIt4RRUi8Sji1VXmEjHVVVUmmGqT4IKXNzWu/y5fwq+n57bKcvQcVg2ndbX1cj+KfM6XQOwj4saQSFSiaMvmJ4OeaRpPJODoeaxBH+3ciIiIiIiIDIbUPkYry+LRaHfPuCEL6VzW9NCb115xg+6ecjVcasj8d2tS9cqzeu7ou4oaWj10dnSZmtNEPI5oNGbup9Np05OvJSFVp8gXJBTLOmlQJSIiIiKivoshtY/Rppx5bd4rYVQDpGOFzGVhbEmv3c1zQ6bnX234qc12/x3aaZEGVb3Vf57ET21S6kYcuRcgm8sgJ4G4aAVwXWdnC9Tujo/0XFTP90yzUyIiIiIi6rsYUomIiIiIiKhsMKQSERERERFR2WBIJSIiIiIiorLBkEpERERERERlo0+EVO0sSK/Haa7f6fuwHds8Z1khDhx6/VDQDqxMZ1aAbdtmX9DrBhMRERERlaO+EVL9wFwOxRTLpYAei0QR0kuwmGc4cOjlgyNh1XVgh7QfZwt530dbZ4e8RkRERERUfvpESLUdLaCHumtR5S1nU2kJrnqpE71CJwcOvXuwvACuZcmWX0TEsfVXG1RXV8prRERERETlp2/UpAYBctksMukMaqurYRchhfYQQlJY58Chtw9WIY9wsYhEOIxYJIJUsstcE5eIiIiIqBxZAxub9FS1f2CZM9h6HmvnuXZ6zuncuXMxZ84cBL6HkO0gmy+gM5lCrKLS1CgFEl6JejsnZKEg27q2JNi+dTOGDxtmmv3qPqLD1KlT4ctru+47REREREQflj4RUovFAEkNp/EE8gUfjhuGY4XgmOaQRL1bVgJooLWqISCfzSISceA6EdnDu4MqQyoRERERlZM+EVJtH8jkcwg5IWQLOcRjcYmnAaxi97hEvZnuE7q9q+3NLWioroUr235RwipDKhERERGVm75Rk+oV4Rd9tHS24vX5r8ONugiFLISdsBmXqDfLe3kZfIQjMaQ7kjjsoEORsCPwbTb3JSIiIqLy0ydCasHz4ElIfWfpQsz50jlIZtOwbHNlDqJeL58LZMcIwXVdjBs5Hr+55lrUJ2pMt2kMqURERERUbvpESPW8PGCHsGTtMpx8xmkouiEtsyOd7jTjEvVmFRW1iEVjSHalMGHEGNzxm1sRC7k8J5WIiIiIylLfCKm5NCw3jIUrF+Lkz3wKntPd/Lc0LlFvls/lTUjNp/OYPnEq/nTTbYjARuCEGVKJiIiIqOz0iQavIT9AId0lYTWPaDiMeCwKK7DkzTscOPT6IR6Jmu0+7DpwNIhKIC2kMzv3DiIiIiKi8tI3QmosgXCiGpFYHJ7vIZ3sgm3LC0WPA4c+MEgozeVgOw4y+QKcSAJuVXX3zkFEREREVGbYdRARERERERGVDYZUIiIiIiIiKhsMqURERERERFQ2GFKJiIiIiIiobDCkEhERERERUdlgSCUiIiIiIqKywZBKREREREREZYMhlYiIiIiIiMoGQyoRERERERGVDYZUIiIiIiIiKhsMqWQEcBCNVcIJRRD4RWTzBaRR2Pnq3wtZltlwYhVxZDwfWRnftiNwnQgc14UnL2Z9D34QIGK73RP9h1ihEPJewSxL7wfFQNbf3/kqERERERH1NAyp1M3zZCgi7kbQr7oOlYk4wiFn54t/ryhBMJfNabJFPB5HxAnDDbnIpdPIZtJy30YsFoVrOzJucedU/xmhkIVoJGqCsyWPXQnJIdvufpGIiIiIiHochlQyhjQNxtwvzsE1P/0ZDjngQBRSGcQlfL4vK4RYPArP91DI5WTcPAYNGIiRQ4ajJlGFvATYoh+gKKlRazb/UyzJv0HBl5AsYToowpegrY9Dsn5ERERERNQzsTRPxuRJk3D0kUdhxpQZ+OhRR2P82PFIdXbtfPXvBUGAgucjl80iEg5jwoSx+NmVV+Gnl1+Bjx11DKoTFabJrQ4FraH9D7EsS5YRQOtQw66LClluUdYN/+HaWyIiIiIi+s9hSCWjtb0NmzZvRmu6DYuXLcXmrZsRicd2vvr3bK1JjcXgaQjN5ZHPZDG0cTAmjJyMIU1NpoZTB9tx4Ib/c+ekSkZF4BUQC0cxfOgwTBo/AfFIdOerRERERETUEzGkkvHqa6/hwou+jDPOPhM3/fZmtLS1Ievld7769/zARy6fR9EvoiIWh2M7iIQi5rV8OmtqUPU5PR/1P1mT6vsBKisqceaZn8EN11+PS793CQYPHmzCMxERERER9UwMqb2A1ljmMwHqqgbAgXZkVIEiLDja8ZEVQkHCXCwaR5DKo6myHhXRCnlezxn1UBmPIuKFUBmNoCPVipXr1yAUi8jUASpsIBGJIZ/LI1FVKc8E8DJZVIYjqKnph2EjhsMOyyZU9JHJ52RjsjFgwEik8z7seAQZ07lSCK4VRsJNoLG2EY11AzGscRhmTJuJL55+Hn7z8+sxcdhouDJeIlIJX5ZRlCHhRNBU2x+DGgYjGq2Bnh0btm15OxY8ryDrEEPccWFZNpyCjaZEE6rDVSjkPbjhqLxneYvas3DRRlHm7dgRmW9GwnVagm0Vok4MowcPQ1Ndf8RiFd3nsRYDeQ+BfG5Fc5+IiIiIiP77rIGNTe97Ap8lRfqeSM9TVFqLN3fuXMyZM0cfmOizeNVinHLmqcgGWQkwEl565lv8BxEJjYMaB+Pzp38emXQGTz77JF5b8CoyHWnNiHC0ya282SnjJuATx50ANxbH7+64Ges2rMXJJ5yE6ZN2R8R14EkwS6aypsOja3/zS7R1NMunFkIml0NRwqGfLmCUBNN9Z+yNww46ArGaGNauXYMNazbhc5/5ounV9/6/3o9Lf/oDZKHNgHOYMGIcDtv3EOwxY080NDQgEomY9dXazgEN/ZEsJHHpZd/D0889i1DIlfVwsd9es3DoIYdi3Jhx6JL3s72tFS++8CQefvxRdOXSppOkhITU8845B/3rGzF55ESMHTYGuWIOjzzzmKT2IuKJCtz3wP144umn4EbCyEqITsjHMFzGm33QYZg6aSoGDR6AttZWbN26HQuXLsGzzz6N5atXIFYRM+fd/ic7ffpvCum3KGFePhiMGjwSD955r9zTnyG695OpU6fCl+9j132HiIiIiOjDwprUXiCbySAScrD3HnviaAl3A+v6IZfOYtYeM3D4wYdi/733RZD3MWrkKBx/7PHYY/J0OIEDFIoYNXw0Zs2YhWmTpuOAGfvjhCOOx1GHHIWIE0cynTdNamPxGPyCj+qaGnzsqI/hM6ecgf2mz8TQfk04cNaB+OTxJyIe1ma/ujlpR0ZFc67qsMahOO2Tp+Cr530Fe07eA07RgZ/1UZ+oRf+Ketz5xz/i/C99CfPfXoBMNgtbQtKpx52Eb134TXzkwMNQGa9Ev5o67LPHXvj82V/AicefhLgbl/mHEJd1Gjd2PGbtuQ8GDxwCL+/BscKYsfte2E9C9FQJ5DXxCgSeXq/VR0GGuor+OPes83DeGV/E7pOmIexEMLChEQfutT/O++wcnPiJk1DfbwAKhd4TUImIiIiIehqG1F7AL/rY3txseuOtSlQiFo3Cjbi49qfX4LLvXoq558zFgIYBiLjdnQq1tDSjo70NmVwWf3n0IXzvB9/HpT+6DPPemK9d98IOirD8ImKxOPKFnOlBV4epE6fiiEOOxIghozBPguU3vvMtXHLZJXj2+adR8AsIrAB5L4t0Jg1tMbvHtOk4cvYRyOcy+P1df8D5X70A35Hxn3j6CUQiDkaPGImNGzeitb0dVjGE3abuJiH6ONTV1+PRJx7DBV//Kr789a/g/ofuRWNdkwnDo0aM1hyMrITam27+DX744x9g3vzXUbSK6Ep24he//AW+/u1v4vs/vAzPv/yiaQpth0KoiCcwY6+9sc/MfZDL5PGnP/wRF3zly/jyNy7CD678Ee554B68uWA+WlubJaD+T60iERERERH9dzGk9gIh18VWCakbN26SQOYgUVmBSFWFOc8zyHjoV12Puqo6DG4aAtdykc4m0ZHtQKQyjNfeeg2PPv4onnzlWWxo2wJfgqYfeDIfCZzZFEK2jVxBO1CyMGHcRDT1H4R0OoN7nvoLnnj1WTz6t8dxr4TIbCEpG5NlLgGj+a5SwvKo4aNQXVGDzkIXnnz5KaxYvwavL5yPx194Ar5dxD6z9sG4CeOR8fKwwhJSp03F0KHDsGH7Rtx5/x/w6juv440lC3D7Pbejs6UTI5qGYv999kdCAqcG4ZdfeAXPvvQMlq9ZBnlbyBWzeOWNl+S9PI+Hn3kS29pb5LNxkM1kkU2lEY5G5P1YJqQnM12yPsvwxltv4p5H7scvb7wWT7/4lNYBS8h35J0QEREREdGHgSG1N5BEZUdC2LB5o4QsYFDTYIwYMhzhRAyt7a2orqrCwIGNqKutl9eLWLNuLTq7kvLtO/KfA8RlFnLjOBIzZV5h15aQasH3PfPYseSxbCqDZb6RiGvO45y36A1YURm/0kJXqhMyOrRjJVt7+g1HzDoVZPpCkEcg9yurq+EkXIQroqiqrzUdJBXSSQR+wQTH6tpqjB4xytRgSkbGuBHjcMwRR+OwQw7FkIFD5PkiPJnflMmTYDs23JgsIx6SaWW58pqecxyJR+EXi+Z8Y10hS16URRvRcBgrVyzHtuYtGDR4EM749Om4/LuX4+ILv4LDDz0MA/v1l+UWzbVW8/kcimzuS0RERET0oWBI7QX8QgHRaARbm7dpz1FokDA6dsgo5OCZa57qJWEGNw5GZWU1gqKF1jYJlaEwvIKEO3msr2ucc0Kh7nMxJeRl83lEYrHua57KP51/TU0VCoU8orGoTN8dYrUpraNNam0JjPJPzxeVF9GZ7jKdEG1va0ZdrAafPOJYzBw3DftNm4HDD5xtLlmzZcsmbN2+xYRODZGDBjTBlkA8fNBwXPjFufjRty7DVd+/Aj+//GeoqKs0TXoTiagJwIEVMh09aci1d65j3Il3d77kuIhJUNaNW9fNlUFvl65cgl/c8Cs8/uITpjOpow46HF885fO45KLv4Ntf+RZm7jET+Zwnr0Uk6EpqJyIiIiKi/zqG1F4gJCFPm+R2dHYiU8iiqrIKI4cOM7WSi5YsRj5fwIRx45CIxuAHRQmGm00YjUSjiLhhOJZe09SS0KdRT24ltBaKRdOMOJfLmZ6BXbmvPcB6et1Teex5RYQj2nzWga/1txpw9Z+vHSd19xA7b97rePjhhxFkMjj8kMNx47XX41c/vRozp+2BtRJgb/r9bVixZDU8CcSFdBZdbe1mupaOHfjrk4/itj/citv/eBtuvu0mXH/7zTLchD//5UF42hxZ3psJ0BKou1Ip8zmkcxmEZX0sCbB5ryCfRd6EbV9WKJnNor2rE0+99Cx++LMf4xs/+DbueOAPeOWt11BVVYU9d98DnzjhBNMDsVfw4P8Hr+9KRERERET/HENqL2CHbBOstuzYjlQmjf4StCaPHY9UPod3Fi1EtpDDxIkTUV9Xb3q73day3XSspAFUaz/9vI+shMRUKm1qMi29vqpEzWS7hD/NapIGOzo6sG3bNlOLqpeRGVDbH17SR6Yzg6qKahN0dV6SMREEvgm1nRIKNSAXwjYeffZvuOraX+Cyn1yOiy/9Di767rfw+LNPw3cCVEuo7ursMjXBGnRbO1vx+BOP45pfXY2rf3k1br39Nvziul/h+t/8Gvfef59ZT71EjJ4v60Qj5vIyIfkMChJIXQmphWwOXs6T1S4i5+XNealFW0KtK2Fext24dhMeefwRXH391fjuD76Lt99+y7zvUSNHIhyOIC+fCztOIiIiIiL6cDCk9gIap/xigO2tLWjv6jLnoI4aMgwbNm3Exs2bTcBsHDgQAyS8+hIad7Q2Ixx1UUjm5bmBmDh+EqZMmIz6yjoJrgXYASTkTsKEceOx2567mdrVUGBj4TvvIJVMoSIexzGHHCbLGIoJo8fikP0OQkhPahW2E5Jgmkc0GsVQef3ggw+CJyF32eqVeG3Bm5i/6G0sX7sKLZ3tpsbTdbrDZV5C9vzFC9HS3orhg4bhiMOOxIzdZ2JI4xA01PbDCUd9FMcefhTCMk0kHDaXrNHaYA3bm7duMcE4EYvjoP0PwPgRozFh1GhMHTcRIb+IjKyzduh04J7749Of+BQ+8pHZGFA/AK4E0wqZJizz0xpcXQdtFuxIqGVIJSIiIiL6cFgDG5uKO+//Hb3WZU9UChcaOubOnYs5c+aY5qnasc7iVYtxypmnIhtkTTNRrfXrDcylX/IeRgwajZ/+4ApMHjkakrjw2PyX8e1vfhPXX3Mtdp88XYKmhR0tLTj804fDicbQ1ZnCxRdchJm7zZCUC4xoGobqaCVcO4SXFrwKuzqMLS2b8LWLv27O9exf1YDLvvk97LfXPtjR3oy1G9egKJ/3oAGD0FDd3zQ7vv+v9+PrP/w2EA6hOlKNKy79EQ7afS9k/O7mt8WQfB0FHx3t7XjlzXn47R9uwcYtm+SLC0nIrMbcz5yLT3704zJeEZs2b8SOth3ynQLj5D1tad6K8y/6Era2NSOVzyJeGUPYDqPGqsDtv7lVQvEwbJL1bZbQqtd27UwnccXPfop3lixGrCKB235+C8aPH4e2jlasXrNSF2k6Sho1bCws18Lv/nAbfnnDNbAiErQlrPeWoBqSbT8kgRywMWrwSDx4573mHGTtGkr3k6lTp5qm3LvuO0REREREHxa7orLykp33/05PLZ7vGixmzpyJGTMkgAktdjdLuNHrYXpFTwJK76lEtiV8VkvYCrwcpu0+BUOHDUfeDnDP3b9HswS7yqo4pu4+DdliChu3r8e9Dz6AfDaH6spKHHzIgdh3+kw01NcjEgkjCAUoWD76DxyA/rX9kCrm8MhfH0U6k0J7qgOvvPUqDjjiQNRW1aKx/yC0JTtw9733oiuXQm1TNZ5+5Tm8vXgRPElA2oPw62++iRHDxyDvB+Y8Vl+G6po69Kupx5RxkzFp8m547sVXkcrm4YQdLF26GDtat2PQsEEYKe9jUGMTBsi6rNixFrf+6Xa8ufBtFLyCqU21ihayuSyy8r63tmxG05ABGDloFOr7NZjehNdvWY9lq1dg89bNyGZTWLVitQn0Y8aPwcghI9E0cBBq6+qwtnMDrrv5evzpnj+hq6vLdLSkyVh7Qu4NdI/QWmuNq3XyvZ1ywkly739+hrr++utNMGXtMRERERGVA9ak9gJWUDRNcDvaOyWQVphaMd/zEY1EzXmhiUTCNGlNJpPdn48dgh8EEtyyqJSgqk8Vsr48/T492oaL5txVx3agPfpmMlnU1tRg0IChpsff1hatlVyNuCw/noggmU6iIPN2nQhGDx2JqngFlq5bJsvKmNkFsq719XXYb+Z+uPRL30YaHs6/+AK8Ou81hCMu0hJsdb0HDhyI6qpqs0ydZt2WtejoaDcdNWlPwNoxkh/45nFB3kdEbocPHmrCuiUhU89T3dHagh0tO2R9fJl3FIWUhzpZdr0E02gsZi6Vky/kTI1wJpM224P2VuxLoNaAKhm4V2BNKhERERH1JDwntRfQSJGSoBariKMgYaOo523GY9jR1QE7JsGxkMX29lYETggheawZJCTjVEh41fNHNZS5MQmoYYkt7xn09Vg0ZmosNaxqqE2mU1i9cS3eWvwONmzfjHhNJXzJQJm8hH8JOnr+54C6elw451xc+Z1Lsc/eM1El02mPuRmZNpvJyHz0XFAXnqxb1HUlaEvglGBdVVOFUMTBxm2bsXjVMjMsWb3cdHik57lqaE3L9BpcHUemk/deUVEpSV2vE7sJyyUwL1u1AivltqWtFbbMW9dflx2vrUR7qhNL1qzEO8sW4a2lC825snopHf08irIOBRlPKx1Zq0hERERE9OFgSO0FXAl7WhOmAcs0f81l0NrWhpr6GlODbDsOovE4PAmPqUzK1B4qE8gkjOUlAGqNa1Jee++gPd2mUsl3a2P1fjabQyaXRjEUmNtkJinhOG+uoZpOZeDnPdNbb0dHJxr698eV37gKP/7aj3HF16/ANd//JX5zxW/wjTnfQEe6E/c9+ACWLluCkG3BlkGbFWfyEkKtQNa3gLzMV+4hlZRlyPpqmNSeg7XGU8Nwd02rr6lbxiqa817bkp3mHNiidsok02jA1R6Qu1Id8C2tVbVhSWD3gry8lpH3lDKX3dF0GpL5ak/BpnqZiIiIiIj+6xhSewG9FmigmcoOwbIdCY+WqVVNd6UQSPgyl5UJiuaSLLFwFNFoTPKYhrvAhL1oJGYG7YTovYM2iXXdsAmmeo1Urb3UsKqNRV3bRiIehaOBTpajtZWRWBiJ6krsaG/Hr2+9Gb+96/dIp1OYOnUKDj/iMBx++KEYNnwolq9Zgd/ddSfu+ss92LRjq7lETF5CoxUqynJtuLJe8hRCss4hmX9I35vcahDWXn2Vvjdt1qw1vBpQLRknkC3ajcXgRMKmuW5gmq5acGSeYe25V+ahn4PW3OqtLdOE3YiZt36E+pkUChJw5ZaIiIiIiP77eE5qL6C1f1pbqpdy0Uuo6NvyfA+2pDQNoRoutWZQg5oGMD2XU6916tguMlk9F7MoYTQmU3V/druy3ZCpndXPVWsxtWYyEY8hl80gn8kjLKFUl6nhLh6JyrgFc31WV5sIp7OoiMbhZTsQTyTMeasacDs7OtDZlpQwmUDGzyEcjyCQsFn08rD1dxMNp/qezHekl4YpyPtzTQ2qNj/W703fi74PvdUaYh3fk8c6vgZ2zyvACTmolPWQlUM6lTaXq9Hp9b1o8DbjyjSm5lSDrLwPUzOrnTxJANZtpjfgOalERERE1JOwJrUXMLV/Er6UBlKt0bQkZ2jI0k6DtGZVaxX1vta26nmaGuyyhZwJ6yENuEFBhvw/DBpQlQYX01GRzMtco1RDXUzCpdzmJWB6QRGdGQmugWeufQoJnNGwBkeZPhxBuuBhR0cnNjfvQDJfQCgRgR/yEHZlXHlNa0xtCc3yP9kqbTPfgoZFma92jqTL14CpNEvpuijTTFde01rVkLxnDV+uvNmYHYYroTqby8n7lOVpk2h9XcJpSAKvr9PoDMyyuj8r7YxJa6XzEvB7S0AlIiIiIuppGFKJiIiIiIiobDCkEhERERERUdlgSCUiIiIiIqKywZBKREREREREZYMhlYiIiIiIiMoGQyoRERERERGVDYZUIiIiIiIiKhsMqURERERERFQ2GFKJiIiIiIiobDCkEhERERERUdmwBjY2FXfe/zsW3vfpsmdZlrktFouYO3cu5syZAwQBivL0y6+9gG9f+l2ksinkvDx8KzDjEvVmQSFA2HFhFUM4cN8D8a2vfxv1NXWyk3TvJ1OnToXv+3+379CHIxQKme9Bvw+9H8ixKxwOw/M8c79EX9Pns9mseazT2LZtxtl1vP8Nx3HM/HUepe9enyvRdeE2QX0Bj4E9y7/6vvR4qK/rkEgk0NnZaZ7/d4+PpWX8M6Vlc9uh3krLG6q072jZI5/Pm/v/aX0ipBYDz7wbvxggnc0gHovDtuQAZsYk6t0yvmdui/Ivl86gurIahUIeETds9hOG1PKifxBKAVW/E/0+tMClt/qcvla6X/quSkFTlab9d+g0uqzSdLsuQ+lr0WjU/GH6d+dNVC5Kx7hd6fZc2v51m9dh132Bykvpxzj9nkrHKX1O7+vfMR30sRakC4XCu49Lt6Xj5P/W+20z+pwuT+m6lLYhpetD1BO937auZQvdj3S71n1Kx9HH/63jY98IqRJOAxlCEky9oIhsJoeKeAXbOlOfIH+a4UlQdZ0QsvmMhFN3537S/YeeIbV86Hegfwhyudy7BbDS91FTU4ORI0diyJAhiEQi5vnXX38d69atM9P9X/9ovPd71+WW5qXrUgrApT9URL2Jbv+lfUD9twpf9H9TCoP6nbnyt6z0w5k+P3ToUDP069cPlZWV2LJlC5YsWYINGzaYaUph9d+x67bxz/C4SD3dP9vOdZ/R7btURtRBywSsSf0/Kn3Q+qGWQmpOCuaOfNAhKwTf8+XAFkZRxtPgStTbdbcZ0BBTRCaThhN2dQeBKwFE9xOG1PJSKoSVfvXv378/TjrpJEyePBkjRozAwIED3y1sPfbYY7jqqquwbds2M82uNar/Ll1uadk6D90edDlKl6XbRWkbIeotdJsuBVPdf/Sxbv88DpafXf9G6XelxyU9Ru22226YNWsW9ttvP3OMjMViZrzm5mbcfffduOWWW0yhWqff9fv+3ygt8/2Ujo+6PqWBqDfRbbz0I5AOus/p4//Wtt4nQqofSAEcAZYvW4w//P42KXHlkMqmYbkscFHv5/pFhCMxpDN5jBg5Dqd+6gz5I14hITVq9hOG1PKh30EpKOp3MmzYMJx11lk44ogjTM2Avq7Pa4FLC9JtbW34/Oc/b2oK9A/H/+VcEf0jpN+5FvpKtaVaa6u1ERMnTsT48eNNMNb14rZBPZVuu+8XTp5++mmz/2zatAktLS07n6VyVDo+lgrNeizUcHr22Wdj0qRJ5ril42hLFH1NW5zce++9+NGPfvTu+fv/7g95pb+L76Xz1mPjtGnTTDCuqqriMZJ6tPfbdvXYuHTpUrzzzjvYuHGj2R9Krb3+G/pESM0XPDl4FLFk0XycfeZJqEy4SHXpSfSsSaXeL+0XUBmJojPrY5+9DsTPr7kB8UQ/s4/owJBaXvR70O9AQ+LnPvc5nHbaaSZI6nekIVILWKVg+cQTT5gCWDqdNgU3nfbfKYCpUqFPC296XwteJ554Io4+5mhTELPknyrNv7SdEPUkpePde4VCtvmx5+GHH8Jf/vIXLF++3BTA3jtuab+kD5d+D3qc0qG6uhrf+973MHv27HePfclk0rymTYE7Ojpw5513mprU0g8U/+73WFpe6fin5+ZrIL7gggswatQosw6Kx0fq6d5vvyjtL9p0/tFHH8X999+PNWvWmPLIrkrjfdD6REj1ggKcUBjLl87DaacejqIWyOSxH/zfmsUR9ShWEb7sD0WEMHLkFNxzz5PypCOPu5twMqSWj1LhSgtbxxxzDC655BLznP5yqb9ozps3D88884wpfOk48+fP3znl3/t3vkNdnn7/dXV1plmxhuLqmmoE+k9PiQhkXvJfUPAQj1ShGNI/TkUEO8tixaItWxa3GSpv/yw66K7Svb8UsW3rVvzxT3/EgxJWt2zdYo6JpYBSamlAHz79XrRJ7znnnGNqUbWWVI+Rev7pK6+8ggULFiCVSpkefVeuXGl+dCj90Pfv1qTq+HqMzGQyGDduHM4880wcecSRCLsRU5YsFdYt2U4cx37fI6EcLXfeIypfpTLgrvTYqMc93X90ePvtt3HXXXfhySefRHt7u5lGn1e6L3zQ5Uf2HUREVCa0MKzNdbVgpOdZ6a3+AdBC1p/+9CdTa/q3v/0Nr7322j8NqP8u/QPU0NCAM844A5/+9KdRW1uLQl7WxY/DtSrh2gmEnTji0QQ8KwSvGEJBil2erGtBkqon5S89nYIDh3IeZIt+38GyJEIUu394aWwaiNPPOB1zzz8P9fX1psBV6jysVFCjD5f+aKDfy6BBg8zpCHpfW3wsW7YM1113HX71q1+ZAvTLL79sQqseOzVklgrg/25LEz3NQgPqhAkTTO3p4YcfDtf06+AjZFsSVm0zOI4Wp/9xu+ve9oh6Jt1vdP/R/UxDqPaN8Z3vfAcf//jHzaWd9HV9TfereDy+c6oPDmtSiXo71qT2OHoO6I033ojRo0eb70MDqhbAduzYYZqbKS00l37Ff69/5zvU5moaUD/1qU+ZPzpaqNNO5lwpkG/ZvAGbNq5CqqtdtpcCEq6eFyvztzzZevSvhCMPwsjtvMwRUTl7v91izLgxGCD7W9iV/UpG0OOkZtZf3/Rr3H777aY2TkNq6cejfzfk0AdH/0aVzofTsKhNffVcUD3e/eQnPzE1PBoo9XsqXRtVf1jQH/90HJ1e7/87NABr53VantRlmh8qilqGtNHR0YoWOSZv277NdNJU+kHjvQoB64OovJXKf++lLaz0igJ6WwqregzUc/i1TPL444+bY2PptQ+6tQlDKlFvx5Dao+j3oJdR0AKXBlIt9Fx88cXmfBAtBOkfCB30+Q8ipB5yyCH46le/iuHDh5vCn863s3Ur5r34MF59+SXMn/8qOtpbZL2KqHHjEmD1r4MW9LSOICy3YWxIcpuh8maOb+9TDhs8YihOOOET+Oixx0mwqZadp/uamxs3b8QPfvAD07y+1ORX58Hj44dLm/lqED3llFPMcVFDox4PtYO5xYsXm/ulv2W7Hh/1O9Tn/9kx85/R5WmTYp2/Blb9/u2QhW2b1uCB+x/EE08+gW3btiOfy8LTv6M7p9tVV47bDJW/0n6zK21RMmXKFHzsYx8zvWdrbWnphx5t+nvZZZeZ8/h1P9HzwT9o/HmHiKiMaCFIf43UXya7urrMHw49B1X/MGiI1EKYvqYFpg/CCSecgMbGxndrivRcrrt+fxtu/uVVmPf8kwjk8cBEFYbXD4S2aPOLnhm0ua/+rdLBKkoBngOHch70itFSBnvvsHrVclz9i5/hlt/ejHQ6BUsCiOZQbc2gTdq0x9hSoez9CnH037XrjwSlgKrBU68XXWqOXQqk+ljv63GtFFD/3e9QT384+OCDTSFctwOd39o1q3Dtr67B3Xf9AUtXLEMu02Wa/Nqh4vtuezoNBw7lPOh+ofvWewc971R/qPv5z3+OBx54wJRJdL/SQTsQO/roo02rhVKHZR80hlQiojJTCoxak1oqXCn9o1G61R59d/1jsuvwfkp/iEqFNL3V80tmzJgBW0JvOpNGpnMH7rvtWjz94J/gZfOI2C5ibkQKZxbaOlPwTBsbR8Jq3Fxruiil/BT7kqEeQLKCuU76e4f+tf2RS2Vx/5/vxm0SVFNd2ilZ3uxzWoPwkY98xEyvPwzRh09/wCsdw/SYpt+LFpI1rJZqUfW700BZui0F2dI0/44DDtzfNPfVxoWSQdGyYyuuv+6XePLxJ9Da3oGoFNZdOU7msjkEfvePGe+l68CBQzkPWm4olQ92HfTHcN1ntm7dittuu81cUaC0P2kZZe+998aYMWPeDa4fNIZUIqIyo38w9ICvv96/H/0j8c/C6D/zfuPPnDlTCngSOOW+67ho2b4ZC155CoVsO6yQbRr1eoEPTzsJkb8WxZDXXViz9LwsuW/5yEhB35I/JRw49MShkPHghBx0tbfjpRefQ/P2rXB2Fri0aZtekklpGNLCHH24tHC8ayFaC8pKmwCXAmyp0P1+SmH1f2vq1CkmBMvSzBazduUKvPLS8zKfIlw5DoZgy3JlnkV93X53u9p1IOoJdJ9576Atq/RYqEFVWyvoFQa0N23dz5Seq6o/4ujrH/T5qIp7DxFRH7DrHx6lf3j0fGR5RgpSgOM62Lx5E3ZsbzbnnRL1Bcl0ujta7CyErVq9eucrMC0ZtLlnqfatVDCjvmPCxPGyHXT/WOj5Hua/OR/JZMo8JuoL9PinrbvUokWL0Nraao6FOmjHZfojzn8KQyoRUR9QKmBrONVBH2tnSRpatTdfrZHYsnkrdnR0mNBK1BfkAm0lEDL7RGdXEhvWr5d9o/s1rT3VmgLdN7R2TsehvmXE8JFme9Cf9gLZVt5a8BYKrFGnPkLLCVpGKDXv1eu1a6/ZpZCqzYH1vP1SC4cPGkMqEVEfoYVxLWzrrf7h0T8wtu0gp7+Syh+YTDZjCmD2f+CPDVE50m3dlv1BC2DaC3pGm7Lt/JlGC11aS6DhVGsS/hOFMCpv4bBe8ktTalG2ERfbm7fz+Eh9ip5epPQYqc3q9Xio5YdSWUJPiyi10PqgMaQSEfUBpsZ0Zzgt3eofHy2QZ821US04Elhdea1USCfq7WKug5AUukodI4W0d1/Z/LVmQPcRLZgpLZAxpPY9Wnvq+967l+fyCh5i0Q+mZ3WicqfHwFIY1UHpflAqP6hSCxN97oPGkNoL6N9N/cOqTfbevS8DEVGJ/oHRPyp6qwWud2tU5V9tVRVs/fvi5VERseGDXfZS35APcsgVUkgntafW7h9vAkmppXCq56VqRyHqP9ExCJU37RxJW5s4kTACU7aSAnmBzX0/bBqM9Lrhpf1UlX5E0tvS/V1fp3+fKSPsDJ96RQH9XPWxPq+fvz7WcoU+V/rMP0gMqb1AIBuHH+gfVu3RDnI/gPdPukInIiIiIurJSp35aGDV0FS6Ld3XoVTbRz0TQ2ovYM6p2fkDRndPnXqODWtSiYiIiKh3KdXuaQjVpvnaMqgUSPWx3teaPQ2s1HPx2+sFdFfVaGpqVGXQf0REREREvVGpua8O2gmg3pZqUUvNUDW8Us/FkNoLaDjVX5XCrouE7qiyg+pzRERERES9iYbRUu2pXgJFL6em1zTWWlQdNKiq/8R5kvTfw5Daw+gOV0RgBqVRNGTZqKtvwOjRYzFm7ESMHDEWjQMGo662Xsbv/or/We1qdy1s9+v/ahzVvezS+N3L3/UAoHd3nc+7LY533u7a7ELH2XXa0mu7roO+Xhqne9k6jXn4rl3H2XVa9d7Hu85rV+8dT73fvErvmYj6Hj0idB8Bu+93HxN2Hiv0kCJD93Olf92PS8eu7nG652D6D5Db0jRKe1fuHrP7mdKgSstVu95XpSm6pw3MrQ6B/NP///3r3f+IiMrNe8tm6p+W27TloITRhoYGfO1rX8P999+P7373u2hqajKvl8Znc9+ejd9eD1MIivC0gBPqvg3ZERw8+3j85Oe347Y7/oZbbnkIf/rT87j7D6/ha1//IcKRKoQcF7broqi9/9phmYteYkKvCxdG2InAlXmEQo7M20fIdeDLzl2Ux5Y878q02geTEwoj4sbgyq2OX9RxbMh8w1IMCsl0UXkcQU5GDkdjsB1HCmJagArgRiKyrkXY4Sg8zXnaFEMOHCEZx5NxvEAOJrocGduyZc1cW5Zvm+f9orWzRz2YpszhsCxbntOimgZwXWdfC2KyPpZM40SicMOujOfKust8zKuejC5DSNdP1kiDu8xTXwk5IXlf8vnIci1Li2/ezkE+H3lPjixPx9UCn/4jor5HCzp6rLHlONVd6CmaFitFOWboUcHTX/TleKyHMsvWjjuKMn5ejlJ6AXRL7hfgyrHVCcsgxze95ElQNEcumVbmodPK8U3npY1givI4qscxGVen0/FN+LQkhMq8LcuXMeXYVyzIs74c7yw5FssgxzFzvJNxijJ/nd4OyXFOpgtHZd3lln/0iahcaJjUY6relgalz+36fKkn2dJzGlJ16NevH8aPH2+m2X333d8dpzQe9Wz8e9WD6P5WVVmJiOysdsg1gW/mzH3wla98C1Om7IXt25vxwIMP4IUXnkJzy3rMf/MVFLy0FGTyWhRC3s9LaJUCj1NExi8gmUsjW0gjVUjJvApSSAqZ3tI8eS3vZeW5lBR/PFmWL+On0Z7pQrI0voTRXN5HOpuS+RaQySWRiFdh//2OxEePPRH1/QYiK+NIeQ3pTMoUpHw/K4U0KbbJemihLJvPyK2HeIWLQAp0WmjL5j2ZZ14KdhqApSCol66TcfJeQcKkhHQvg7wUzJywBtO8FBqlSOb7Zh2yhYIsK4euTBZdWZm3LDMvBUDtLd6RMI2QLN/25XOUOKyFSflAC56PrlwWaZk2qyfbSwHRkoCun0dK3lNK3p/OV58LR+LdXwQR9SlaGIpIUOzMZk3v6Xk5tqXzBXPs0R/cHMc2oVWLRBk5hmbkmKE/qukxJpXLISoHtFw+i450J7yCHocCuBJeLTmWxczx3Dbj64+QOo3Oqz3TaY7D6XxKjrlpOBEpdMnxVAOxrk9ebs0Pd7aD9rQe87I7ny+aUBuL6Y+CvkzryXG7gNZkEmntZESOxkREH7ZSkNRmu6XeeEsBU58rDe/tpTeRSLw7bVKOa8uXL8eOHTvw+OOPY9u2bWYaVZon9VwMqT2IlD9kh+ySQCiBTmssnTCaGgejvq4OGzeuxLXXX4kf/Pgr+PLFZ+BTnzkcd//5TilQ5ZAvdP/q7srOms1k9Kd+VEQjUnCSg4Hsv4moi0gkjJBVRDQSkfl2bxa6n/u+Xi8uIsFYBgm3MSkoVcQjWo+JuMwjIskxLGEyHnNx+JEfw6WXXoXzz/8qZszYV8aQwpsEO1enl/kXvDx8CZt6cPF9KYzJ61pc8r2cCbGu7SIRq4QjK5Uv5ExY9jW8asFNptG3oeE4KkFXjk3msTZ11lrTiITQqOuai2xH3JDMS39pC5kCnGNJATEnMV0PcuaHNSnEyQx0+fr/WNiRaXUIy/gReVlrH/QVyHxCqJIDoiWpNpXO6cRE1Mdo2NNWJa4ch/QYGZVQGpZjgy2Pi/KaHljkMGWOVa4cv2ISShN6PIrF5VjTHXK1nrRKjqNh/QVOxtNe2aORqClQ6TFRj18JrS2QueU8X447cRmtO1BGZHkFOXbqYw2wjhzXwjJjR4+lsvzaimpUxasktHYf1wpycMxm9Zqetsw3grrKasTDUcTcqByvtTUNEdGHS0OmHhuVls900Ca8So+JGjC1MyQdT5/XW31er9fpyvFSO0vasGEDvvOd7+DjH/84rrzySnMtY32+NL/SZWqoZ2JI7UF0B43FY6ZgUpAdtigBMhGvge1EJXfmsWXrWgl3KSnMJJHKtEqhSHd+KQzpr+9eEXnJaLW1AzB82BRMmjwLg4dNkANAJZIZLdBo0zQgk80iV7BQXVGDAQ2DMH7cHhg9djpGjZqCQUPGytwi6Erl4UgQ1MJVJhtIcK1GZaJBDhoVsmwgJc9ZdgLVlQMQjdZKaKyU+Xvyujbh1YsrxyXg1qCudqAJ3tmcLwcS/cVMDkbFKCoSdVII09CsIVkKaNGEPDdQgnI9EpUNEtIlMMo6a83tiGHTMHnCnqiX95UtBPJ8StY/kPeqTX0jGDp8HPbYY3/sOeNA1FT1l9CZQDZvyTy0mZw2tguQluVn5DjmyPoPGjwG03bbB7tN2weDB42SA2LcvN+ChOrqigrzPRBR32Jb+oOeDHIMTmYyEgyLcnzsj3g8IYFSW3N4CORgpU2Cq6oqTRO0jBSQ2pNdcGQaW0KlH0igtRwMGDQEYyZMxrBRY1Hbb4C8JoUuKUh15rKmZtaVQpleUqwrlZPjqIvBQ4Zj2vQ9MW7CFJl3jRzbPCTz8prMNyzBOSfTtCdT5pQKV4JobV29qZGVIh2qauswbPhIjBwz1pz20SXLybHQRkQfIg2ayvx4J4M+1ua80WjUBMxSDaoe4zRo6vN1dXVmXH2+dDtgwAAzfkaOyS0tLWY8nZdOo+Po9Po69VzWwMam7p8x3kPPf+mJdKNUuoHOnTsXc+bMMU039ZzK5Uvn4bRTD0dRNm597Af/03ygpwis7u9lzOjxqKkZgCMOOw5HHPlxrFi9CvfecwdWrlyIyngEq1etwqbmLfI+u2sNQ1JI2n+/2Tjh4ydjzz0Plm/XR0dnK9asXYH77vszXnnlSRTyKWQl/FVVNeCUk0/HnnvMxO577CeFopxpotbW3oxXX3sJjz32EN544xkJfDFEY1X43FlzcOjsIxCuqENFdS1cKdA1N29FOtlpahpWLF+ISy/7hhTQskhKYeq0kz+LT3/qbORyaXztG3OxTF63QxEcsN/h+Pa3fijBtxNX/vR7eOaZxySYxvHJT35Kxv+SBMW8HIi24edXX6mfBD7zmTMxc/pBsEI+7rnv9/jt765De2ezvDcXkyZNx8c++nF5r3ujvk4KgiEHr770PN5cMA9/fewv2Lh1nXw28v3L+tXUNOLQQ4/EIYd8BKNHjZfwW4lQMYSWHdvw9jvzcf8Dd+H1eS/JfD1T4OxxZJvpvjRRCCNHTsE99zwpTzpmG9D9ZOrUqe/+Sqn0Ofpw1dfX47nnnjP39Y/uWWedhZdfftk8/r/S+egf9tKtft8PP/wwho8YbmrfQsUAf7j5Gvz5tl/K/bzsYc7OKf9HEMqjWHDMuexZr0s2oxhaulwJRb37906twSzIZ+aGLMSiMTnezcZnzjwTrhSKfv7zn+GJJ58w4fKoo47Ceeedh/bWFlx22aVYsniJTK3niRZx8OzDcPBHDjfnTzU2NZpjUjaXwctPPYVnn30Wz8mgTXZjrmua644YOx4nnnQSJk2cgAYJxFqIe0eOX0889iielGma29plXA2/Aa6/6bcYNnSofK9FLFiwAFdddZUc0w7FKaeegurqajmuZ/G73/0OjzzyCAqyjKCgtaykfMsz35A2CvRkOz77C+fiC3O+JN9Y9z6ybt06872WCr08Pn749Bh28skn41vf+pa5X/o7puFEa9709oP6rpYtXmz6sdD9TFtYnfDRo7Bl/VrTcuJ/qyPPbWZX+t2UBi176DHq9NNPN9+pHr9+9atfYcmSJeb1yy67DFOmTDG1p1/+8pexfft2U8Oqxzc91mow1e9Zw2hXVxcuuOACrJLybynMKu6z/3fvV27QTqrGjh27cwzguuuuwy9/+Uvz2gf9WbMmtYfR5q5NA4fh6xdfgp9cdR0OmX0ktIOfyVN2x1cv/h5u+PUduOxHV2PmPgchYrtywLbM+VOHHvpxXHDhJdhr5oFYv34Fnn76MbS3tWCvPffH2Z+Zi3FjdkcqnZUgqc1xLfRvGIBx40dj6bI3sWjhG9iydSMaG4dh9uzjceaZX0ZNdR3yElx9L2OmyRcyaGvdgZBvSyYKo3VHMwqFLvP6q68+hUD+aGRk/rIFw3Yj6N84Gk1Dx0tQ9UxzOc/Lm3NRqyVQ1vcfhIqKWlPrquuyRgJ4a8tW06x5zNgpEiaPwblzLsRB+x2NRKICsVgtwm5CDmIpCdMe6vo14YRPnIbDj/gYUskcXn7pVbz26huYsc8snHzqWTju+FNk/SWISibTzD9jzxk48/QvYp+9DkNXWx7PS2Fxwdvz9CxeHHDgvhg5YhiiEW2G1wMDKhH9P3PsEGJhrQn1kMomEUkkMHTkWAxoGixhxjI1n75fQCQaR/2AoRg2ahy6klnzh92XY8ywYSNw5tmfx8GHfAQViSq88fo8vPn6a9i0di0OO+IoTJo8GZYTQiIWRk6OlbV1/XD++RfgmGOOhSvHy1dffgnzZfwJE6fg8+fOxbHHnWBqUT2duWiT462em9UwoAkjZdmfOu3TOONTp6NO5lNT01+GWtNnQUdnl6nxJSL6sGmgKQVVbX2itaWDBg0yTXT1eQ2j2qx36NChGDduHNrb298NTPq6PtYaVP1hQi8/M2TIEHO/NF+dXselnovfXg8i+xxqKyqQy2axdOkyrFyxEs07WmBr4QkFrFy1DEuWLsSyFQulMNIMPV/UlwJPv/p6HHnkcVJQGot58+fjO5d8Cd+95EL87OeX4Z2Fr5ud/7DZR0lBTHv5hez4zfjt736Ds84+GZ8+4zh8Yc6pOOuzJ+Mvj/wZldVVmDBpCkaPHoNw2EF7Vyd+c+O1OO1TJ+Evf7nPnA+QTqZw803XY+75n8WnP/0JvP768xJEPXOelHb8ob9ASlSF9jScl1CpP7xojat2nGRGkNcCKfhpL74hebxu7RpcffUVaN6+1fQafNTRx2D82HG4+66b8ae7bzWfzfbt29CR7JJ7IXzyhM9I4e4U7GhpxnU3/BTf/8FcXPbjOXj0r49gYOMQee14DB402Bz8wm4cB+x7qDweia1bNuGmW67G1751Fi75/kW49LJv4de/+SVee/0lU5OsTfmIqO/R8z6760O1czXtVVeOYZYNX8OpKTTJHXNc09YucgQLx5FMZWQaDalFE1LHj59gzkO9/fbb8KXz5+K8c8/BlZdfjp/97Go8/+JL6Eh1mHNftWD1seOOxx577mGOa7/+9Q247PuX4qc/uRLz3ngDdQ1NOFLC68BBTeZcfa2p/clVl+P3d9yJbC6HYSNG4jOnf8acu3rNL36OLVvW6Vphmxw/NUjreyEi+rCVat00lJbCpPlhb2fLLr1fqh3XoRRe9TntJOkb3/gGzj33XNx6663vzkunVaWgqqGWeq7urYJ6BN0H05kktuzYimuv+xm++vW5ePyJh2THTUphZj0uv+K7OP/8s/GNr1+IV16WYCiFKe2tdrdpe2D69D1Np0svvvgcVq1eawo3S5YuwVsL5st4AfacsafcajffrvarhLUb1mDtuhWyVMv0pKa/0r/99tvIZpOy4wdywAjLgcJHNGLLcxl0JtuRSXfIawWEozaS6XZsa94ohaYu09taSoK1qbmUg0b3ubLvT1/tvpWRhZ4j29nVhTWrV5rpbFuDZRgPPfwArr3+ajQ3b5F1a5XPpQNOKEBDv/7YZ58DTY3qG/PewBtvSOEvuQM7WrfhDinENTfvQGPTYAwbPloOZrKMwJHCW4uuGBIVEYwcNRhjx40wy53/xnzcetttWC7Lth0LbuifrzcR0bvkeKKHsLwUmOJ6OSzXRS6XQaGQx+SJE+V4PB1VVdV4Y8FbuOX22/H666/L8av7cjM11bU49tiPmWP0G/PmmeNQKpXGuvXr8cSTT2LjhvVynOuHYUOHmb4J9Ie89rZ2tLS2SKGuu5fh5uZmXHnFFXj26aexSabbsX07QvIHxJFx9XUiop5Mw+fmzZtNr77azJe1pr0Tv9EexnWjqE6EJfx1YMu2TRJQ04iEK1BXW4/Az8DLd6Kjo7sWNZlNmZ5uR4wYjXi0AsWgKAFsDM75/Ffx1Qu+h9NO+TzGjtlNprMxbNho1NbUIZXWprtFjJIQd/rpZ+HO2x/E726+Bw8/9Azmnv91mV+tBEDX1LoGEvJ8CapB4MEvevD8HEK2ngMbmPNNtQAFCcqZXPelETRcaoGquLOJ2vvZ+WOYKeApbfqWSaclQMZM8NRC2IoVK3Db7TejuW27CekXXXQennzqEVMJ27+hCTW1lTJeEaNHT8Bnz/oKvnLej/CFs76NT3zyeCTiUVkH29Sk5iXB6zULl69cgPXrlkmhsR/O/PTF+Pnl9+GS716F88/7MqZNm256B07l8qZXYyKi/w3tDVjpj3mLFr6DxQsXyvGnAod95FBcffXVuPG3v8N11/8ae0lgTcTjpkdfDbN19XXmgvRB4Jvma6eeeiou+upF+MLnPmeuA1hdU4WKykoJqg3Qy9FoLa4W0EwP7XJfW7O8IcH2iaefkrC6Hb+65mr85MrLsWrFMuh5ltonAxFRT1aqIdUa1rgcP7PZrBmod2FI7WFyOd05tSdaB5KvJMuFzHmfeQmkhVwGYW36K0Ev2ZUx50lpoUVrPbU3yorKBPbeZyZOOOFEHHX0sVL4OQ0TJ45HOt1lfnnXyxpoDebeMw6QkHYF5nz+G+YSN+3tnVi1chW2bNkk88lLQUqvp9rd6ZQpHEXDiDjdvbNpeNW0qL1ZKu0AxNQQmHl3H1i05vaf6W6Kps00ujdNrX1VyVQX0pmMTKudMjVje/Nm1FWHsWHDSjz78lPYtGUdEgm9nIMGZwmztishdRyOOfrjOO64U3DqyZ/FEUfMRkdXM9ratsj6p2TeEqCznXj2uUdw+RXfw6OPPoQdO1ol8A/CgfsfgbPOPAdzz7sYhx16pARVV5b9jx3JEBG9165NzLRSddOWrbjhumtx2y2/xqpVK00vvoOaBmOPGXvhBz+4DB877jjEwi7SqbQ5jkqSlJAbxoQJE3GohNqPHvtRfOpTn8Ls2bPN6R47djTLYVZbd2hnFkWk5Q+DHve1l0v9QfD1ea+ZZUflj8S8txbg6eeeNT8WRhw9oLJFCBH1bKVmv3qs1RpU7UBJB+pdGFJ7EA2kYTtmLtniSUjU3sw0DIbgoirRYAKmntuptZUhy0FFRUTCmG/OBY2G41KwacEjj/wFF37ls5hz3qfwpS+fiXPP/xQuuOgsfPs7X0FrWysqE9U46IDDsPv0/eHlHFz89XPw9W+eg3PO/zRu+u3PpDC0RbaaJMJuBAUth8mBopDXS7ToNfwsWV7eXBrHtiWwSjgtFLSJrm0Kanrulg6la/+9n9L5BNqLnhamNNzqpR+i0QhqqmvMZ5BKJ2W5AbqSGXOBe9f2pWCnYxclxOdhFWMSVIGXX34R3/7ul3Dulz6Bcy/4KL580Tn4ykXn45LLvo2/PvYQIhLotXmzXp7n2Rf+hh9f8VV84dyP4tuXfgZPPvmkzMPGHrvvjZNO/BSGNA2X9/nPwzURUYkevrRG05OwWVFRaW7nz38DN914I77ylS+bXirv/vM95oe3wUOH4/DDD8fIkaOQleOn1qBqiM3lc3j+uefxve99D+eedy6+dMGFpjfTOXPOwXe+/R089/zzJm5qs2C9xrUe+805W/Kc/qhYEY/JvSIqXPlbIMfPuOn8rfuSD0REPZ0GVaXHWj2u7frjIPUODKk9iRRE8tDr4RVguUVz3mRYwqBtR01HHm44hkwmLY+1m+g0kqmc6aRo0eK3sH7zYlTX1iDwqrFg/qtYvngxFrzxBpYtWYTF78zD/AVPyfQ+YhJSJ+42CV7IQ2sqgxdfeRIt7ZugM6qM1CFcrITjSSLceSkcPUZkJTDHInFJmHKwyGZkHdrQ1DgMBRnPjeplFkLIeGmEIlnT1CwRScAuesgnuzBq1Hjkfe3R0sGokeNh+bYUuGz4BT1BXps3W1JYy5prEyZTbbLBSgj2MvIeJVzK8aiQkbAuIbYogbKjo4Cuzi1o2bHFXFC/qiqBdRvW4M0F87F20yrMf30B1q5dgueefhQ7trdJiI6jkCugJhbHkAEN6GjfgR2bN+L1F5/DRd/4LDZtXyGfcwTDRkyUdQTyAa8vSNQXaaduoXAEfmBLYchG2LHlyRycnXnPdmMohlxzKQXb1wNTVo6n+mNbgNbOVkQcF/3790cy3Yktm9Zh4Vuv4bpfXI43XnoKrV0d6D9oMCw5jheKIWzesgk75BgWlRkMHtwkx7Q2zHtzHhYsehOvvvI8Nq9fjTfnvY7OtnZEwmE5zuopFw5sWUZ1QuaRT2HUmBFok+Nrdx8A2trGN6cs5OUPhV7zlYjow1IKlOb4JPe1ua72e1J6Th/r89qqZPjw4abGVCsw9HWt9NDbUq1pKZjq+DpUVlaaW63E0en0FArqufjXqgfRHc/zCnAd/aVeC0tFFAo5KYDk0CkFGT3nFEXtzluv96bngGqPucDyZUvx2qsvyd6cxzHHHIFPnf5FjJuwO6ZP3w+f+vQXMPdL38Buu80wBZl0qgvbtmw2AbGmOoGPHHYMhg2bjKOO/gRO+/QZSFRVw5eC1+BBg8w6adNaR7YiXZdNUrhaJwWwWEUlZh96BI444njM2vswnHba5zBsyEhIfpaCm4sdLdtMDYAtoXrS5N2x//6H4LRPnYn9DzgIIVlnbQ5cDLRe2JIQ2X1+7OGHHycBuk6ms9DQf4is13HYf79DTScgOV8ORLYjYbW7S/JXXnkG25vXY+L4CTjvnC9jv/2OwNDGaTj6qBMw9/yLcPzxn0A8GkdHOon6+jqccNJn8N1LrsKpJ5+FoSMnYcjwiTh09jGoq+lv1mHNmtUI/LwpqBJR31M6/cCV44320Kuddeixryj395wxEyPHjDPHx2M/epwcewtSkAqbApZ2nKSFquOOOw5fuvArOP0zn8Wee+2NCZN2w4yZ+6Jp8HDTgdKWrVuQ7OpEhRSsOjva8Zvf/FoCbRojRo7CCSeejNmzD8O4cZNwgBwjv/71b8rx+ChTaNNjvv7ba+99MGHiZBQkIFshG+MnTcbsQ2bLcXqIWQel118Ny2t6rCYi+rBo81wNo6WaUD1NQQNlqdnutGnTpFy4v7k++IQJE0zQTKVSiMVi5vilw7Bhw6SMeQQOOeQQcx1VDavakmTPPfc0z++3335mXnr8pZ6LIbWH0cu+6I6dyRQQCduoro7BltRaVVODmppKc+kWrVWtiMfNBfcjjoMdra146KH78dZbr5qLwp8nofS639yO6359O86Z+3V87IRPYdjQ0XAcPScqaQLtlk2rEItH8KMfXodbfnsXvn/ZVRIgXSxd/hYSlTWYtttuqK2q3LlW3c0tFi1ZiBdfeR65Qhaz9jkQP/zRz3DFlb/CBXMvxrESELU33ULewzsL52PtukVw3DDOOPPz+PnVv8YXz5mLuoYG+EFWSoQBonIwijgxJBISeGcfii99+esYMnSUvD8b++x3sLkm7Flnn4uKigoTyAsSVLV5sZ6fdc+9t+Pe++6QeeVwzFGfxK+u/h1u+vW9+MFlP8WJn/ws9p61L6qqq2StA3mPCSn8TcesfY/BV756KW68+fe48ZY/4Iof/xRVFbVYu2oZbr/tZnMNWLf7eEpEfYwec/UHQm2GqxFvw4YNaJXjql5G68RTTsU1v7oWZ332c6am0nLCZhrtFV1PbdBf9idOmoTDjjhajrcX4Iqf/QLXXHeD3P4c46dMR7KjFc89/RS2bt0shTRZlizh8b8+igf+8oC5xM3xH/8ErvjJz/Cbm36Hy6+4UgLvJ7C3hFI9hmlvwHru6pcv+hqO+djxiFVUI5aowseO+zh+dPmVOPjgg8yls7ovVQPk9Jz/0on+REQfEg2apaCq4XLlypXmmKrXSdVLy1xzzTU4++yzsWzZMhM09RqqeqthVlul7CZl0B/84Ae48sorcfTRR5v5aA3saaedhssvv9xcmqa+vp6dKfVwdkVl5SU77/+dnvpnTDfUkpkzZ2LGjBlSUAhMzWPLjs249547dO/YWRPZ89qv56WgpOdoahjTWj79tb4r1YqFi+fhhReeRbKz0/T4aMkQyM4c0SZqEuCat2/D+vVrsVHCZyaTQ2dXBzZv3oB5r7+Gu+76I1596RkE+RzS+QKat23Fug1rkct1Saj00dLcbILrTTdeJ+O/JAWjAt55+y0JvW/KemhzirCp4eySeW7fthmpZAbZdMoEu5Yd2/D2gjfw2ryXsWrNSkQjLnbI/Fpadpj3UPDSWLF8Ef76yEN48MF7sWnzGqxZuxSvv/aSrHMzsrksKhMVcOV9LF3yDt5+6w1s3LAG69atxjIJxfPf0Bpijeb6T+sUgPaudmzZsgE7ZPrOjjZ0dXaZa7fOl5D+2F/vxwP3/Rlbtm6Abfmm6/LlK9ZhzeqlSKY6oRe614tDr123Ek898Qj+8pd78PSzj8O19Vza7uX0OLLK3XUnFmprB+Ckk86Q+1po7X72+uuvf/cPBpUH/WN75plnmvv6vTzwwAPYuHGjefx/pfMpfc+lW/2DXlOr53p37z8L33wVi996Te5rGPvH3zCLss8gCMEOOXKcyctm5CKTt2Xf6N3bjraicFzXHEv11/6Ojk60t3UgkM+pra0FWzZvwt8e/yvuu/dec+xbsXQJnnn2aRRyOVNIWr58pRyz1stn5qOzs8O0+NAO4PT4e+cdv8Nzzz6Ddjl2O/KpR8LyfzkOLVyyxBx79ZielGNYZ0cHlsl8H37oftx3371okQJdTuav57BqrcKWzZuxauVyLF70DtauWY0tsr28KH8TtmzabL5vXW9H93HzXXFfLylaelzv3tp1O959z72w54xZ+orZRzrkc7/zzjvNuPqYPnz6PUyePBkHHHDAu9+J/h3T2jTdzvX2g/quzpewoy0mzD4kt3f94U4kO9pl6/jfy7ER1t/Rz1KVviN93NbWZlqo6PenYfXNN9/E/ffrse4+pNNpcwnEp556yryu4zc0NJjy7/Lly7F27VrMnz8fq1evlnLuevMjoobeN954wxwjS32d0L9PvyP9vHe9Pfnkk80PACV6CbXXXpNyw87v84NkDWxset99TQ/aPdGuG/3cuXMxZ84c0/zKCcnGvHQeTjv1cHNepD72JWD1NJajbfK7z0PKSYDU3h3tsIuINl9tb0NVPCE7pL5fOTDmPdM0Tc9VSmlhRr7ShLyuoTIajZleIjUEai2o1kRWSSHMk88trZdCkPnW1NYh4siyJLympOCVzGXkea2lTUjhzEVHss2EN+1pOPD1AswFU6tZEUkgkaiGIyuRz2dk2pysbxZ+sSCF76iEwSwi7v/X3lkAylVcffys7z5/cScJECQkuLtUkELRAsW1FGtpcYoWpzi0WKFIKVb8Ky5BgkNwJ+72dH33O7/ZN+kSXrBGnpzfy+TevTJ3rsz/njN2465vaqU6oKl0qxpu8yVb1PTqPjjhATUWYuGYZDTdNPVo1W3oS5XOByQeCum9K31a332XVX/7DITjS00sAzSFgiEVsQo1+hKuCVxWnczm5kZ3vrGwuJroZCqtz7rGp7vV1dRJVWWNpiet104d7VSLPit5d90qNA0pdfoXfxZcCgSKen448EEZPnyU3Hff07oQc1gdEV0+evRoJ+LlecdYtvACGDNmjJvnpUyzp7Fjx7rfPxZvvJUbcY8++qgMHTZUn2vNd5o/7rzpSrn31qt0PqP565ujWReCGSlmw66VRirXpI9RQuY0RSSrjmtXJq0OeX1tjepHi+pRTJpaUxJXbayrq3DrcdoxrFpVI6pjUTVq+QRYk9RUxt3o6vMbU6qVQfeZGPpK0QyN2gN0FR3O6v2IhwKurytOZziozpHqbmWUESsrVPsier9UY/UeNTY1ShK9Vg0n33I/W1SbK1Xnc+pMo1dx1SvyMbqeUEMuqceKhmmFI6rFKEHXvl8/hHwAXaeNDt1kgnLw4UfK4Uccq/pYyiMTJkyQ7bbbzl1P/54xli088xjKDCTGvH+PUcvGJ0mYLq579cmHH0qBvOdsioDsuuN2Mm3ieJfPvi8NGXtmFsbfH3//CGgjBbSs4x7inDKlmS92IM2Cub9+ynZeA1nPtth3rAN+u24Xqn/Gj4Nru7DdQOHBiBEj2rYQufbaa+Wqq65abHmuHHtTdTIK+YK0JFOSy+alKhFX56uojlxSH6CSY0lJPwYJTimGSpqHSl+3VYmYG8SDT6+0NM+WmbMmybzGWfoApNUxC0mVOmyuWZi+mHtUJVQsQjJn7gyZOnOCHrNZ91UjrSIidVVxaWhpkKbmJunJICF6zFRandNc1h2jMhJQZ7ZFnc6ZGqbrMWZLZVVInc+8GlthNcpSrrUZI+s2tc6RuXOmSDFP+nX/WECd1pCeD/Fl9Bx1W7UcmtRZxCGNx/LqLKojG1THMqhGIqP60t9AMwVOO3VBMXXY+TQD4IRJIKXXY7bMmT9N5s+foetxshHFnLSog4pzGtZ4KqJ6HVPzZeK0r3S7afoCUmM0qgafxhGPqLmixl8kYH0bDKM7UmpBoYYTgyKp3tRWVrnlhWxamhrmq6bOV63ISb+6Kt2q4AymqhjfZA5Ka0uLOpnojjqsgaK0NM2X+XNnqVM7Wx3+jETUMa1WpzUWYfTdgDqgeXWWClKvhllS189Xp7SxuUFamxtda5WammrpXVMjGV2H7pGeygi12wyKVFQt47NfFNjlpELT0JTKqEOtBpymPekKLu21bxjGsgNnhgA4PoATBI2Nja7AD2fTb4OT6Zv60jLFN/1lm/r6erccfFzemUKH/TKjc2Jvq05GoBiWWDDsHNKcZtxgMSBR/Z1sUEdS83NencWorgurQ5WiREkzalqnfJqFZWyva9XhKsWTy6rh0pJu62ulLlmxIK3JVhc38RB3U0vK1dom1XlknmVRdexa1GiSgjqGbelJpbKSLwRdTSelKXx+JqzHadK0ST7IuE1uW/bPqOEU0nU4ic3quPIN0kxW42gquG34y+vKfK70O6rbptNhFRxdroFzYF9qTinRpBkOJZ3pTLb0CRzdnmuVSRUllw7+93w1jbl0YcE1IC3Emc0FNZTOhZrVTLIg2RRzbev0YNRSGIbR/YgGI9LalHTTfDYv2XRKNaQgzS18+kB1RrUtJFFpas6obgVVP1pVhxjklxo6BixSbVOdS6v+BIohoREPcUkxKAFahajO8SmsHC1FgnGNM6paploaTKgmxfRYpdYeIdXw1qYWFxeFZjEK6RDAoqarEFLtimo8evws7m5E05VXPcZB5WWvKdRjLuaCbsMwjB8E9mG58+h/lzfNpbYUJxRYRnNgtiPgxLIt0D0L2N7vS1zsS/AOrNE5MSfVMAzDMAzDMAzD6DCYk2oYhmEYhmEYhmF0GMxJNQzDMAzDMAzDMDoM5qQahmEYhmEYhmEYHQZzUg3DMAzDMAzDMIwOgzmphmEYhmEYhmEYRofBnFTDMAzDMAzDMAyjw2BOqmEYhmEYhmEYhtFhMCfVMAzDMAzDMAzD6DCYk2oYhmEYhmEYhmF0GLqFk1osRqRQyEkwGJBiPiJV8ZjkChldrr8tWOjiIRgsSkAKmhE0MxR0vqgzxVApcxjdnnwxL6l0Sp8LkUA+INOaUxIJhEUfm28EKUScjhYKaYkFK3VZQuqrEpKXtAULnTLk8gWJheP68MckUwiqURSQEJnBMJScPgr5fE6KuYwECnkJhSOSzOXbfZYWFQyjMxMIBFyorq5Wm1JtSJ1fWnQLJ7WAQ6p/BTXGQuGQOqhFCYf0ZRTWC2DBQhcPgWBIwvpiDYVCEoqE1SnJqWFmL06jBGUWAX0VFPW9E0mEpS4akHBMXw2BwjdCUTW0oM9PQU2vfDEjedXWgk5DoagFC50yVEZjqo9Ryu/UORXJZFUfc6aPRolim0EeDKpGFgtSVVUp0Wj7z9KigjfyLVjobIHn3s/n8+pDqR3JsqVFoF//Ae0WGQZctUvngwsJePvHHHOMHHHEEfrywbgqyGuvPSVHHH6wGla8gNTocsEwujrqqbr8HJARK4+WO26/X+KxWpdHCKNHj3biU553jGVLz549ZcyYMW6eF8JBBx0kY8eOdb9/LMRTKBQWTLnfjz76qAwbOlyyuayEg0W54drz5W83XioV4aD0jte07flfsqqjAQ1BfVSopc9LRHKBiExvNC01OicFp3dYPEGpTlTIkcccK/vuu7/kdTl5ZMKECbLddts5XeS36eOyBw3bc8895dRTT3Xz/j2Wy+UkHA676eK6V2+9M05ikbCENL7GhrlywP77ySeff66/v7/mZfK8gw2j84FTSj4in0UiEbfsH//4h4waNcrNw7XXXitXXXXVEtHHbuGkZvMZKRZyMm3aJLn77jslm0mpkAUkl7XSUqPrU6QJGy0HVGwqKmtkn/0OkaqqHhIO/Pflbk5qx2LpOqnLu5pRaknfev0Zee8NPU4+K5nsN40wniV9Zen7Ia/7FNVBVYNQwtKasuENjM5JJETzdX2WVQMj0YSMWn11WX+DDaW2ttblEXNSOx5o2NJyUj/66GN9PvLOSU2nmuXee+6VqVOnSlaP8X3JFkrvVsPobJC/MpmMy1eArbjzzjvLGmus4X6DOak/AC4ScKG8k5pTY4umvlzsVDop4UhYwmqwh4PWL8/o+hSyeckV9aUdLMjs+fOkrraXxCIVztHwL3dzUjsWS9NJHTJwiEhYDbBckjeQxGgeHtIXUijatufXoU+z69es5OmfqlNzUY3OCn2tM5lW1cewFLERUlmJxuKaB0pN3MxJ7XigYUvLSX173LuSy6SlsiKhz0pB485IMBCSQKR9fWwPivUMozNCHirPR9ls1tWoUsPqWZJOarewLRCtVJqS/6A6phEpFkJqpEX06scsWOjyIRhJqMGlIZiQimg1lWSSNzvLaCMcUYNLXy7pVE4K+ryEI7X6fCRUL6PthLjkAzEpqEFfwNmlXrUYURPM/uyvc/7pw+8c1JA6HfQfDEejP6iWzOjaxPV5iMfjbQZ4QfK5vD4rsbIn6Lv/DKMz4x1P3/S3paXF/V4adAsntVjMSKxCDat8SlLzJkooM08KOb3IgbQFC10+ZDJzJd06VySdkZZZ86Qqpi/YonqqhqEU1dXkxZOIVUlGXz7Z5vlSSM1T0yr9jRAuJiVSSEk4n5VQQV1UaugDGTe4iAULnTGkUxhcRWlqbJBUslWam5rUGLO2AUYJ+iaXjPOCvk+DMm36dJk3d2a7z9Iig8ZhwUJnDDT1bVJNbG1VbWxulmQyKYlEoi13LHm6RXPfZLJZmtNFmT3pM7nhL2foiygp81uapal5ttvWMLoyPev7SDgUk+qqnlLTq58cc/ypkqjvJYlI2OUTa+7b8ViazX0HDhzo7nladfGlJ/9Pnn/8IZkxfaLMbp7Ztud/CRRDrnlkQHL6hij1Sc2o4TZnrj0zRuekR486iSUq1ABrkeraOvn5djvI7rvvLr169nV5xJr7djyWZnPfd959V8J6DEJL03w598/nyHvvvSdTpkxs2+K7Seasa5nROamvr3f2obcbKisr5ZRTTpGtt966bQtr7vs/k0hUS8/aWkmEgzL9y49lyqSPJDVvulQUchYsdPnQMPMLmTf9Y/nqs9dl3uxJUl9XLfEf0J/G6NrQzDESjUlddZW0NMyQjz/Q52Tu5HafpZiGaCEjsWJeg0gsX5REni6teQsWOmXA8WiYN0uSLY1qG3ylRlFWHdRebbnD6O5E6J+vUCOKTn41foKMnzih3WdpUcEwOisNDQ2u9pRAreq8efOkX79+bWuXPN3CSW1tbpFsPifZbEoaM0mJBOnGHpBcjhI3Cxa6dggGghILhySZS0k23eL61OQzbZnD6PakUhnXlAey2bQEAgWJBoPtPkvZnEimEJRMPuQCywrZiD5jAQsWOmVI60Pd2prUaUaf74LMnztfsq4JsGGI5AsFN1hMOtkqkbC+T4NqPbbzHH1bMIzOCrWntEzAQU2n0y6QH5YW3cJJrYzH1TENSWVFlVTGKiQWTUiRESwjFix0/ZDJRSVdiEgsFJXq6lqpiFVKNBRvyx1Gdyeh+lhRkdC3QUgC0Zjk9bVQkEC7z1IwkpdQOCvhcEYNNp2PFnWfgOTUcbVgoTOGaDAiFWoT1FfVS01FjQwaMEhiqpGGAaFgUJ+HmDqnpSa77nMcFOK18ywtKtAE0oKFzhjof1pVVeVG9B0yZIhrTs/vpUW3cFILgbz7ql+2wOiVBcnlS9//y+czFix0+VARjUpYnQ6aLbUkWzU/iOQCNnqlUaIo+iy0dSMJ6l9MnVE+VN/es1SUjBTyvLwiksmlJF/MSGNLUqitt2ChMwa+95vJpiWVbJJUulVaWlK6zAZOMkqUPrKlEqmOqeg7tJDP67u0/WdpUcEwOiupVEoaGxtd7emUKVPclD6qS4tukXsCIZqjMXxy6XQRGawymmxYsNDVQ0if9WKh4D5Gni/os8+L096bRhuuSVrbA1HEWWUUy0XoIwYXgyeFAhG3PcvyhZDrPmF/9tcZ/3BSiwEefFxTnWpWCARsoBujRAjN0xCib6pOqV0Kaih/hr7rzzC6Ar6ZL+/9pYWZqoZhGIZhGIZhGEaHwZxUwzAMwzAMwzAMo8NgTqphGIZhGIZhGIbRYTAn1TAMwzAMwzAMw+gwmJNqGIZhGIZhGIZhdBjMSTUMwzAMwzAMwzA6DOakGoZhGIZhGIZhGB0Gc1INwzAMwzAMwzCMDoM5qYZhGIZhGIZhGEaHwZxUo4zigmkgEHBBikEJ6GNS1FWE0tpCaWYhCizWEA4FJV/I6X66ZzFUWtkOxMcxXGyBoO7vj/9NQoGIri/oPkUJBkISCYY07nzbWsMwjO5LwYkp2lz6878NwzCM9nE2btkUyueDQbV/9Xf5MmPpYk6q4SAP4vzhCHpnseQUBtTpjEooFNH1ZFi2a/+xiYbDmqk1Q+t0fiYr2XxOEolo29qvgwMrwbA6qAEp6nECKgbqfro17ZHN5SUY0u2iIWlMFSWXVwc1kGlbaxiG0X1RpRYJqX6qjgZVf/mt0m0YhtHlwGmsra2VaDTq5sOqef+LIxmJRKSqqsrFEwqVKlZ8nDiqfpmx9DEn1XCUnMS2EngFBzWvIRjMqIPYIsFiRkK6PlDQDKt/7dGamy+h6oisMHp92XSz7SRWXy/Tmqa0rf06hWJB423Vmbxzbov5rEQj1K62XzsajuRldrJR6vr1ka122EFW3mATSccSbWsNwzC6LxhUmUxWkhrSmbQr60PDDcMwuhq0qGttbXVTHMh8Pr+g1vOH4B3cXC4nyWTSxefx8RrLFnNSDUexUKqdDAUDEtFMC0HNwIEwzmtBctR26rKQLssvolluMByVDTb5iZxw2uVy+rl/l932PEyXte9IBgJFiYdVBDSuSDiuxy4tW5TE5LMxGdRvuOz2q0Pl2D+cK4cedYast8kObWsNwzC6N9FoROqqK9082m0+qmEYXRGcy0022UR++9vfyq9+9Svp1atXW8u/9m3T9iCOlVZaSfbdd1/5xS9+Ib/85S9ljz32kL322ss5vJlMqaWeq7AxZ3WZYU6q8TWCQRzHgrTmci6jfjUvKYVghRQDUclq/g9TurSI2s5YMCHxULVUV9VKKBqW+prekghUta39OtTYZtUlndSSllQ2qL9DkisGpKhOcns0ZIIaf5X0qusv8XiV9Knvr/H3altrGIbRfcFBbUmlZH5Ti+pzUaKxmCtcNAzD6Gpgm2600UZy6KGHysEHHyz9+/d3NZ8/pCaVGtTtt99ejj32WDnnnHPkjDPOkJNOOkmOOeYYial+go/vh8RrLF7MSTW+ASVHFaGg9OvfT44/9jQ56rjTZJ0NN5d8ICjJfFoFIte25dcpZjPy5kuPy2P/d5Pcd/fl8vrYRySbS7at/TqYTyNXX0vOOfE0Ofzo46TvwGHSlMqoGrT/SA7vXSHz506URx64VR6952a59/ar5K2XH2tbaxiG0X1JpzPSo6ZW9tlrTznzT6fLbrvt5vprGYZhdDWwUefOnbvAeaTWk1rUH1KTyrYffPCB3H///XLDDTfIZ5995vqmVlZWuvh83OgoTrGxbLAr38mgxrE5N08S0ay7ebOSKUnnstKSK0gyq5lV/cd8vihV0bA0pQO6XUTmpZOSyQdkvhoyLdkW1/dzXiolM1rTUpSwJEIRyen+9A2tiMV0fUSd0YD06Luc7LTfIbLRNj+RwcOWk3whK81ZnFSNIBAuNQ9Wd5NRdmORsKYrK9NmT5Fr/3KGXHHJafLRuJelOlKQUkoD0ppNSTwc0P1yLo3LLb+qbPurw2WjLTeX6hh9YLPqqLbqpgWJR4K6XdY1WYsEojK3aZYkIjl557Vn5NZrzpfH7/q7tMyc5AZxIr7SYE4IVFFqKiv0rNRwy+VFDyNZPZdMPiSNmaSmQdOr6+LBrIpQUX3ihIT1goSiIWlIt+g2TSpeLZraorteiGFcr2Vc7b0kfWi7EIhwNpt1wkwpJEL8Q0TeWHJwb2hixP2gv4yxbMkVcxJXEQhFNM+o3qX13mT03jClL39ENYT5kGpoUvUoEgmpcaNaV0xJOKLbqbaFVSNZ50O+WJBMIS908ad1SjwWkZjukyqkVE+LGldRUnnV7FxaAxqfcy1c0gXVO40rpIH9SEFTOiWRRIXs+esDZJc99pHRa64lKTW0SGsrOqr2VkjTyLYc1/hu0EOvkdS6gOljx4B7Y++rZQN5AZuB4GGZzyOLcuiwMdiH7err6xc4gX6/ctjOO4fl25bjl/EM+HclUAv6bQV0iUTCBd6rTzzxhFxwwQVy3XXXyZgxY1wc2HzEzTzHx2G15r7LjlBVdfWZbfNf45uPROeg/GFef/31Zd1113XzPL7N82bK4w/epT/0gQ6oUe7WdCb03PT8ouGcGiB5dcyqZeRKI2W1ddeXEautKUOHjZCQOo8N8+apM5aWispaKWZa1SAqyA47/UoGDhwi2eZmNXSCsvGm28jmm28jAwYPldlz50kW51CNl/nq9PbvO1CGabw1fQbJ+pttJ4FiUGZOmyUtLRnp0WOAJKp6Sappnm6fk3AQdy4kA5ZbXvr0Gy79B4+Q+l6DpXddX6mr6SmfTJkp8ZAaVOp4ujMIhqSvpqPfwOEyao1NZfDKa+lZhWTi519IdbxGhg1fUcVBZO68ObpPUKK6fSAcker+K0l1n74SjtdKz34rSryupxRC6nwmW5yDmldjj36zzDclVVSKAenbf5CsOnptGbnmerLyqDWlprpSArmwzG1skFBQ0x6OSTKdk7nJ+XoeCVl5pfVkk412kJGrbiLDVlxZevfs5ZofT5wxXZJqqPSoqlSxcqfRqaAfMQNV8ewkanvIjrvso0ZrWNLpVifAlCJ6YSZ4A8DC0g++sKCmpkYOPPBAdz94mT766KMyefLktjv64/Av3vLpr3/9a6mrr9M8yF9R3n/7Vflw3Gs6jzvzTYUsBjQDMHhaMKz5LaMWSUSSmZA+X531jfH9oOlsPBZVbWlVbRHp3bu3rL3OOjJ44ECZMWuWLL/8ivquWU9WW22UK4lvmDdXZjc3SmU8rFqdlUQEo6ggvfv0kY023EjDhrLCiiOkqrLKDQDSrDqWVM1O6DEwiGJqpBUDEVlrrXVk0003lw032lRGrjZa+vXpJVF1TqlFKOVpnpVqWXHllWS55YbKFlv+RDUwII1N82WevgeqNf7+/fpKc3OTtGjaY9GY3lt3QkYbRX038ezztPMcr7XOerLOuhtIKlUaSGXOnDly3333ufxSbohbWPoBffT3YOTIkc7GI7+w7m9/+5t7jzHv32eLg6OPPFKfkZJmkrfuvvMOaW6Y/4OyULoL+ThcB+A60xd0s802c/cF3dtiiy1khRVWkMbGRqmurpYddthBVlllFXfPpk+f7vbl3vBO69u3r6yxxhousA9xcc9aWlrceu94plIpF9dqq63m7vfKK68sgwYNkmHDhsmoUaPc+scee8xpImmiUIl4Bg8e7Oz/tdZaS0aPHq22aw+XrqamJhc/jixT9oF1VM/ZnmPitPrnanE+S50Rzp1rUj7dc889pWfPnm1biLz++uvy2mtqNyyB6xTo139Au3kN0e6M+IvExaRt+RFHHOF+009n2pfvye8P3EXfROrEqAHAaLWdjaAmORfKSDDWQzbfchfZaZedpOeAvhKv0Acml5G5M6bKc088KvfefbsaJEGZN2eGVFbUyuW33CepnD5MLz4ryw0ZLiNWHSlVdXXS0tokn378gTz8z5vkvdfHSigckt322k922+dwyUdiKq51UlURlnxLgyR125AaT1OnTJRz/7CfpJJJacnmpKautxx38umy6urrqOGqxpXo9pmkjP/4bbnmL+dKQ+Ms58zSZyqgjuEfTzlL1ttwMzXE6qQxVKcGnK6bMd4ZgYFCWu6/5zZ58N5/Sj6b1BMWqaqtlavveElyxQZnaFVX9ZN5jXPkpecelHuuvtgN9JRRYeLzN3xGJ1kIy2Zb/UR+uevuMnDIML029SLhqEyd+ql8/PbH8sC//iFfffWmVOn5FXXbfkMGyOY/3VU23eKX0q/fMAkVQ9JamK3GZaM0zJomd93+d3nlhWfU2VNHONv5aiEiasjmCnrzVXB7DF5BbrjtMckFYirQrS6fbLDBBl8bJMCLtrH0Qb+4Bwyv//zzz7uXPy/Lww8/XMaOHdu21Y/Dv3DLX7w4v0OHDVW9VyNQnZ47b7pS7r31Kjead8G1R/g6hWBGitmwRDUfp3JNmq8SMqcpIll1XLsyalY557A5hSNZITvvupsccNDBks0V3ct5zTXXlH5qdDFKeuP8+XLnbTfLnf+6TeLxiMxuaJI+qpEbb76V/GqvvWXQwMFSUVnhjKkGNXafffoxefrJJ+XNt96SaIg3b0GqKypl730PlW233U569e7jPitDy5Wk6nBjw1y5+6675ZFHHpZmNegwrM698ALNz0U1/AZpvDRVy6tBNleqNK2zZ8+S8847T8a+8oo7l7DqwaI+I9YdyQf4pneBCm3VyaAcfPiRcvgRx6rDmnf579NPP5Wdd955Qd5ZEoaY8f1BD4EBbk477TR3P3iPrb766s7pwCFi6pf/r3zy4YdS0PzCWB0MLLnrjtvJtInj9flo2+B70JDpnPZ0e/j3B9cZB/V3v/udc/7Qs1VXXdVNP/roI+cE4lhiW3z88cduO0bQZf1WW23l+pMOHTrUxVNRUeEKg15++WVXIPT222+77ch/OJfca/qP1qnNCqyjEG7gwIGqoQ1uACWOwfaw6aabymGHHSbDhw93taYcF+f0xRdfdIXyU6ZMcQXBpNvXCOMr/OY3v3Hnhp774/O8La5nqTPSnt3wwAMPyIgRI9q2ELn22mvlqquuWiLXyd5UnQhuFs27WlIFWW+Tn8l+hx4rg4avIs89/4xcesk58u/77pWa+l7yiz32kQ223E4zZYMaI7ofNZE9+srgoavIz3faU1YeOUpeffU1GfPCGAnFEjJq3U1kuRVXUQHWDF4MysRJk+Sjj9+TSToNhmnrn5bPvnpXXn3jGXn51SflqWcfkelqiGU081bFExIMhWX6zFnyzjuvygtjn5TWfEpq+/aTrL78v5r+ucxRQ4oMT6l+VI/X0NgkEyZNlBmzv9R9ad7bKp9PeF8+/OwtGff+OPns8y/VeU6pAZjTc02q0VaUyR+/K++/9qJM+eITqYiHpU/vnlJZqcfWjEOmCGsawnqe1KgOX3UN2WH3fWSlUZvIh598Jjf9/Tq57trLpEefQbLNL3aV7XbbSxJVddKQzkgsHJe11t1GHfND1IHrJ/957l658baz5L4H7pSvJk6QmBqTtT16ahrDMrc5XboRXQQE2DuniEs8HndNZRBlC8smuGdZX9q8QHl58nz75cayIxKKSDgYlohqJJ944X7U1dbIwEGDZYstt5JJk6fI3ffeJ5OnTJXe/frLr/bcS1ZaeRWZ39isTmFIBg8ZKocccpirDf3iq6/kHt12zAsvSjyhzujeB8guu+3hameTubzEonHXouSQw38rg4YOk/fefU9uvukmeezRR2XGtOkyfNgI6devb1vK1GDTPIwj9frrb0hOdbagz0tLS7O88/Y4NRY/lHHj3pXpM2a4glryOTXBxnfj8xz5EF30zQQXzrMWll7g+UUbeVcRvFFs+rj08I4gDgv5YsUVV5S1117b3Q9q1HA4N9xwQ5dXnnrqKXePqMlE37A3+B7pH//4R1eogPNI4euHH37o4tpxxx1l9913l+WWW84dA7bbbjsXhgwZ4pxLClYJNAPm/ejhGSBNFNrhEFNDi7N78cUXu6a8pI+RgHF4KQTGQTU6PuakdjLoY9SrzwDZcpvtNZP2lNdeeFYevP0GGfPwnfLPm66SMc88KRVVveSnO+zs+qpG1EvN5jLOeKGEPtPSJGefdIRcfu6J8vCdf5f50yZLJBCRAYOGSbyq1jUhe+WF5+XPpxwvf/vLnyXK/skGeffVF+XWv10uf7vkDHnwn9dJtRpS9KcKFnMyf840+bs6gRef8Qe55+/XyFeffKIKhhFXL/179ZA+taXSr9bWJj3+fLnluqvkmMP2lwfvv0cFLCsNcyfLbTdcLmce/1u58JxT5NWXn5FoKC81lXHXX7Zpnqb5+IPlvNOOkXtu/ZvMmfyVRFSMwsVSI0VqGCj1xqFF6H62/Y6y8mrryqcfvyk3X3u5PKD7vPTIHXKzHrelYb5stsVWMnyFlSSn5xpQ53bFVVaTYjQhU6dPlicfv0/uuuUKueXaC+SC046T8/50ojz7n0ckrWLaU8W3K0Fpczqdds10MMSY981fLCybwAudlylQQuwNAZYby458PiepdErvUalJvAvcM9Wexx55QM467WS56tKL5e5/3qqaWJS+/Qe6ZqM5ne/dp6/8XI2soepwzp89Q6694lK58tKL5PJLLpCnHntUrb6wrDZqtKw6cpSr4aysqpZhy68gKm8yY8Y0eeDh++XGG/8qfz7ndPn9746WX+/zK7nppr9LU3Op+S6Df2CUXX/99TJnzlw1Divk7XfGyRlnni6HHf4bOffcP8vnX6pmqoPN9pGQvfa/D9xjjGiaH5I3MYLRyIXzrIWlF9BD7gEFeUybm5sXOK/G0oF74O8FTid5ZMaMGXLNNdfIZZdd5io3eHdRs3b55ZfL7Nmz3f3ytaa0CmJ+5syZcuaZZzrt2n///V0TW+Jbb7313KdhgNpYPguDg/qJ2pV/+ctf5MILL3THoQULDrO/98zjAP/sZz9ztXxvvvmmXHHFFXL77bfL6aefrhp6o0vrlltu6ZoXG50Da+7bqSh9y3TVtTeUP556mdRV95bb/n6xPHL3Va7fYSBUK1ttv4fsf8SxklPnbt9fbiQBdQwDkUr55yMvSb4Qlg/feEkuOeNQmZfKyJqrrimHHHuKDB+9iTz32P3yl3NPlqjkpCoRkzkq/hutt5Ecf+G9EpNWufPvV8pdt1+vBk62NLBSTgUkSIPAoszPpKQmXiWt6Wbp23Ow/O70v8lKa6wnH741Rs4++VBpSra4gZySmRapUJFKMkhTtFK23+1g2f+oE6RlzhQ5+/cHySeff6rih9iIBAs5TS/HiOoRwhKLB2RKwyxZe+2N5eTTr5XqPv3kgftulTuuOMvdc2qBWzJpGTliJTn01EtkueVXkmcfuU9uuuoCyaXmSyxUlJ4rrK2G22Wur+oVl5wojz90n8SDCTng93+Un+98gDq6IfnkjVfkjSful9fefEqmzpop8Ygev4ArHJKsOt5B2lt3MhbV3LdQSLl8QhMY+ofw0qH000qlly20Ohg/frz85Cc/ccYA94Nh9l9pa675Y/GGhZ+Sb6y57/cjEin1ey/qlUrp/dl7r33kuOP/KLFgXN8zv5EXXnjBlc7X1tTI3ffcK5FEjTz/wtNy8snHy4B+A+WCCy6RFZYfIW+/OdbVIlDoNb+lVbbebFM5/7Ir9V6I3HrLzXL9dX9zg9Bts802csqZ50hY79W7b78hjzz0gLz91hsyffosyeZpORLSe1hUTU1JRSyuCaT2vV6u+9tNMnT4MHnm6f/IKSefREmU6wqBsZdWA5DB8dDKAh+mNhzf1twXcFLfeecdZyiTb0wfly04Izin6CQ1dICWWXPfpQPXlYJUCgm23XZb15WA/qZ8yoW88te//tU1yz3qqKPkvffek6efftoVgl900UWu7yjvMX5Ty4mT+sUXX7j4cCyJi1rUm2++Wa6++mrXnPfOO+9063lXXXrppa5ZMP0hcV6PPPJI5yDTTHfixInO+cWRZb+bbrrJ9VP2BRo0TcbBJQ8zWNJDDz3kzoe0gDX3bZ/27Ial2dzXnNRORVENlIxs+JNt5ciTL5dAoU6aZk+Qxobp0tjaqpktKj179HAd0DFKDtl5M2lumKPnHpP7X/hI3c+gjH3mP3Ll2UdLa7ZRhgxbXU46/UoZuNJK8uSDt8nfr7pYMskmZySlsnlZfa115fSLb9NrFZR/3Xy1PHLHVRqXGj3qOMYRbb18WX1o3SAfjFaZb5VoZQ85+aK/y+prbCDjXn5cLjntKDWIshJUpyijO1CIny206D5B+eWuv5VfHnqc5LKtcuwBO0vr/FnSoudBzZGrHXWOFU15spIuhNQR1pdPsEJue2SMhMJxeebhu+Xvl53lajkwvuYm07KGOse/O/NS6dtvkMyeOkmmTposoWiNNKXzUt0rKkMHDJW6RIXcev2lcvPfL5La6oT0HTxSfvPb42XVUetJthiWcDTmRhN+7dWX5L0XH5OPXnxQGvV6FKoGSCLZ+ZqILMpJzWSanYCTV3ip8yLorkLcUeAlAAwGQR7m/vCy5OVpfVKXHbRCCYcYzTejeSkgv9pjXzn5lDN0TUF+f8wR8uzzz0rf+no3INlTz7/s9vn0w3HqzO4pw4YvL/fe/4hkNA8++tD9cvF5Z0siEpLZTc0yauRqcuud92v+S8szTz0hJ514vOZBkTp1dk858zzXtyoeT0hRHeTGxiZ59dWxLox5/jk1DKdKTUWFZNQA4/3Wr28/ueWOu6RX774y9qUxcuxRR6ruFtSYLjWH5L7zysPxLf4QC7uLsygnVQKlmlPyIXmFPOlbORjLDvSQe4KGcX98wSoOqzmpSx6uL9eW+7D11lvLlVde6WpF9957b+fw4aRig1I7+vnnn7t+pjQBPuGEE2TcuHFuRF206PHHH3fLmOc+4VjecsstzgHFsT3uuOPcQEnEh6PIOmprmcd5PProo12/VpxT4qHJME192Z44qcHlszI8K9iUpG3AgAGuMBHn+N5773XbsZ7nhX6t1PIyzzdYqXUlXeR5zpXl3RGu0cJ2g/VJNRZBQELqXIRxsPVBqEiEJFERknCkID3rqqRXjyo1QtIyb+4MmTTxczz1tv1K8AAxum57IDw09WX0OgICTIl7iMGF1O8Pq3dJ09+E2q3UivJSDwfyElanNahOZEhf6DWJuHNwC5m0rs+5ZmXxuO4fzOmvpB6joEZAVo2kkBtwpBBWw1jjyqnhx2iiQTUWVC802Wog51Oifqw64gV1sqJSm9BzVkMuxKcgIgkVqYhuo+t0v6g6sgFdTtM6ahh4rBl9tKa6Qo24oNRXZmRQD3VSAw0ye8J7Mv6jN2TezKmullaVxxVeXH3haeqkny/vjn1c5k56X/pVxGW7bX4uex38O9nx10dKXVUPiS/im6+dFUQHEB5fmgiIjIVlE8ijvICZ95A3jY5JNo9RHJHKSFQi0ZhEY3FJqzPjtFR1Lq7GES1PMpmU254iCArg9EarlobV8cmoAZRW7Qu6UX4rEhWSUBFkULrLL75A/nLBefLwv++WGVMmSLVq4FZbbC5H/vYoNQh/LT3VKW5NJZ1eV1JQqPkY55NiWgosff7mN44qzxVeKkae8f1AF73hhTFbnlctLJtQeo5L7ynuidFxwbYgAI4eoEtoEPeOAgacP34z9U3r2Yf76wsc/H7AcvIky5knj/q4/bF4RnBM2Z++q0zZlhpfancZdMlDE2O2988S8ywjXubZz6fBWPqYk9qJoNFpRJ3UVs3IfAImk2qSRx59UE494Sg58cj95PeH/koO23sHOXL/neU3++zkDCVqxMnQnrLZr4EA5LK+9LHkrAL9NnPqDNJUrFUNMprqMjAH/bGi6oRWqP1M01wMryY1uPiofCio++uRcWxbkhlRM8yVVocimtnVAcWoUylw3wAMqnOrZpMKSliSyRbJ59gfZ7MglZUxPd+QOsF6EBWhpqw6ryoWAV3man7UUaWGA8MrEgpIXTSiRl+rFHNZZxQ+9eTj8qdT/yC/P3JfOfvEw+SM4zQc/xu58KzjXV9emvBGiiGpjhYk2TBDHrn/Nrni/FPkgtOPlZsuP1eK+aIMGTpKNthqFzU0qySixmRXwjs/lDbyeROa0TCMOwJuYdkESn8nTJjgmvt6Y4wXOC9Ko+ORyajWqCY2qT7NnjNXqmpq9Tffdy44g4ianjmap2bNmqWaFnG1nDW1PWR2Y7MbJKmuvjSMf0Cd1ImTJjsdzen+zbrfzOlT5d5775ZT/nSqHH7oIfLP22+VpoYG6dmzt6y95prSo76H5NQpZUT2tGozzX8jETpgqKKqTqY1TUF9hnBYqT117w+dL7mtxneB4cv7kBpU+sPRrJD72F6+tbD0ArV2DBRG/sJuwaHwzonRseC+4ODxLvO1kdgZ3knFEWQZv6lBpdaSfbjPLGNK4R33mXW+MN3/9vP+/vMsoLkEBks68cQT3WfW6GJBq8r99tvPjfpL9wz28/syBfK7f9+ynKnXAWPZYM19Oxm5fEj6DOwrx558nqy2xibywpgn5da/nicN0yZKSjM73xUdNnQ5maYCXgzGJN3aqG5cTO4f85Fk1RB6Y8xT8pc//eYbzX2fffROueK8P0lM7WJqSQt6fYYuv6Kcd939Oh+S/9x7mzx62zXS3KzxxWokl2nW0CJ1iYjMU0e0srJOjaKMxGt6yElnXSqj11hP3nv9JecQNrfMUZeSmlc1qDT2kMaNQ/yz3X4tBxx7lrRoGi8/4w8y7vWxGkdO+vSulzmzJ7smvPkcjnClZNSfigXyko9Uy43/fkZji8jYpx+Ray86WSr4aL6KUkZ1KlFVI78//S+y3gZbyUcfvik3X3+VfDzuNWlKNkiNruuphl1WnemG+fMlHg6qgReQHn16S5Wmf/z4yZJMJSWTT8mgASvIH8+9VoavNFrmTP1Ezjhyb2meN0PSxc4nVt/WJxXDC+HGOULgwRyiZQcvS17efOONAR94KfObZk3W3HfZsajmvjldc8kF58mD/75XwuosbveLX8qJp54u6VSL3HDNlXLHbbe67gPnX3ypbLr5ljJ5ymT581mnyluvvaqaWSW/3v9AOfTwo1Tvpsmpp5wsr459yR1vyIABMnjIMPnyyy9d3gyFgm77444/QbbbcRf5/NMP5M9nn+maz4VUkhjErn+vfnLTbXfKoMFD5P1335aTTzhepk2d7D7hgNE2r6lRtVKdVJrJWBZfwHf1SWXEUoxcjGUcVtPHZQuaiIYxSuvvf//7Bcusue/SgevLtcV5+67mvnwW5qWXXnIaRJcV8hKOI/1JGan3jDPOkLfeess5hrvuuqucdNJJLp9dcskl7lM0jAh8zz33uDEzGDuDPqUUqOP0Mmov/UwpOMLOp7CdvrBnnXWWSxfNfxkwiQJfamgZFZrmvjjJ7OO6lelzwruQc9pnn33kD3/4g7ODsInQXp4zzpP0sW13pD27YWk29w1VVVef2Tb/NTpruQEXyUN7dtqoA5eted5MefzBu/RHXorU0Lk1nQnOIi9NzXOlsqqnrLrq2jJ8+RVkgBolA4euJCussqZsts32suW2O0lrLiyTx3+qm6tRGYjKHgcc4YR22sSv5OVnHlGjMi219f1kk823lRoVlPGfvS9vvDRG+J4pTdgikZgk0xlZa6MtpWev3u5jyj3qamXk2hvKyPU21wcxJ1NUqMN6vWOxStl2lz1lg822lKEjRspqa26ohlmVE5L6nj1k9Mh1NYPn5dPxX0hNZYUUyPR6KlVV1bLulttKRbxaKmIJdYpXljXW3lQ23HQzmTFrusycPV3i0bgKVH/ZZrf9ZIMNNpIe/ZeTNdbX42tmiUfDUte3j6y97voyd+4caWqY7+5tKp2X4SNW0PhWlT79Bko9n9/pN1i23unXsvNue0o0HpMvP/9Y5rY0SGVFtRx49J9k34OPlkHDVpaQpmWIOudb/GR7WW3tDfTcgvLWmEfllReelqw+MRy3s8GgWqUP/wckUdtDdtxlH30Wwio6pX5qjHqHEevFGshHFpZ+AF6GlBIfcMABbhn3hEEeeDn/LxAXL5DyKaXMdfV1qvf8FeX9t1+VD8e9pvMMEvRNhSwG1HBXQ57m9LlCRt9gEUlmQvp8ddY3xveFvEJhJyOJB2S1kavLpptu4T6/VVtb44yyddZZV36+w45qkPWUSWoYXX3VFW5k9dYkjk1AVlptlDOSKhMJWW7wYFlzzbXk59vuoMZTtTzz9DPyoL746V9PredvadK734GywoiVpEJ1srqmXvbc+9fyk5/9TCLhiLz55uvy9FNPugGYQqrrFERl8wU3avmgwYOkrxp39arXI1ZcQX7605+4T9Z8rkaca/bbdv+NEsVAqcURTzv3llGZ11l3A6eZ5BE+VXH33Xe7PImTimay3MKyCTgX3AcGStpkk02cXqKROEcLG9OLg6OPPFKfkVKeoYXZ3XfeIc1qa/yQHKQmSZfBP/9cY75DyuBJOIE4ldh8O+ywg+uDiiNDAdshhxzi8g6DJuFIUjvKCL6DBg1yzmu/fv3c91SJB32kDyuDJfFdUxzG/v37u+MwJR7m2Z/vu/MssA2FrRyLfqSkgfgYRAnnlvg51k9/+lNX2EvacZ55hoBCYOJgW/qiMkIwzi4DOOEEc544ut0VrtfCdsOee+7par49FD4w2jLrFjddu/i7i0GTsIpYWDNNXl545gl55L5/usGG1ll/K9lp7yNk132PlC23210qegySWE1f15Q2q9smqiok1TJHwjqPY0IJMXHxcXr6ftK/VdQ4qqiIqfDypy9u3balsUFeePYJmfjVZ2pUDVPnZl/Zbc9DZcdf/krWWXsdFYgKSWbFfZt1u59vL7vu/ht1AveSfn0HqCEVlN59+skOv9xT9tn7EFlnzfVVqIN6mLxO887Y++zjD+StF56RprkzZeNNtpLdf32w7LHPAbL++pvI4MHL67ZFydOcLRqSX+1zmGy76yHyi51317hDUqmO5vDhI2TPXx8h2+6whwwdvqIr6cxn0/LS80/Kfx66T2ZPmyRrjF5HDj70GDnh9Etki61+Lj37DJA+6vRWVddKfSwuFZXVMq+xRRpb0rLRZtvI8aeeKyeedqHssNPeUsy0yDuvPCPPP/GIzG5qlIympyvBy52ST1+DisAgyBaWXSi/D84owjMyljmlwYf03kjIOYU4rXSLYHlfNYL22ntv2e+AA2T5YUNl/tw58ujDD8pcNZroMhDRezjmuWflOXUqp0+ZIptvtqkcdeTv5YADDpLe6ty+8dpYeez/HnGFbHSRCOn20VhEguGobLTxZvKnM8+Rq675q+zwi19qQkTeen2sPHT/v2XmjOmu0CwWi7oannw2K88+/YS8P+5titNkxx12kt8ecaz84he7ycYbbexakaTTWdd9w/huyH8E31QRneT3wnnWwtIN1GqhkdwTf5+MpYfPF7ybyBs4htwTHFNgnkJv1vN5O+a5V965xUG866673Ki+VCLR/JZWj6ussoqr/fzPf/7juh0RN/ebFkU0z+X3zjvv7GpkqYml9pb1pAU7xqfrueeec/HjWFKIQfx/+tOfXO0oDigDJ/m0+jQR6GZDrS7OKw4t+/HNVhxi+s4aywZr7tvJwMmMRmPS0pJytZ2rrrqqLLfyGlJR10cChaw0zpshn3z4rnz+6YcSC+akKZ2TWLRSVl97fQmGEjJl2lSZOXGctKYLmlGrZbVR66ijVq8O3ZcyffKX0qqC4wb6yGX1GRBpKYZkjdXXkjXXWEci0YQkWzLSqM7rm68+7ZqKJhKlEWFHj17dfeomX/ymUV2l13nipK/kzc8/kcF1FZLNpFzpdUumKH169pFV1ZEctsIqEgjHJZ9qlqm67Xvvvi2Tpk+RmmhA6utq9Bw3bIutHDUZIypk6ph+8el7MnPWNKkI80mcvNQnqmWlVUbJ8iuNksqaHmrwxaRp3jQZ/9UX8rk6x40N6rRrUgPqyIdjCVl55OouDRXVPTRtEUm3zJdpUybIpx99IDOmU4Ol1yusVyRQ6ifYmVhUc1+RktFFMyn/4geWGcsWSinpUwO8SA866CBr7rsMCQQLwiBwrcm0OqYiO++ym5xw8smqkwG56sorJNXaIoMG9pfmpkbVi+nyyosvuu+qUnDGoEiaq9TxTMjw5Zd3NUAVarzh9MyZM1udyjdlEv1R9frHQnyiKytViQoZPmI1WWnllaRX7156fwKSTqVl4vjPZNxbb8rseXPdthRCMlhcPk8ptxrwmrblhy4nG264kfscDpCGd8eNc02Dm9QAi+r2i7+8u/OyqOa+NPH2xut2223ndJHfpo/LHjSM2pxTTz3Vzfv3mK9VZbq47pU19/06OItcc2wGmuPyzVGuMw4mDunaa6/t3i/vvvuu2wYblZZ477//vmtqy77UXi6vWsinXhjYiO1o/su3TadOneqO499R4Gs12RYHFgf0o48+ck1OOSY1tHyblbQRFzWuOL2jRqn9p1rLMantpS8z35Wmlpb4eVbYninnQPx8/ovzYhnppZaQUYp9YX53g2u3sN1gn6D5H/APNReqKzqpfIImxsiN6izl1SKhprEY4UVblGw66WpAY8GwxCNhNaBE6quqpbk1KY2awfhcTE1llUTVmQ2SKQsi6VxencUsN1zo21Sl4uFKx9TAioYj0pqbq5mVkSLDUlCDjO2L6ojS95VMzDf4uOaIN4N+4PgtTGsuKvUqGqEQJV05PYe0BIoBiamBOzephpzem3iUmoOI5DSdZAQGQuIzNYViVgp5vpn6TbMKgyzVVlMR1zRXaBwBjSugjnxSHdcmPS89osTVOAzpeTU2pF28fP4hqg5nsJjnQVFTpCjNetxWXnDEpQZiOpl3x8QxJW2MZEwNdp5BnDoZ5qR2PsxJ7VhkVDMZ3TzjrltIdt19DznppFPcp7COOuq38vxzz0p1ZYXkM2lpVU3ke9Domh8tHSeVQY4YyKj8+jMgnai20AQXHSPr4ayyTypfkEQsptthEKpuZukBW3Aj+cbUYc6kMtKczUhC4wzo+4yWMVn0XJcxTBLxcYyU5m3nJOtvNB0dsyz+X8xJ7XyQh8xJXXZgIwI6Vo53Ern24Jtm+9/cK+6Nv2f+/pTHh4PJNr6mfOFtiYvAfWYbljPv1/ljEFf5OtLl4XhsxzYsZ559/T7+WOCPt/C5dhf8dfJTroV9gsZYBDhcpW+IptQBK5XSq4OoxkyY5rqhqNREqtRAqlLHpFIdq7AkW1OutL0uHpZa9UsiQum+voxxTNXwKhTSUh3NS88En1EoNZnw4gA1sWoJF0Pq16szqMeqi1doiLvRd8NBNaKiQanUuINqaMXUQ6VP68KhZ4UKVTapwpHRtOckoXHgMGdVSGrpVxpTpzGojnO+WR1NkcqoCpoayZksfbnUgFtEvDjE1ZGC1CfUKVdnkkGX0KF8LqQGR1zqYzXSI1EjUTVB8q0tUlsZUQdVRUcd5QIDoOjxM1yMQkyvTY30qaiVmqg6tLqczz3UarwR51jTRC6nBkwX6lhiGMb3BgcPg4umvjiUdFtAhwuqoVLAINaNdIoRKwGKvSj0w0HVGXU6S5+AUWNL8pJM0zyOzx6ohqluuUI2dR7RRJzgiBpQ7FuluhrSuLKZFtUrCtjUgNM4MBTmNTE6sOpnIuEcXwbNo5aUpsIVGhfvhUibcYYTi7YTLzr2Q4xrwzCMcnBWcOy844LDR/COnF8Gvo+o/+0dWLZhCuWODct982Ca8LJf+bbAb0J7NZvYdOzP9n6f8rh9fKTDN9/325F2HFr/28dBYB9j2WBXvhNBXqOGk+ZdiXhMYtGYK3WKhiskGkhILKTOabBCbaKwOoUYSNQqihpAfK9PtwuWakACajmR6cIqArWJCqmK0T5fDS/NpE5k1BCixD2lQlHIqkNarJLKcK3EgtWqMurI5oNqQFU6J5NvlVIboFlf4hU1EkrUfyPkCympxJFUDxQjKdna9r1RNcAovqYFrSYVlVDjT4VDjT2aspHmiKaXmtv24k1U1kt1ZbVuX+o3FNfzcQaiOufFYlQNNz4joOeqDmsiWi2BvDrCajBiAIbVoQ9HYhIN8d3ZuB6b766qQKnDGg1USFDTgjNbquEI6fYYefZNNsPojmCoYNSkC/lSi5TaGnVaK1UfwtKzR70roGtKJVXCstKjosI5i4z2y7dSVUmIwWkTtk4iHpF4gv7/1GgyEFPR6aIbhE73AWo/0VZGQafFCPG5T8moEZVQza6vVk2OlT5Cn1Sd7l1XpzpP6xkVPdU4HF9aoADdN/g8TUodaxxX+r0ahmH8GLARAZsLJw8NAua9I+j7oGKfEtgHDWW+fB+2BdazHH2jMJApy3AmvUPM/mzPvN/f2bG6LduwDMeWwDzbsd6vA47Bb5bTP5VtCMTBOu+4chwfOK7f31j62NuqE6F5RZ0qDA51DNNpSWmgDyk1jhhHmVyzGjcNkgk0ae5vkqwaKxhVlLI3J7PSkA5INhOUDE1u1StsSWWkNZWX5pQaRZlS0zSOgXGkcwucPgmpqEhGMvmk5Ir0J1XDSOOLhxJqpEXUeVVR0ZBqaZVca8s3Ak18M9m0NDQ1qTjQsIrmvVFJS1ZaNe0pNcRy9GXVOKIBvo0a0QdTxSunhmG6IK1pPX478WZaktLcklcjLaBx6Hmkk3r+OUkHmvUaNGh8SSmGMlII8NmIrMYY1ngJOKRcC5oF63npthlpUmOxdH56YD1lUqBOK7XI6pSns6Lxl8TZMIzuRV61lO87U0uZiMXlg/fel9tuvUmuvvIv8vZbbznHr5quEiUBdRqttk7bVI0eluuUfqM64z511ZRslbxuSw2nM7YiYbcNXSrovhAohFzBWEUork6nGneqQa45r+5HQV9KDSpqU/msDNpK148MRp0et6SzekyF7XCEcYJpbWIDJxmG8WPBccOpW9gRxJnjt59H99imubnZzbOOmlWcSPZnG7ZlncfZtanSZ57Y3juJ4Jfxm2MyJbCMdcQJHNPHXx4Hx+K3d0hJF+uIC+fUzxNYTzwE79Qaywa78p0KMmspOKEIkVk1g6sjieNHtSn9pZyDp86VG7CjSI2qZlLdqyKiYqJ/9MalT6hbzz+NQ6NzGZH+TxhR/htxmq2dIeVqWd0xNCaCbuZ+K5g8bB9SxzescS0cBGdPjxkJhoVPV4SC9FvgS6dht8wt1zg5sjseUzXmcsSpaapQ4629eF26dSdGEibdxEsIqlOpseo2Gi/XQo03+uoiPEC6CdQoh0OU2On5qFMacDWm1HzglJf6JbCK32gU/XwNw+h+oF+5nBpIqpt5dfTeffttufbKK+Sft98u06ZMkYKuo7aSfuzJLIpRKrFHQ5BLnMSArgsU1ADKoYhhSYRiEtOA/rBfPovuBp0eqimouqM6qB6nRuv0EqcTPUMpmaM7RzQY0WOXdI3GxFEVRAobv/6prFIBJFrqnGX9bRiG8WNA1wgeb1cxJXjdwyEklK8D1nvnrxy/fuFt/Tww7+Nlnnj8euZ9E2C/Hsrj8PsvvI7A/uVxl8MyY9mAX2B0KjAySqVU/JUoLSsFbqkPpZImAtsypSmYW667ut+Kj8dnzJKj+t9+AlCKxy8vLeM7cmqzuf2JlW+JMV04sA+B/Uv7ln67ZQs9gqV9NMaF0rZwnATWuT+uhQafvgXnrwafPx6OuvvWGcHvo3+ltTQ58fv+NyycBuYMw+h+oFRoiaqMUwd+FOiXSrM2rxML1pf+PH6edSoqLqB7/JXmS3/l+xIX03L4VdoGd/S/25emfl1pH7+MUBpdWJcRqeK3MQzD+DGU24be/vLBw7x37sqXL8rhW3gb/7t8eXssvJ7f3+ZULhx3e/svvMxYdpTeXoZhGIZhGIZhGIbRATAn1TAMwzAMwzAMw+gwmJNqGIZhGIZhGIZhdBjMSTUMwzAMwzAMwzA6DOakGoZhGIZhGIZhGB0Gc1INwzAMwzAMwzCMDoM5qYZhGIZhGIZhGEaHwZxUwzAMwzAMwzAMo8NgTqphGIZhGIZhGIbRYegWTmqhmJeAFCWdzkgglJCghkJel+tSCxa6ekjlCprTo5LLh6SyolZy2VYJBHJtucMwShSLBSkGRLL6WsgWgzof+UbIFzUEQrqeZysqhUJIYqGgaiw6a8FC5wsBfd4LOpPXZx69DAWCElCbwTBAVVGfD2xIkUwmI7F4hWT0eSl/hr4rGEZnpVgsqr3I0y8SCun7PhaT+fPnu99Lg0C//gPazUI4dZ0RfzG5sMccc4wcccQR0tg0X6oSCUk1z5dPPnhP+vasl1wuq0aX29QwujR5/YuGItLUmJRIrEJGjFxdWrJJicdrXD4ZPXq05PP6Ei7LO8aypWfPnjJmzBg3HwwG5aCDDpKxY8e63z8W4ikUCgum3O9HH31UevftIxF9PuLRiEyZ+IXMmTVZqipjEpZQ257/pbDg2Qhgzuu0VM7ZUrBGOUbnJBgo6HNdUOELSDqdk969+8jgIctJrs04mzBhgmy33XYLjDXTx2UPGrbnnnvKqaee6ub9eyyXy0k4HHbTxXWv3n//fRcP8fKe/OSTT6SIjup79fuSK5o+Gp0X8pK3GVpaWmTFFVd0Norn2muvlauuumqJ6GO3cFKDOp8rZPSMOCvKxdTACkT05RRz2xpGVyZbaJVIMKQuRUCyWc0H4aDLJyzxL3dzUjsWS9NJHTpsqD4ZuiyvhpQuD4VF8tQktVeIx/IFpXv6HPEMsWEg27bMMDoXRf3L57M8+hKPVaj+qWZmcXawE8xJ7YgsbSeVGiRIJpMuzkQi/oPitkfG6KzQeiAej5daEcRiLg9Eo9EFeQKWpJPaLYp3ioWcZDM5fRXp6QaikimEJKfXMV/MWbDQ5UOhGNVpWAoSkUJQn3/8DHtpGm3QzDefz0kqmZJAMKK/9eXD86LO6MJBAhF9a4R1u5iGqM5HdMpvdVgtWOiEIa/eaTgcU6Mrqs84zX718e8eppHxPaFQj4JcHGAMdbXG232WFhVwpC1Y6IwBhxTnkwBMcViXFt2iJpUiUufhZ3Myf84cScTiEo7wclp6F9owlhWBYELCwZC0trRKupCXur691WEtuJpV8onVpHY8lmZN6sDBAySsBjrPQ7qxUbKpJonGQ5Jv5x0QUiONt4MPpSa/AUnp82QYnZFwKKyaJ9LS2ioRdVaDwbBUVdEVIuvyiNWkdjzQsKVVk/r222+7miQgvqlTp0pNTZW+V79/3K6VimF0QrLZrCuYYVpRUSHNzc1SW1vr8pnHmvv+ALhIwIXyTmquEJBIoCgfv/mmnHfKKRJVgzydSUtRDXfD6Opksi1SU10rsxuaZIPNtpRjTjlZ4rU1bp1/uZuT2rFYqk7qckMlpL9j6mj+6x/XyD9uuFwqExG1rL6pjyk13EsDgWB04aSWplOb7ZkxOis4OZRlFyUWjcuBBx0shx5ymBTVCCOPmJPa8ViaTirNfYkLI51w5JFHyocfvCeSb23b4rtJZv9r0BtGZ4Jnn/wUiURcwFE977zzZNNNN23bwpr7/s+E1PbOqQFWVVstxWRGcpmsM69C6rxasNDVQzwUkWxrSqrCUZk9bbpUVle6wZQMAyL6FqCGtBAMSV4N9SitfXMpKeTT3wghyUg4n5eEvoyC+WZV0azMb8lLUJ8zCxY6Y5BCVoLFrMSCObUNWt2gOBKOtOUOo7sTVicY4zsYCktlZaW0NsyVYDbZ7rO0qEAhsAULnTF4p5P51tZWN7Jvnz593LKlQbdwUktl/RpUbIChk4qu0oiLb8FCFw+BoGuMGQqoE6JCw2+rDTC+gRpiPBsYYzqjGvnNIIHSc0MhX9uMFIpqxNmf/XXSv9Jz/1+9LLr5tufb6PbwJATQxTZnlc/RhHT6Q/4Mo7OysK2IDUk+WFp0CyfVMAzDMAzDMAzD6ByYk2oYhmEYhmEYhmF0GMxJNQzDMAzDMAzDMDoM5qQahmEYhmEYhmEYHQZzUg3DMAzDMAzDMIwOgzmphmEYhmEYhmEYRofBnFTDMAzDMAzDMAyjw2BOqmEYhmEYhmEYhtFhMCfVMAzDMAzDMAzD6DCYk2p0G4IS0FD6MwzDMAzDMLoGgYDaeMH27Tu/7tu2MToedqeM7kMwoEolUgwU3c/S/7rAMAzDMAzD6LQUi0UXwDuj4XBYIpGIm/frCdFo1G1ndGzMSTUMwzAMwzAMo9OCQ+od01AoJIVCQXK5nAv5fN45p7FYzG3LOqPjY06qYRiGYRiGYRidFhxRHwBn1QdqU4F11LLiuBodH3NSDcMwDMMwDMPotFCLmkgkXC0qTig1pzik1JoSWGfOaefCnFTDMAzDMAzDMDotOKI4pjiidXV1sscee8gZZ5whO++8s3NcPeXzRsfGnNQuTLEYKHUeD4VFwiHJBouSCRSlEAlLUzYr8zIZyeSLmmEjEo6GpRDIunGEUprJr/v3PXLZg/fJHiceKa2SlXAgKNliTgpRpnnJhwKS16cnK0XJqjBEgiEJBcOSK4g0ZnPSnMtLQSMLR2MS0HXhaFT0UG59KBDWNSENQYmSNoV0lNIblEIwoPvqtpqOVD4vGY0/UyxoetNuWSAScVOOS4IDoaALRd2PtLXkk9KQbZGcpk5CBd0urenNyybb7yCXP3C3nHDVpTJ4xAiJRaLSaqVqhtGlQROCwYKEw+hKTvVI9aSQkVhFhWpeQDVANUN1IK+aEonFJBoNSVrXBwJ5N+V3MBxUzSnodhkXknnVQtXKNM3KdF00EXdawjYoX0HjyhRKzcp8H6hUPqPpyOs2GdVc0sT2GbdtQHU0qXERX6StX1VQdToSj2qIuTjdMXVbtuNYxE0zNvSReYYLiao2sgxtJLA9A4RglOkmpcHiVBMDEX0PBLMu5ETPSTUzpNeF9IUiuqHacByjdE4Z3SnblnY0OKPxWH8uwzC+G7QMffouyvuSAlOWlbNwPP4327F9+T6jR4+WY445Rrbddls5+eSTpba21i0HnFjf/Nfo2JiT2oWJqGOqNopkcmqIZNT4wJ5S2yKXTktFJCR9KiqlWg2gAMaMGlQeTKaaunqprq+T+uoaqYlXSl1llWTVkUwn0xJVp9PZKPmCxNTJDKlj2aKOaTafVUOnKD00zp6VFRJRR7Y1pS6uGlfpdEoFJCgJNbwYZFdXqQGYkvmZZnVAMxKOqcsaRXCKksuqKalpiqpg1SYSUhmLS0Kd6N6VOq9GWy6T1PPKu2UFjEI1MrMa9IckwjHpUVUrdbGEPtz6eGuag4GQRNTqCqsoVdfVSf8hg6WisrIkiiTGMIwuS0LzfVA1KpUtOYRF1YmYaktzS5PqlUiv2mrpVVMtYf3R3NqqBkxW4ro+oPoQb3PucuqYomc1CfSlUmor4vimqrFByasOZjTuqO6PxmEoRdTRi0f0mPm0zGttlJA6yNXsE46orkWcllIwF3cOpIq06mZCZTWmdpNzpAPqjKpmNrS0SGurOpCanirVwkQiKvVVcdXjuHO2c+r4chx0M6POa4tqeyabdecdU/3XpGg8rZLOpdRppRAy784/qduls+gmzrvqrOo7NRAZPZemVFriiQoZojq5ykoj9BqpkqrO814Io6Wq/3zOyzAM49twhWdorgbmsbmc3aWaUx7QTF8D6vuT+v3KtyEwj4NJ012m/CZu36Q3mUy6Y6RSKZk0aZJbP27cOBcXcbPOH8/o+JiT2oXBOdVsLlE1LDC2EqGIVISjUq3OHgZVXg2cAqX7ahBhFLVHj3i15NNZyWbUcFNDpTpRqUZSjRoqpa+OYuRUqNFVqc5njXMiY87wK6rDigNYFY1IIaAeLSKiAoGI5PR3pphTRzHhjEH2qVDrLKXGVEiNvhr97RxhNeKyKlrNqaQ61wUp6nwmkyIqNTxVrPRA1IbizCY0bRE9TxzVVKuedyGocai4aUjoNlXxCnWUM7q8IFVqZMZiUSdSnIdhGF2XtDptubzqTSzu8nu6rUCuJhFXHQy5Qq98Jq1OaNA5f1nVqZRqDZJI7WqaQj3VpIRqVF6d1dZUi051e9WqgupNUAUJRxWDKaAahPHUqjpFbWNFLCwxlaVm1baMamiTGk453TasehVVXcIey2t6KOCLqQMajYbVmU7rcTW96ihWxdUQ02WQUqe1qbXF6WROHc58IeccWhzciGpwXNPP+VA4ib6j/UiimmZSqQ5yXNMfUkc7pOvj0bg6zVVSpc6pFAPS2NLqapHDuv/Afv3kmN8dJxddfIkcefSxmqaYnqdoGguaroBr3UKNsWEYxrfhnVTvoHrHkHlaeFRUVDi9ZB5nkuUE73R6WMe2tErx8eCM4tRC+bZ+3/fee09OP/10Of744+XCCy+UefPmqQbTQqZUwGZOaufALPQuDAYWpeAUejerw0pz2flqPM1omO+a+2bViaQhF8sy1ES2A7WQjWpctaphEqhISJPG8cGMWWpo5aVKjT6aAWO0NKphNUXjndncpHFnJKX7Mp2pRhW1nDiTlMBjILoSfzXyps1v0HVFaU3mZW5DC0eTRnVIW4vqzGqym9UgRFB61dQ6J7dR40uqKEXjUd0mJ5Ma56nxl5JGag803qCeD+eMI07T4QYVpKQaa61qSH4ye44aYWoU6nZoE4HaD6sPMIyuDTYJTmFKtYvmq5WqA9R4zm9NSlI1oqBagYmTUk1kWUh3SKhRVFD3Dv3Mq1Y0J1PSoFpGTWh1VTXun9s2q3oSVqcvEglLWuOnhce8hoaSIUUrDdU8uj3gyMbVyKqIV+qiiOv2QFcIui1U1VS7aUrTklKtpfku21KjC2ldToirgVZZqctVzyi4UyVThzOiPmZAzyOtOlxwzjXaFtLzxRluVW2kBck81eV5ra1t50sBY0hSqYw0NLeqQReQ6kSVzNV5anibW1IyavTqssqqo6SuR08975TT3bDqKseLqYNL/IZhGN+Gdx6puQTvsLI8q3pLASCOIzWcrGM5U/TTbw84o01NTdKqGgY4rTi3fn08HndT8LWs7PPFF1/Ik08+KV9++eWCtDD1xzE6PoF+/Qe0e6dKPVw6H+WlJLRHP+KIIySgRkhe/6brg3rSAYfquWmGwH7Ql3VXhma4WGjN6kDSZ3PYCsNlpVVXlRVXX0MSavBkVRymTJwkn3z0iUz+8lNpmj1T3cSIJDUvP/DsU9ISDsgrTz8jT/77IVlv/fWlok8PKarDOe3TL+SJ/zwq2WRaatRgSRZysvJao2WFVUdKr959pbq6yonA1GnTZMqUKfL6c89KsqlFesYq1EjMSI/BA2TdTTeSGE1z1Wh75YWX5MNPP5G1Nt1QRoxeVfr17SuTPv9Snnn0MZkydbrURWLSrMbfqDVW1zBa+gzoLyE1NOfNnStvvzxWPv7gI2lsaJQqdYTDahTOT2dlyKD+ssZmG8oqo1aTjBqYEz/7QgYOWV422+nnkmxpkWvPPFfeffVVZ8AG9K8rUwyUDNeghPXaD5bLb/+HpDUPhANhl0/ou+GHZXfbm3gvc3r27Cljxoxx87ywDzroIBk7dqz7/WMhHvKln3K/H330URk6bKjmgKDqYUHuvOlKuffWq3RenRl9XhamEMxIMRuWqObdVK5JrYWEzGmKqLPWcbU0ECy6winnmqlDmcnmXM3oT7b9pQzS/DB4yGB3LWgaNmXyFHn80X9LOpVyjit5AQdynbXWkTXWXkdWWGEFdRQr5auvxssHH3wgr7z0gjQ0Nus1FRk+bLhss802Mm/+PPlq/ETZYYftZf78Bnnm2Wekd+8+stFGG6rTG5Kxr4yVJ554UkauuopsvvkW8uKLL0oPvd8b6vpsOiPPj3neadJ2P/+Zy7dPPvm4vKpalVGjK6j79+jZS9Zccw0ZPWqU9FGtpHbhFX1WMMQ++vAjaVAHltYtGGvrbbKJrL3WWvLyyy9Li+reKM3rK624ojqaMU3/+/K06vtXEydKIhqRvv37yQ6/+IW0qq7vu/8BUl1TKzNnzpBHHvy3c9bR2Keeflpm6TIKHIuqGV2BvOojxRSY0Tl9jg8+/Eg5/Ihj1QIq5ZEJEybIdttt554Ffps+LnvQsD333FNOPfVUN+/fYzgmODBMF9e9+uTDD6WgtlReNTMUDMiuO24n0yaOp9HW96Yh0z2fGX8PcFKxMZj26tVLdtllF7UTq6WmpsZtg8M6efJkeemll+Szzz5bYI/wnjr0ULXZdf6TTz5x93rNNdd0gyIR7wsvvCCvv/66c2D98VZffXVZb731nP7xLFDjiiP8n//8R6ZPn+7i8NvynBjfjrcX/JTr9sADD8iIESPathC59tpr5aqrrnLrFrc+mpPahaE2kSZfNK0dPGJ52euA/dRo2UIyeo144AJ6jWjSVlCj7R9XXS5PP/TAN5zUnGbwWRMnyzA1bFJq7IUCIcnNnSc3XnmlPPnYE1KjjmEhEpITzz1TRq2/sSvVX4DGk1KD6c6rr5Qx/3lKEsGwzEi2yDobriOnXXSRpEIBiRcC8u9/3SMvvPKyHHPqCdKnT2+JBCIy5dMP5a8XXSrvvPuh9I9XyQrrrysHHXaIDFx+qBvshONwpLkTvpQ7/nGrGmkvSj5Fv7GwVNfWy057/0q23Hl7kVhcQvo2ieiZfTbuAxm+5igVtPly/TkXyrhXXnE1HIs7U3U0zEntfJiTuvjQ05XWbEYq1BGj+0CY63ngQbLXwb+ViopS33Tguc9k0vLEg3fLJX+5RJLqqDL40DZbbCGnnH621Pbs6/qpojw0tW1ubpabrr1C7tcX9nw1krb/2c/kvPMv0PgiMnP2XOnXr79e57xMmzZNqquqpKZWDSs9zjvvvC6/+93vZLNNN5PjTzhB0xN1NQQ9e/d26Zg8aaL06FEvVRVV7vcDD9zljICp02doPLXy059tK4cfdrj0GzDArS/kshJVI/qtN1+Rq66+Wt4ZN84tr9Xjnazp3lod53fefksa1GHeYsstOVGnnfPnzZabbrxJ7rn3bnXKMzJwyAC5+557XU1vIBLW9U36HPZQL45BkyLyxecfy8knnSQff/qpJNTZ15Nzx+nsmJPa+SDPmpPa8fHvGg9Ndinou+aaa5yjyb3ycK+eeeYZueCCC5zD6u/r22+/7e7la6+95uJaf/31FwxGN3/+fNeUl/cY9xwn+De/+Y0L7EMc2DZwwAEHyBtvvLFgOfh1xqLx99BPuX5L00nt2l5aNyetKloRr1CDskI23nhLWWO9jWVea7M8+s+/y7m/O0puOP88GfvE4/LK2BdlohpGPIA8XvQPYORKHjaaxU2a8JX8/ZKL5Mnb/inZhmYJ1veQwSNXkdZcQSoTUWlMNsvY58fKc/c/IP9Q4+6Gc86Vu6+5TiZ8/qlIPCzb7buvDBmxgkxqmaeGYlEapk2Xf/7lSvnqw0+lRY8zbO015bSTT5E6Pfgnb7+nRldGmhpaZM6EKdKfvlQDa+SwE38v/ZYbJO+++rpcc+55ctHJJ8nYJx+X2v4DZdeDD5TlV1pJ0uiNGtpb7bi9bLT9z90gIC888LDcfNElcvNfr5aw6x9bag6Cg87wH/kf8qYxDKPTkVInrkp1Kqj5PlsMyS923Vt2/fVBUqMO6ifvvi1//+tVcsVF58uj998jH737ljz86MOu2W0wEpfVRq0thx11vNT3HiBvvfGKXHbBWXL+mSfK26++6PqoHvmHk2XDTbdwL+cWdTQD0UrJBcPyzpsvyelnnCot6Vbp06eX3Hv37XL1VZepYVuQFVZcRZ3QPtLYkpTKqhqNp0pefPFJueO26yWgAtWzvqc89tgD8u8H7lQNLsiaa64nNTU9XR//rX/2Ezn8t7+Vqrpquetft8vvf/dbOenE4+R1PY9V1lpbdt/n1zJg8ECJxWPSkmwRCRVVEvOy6iojpTIekcsuPlvO+NNJks6mJVFTL3sfcKA0J1slobqc07Rec+VlcvNN10vL/CapraqW2dNnynVXXi43XH2Z3HLd32TezBnihlDSOA3DML4N79x4Z5QazXfffVeee+4556iedtpprqDhvvvuc4V+G2+8sRx99NFue2ePqp2GtgK1o7NmzZJLLrnE7UeNK47ubrvtJoMGDXLbYds99thjcumll8pFF13kallxXoGmxb7ZMXGbg9o5MCe1CxNRo2Z+a4uEIkHpN6CfhNRwaVLD5eP3vpBXX35Lbr/nAbnynPPltosulS/ee0+dvIIbNMT3hSLTf/7Bx3LPbXfIvf9+QJ545P9k+uQprvaVWoGe9PHM5KS+olqefvRxueTCS+TRfz8oLzzxrNx4823y9IOPSiSVVwOrVo2yHtJTnV9E5/Px42WMitTEL75wfVpXW3EEQ1DKTVddK088/LDEg+pE5vIyT404HM2ttv6JVPWslelzZsn1V18rDz34mLz5/GvyyI23yzQ1mnr26ysj1xit50u6amT1ddaWSj3mtEmT5YkHHpH7/v2Q/Pv2O52oZbMpYaTPdJaaoqIbaMQwjK4Lzp37dEsyJb1795bVR6/uNKmlaZ5cfsVl8te//VVuufUWOf/88+TsM8+Sr76i/xI9PkXWWmstGT58mGQzKXn4oYflzn/eKXerQXX11VfLtGnT3SdfRo5cVWoqq5zRg77RvOx21cznn31WmpuaXGn/3XffI+++964rRPOGlxs1NxCSpuYm+cett+o+t0k6lZaPPvpQLr74Inn2mWfV8W1rxqbaRl/8rbbaUp3ePmp8vSY33HCDPP300/L4k4/LDTfeKK3NLbLFFlvIyiuvLBl1Qumjj3mnh3Pad931N6hje1epj9YXX7p4+SxDXM+B/qtTpk+Xe++9T26++RaZOnWqpi+sRuFM+etNN8pfr79enn7mGdfflppolyDDMIxvAZ1D73zNtuecc86R61VTcE4feughuU21j+a8OJkEX9NZvg/9S9nu3nvvdTWnb775pnM2hw0b5jSReUb0/fzzz+X222+XO+64w9WcGp0be9N0YRhVMqQeZTadlq/GfyUN8+dI71695YAjjpLj//Qn2We3XWWFFZeXQiYtuQxDKIlr3uZLmGjY1jqvQWZOnioxNViChaLEVEAYWCQcCUtFNOa+3ZdS449ysqHDBsvItVaXDbfYRLbedCMZrMZdplAqxaIEjREh44zcG1InUdNUW1HhjMGC7v/c40/I82oEzfjyS3lzzPPywVvvSHU4KhWJSlljnXVc0+y0Oq29+/eVNVdbSUasMlwi6rhOmjxJExqWnn16u28M9lRnPFZDn9icTJ80ReZNnSE9ohUypL6PjJ8wwX2uhn5pGG6chxdDwzC6JpFQxHlqadWq/v36yejVRztDaNy4t+X9D96VREVM+LSLa5o7Y4pMnztXIu7TMCHXv4nBkuhbT7OzoGoXn4KZNGmyOnJTXPwjR67mmucymBzgHNLHqqm52ekktaeNjQ3OAWU0YEYYV+tLnUDVIZ3yh4bSnJBWLBh1NP8ljngsrvGFnG717NHT9ecqOcIpWW655WTUyJHO6W5Q57GhsVH3r3KOOM23aQVD3EE9Dxzn8V99JclsxtX4Ej/pJH4/CFJNVWWb88zymDtXqFOddo6pEtG4qN3lnAzDML4NtMqDtmBbUktKX1QKAGlG/7Of/UxGjRrlmvCiuf67zmznaz6ZR8PmzJnjdBGHlNF7mSeu/v37u+389oBj7EcDNjovdve6Mnp3GcmyNZuWseoAvvLUM9I6e470HTJANtn2J7Lnbw+VvX93lGy66y9l4PDh7hukUV+C5f6ntW5EAvmi9FUhwNgJqligOzkVB+B7pvHqStlt373ljEsukD+c/Sc59ozT5ORzzpSNf7qVqCfrtkNUmrJ8QoYP2qvxpIJFf1kcxZkzpsurL7/sRuad/uV4ufL8C+WO224vjYipTmpYA1897d+nj/z2uN/JceefKfv96Q9ywGnHyVqjVnefnulZ38P1k4on4hKvTGhcBWlVI7GhpdUNfDKvqUENPXWYNU7gUwsM/lHIm7FlGF2ZQlGdR833/DHqY8+evZxDOG3aZDVkMqoBOWlsbVYns/Q5LhSQz8OgUxhA6BTfKqXGE7K5rBpHGdWykgZWVVc5R5KqVzSLYzG4EgZaXrUTx5SA5uHIlhzBNp3VbdDGgDqGbrRK2ndoPPF4wkkVrVpIK7rZQzUupk4l/WI32WQT10zuoosvlrPPOVvOPfdc1+QNeqtOJhIMjKfGXJszSVroj+s+x6XOaKUGvn3KiMR82obCyWbVSuco6zFIJ8cEPq/DZ75K/fcLTrP5MwzD+C7QOz/FAV133XXlrLPOkvPPP9/VqBKOO+4456h6nH2IECpM0WL/G0eU3zi8OKngmxMvTEmDrVlvZ8ac1C5MTo2zTC4tMTWg5kybKU/c/W+57bKr5ZHb7pA3XnhRAmqkrLD6GvKrQw+XtTbYSI2XaomrUxsIqCC0xYEuUPpONm9KtoqaPZJUwwnHEKeS0vgNtt5ctt1zV+k7YIi89fobcrIKzq/32NM1zc01l75ryjf/+EYhpVt8kgbjKcc3/nRlKtUqc+bMlIpQUOpiMVEzTHqqwVan6Unr9rmiGnd6nKLu/8kHH8pXH30qjZNnyNzxk+W1F1+Sxx5+QMa9+ZYztBgEKpVKa8J1H53nmLV8HiJUVOOrVKrmRvrUKcfmkxSGYXRd0qo3OFgxNWQYIRcHE+Mmqc4Z5PhGqRo+1Dw6J03nqVXV/5wTh0PGJw5wNDF4+O4qtaBoX0bn+f4zA8R5qCl1+yF8uJ2qdcl0sqQ7qq04tBT4YUDx/VaniRoPU+IlfXwPlWVomR7GHZeBnIiS9DBS78cffyzjx4+XmTNmykcffyT/93//J/fff5e8/9776qCirW0DXbSliWOj5TifxIdzThqIj0I9akm5Tq4GVnciLbwImvQ6cc58oofuFzld5t8PhmEY34V3OocMGSInnHCCbLnllq4bxNlnny077rijGwSLvqSAZqFPPnjnlNZ3aGJJF1OuNQywPcs83ikG9vXbGZ0Tc1K7MK5pqxomOKt86H3mtOny78efkLtuvEGuPvc8uf6yy2XmpMnuG4JDl19eDS5K3UOun5UHXy6q6+ORhISDDOkdkWAYQybivnkaVuNtvQ03klBVlUyZMF4evuNu+ezt92TqzFmoisamjqM6o5mCOrbBsFSGKjQudRajEfdpmBAGV7JZipGQVMUrZHYyLXObW9SwK7oBmVpbmiU3v1EaMkmZPnum3H7rP+TUE06Sv51xrlx96tly2XkXyHUXXyYvPvmMJNWAwjgjzcVgUep61UuitlJm676RvAqXGqkMlFTUoKainh1jOpq5ZRhdGfqk0tceg6W1qVmaG5okrPl/9KjVpV+f/upQqnMYCOlUNSocVVVQB1L/x/CZNWM6Hp5UJmIyZPBgyeKoFgNS36OH9Kiv11gKMl11le89i8ZBzaiKlx6Ll2tRtS6scRc1DTiANMGli0GpdpfvNOOAVlTEdH1UncKoFAMF19Q2GoipcRWVRDyh24RcLSv9W5s1/aTnvffGyaWXXSqHHXGYHH3MUXLSSSeowXemXHLRRfLSiy+48y41dYtoWtTxjkdd0+PKRKVz1PmGqy6WeFSPFeUb1nomRVq6qOOuRh61rtTYplTDeXcwEEFU0861jGqIsMwwDON74Jvh9u3b1/WZp+nu448/7grW6P+O1jIIElCIxvY4m0zLnVVqTAk4nlVqc7KeArvGxka3ryvo02WucE73Z+pbhLAPv6mgYJ05r50De9N0YegDSs2A2hay+obry0Y/3VqGDeznHMam1iaZNX2aG0lXzS6pr+8hqVTWFZHz6ZqCOqyM+ogxRVM0DCU+5YNlk1ZRyGVVODSj0ywuoNtSy1BRXS1Z3SagIrHCgP4ycvQoiVYmNI6shGL0C6OPVEiSKkihirj6sOpQavpa0kmp7ttHcoGwxGhmh7ho+tN67Lym790XXpSaWIX07z9ANt1ycxnSv5+rzU1m0zJ0uUGy/ujVpZAuCdGM6TNkzqxZanRFZODQIdJ7xaEqSgEZ3H+QbLL5ZhJR55gBRqjd4BjUrhiG0XWhRpDaTsrXZ6hD+e64d11B3JDBw2XU6LUkEa1WjYjJisNXlt1220uqauqkUTWCLgEfvPeupFrmS+9ePVwT27r6XqodIRkydJjrh8qneL766gvXzzOlzi7NgpMtrepUVrjB2YqqUzSPpQkttNIaRfWP76FSY4q+zpiuRlqmoMvyMn/ubJk/b46mL+50kDS4GgR1oPlO6aSJk9RhVAd79GjZZNONXd/ZtGpkPBKS1UePlMEDB6q2p1wBJS1JMODYPqtamUzqOWl6VaoRedf9obmx2Rlx0XhMQqqF2YIagxpmzpjhnOmqmmpZbvnhrptHrz59pEddvaTyNjKmYRjfTXkzXaCwDShAYx4txGFcccUVnQOLE8lnagi+RhRnknjojz9gwADnhFKwtsYaa7gp4wUQ2J7t2Je46arha1ndQHC6H8E7qzi0RsfHnNQuTHVcHcFCTvoOHig77LGr/OaPv5M/nnWG7Hfc7+XoU0+VfQ47TPoNHOSMn3dee02aUyl1GNMqKnmhpVdUDZ9wWB8R/Te3ab4UAkVn7NVUVUkiQh8lkZbmZvcdsahm+urefWTXg/aTHff9tRz3p1Nlo003c85uRbxGVl9zTTUWi5qerBus6Xd//KOstfFGkgsFZeQaa8lhRx8tux1wgPTq39fFSyk+IoKR9uyzz8rbL7ziakN3/9Xe8oczzpBDTzpBDjj+93L6BefKoUf/Vvqo41qj4pPU9Lyl2zbNmClDh64g+x9+uByladlPt+3fp5eEg2EVtrDkizmZm1JnNVDqs2UYRtcEI4mWGfTzbGhqkHvupUnsOKmsrZM/nXW23HLH7XLtDTfKNdfdIMf84Y+y++67C/3VqU18/vnn5aWXXlQ9CslOu+wqp51+hpx19jlyxJHHSJ9+A+TZpx+Vd958U1LJpNTS11OdvbrqKtfPMxYuNQkmUJuJUxqg0E/ympaoxKNqfKkD2bNXnRpU9BNNSL06gfX1dW69d2LR4YqKuLSog/v4f/4jL40ZI73UWT76qN/LJRdeJicdf5r85bLL5Lzzzpf99t9P+vXsKSlNO/1iK9qMwoimhQHjUq3Nzmnme7AMYhcOBXSbuBs4L1gMuBrVpqZGee+9d6SxcZ5q6HJyyp/OkjP/fJ6cduafZf+DD5W+vftJ9r92p2EYRrt4J9U7hDTxnThxopv/6U9/Kscff7yceeaZ7rvRrk++brvSSiu5/vU4khSG4WSyHEf2qKOOUp07z/XHp8kwBXgvvPCCzJgxw8WJ07r11lu7b63yCZqf//znTgeJj2PdfPPNcuSRR7rRgBfVj9XoWJiT2oVpVMOJ5qzzGxrklddecUNzDxwySLbbeRfZervtZeiwYTLhsy/kobvvkrFjnndOXgUGkYrF3OkzpHH6LJk7e6aKR9w5c2FdN3PyZJk3bbrMnz1LEmpktWRS8vrLL8nYp5+RGVMny6ZbbCW77vUrWW7oMHn6iSfl3tv+KamGeVJVUeEGWWIEXozFlUasKD179JBUc5MbzGPV1UbJmuutLbVqpLXmSqX03sBjwJLbrrlWnn7oYZk/a46ssuqqssXPt5UtVYAacUrfflsNqib3OZuQGlpvvzBWHrvnfpk+foKsPGKEbLDZJtJnyAB56M57ZMqXn8scPTf1tqVSnVXdxTCMLgyGUka1J5NNqcMXlHfffUv++rer5Z13x7l+9cur8bPa6qOkpkedfPrZJ6qTn7n9cOJmqM797W/XyV3/+perndxqq63klzvtJAMHDpTnnn1W/nbt1fL2m6+rcyeqh1EZ/9UXMm3KFJWXglTX1LgS/ElqlNHiJBoJS7M6gBl1YHv3qpfq6gppapwj8+bNcbWcTepAz5w9TebNnyOpVIumW2TSpAkyZ+4cSaiTmpecvPLKy3L9dX+VZ595Rop6jC232FL22mtfWVkNO2oTPvrwQ+fc4mziODc3zpfpUybKrJnTXbNjlVOpqkzIlEkTZdrkSTJj2lQ3qi+tbWjnEg1HXF/dV156QZ5+6j8yZfJ4WVE1dKstt5aRo0dLXX0PiTDisKuXNgzDWDQ4p9RwEnA6+czMtdde6/rS8+mYAw44wDmr/OaTWq+++qpzZHEsAe1mP5zRefPmqWZWu2+p7rDDDs4xfeSRR9wntZqaSoPa0QR4+PDhstFGG8mmm27qal5pKYKTO0J1bJ111nHOLtuxzOj4BPr1H9DunQrQ7rMT4psI8AAec8wxcsQRR7hmqnn9m/7ll3LSAYe6kmxd5D5r0pVpziWlWh3OhlZ1VvWEe/burQbHyhJKRCWuRlOytVmmq9M5YfxXboCiAdW10pJKy0wNG6yxhsxRUQgVszJZndK6WEKvWkDq+B4V1lMmJw2zZ6jRw0BKBTVeekpNn16y/PLDpVFFZs7M2fL+Rx9Lj4pKGTFqFWlVJ/KTTz6Xnio+DclWGbzcEJmqBmCypUXCatz16tlDDalZEtV00nSYvlwM9pHT+Ziun9nSKMvpsfsNGiRVtXUS1GU0p/vqs09l5tRpUh2OSzQYkhTN0NQYi1UkpK865NQi05dr8sRJ0jx1tlQN6OUGNYm0piWnwjcnlZS6aKm2oatSDDBACkZoWHoMHiyX3/4PSevdDAcYqbnomg5SYlmed4xlS8+ePWXMmDFunhf1QQcdJGPHjnW/fyz+he+n3G++Nzd02FDN2UHVw4LcedOVcu+tV+k83xH+ZklzIagv/GzYNXNN5dQwCCdkTlNEsoWOq6X0oW/NJNURK43WO0t1jcGCyBHLD19eBg8a7Iyiieq4jXv/PTfCOU1taRZGU2EMLQZdw7jhvuiFcw7guHfflUAhIw3Nre5a1lZUy4CBg3T7vMyYNV1mNzbISmow4aB++OknznEc0L+/q6Hlo/SRcFj69OmrcUflsy++cLW9a44apetmy+Tp6jxWRGXY8BVVv5IyYdJ4fSNnXUuQXL4ogwYM0n37SV1tvWveNked3c8++UyPO1PTH3afyZmn2jqgX3+nra3NTfLFxAnOmUZTBw8cLPHvHqUAAEMsSURBVIl4pTrWMXn7o3elOlLUdCbcqL4Nqou8//up3g5ZbpjU9+qrDjFNkefJpAkT9RizJRrCRuga5FUf6WBCr7mcPscHH36kHH7EsXoFSnlkwoQJ7lMZ6CK/TR+XPWgYg+1Qo8a8f4+RV6khY7q47hUtxQqqHa7rVDAgu+64nUybOL7UbP570pDpvs+M7/vpa0a5PxTyUWPKbwrXpk+f7j6jRQ3n0KFD5aOPPnL9TLmH77zzjps+9dRTzpHlm/vUuuK44vTOnDnTxU+8bMdxcEJxXPnNoHcMtMSzQL9X5vkEF01/rdvCd9Oe3fDAAw84p99DwcNVV13l1i1ufTQntQsT0JcvJ6qPlxouEWlUx7IyHNXfpU8t0Ge1WR296oiaqJph1VsUPquQzap5GigZaNlCUirpJ6pXLVMgzpDbh5L3WIjhRairZaTKkGuaRjPaGnUgm7JqUKmwxzXeBj0ufT81Rk0VTX4Z5VLFK1jUEJK56ZQkWK+ZIKUOLzWtGRUgPZg7D5rERSIZmdeakYg6VpVqIBfb7l0OQ4KbqSmJEKn+S+dTktV0YIjSXFg3cYOdVIUrpUWN72xezznEp3H0OdB9Cgyq1IUxJ7XzYU7q4iOvuhRWryqfV7VoO2+avqoElmodVd/cdrqe+Uy2NOKt21avVUlDNA9pyOo1YiRgDFYGnGMUYDdarzqG9EnlOtK0Fl3CCW1SY4jPt1AIWKWOLt0lyF/8xdR4WjCoB61SdNtKdTjp15pgXa5VUqrFEdViWpQEgnR/UM3L5iWjtlVI8y8DMnHMtOodeh1lQDuNk9YpziDUYza0NLvBjxj0KBamVrkoSRVztu9RUyuzG2br+oLeQ4w8cQWEWT1XRvPlN4M6kWaaCeuZ6rrSZ2i4Sl0Bc1I7H2iYOakdH+6Bvw/cF29ncM+4RxSw4TSitd7xZJ7tabrL9i+99JLU1ta6rhd/+MMf3PbANmyLs0mcbOv7nNJEmPjp+8qU5V5riZf9fDC+nfbshqXppHZtL62bUyyqE6KvXgwuBDahNqdzUPWPmtWgrquJJPT/hATy6vil1WnUfSrUWWUkR/Vd1XiJ6b4BNUyc/6fGa1GdPd1DMz1OT0BwYEPOacXhZPtcPiQxNWwigajuF9D4cE9LBg0uLc4oziYDkGTzQXU6aT7GyLu6XI29olpg1Hqwj0s9YpSJSrU6mcTvHVRglE4MpkCATyPk1chg34jEgwlNQ1xCRT22+x3VdVmJ6XlXqMNOM7888WhaDcPoulDIVczqVJ0wNWGcJgSy+jLNoR2qJzot5NCZiOpMUTUOnVNt0f3Qu4IaOUXVMVU41S11NHHmVPco3CqoXuZVwyjYQ7MoJ3OGWF71JZ1RvdJjquYkcGhzGF+kqKS9WQaqQ1c17lwq5woS/TSPBhZiUhGihYg6o7p9sKDOYjamcxUab0KXl7QXfY+pnkZUz4q5vNNX0gC0FqlQ45DRi9FNd0hNdxSnVdPa1DTfaW6+yIB1FEWqE0uHUz0n9JPzpRBQFV5fKBov14brqVsahmF8G96RZIrjyDza5PuZUqPJ74XnAaeS39SEQmm08pK2EQ8B+I0jyn5MGTmYKfg4vIMKzLPe7290bMxJ7SZolm6b+/o84DguvAy+77KF8dt88zj//b2obaD9ZSXhAtYv/PddLGrbhX8bhtG1wInz+HnvZPnfTPkr1aF+ffvy3+UsvO3ClK8vn/p5WNS85/tu+33Xefwyn8byP78cypcZhmEsTrxD+m3gTDY3N7uRyqltpUaWmtHvw/eJ3+jYmJNqGIZhGIZhGEaH4rDDDpNDDjlELrvsMpk7d65rUmp0H8xJNQzDMAzDMAyjQ/HGG2/IuHHj5Msvv1zQjNdPja6POamGYRiGYRiGYXQo/Ki99Ef1AyQZ3Ycu6aRacwDD+CYBN+CJn7c8YrSHf0KsL49hGAZKWCz+d+yKAMOCG0sNnFL6lvopAcfVWLpgMy4Lu7FLOak8uAwvzShgHpoFMDosgz8wJiP6EmM0w7wNmGN0DzL6rMfDEQlEQzKvuRG10YxfyvoMSkAJJfnGvwCMrgn3Go1kytD/3HdGOizo89GSSkpOzbGCvvsZBZvPqBhGd4CR5mPhmFRW1UpK80IwENLw3xobPnnhRxj133w0ug/ZYlbyubwE1WQMFnCQopIuWHPTpcXCNgm/rbnv0gPHFFuBwKeAvKPKffCjNPva7iVhP3YpJ5UH1z/AXDBGACPw+RVc0lQ6XfpGpy6L2svG6DbwqYyiJFuTUllZibq4T/DgrJBXEBjEhryCEBldF2948z06NNIZ3wFfMq3PRa4ozZm8Oq5uM8Po8mQ1T2AjZFQDyQO0OOH74mghecQbxOjjkjDCjI4NRbqBoP4fKn3bE63keTGM7oB3PrEdymu1wY+y7DWSbRc3Xc4i9YY3LxhKQJ3Tqsv4eDovoUQsqgKjF9haOxrdBD6sQb5I5nMyaOAg9+iTH6CxsXGBCFGbak5q14b7zD3mJcO0pJUhCTsDXKQiUaXPR1g1s20Hw+ji5PTBLxRxUjMS1jxBQZ5v0Ul+4fMX5BdqUfltdC/4QB/3nTtfKBSlrq7WPlxndBvKW2DR8qq6uto5p9iN2BAs5xu3S8p27JJOKnABZ86c6X4HQnoh9SWUqKqQQYMH60upINk2z98wujpxFRSe/wo1skaOHFlyUNoEZsqUKU54mMcI8yVkRtekvKQTbWTERPpbYYTlsnkZPHio9KvvLfmiFVYY3YOoah/df/L5nNRUV7mCPF+IjTby2QsKc1yrLNPHbsfkSZMWFE6E1ZYcOXI1CZXpqGF0ZbATcFKxEdHDfv36uWa/ruBGQzKZlIaGBrfe55PFSZeyRLiQ5RdpxowZrlkbNak0b+zZq7esMGJFPWu92PpCMozuQCxa6qNdo8KyyqqraB4p0IDJic8kfQEzRWCWlMgYHQPfNMffY+77m2++6X7zl0ylZIg6qTiqBXNSjW5CIh53tWQ06xwwYKAMGjxIim1VqdgP8+bNc3nF5RPTx27HSy+97N6NvgXSeuuvLwMH9C+tNIxuALrHWD9Mhw4d6mpTvR7S0oSwpOiylggXDwOc5owhVZe8GubhqkpZZ4stZeByy0syV5RsMSeFQKF0FfSlRG2T/dlfZ/0L6IMeiobclN+ZQk6S+axkMwGJxmtk9EYbSb8Vlpd8sDRKW0tLi7zyyiulF7D+xiBj3lj2cD98rU157Y2vCfX37Mfi933xxRddX+VgICi5bFZqe/eT9bbcTmKVPVRES4UZ4WDIDS5TLOivQtj1z8qrdgrLimGpiOhUnzcLFjpycG14ed8vFEKxsGplVup69pKf/HRb6dd/gBTzJQNs/vz57juNQL9908eOAffGwzx6RjNtPwAgBXL+XpXrJPM/9B6OG/eee1fioFLZMWLlVWWrbX4u4XDQvWPzxbybZ1qQ/NeeuQXPnmF0AsgfC4eqqirXkgQ7ZMSIEbLVVlu5fMZv1k+dOnVBZUf5oLWLi1BVdfWZbfNf48ebP8sOLpJvKw04qIlEQjbeYEPX1ySrAtO7X1+pqaiVlrnzJNXS5M4zWAhIRA2xRDSmgqICp9tasNDZAk3Ym9IZyebVYdW/ChWSmopKaUoVZN0tNpfdDz1I6nr30teoOMfjiy++kJtuumlBv1SacjAtNwCMpQ/3oK6uTvbZZx+nZ7wgHn30Ufci8LCcFwXr/heoJRo1arQMGTzYxRfWMHzlkdKSapEJn42T5nSrZPQYiWhIamoqJJtOSYHCvWJWrUN9yopBiaqD25S1Z8bo2JCvAqqTbloW5jU3SG1dvey19z6yz/4HSqKiWvIFdXzUl3n55Zfl9ttvXzDQGJg+dgxGjRolm2++ubsvvMNuu+02d29802xY2GHl9w+9f02NTbLJJptI7z693YBJ8USFaxKebG2U2bNm6vPTIrFIWOpq6ySXV23UbRYmWyzZpRYsdNQA7eUN8hPLl1tuOdlvv/1k2223dc4o+Qqb8ZFHHpFnnnnGzf+Y/PVddCkntbx2gQvF7w8//FC22WRzqe3RQy8qpV16sYcuJ3169ZJkU5OKjkhLS6sa91nJ6YsJgaFzvAULnS0wAE40FHb9TXE4ampqpb5HL9ly151k2z12kfr+fSSdz0tErS+G07/hphvl9ddfd83kfS3B4hYY48fRQ/Vq1113dS8DNIn79Mknn7h+wwTuV3v948pfOAuzqOU4qmussYb07t3bHYvnYYUVlpdBgwdKMBqXeU2N7tNFDa3NEpJI2yc61OjTwCBLor8bnM8asGCh4waK7lQjnfdZFjbYaGM58KCDZaeddpF4vEIfZF2s20+cNFFuvvlml+98VyLTx2UL9wX9Q6cYXwHn0d8TChSmT5/u5v2ykj1XCp5F6eCiQGdp3rj66qu79ypxMXjSKiuPUH1OSCrZKulMVlqTKcnmqEn9phamc6Vnx4KFjhqAvLFwGDhwoPz0pz+V/fffXzbddFP3+ToK7YCWeLfeeqvMmjXLVQjiqC5uAv36D2hXdZH0zgbiVV6zwIsFgdnxp9vKEUcfKUOGD1MntSBBPbVCLiup5iaZM3O2NNHpV884Ho+5WibD6IyonjhHtSQgRScmNIGq6NNHIrGoNKeSElenI5DJyVvq9Jx65hkybdo055zy8mU0bETJC5ax7Ojbt6/ccMMNsuKKKzqj6P7775err77a9bPnszHcI7QOfSu/X77GoNwo83Bv2wMDjFpbAjW4xMkgSjHV05kzp8vc2VMlk2qWXD4lVfE6CQUDUghk9QkLSkGdVhzVbDvHM4yOBHmiWPimtg0eOsQ998Egn2HSPBRgJMuiXHjxhS7fNTU1uVoD8pvp47KF6+8LVTGczz77bNccES677DL517/+5ZrmYgvy7mNAF+D+ea38ofcQ45vn45hjjpHtt9/eHR/7WE14dVCbpbGhUebMnSNz58yReCKux4627flfsoUf5hgbxrKgPRsBewNHlfxEviEvoaXjx4+Xv/zlLzJmzBj32+fLxU2XclI9XCz/QmE+EYvLzrvsLLvvsYcMWW6IW5bSi0nTH7W3JBRgWro5fE/SMDojPLu0FEBIaN4O+ktfkHnX/QqnI5tKy5OPPyFXXHa5TJs9c8HLmho7c1I7BtwDCg1OOeUU2WGHHdxLghLK66+/Xu666y7XTw78C4MpBhj4l0x797C9FxCwLbWoe6g+7r777tKnTx996dCvOarPEe8CfXiKGj9GfjAqRX2YClL6iLemQNeHJapOq2F0fNrPAxhX5CUKeehjRfO1q6+9xuU1n//c895OvjKWLt6+W2GFFeTMM8+UtdZayy3//PPP5a9//au88MIL7pMY3CvuJ9qI08pv9vMO6/eFkUxxdocPHy6/+c1vXBPj6qpqKeTyEo6ow6qPBHG7d6d7vL75jFgRntEZaM9G8JrnHVDyDwVBV1xxhTz00EMur7EfecrnzcVJl2ruC97L91MnTCGRTz77TCaNnyjDlhsqffv0lQIipdc+qEaWc1L1r0hfPp2nhMz+7K+z/emT7J7lSJDaLf3TN2NAnQ0c1qjmh0xrUh5+8CG5Tp2daTNnCgPgkD94gWOEITDkGWPZgdhTYMD96Nmzp6y22mqupgA9GzZsmDPMKNnv37+/Gwqez2xxD7/PfVuUk8rxqC2ijzLDyQ8ZMkTq6mvU4MpIJt8q+QJNeAquv1VUny01+1zhHtGFnBNLKP1vwUJHDYt6RovqWfDex6GZMWOm/PPOO+T2226X+eqYlOctnNXFbYAZPxxv2zGi6Kqrruo0kgJWCtoYeXTQoEGu5nPw4MGulQjbsR64n86Z1On3BeMbzUVrP/30U/ccoMXxeMLFRf9lV7mh8y7udp6x9hxXw+gMkFcI6CO24gcffOBqUJ966innrGI/+EKfH5Kvvi9dsiZ1YRA1xIMXDIbf3nvvLb/85S+lV69e7qJ7482XpvrfhtHZ8M8uosHzzJSX6nPPPef6V/HJEVgSJV7G4oUS/COPPNI1wy2/r4BOwRNPPCGnn366c2q53z/mnvLywejzzwRNjPfcc083QAJp4NgEjsFx2d4wugoYVvTLplbgnnvucc3Y/HKjY4EO+dpR5mtqauScc86RbbbZZoFGoYO889AqHNQbb7zRdZ3w95PtfmxhLMdGJxnl9LjjjnNTxg8gTntejK4MLUzuu+8+1wXC9/1eGnQLJ9VT7qwyUtXKK6/sHFVK4Mq/+2MYnRH//PJ88xJnysv46aefdqLi++eQB3w+MDoWGEHcG2+EDRgwwBWq7bjjjlJfX+80zN9bprNnz5bDDjtswRDwFLqx/IcYYRyH58bHDdREEGjiRkAnWW8YnRWe8fbyBQPuUEvG4B9z5sxxy3yeMDoe3BuvRejg6NGj5ZBDDnGDv+Ewss6/B9FTDOs///nPTttY7p3c70v5s1B+bOZxUrEjadniW7wYRmdkUXqHLtKU/uOPP14whgnPuW/+u6TpNjWp/uWEsJQbgsxDuYAZRmfHCw5T/2Ll2SYf+Bf0okTJWLZwv7g31AYwCBa1mTvttJP75AIGEc1xfR+rBx98UC699FL3IgGW/9iXB8ellgCIwz83TDH4OJ7po9GZ4VleGJ5rbx/459/bA0bHovz+Mc99Y0rrj7XXXtv1F2XUXwZ54R5SMMtgSrfccsuPvqfefvT7cjx/bP+8MO/TQjCMzkh7+cPbjTzr5AVsAcLSotvUpPoLzUXmRhC8mJQLi72cjK7Cwi/L9l6yRseC++L7pAIvBl4I3CsML/pcMdIefaSA5ts0w2E775z+UP3yjifHYJ7gX0LeSQXiZRvTR6MzsrAellOuifZ8d2y4T/4eoXvMY7exnJYnFOLRrYvR7RkNnU8I0ZIIXfsx95h9oHwflnmb0p4Xo6vgn/VyvM/k8xiU2xtLmm7hpHJBvfPpayD4jch4gfHGGRfeRMfojCAgPpTDs14O63nWF15udAx4KfiXgH9B+Ptafs9YvrBjyTY/Rr98HF4nF46H32ind5gNo7PBM8wzvjDlz7mf93nB6Jhwf8rvG3rJ/fX6hG76bbwuAsu9xv0vEB9xcSwCvwnE+7/GbRjLAp9HFoa8RR7iuS7PZ0vrOe82NaneUeUC+xeVfxHZy8joyviXJ/BiBXvmOybcH+4X94d5XgZer8qdQ5bxmRqaA3sdY0pgnx+Cfwl5A84v83GZU2p0Zcr10ej4oEvcM0Cv/Lw3ov08+O4PaCUjl/+vLOpZsWfI6E6QB5eWXdCtBk4yDMMwDMMwDMMwOjY2CoZhGIZhGIZhGIbRYTAn1TAMwzAMwzAMw+gwmJNqGIZhGIZhGIZhdBjMSTUMwzAMwzAMwzA6DOakGoZhGIZhGIZhGB0Gc1INwzAMwzAMwzCMDoM5qYZhGIZhGIZhGEaHwZxUwzAMwzAMwzAMo8NgTqphGIZhGIZhGIbRYTAn1TAMwzAMwzAMw+gwmJNqGIZhGIZhGIZhdBjMSTUMwzAMwzAMwzA6DOakGoZhGIZhGIZhGB0Gc1INwzAMwzAMwzCMDoM5qYZhGIZhGIZhGEaHwZxUwzAMwzAMwzAMo8NgTqphGIZhGIZhGIbRYTAn1TAMwzAMwzAMw+gwmJNqGIZhGIZhGIZhdBjMSTUMwzAMwzAMwzA6DOakGoZhGIZhGIZhGB0Gc1I7GYFAQMLh8IL5YDDoQjksJxiGYXQ3yrXP6yMhEolINBr9hjbyG00NhULut9dTliUSCTf1muvjgm/TWB9XOcThj0W8hmEY3xevO+WgJfF4/Gvr0Ln29MdYMvj3gJ9yL+z6Lz6++dQbHRoEyBtNZISFMwMZhUzCesMwjO5EucGANjItFotSKBQkm81KJpNxv/12OK1sl8vlJJ/Pu+UsA5Ylk0k37+OKxWJuSmjPaPRwPPD7sD/LvF4TL/O1tbXut2EYxrfhNQXQHrQFzUqlUl9bh86hYdiKbIMtWF1dLb17927bwlhccH29pvtCUO4F98VYPAT69R9QbJv/Gvpqb5szOiJkDIwtxMobXUzBG2WGYRjdCQwynEtvPKCD3pnEcEAbWY5BwTzbsg3b+8ByjDq2wQD0BYJ+3fz5890+LMfpbQ/29ekgwE477SQ/+9nPpKGhQW666Sb59NNP3XLiNAzD+D54mw/QFn6XaxzB//baY07TkmPh+2HXfPFiTmong5IaMgQGUDks88LkRWtRBpRhGEZXBAMBLcSBZFpuKNDEFv1sbW11tQ3euMABZTuvoaussoocfPDBstZaa7ntfI0q0wkTJsjf//53+fjjj92xFlUY6ONkSrz9+vWTM844QzbddFPn+F5zzTVy8803u1pWX1trGIbxbXgHCE0B/xvQPAIa5luN+PXokNc+Y/HitZ5rT+Ek190c1MVHqKq6+sy2+a/x30ff6GggUGSGDTfcULbeemvp06ePM55Y7g0tplabahhGdwKjDG0ENLC+vl622mor2X333eUXv/iF/PznP5ctt9xS1l13XRkwYIAzJubNm+e29cYGjiMO6ogRI5xhh3NLPIMGDXLrxowZI9OnT3fHYr9vAy1GhysqKmTjjTeWwYMHOyf17bffljfffNOMGcMwvjfetgP0B10ZMmSIswP32GOPBa010LxVV111QWsQHCemxpKB+8L9QOt5j5jtvfiwmtROBqJDBqAv05lnninbbLONvPPOO3L44Ye7UjLW0ZEeQfouA8owDKMrgaHgnUec0MMOO8wZbHV1dc548OtwDjEsvvzyS3n44Yflsccek0mTJrn1OKXDhw93TX6p5WTZrrvuKjvvvLN89dVXctxxx7mmusS3cIsWjz+ON15ghRVWkPXXX18aGxvl1VdflWnTpjmnN51Ou/WGYRiLAh3xhV6AdlDwdcQRRzitq6mpWeAg+UDXgnfffVfuvvtueemll6xQbDHD/eCa887YfvvtZcUVV5S33nrLvU8W9W4wfhhWk9rJQHi8AUTJGc3IqAm46667FmQKL2Ltwb6+KZzPYD4+llNzwPJyMUMMfZxswzz7+d9VVVULms9Rsufnfdx+nv18c2W288dgG9bjXCO0UH4OHAN8HD79GJFMwS8Df0zi4xj85hxYRgCmpAV8vH7eb+PPm/0JhmF0bMjT5Hlal5x++umy3XbbOW344osv5J///Kfcf//9rlCvqanJ5e2hQ4fKOuusI7NmzZLPP/98QTO5mTNnOqeVGlOcydVWW83VvrIfBsjcuXOdTpTrVDle07zeEXBOMWA4DgWKLPs2J5cCSa9pHIvffhmB8/JaxW8/76cc26cPLWNfHw9T0ufjZxn4Zaz3mlceL3H6Kftwrf368vgMw1i84AihF+Qx8uZPf/pTufDCC6Vv376uUuLxxx93fd3//e9/O31iG+xDWoSgh2gPGlSuScB25GHsJfI0v/02zJfna2wu0sAybxuxL7893l5jn8rKygX64PWIZazzy4mTgjqfBtajw+A1juN4jWJfv9yngeCXMeVYLGM9y0gfv/25EJePB9jGB7Zh6u0/n9byqT8mdixp79Gjh1x88cWy5pprypw5c2Ts2LELjlm+r9+PuLmOzINfDmxXfj39ft0Vc1I7ITywZC6ar/Xv319mz54t9913n8tQfv23QYbxGQgjg9+IA7/JON5w8pnDO5PeKGEZgd8ck8A+bE+G9SJBvAS/D8uZ59g+g5Yfg2WILQLl01iOTwfxsI9vvsK8FxP28fuxjHWkBcOT3xwPEWRfvx7Y16eFeb/Mx+nP1TCMjgvaQD5dY401XBNfDDuMtvPPP9/VJHz44YfOSX3uueec0YZBQU0DtanMe+NhYagBxUmlZgInlW3Ri/Y0wWsOOuY1y+sKgX2YsgxtWZSusNwbZuA10mucT6c3/oA4SRfxMwV/TLb3afBpIx6/Pduwv9d5YL2Pn8B2bMP+BNb7d4dfbxjG4qdcS3r27Cn777+/rLzyyq4ADgcJG/CTTz5x9iBdEp588kmZOHGiKxB79NFHZdy4cW5/4iGfopXkfZ//yc/Acm8vsZz1VESwH3YTv1nHduR/rw3Mo59eF3A+2QYnmr74ND+ePHmyK+hDU7zWeDsOu4yWK/xmf46DZnk9Yp59/DFZ5s+BdLLMz/v0s73XYvA65dPLlPj9cvYFfzx++zhYxjzLeK/443BM0kylEd1CXn/9deekst5rNNuUv1uIC0g/cbLew7w/DoF0Evx2pLM7Yc19OyH+gb/++utdyQ2DeOy1114LMiLr/QO+MDzoZAy2ReiouRw4cKAsv/zyLrM2Nze7WoSPPvrI1SD4jEGm8hmEDMr+lM4hOAQECZgnfrYnPpxoanrJnL7pHNuyHfNshzgxWAlN7EhPS0uLfPbZZ854RAQwgsqbxJFhiY800xeX0ixEhFE3vQgst9xyrvaDc+Q6vPHGG+6cuG7ESdrYlnU0BaS0kf5iHIs0Ie7jx4+XGTNmuO1IK7R3TQ3D6Fjst99+8vvf/95pwuWXXy4PPfSQy8Pkf/IwWoYeoSXMk8fRNrZpL48fc8wxrlkdunDssccuaO7rNXdR+E/M4Nyii97g4Bj++N5gKcenFd1jW/SKPrErrbSSqx1hP/T5vffekylTpri0lxtj/hy9xmI8oYdoLHHhZOOwU6vLenTP66G/Dv66ANo4bNgwN0X/qZGhlvn9999f0KeX8/PbG4ax+PFODfbKrbfe6vLis88+61qNkA/5jf2EjYWdgx6Qj8mf5HOvNz4erxdoDU4k8aIF6BUtSbDDyOvEwb4+Pq8rgJ706tXLaQtdGliHTcd0s802c7WMfP6G2t2jjz7a6Q7pw/FFL2jFgv2HPcc+aCvHZT2Fg2gOthiFir4FC+dDOnEOmSc+bD6cduw50o/thm2MPYs2sh3p5zyA32gpaSV+1pFW4sBuJW3eFkX3vaPKctLJ/pw3y9nv2muvdVMKBC644AJ3P0gj7wD0lv38sf09YEo8zKOvXD9sVrbDRsZmpRCCewncX94b3QlzUjshZNIf66QCGYzM+bvf/c41dcPJI/j9yBzUNtB8hBoGtieQodiGzHTHHXe4jHTnnXfKX//6V3dsn+FYjqFDZ34MRTI8GZjRLInHZ1bEDUH45S9/6UraKHHz6UMgn3jiCXnkkUdcvzF/bOIl45OpqdEg3cxTevjb3/7WCdK+++wj2/zkJ64pH2Coch4XXXSROy7HZx/Cr371K9dshsEHEBiOwbHYZ+rUqU4k/vWvfzmhYj/DMDouXnsOPPBA51iSj6+66irXzJfl5HmmBPI6WoNmMfX6114+/6FOKobL6NGjXf9VnEPiJH6WY1hRk3vWWWc5Y6o9SA/xo0Xo2Lbbbiubb765m8dQIS4MF7SRQZjQSRxGv6/XSzSWGmBK+ddbbz1n+OH4kg4K+B544AFnVGHQce7s4/WRa0RBJBpJ3zeMQIxBlgPXFieXGhq6mxAHxzUMY8lA/sT2Iy/efvvtzv7xWoIjxG9qTsmHXgvJ19hM3kYDdIHfbINzSn/7jTbayNlgXtOIj8J98vYHH3zg4uLY6A4aA/SF3WWXXdzYKKTJawP6QlqJAzsKzUE7r7vuOle4tckmm7ja39dee80dYx+12XDOSB/ngyaheTi56B3agq2J3YmThj55DcSJJf3YcdianBPrfPcKCiifeuoptw/XAkg/aaSFDbYntjTbUriJTnKeXCO0mppRmlGTTvDxMNYB48JwbgSuBcsJ7IfzSzpIO/Yv9ixp4thsQzycL44pxx05cqTTd+4V58W1xJ7FSX3hhRecDUslUnfDmvt2QnjIecB/THNf1pGJqT2lvxaiRhMRjA2MHDIUcVJiv/rqqzsDBFEh02K8sC8ZbO2113YlZ5Q0Pf/8804YvXD4jIpoMJImGY5Mjlj59cSDGFACuMEGG7hSJ+JBtDgegocDjTNNGsicpN2LLgHjj1oEzoXMThMLxG//Aw5wNQc472R4xAKhYbAS9kOcmDLSJ8Yn4uKFgG0QZOLzJXM4qhil7GMYRscFnUIjcK7QFUrV0R80BYew3KkkP7M9uoK2sR+GiTfkyvmhzX29zmIAMu9L9ilVx+hCU/7v//7PbdNeHED6qF34zW9+44wwr1PoNM4p2kvhGjrJ+VGryvmxHwGHFMPzpJNOcg4zBX/UuqCF1EgQN9eIa0WrFTTWnxNpZp6BpzCgeCf4ZtI4xQwghcE1atQoFzDgOL/2HHzDMBYP5GvsF+wtvu5AvkSzqFjAFsKOIt96J5R5AvmSfcHbcAR0DX35yU9+4hwttAF7C33DecLGQnewD7EzAW1AIzj2oYce6grAiPOZZ55xDuErr7zi9AntRXNYTkUG2kG87EvlCulHe3DO0DRsL+xO7Eq0Fq1kGcclHRSQ+S4anBPnR9rQp912281tj45xfPSJSge6fWCrYr/R1Jjr4q8FOsxgR1S6kFZGRcbmww7EFsVB5DfH4Jo//fTT7tz9dfS1x2g7BX7YoWyHLvp7gS5zLbgG/gsc5XHQOubII4+UHXbYwb13uPakH43FXsY+J/1oOaPBcyy/b3fBnNROCA/5/+KkEsiAOGOUkhEQEGpOyZyIAKOUkelw8Mi07IMoIEZMydgYJxh5rCdjegOFdCAYhxxyiMvkOIu33HKLy1xsQxxkPsRtiy22cE4ypWr/+Mc/5MUXX3RpwGAicyJiZHJqMhEY4vYlUGR8nFoEFgGj9IoSf9KCU0wgnZROUQqFYegFmlK70047zZXCkT5K+Cilw9F9+eWXXc0E1wdDkP4dXGN/fMMwOiboAvmbKQVMOHEYPnxSBjDE/DYYOjiw/C6vnWyPH+KkshxjBc1AS6gBYNAm+sQSD7UVaBql+9/m1KFRtDLhsxLoFvpI0+V7773XObhoFJqG7lETwJTjkia2R4NxMjl3jLs///nPTutJE84qGktBIRrLeprdoe3A/iyn9Ql6S9ppwvbggw86I4r3BX3euA40lfPxdTcDyjCWFuRJtIX8iF2Ck4SDR1Na8jG6Qi0jGuZtNbb3edoX4HndogLgoIMOci3ecOKuuOIKZzOhS+RnjoGjSsDhopkueuX3x8ncd999XRct9O2yyy5zjhSOIoVWpAvHjyn6gZMI7I9NxjrmGTPgkksucbrEsdBtCtHQG9JD4dhWW23l9Aj7EMeX42NDUoO75557OicObUQH0UYcSuxKjk2cNCdGr7y+Y89ybNLAOwI7l5reK6+8Uv72t785Z53zIJ28P7Bj+T42cGx0jnT85z//cY45duiOO+7oNBd9pgUNuk9LFdKMRnLfgON6naQQ8aijjnLny/ZXX321ixON5RyY0mKFa8Ax/LG7E//trWt0C3jAedABQwkjgwyL+JCJKKGjWQJOIdtS0s5yhI7MhUHHPCVrOIOUQJGJyeTEi5HEdhhYlJaxDMOIeAHhJF5Eg0zNce+55x6XATmOLwEkDYgl8dDcjHXewSUNTBEcDEEEhP0QK2pO//KXv7gmuogOIs62CIoXB87X17CSPmoAKMnz5+gFDMFFPLlO/DYMo+ND/vUGB8YWOoUhcsIJJzgD5Nxzz3Wl19RyUkqOPpD3va78r6Apvt8QjhtxA31I0UrWU6iGnpHWRUEBGwV5GGAYeaQdQ490sh/xYgDR1I+aFMAJ9zqHAUShHWm5++67FxTSoaXEwbWhxB5jl0/ssK9PD9tgcKGrOL/oIyX76Lt/h3B8nFaasvm+YoZhLBnIdwRfGEXBP4Xr2GLkWyotsH3QPbok0FLO918H8jR5lLzLlO4DVBKgD3SH8E4ccbENmkEFBM4tthq2nk8D4BhTW4m+UrGAfnAsrxnExxTtpXAOWI/2eK1ANyhsIw04xVSMAPFxbLZD89BpnGF++305N5oa45xjP+Lk4dD59OHYUfFA4ZtPA+dF8FA4yfnyvvjTn/7k7E5+Yx+yH3GQXn6jk8TN8f2U80MHOS7XieVM0XZgHQWb4JexDdeBQCUJsI6WMNjjpAlIB+eO7mMjs40/t+6EvVW6MTz0iBKZkMzEFJhHNMoz88JQUoboEWiqgNggTt44o5kvmZVmDxhSxE0GY0pAHBEdMiGZk3SQHr+ezEopEgJITQBC5IWB9b5EjDT6psZkekq1EBa2RchpYoETilFYLi6kEweXfTAGaSaM4JIGzt9fD7b1wvZt18MwjI4BeZx8jWN16qmnyo033ugMOfIvpfFoEzUI9EeiqRsl9157MEY6AugOpfgU0uHoordoFufWHuXLOU8MHN+fi5YitApB0zhPH2iKhsayPc4ssB94fcXAosaCZnE0K/YayHbME9B90kuchmEsWchz5GWcQhxJdIyKAArisaloGksN5xlnnOHWMco5BV3oCJB3sZewqSioRwfQSuJFA9ES8j/xU6NILSo6hKMH5Hf0lX2Zx74iABrgtQMbju3QBioSfMEccS0OiJMWfxTQ0bqFtBOAc+AacW6sJ61sy3JCuW55e4/tuDZeA5cEHJv4uQ6kgWsLONw0W6byhuvn0+nvhy9gYL67YU5qN4MMwsMOCBeZghI3+hYwyBFGHSOw+cyyKKgVoMkXmcc3OWEeEEr6o5LBaEaGM8gxyZQ+w9FUmPUYXrTL53gYi/SdolkdU+KkdI39ECTiYB9/Dj4ghMSLINFkxJc0sozBoWgyRzNef3ziwPkl/ZwHTuopp5ziagS4BnTYZ5Q7RJV9iJ80s59hGB0XtAHjA6MDDaAACyeVrgcMrEZzMGoPKVTDCcT5OvDAA11BGHkcw6wjgOagQegbGoiOcm6E9mA5WgVMfV8mzoeAgYnxiq4ScDiZUjuABqPZ6J03goiDAka6kXB8SvwxeGnyhoNPoR59WimIZH+0EUPQMIwlA3kTPUCnmCfvkTexeRgcDlvnnHPOca0b6LuO9tEnE92jpUR5/kQj6SoGOEy0msAGQxdoYYI2YNex3GspBXzojM/vOL3oBDWsvoAf3fJOrB+IEtjHaytp/l8hHTi73uYkDdiPaCbppxUfv7EbfSs+7F32I01MvaPIFJux3LZkCl4P/XRxUB4nrfWoNebY1GzT3Jdm09QQc/0pSPAFp2zvz7c7YU5qN4MHnQyBgUbzWESN5mIMIHTAAQe4UYJx0jBAfLOD9iAOSu9oEoFBxCBEPpOzL/FTMkUzNQSLjI8gMCUgYGxPfwEG9sB4JCC29C3AYURcyaRsj/D543oRYZ7zQUCZp18FNaccD0FkHQJFOnzpFPGwL+tJP8eh7wGCj+PMt8doDkg66CuA0BG3P65hGB0bb2D4PO+bqdGi45prrnH5moBxh3bQpx1n1RtaHQGvkV7n0DDw57Yw6Br7eG1EA3FAWY7BRq0KzcYYwITmgGgs14KuFN5481O/P8e84YYbXJcHmsORHoxY3hWMIcC7g+bIOLBcXwxRwzCWDORJtADIo17fcFzIezTnpz8k+fL44493BUoUxqED9GvH8WR77DD2wQElHmw1RqlFG+iXih2GXURTYgrtqSxgO7SE47MvacHeYmwTnFc0FP3wTh/r6S+KvtIUFhuL9LIvDuH/CumhcoMphWsHH3yw0yrSTrqx3yicRPew69iO64CdxzUgAOfDOmAZ815DPX7bxYE/ttdq+qqixaQZW5VmzfS/pbIIh5WBRbmOpJu0Mu1umNXdDSGzYlxQu8DoZDiSZAr6HdB0l08t0GwWcWkPMhfiQxMRhArhoe8qIoZQ4aRS+oNAsg0ZngzGfh5EjO0ppaPEnuZ4TKnZpOkItaI4nMRPaZNvTsKxEEIC+CnpwfGkdM8LDcdgirNdLgyIKMfGCEPUafLH+dN/gVoWluMc47Aj0hh55aJlGEbHhHzujSHyP/pAqwmarbKMQEk+ukSJNcYT2kFf0cXVDG1xgVZhfJJm9AcDxevdwrCcc2fKeaO33iBCFzGGyjUW45Ipo2DSPYKaWl/DwbG8XnLt6K9G7SmtTRjkhFYpGJqM/s674vDDD3eFjYZhLFnIm9gvTMnnPq+W21Pkd/I6TYH5lAvLaE5KDaPXBHQCXQG0kW5XaAM6gSYwTx90xuNAHxg8EnvO91NHG+jTzoBJHI/WaieeeKL7lAy25R/+8AdnS5Iuxhah2TD7sO/igHNA54mT8yPdpNmn209ZTncyNIuBnzhv9iEwz/VD//05+evD8iWB13J/D5gywNNtt93mKo0oLKBfLAUObEvXFGrI9957b3ftF0ctdGfDnNQuAA87zbXAZwCCh2VkQD/FIGNUM0qgGNGXkjc6uZOh6deAY4gRwnqfWX0JVHlGRhxwINkWZ5cSddJCaTuZHnGgzb0XhvI0YSQBzVIwFv/4xz+6wUwwenCeaX7sv02Io4hwEg/Biyv4tLDcCyDpIt2IOcv5DeXzrCcQF44tnfcZTY50MOgAJVuso+kx6fDnbxhGx4U87fOqLxijkMo7buXNzjAO0Dx0glpCalwXhddBry0+fg9awTH8PMfF+PH4/dnHzzMtn2cfgl9GyTpxEdB3fz5e84Btmecc/HLSQTrpE4bmoecMqIK2+VpkRv1FW9E6jCCMSgrn2N7HQ0BTOS6FhDirZ599tguM+svIm7wjKOmnJQ1pMwxjyeDzv7dzyvUAh63ctkF7KGDyX15AE+mT6SGfex3EEUUf0AE0AnsLW4zCe7p+MVIteZ7+6zi0HBdNQl/4wgIFXNS28pksBqdjACKaq5KuCy+80H3PFTuwPX0o1xpAu0hbuZ4tCmxI0oJuoU2kn/Sia6Sdc0DXOB9qVNnG1z6X6y7H5HjExTqOz/LydHwbrOeecD19axJ/rlTWEBe/uWbgNdYvJ2CDYgtTsMBXJ6hBxS5nAFMGk8Lxx2736e5O2FulC8BDjpFFJqDpLQJF5sA485nAZwygfxI1hWRYmnF5R9JDRiAupuzjjS/mfVxkaGBQDowpRIqmChyT5iNsgwNLyQ/xEPwxyPiUagHfM/UGFZkcEUR0iJPaVISIZWR+jk8c3lAkjb6JGnGSNpYhGCwjjWzLlGvi04Bgs4x5L07+OpEOSg4ZTY154qO5iL+uhmF0bNAR8jZ5l7yNAVBuwBHQEq8B3wevnWzPPHHgoKE1HAf8Nl6n0BZgG0rBfd8i1qFvPi0sZxu/H1O0CAeaKZpKfzHOgd84rNT6MuU3oNFep72eobGkDY2lIJGxAVjHsbkmBDQWnfNGJMf2cZEW3hH+OhEXU2pg+UwCgXg5N/qCocWGYSwZ0AHyIrpCPvT5Fe3APiH/EdgOyMPMY7ewj7eb2I95bD/2xxZkf7puEdAJWtGxP1NsMJZzbGCKxmJH0YKOGloqObxjyJRKBgL9Y/0nY0gDegIct3zq8drM9rDw+nJIJ/GRDs7b24voGulD0yhcI+0sR+dIO+fFtLyPbvnx/Dz4edLVHiz315k4/bX12/t3gD8vfjPPPQP2IfjtiAtNpSYcffWj09O0GSe1O9qg5qR2AWiG4Uu4MEDIoDzo3lgjU/jMRCZiORmGzMR2bMO+bENmweGkSTCwLRnQlxCVZyaglJ6AocUQ34wSSckPtRQ0ncWw8RmUKTBPCR8CiGPLUOaIDOJCOrxx6Q2s8nMAju3Tj0jh1LIt58J+LPfHYznzpNunmfVkdpolU3vCdlwXpmzDFGGguQjznDvridswjI4L+Z3AoEF0X0CLyLvkawwD8j1TAoVPOFdsj0OIkbMoyPvoSLlDiS54rWE9WkHgN9ugW95o8dqGrpAWAuvZ1juCzJMWQMsoLMO4woCkz5fvM4veoffExT5oJFMgXrYhbXwbmimFkgygQprQXJ9mpmyPBvq0+PTzGyOOfXHGOQ+P34Z3DekECiOJzzCMJQN5Df0iz1JIRRNb8jWQF8mDTNEF5ik8oh8q+RfNoKaOvIvGoDlUIqAjNAVmIDR0wNt34Lt7EQ/5nX28nQRo4aabbur0B0eU+F599VVX4zpu3DhXQ4ujyL5eP9CVxQFx0kQZOxN99HYncAwfOC7pw47lvEm7D4tDr/y14N6g8VwTCg99QQFpIK389teAqV9O2miFiKPt01V+jXGwvcZ214HpQlXV1We2zX+N0iUyOiI8wGQ4vovFCG0YIogBmZSRahnRjAefGk2MDPoLITgIGJkDh5DO2YgX+yJerMdQIg4G06AJFxmODEJ7fgSB45KxgOOzPevpOM+HnYkX55ZSf9rV05TYZza2BTIgAXHkWJTCkV7wtakcA8Fk6HRGCaapL9t7ODbnwX6INdcBoaIfAjW73hDl3Jj3BiDB70uTZPqh0kSZa4eosz1pw3GmPwXNV3ghILr07SBthmF0XMjbaCDNvujHQ/7G8GI5+sc8eoVGkf+ZomF8dB0Da1GGC1pDH0yMDfrKE7xOUaiHgcIxwGse69FftAhdQavpZoERQwEYzeTQI4wPtiEdbOfjIU60CP3m+Ogx5wAYNaxDp/ncBEaid7KJA9ifEX3Zl2vCvtSCcg3QNbQaQ5dRJTH22J50sJ4pg0nRVM4v4x2BoUo6iJf11KSgi9SkYKT6tBuGsfjBliF/MxASTWsZL4P86O0c8iqaRK0bA2DS7BZ9ocDr1ltvdXkYfWJb8i01dBTWe1sQDfCFWCxjVGDsKypC0Bf0yusbGkLFBMeiAA2HmG8zE7AH0QbSxXHQHm9/MaVwcOutt3bHo8YQGwztwPbEpiO92J3A8aihZUq3LLSOOEgvaeC4NGXG/sROZTlaikZi56FxHJeCSPbjOFwn5rHzsEOxHfmMDWnlOOyL1lGQiQPMNef6+ZaB7MuUuAhcMxx2tBbH0xcwsh+/eQ9RUMC2Pg1cM7T7wAMPdM4o6fbb8I6gqxmfpcGO5/ow0jq2Ovt3JwL9+g9o94z1NrTNGR0NHnwyESOZIVJkVESE5d4hIwPhuPEbYaJDNt/aI+NhLNFun0/PsB3GEs4d2yM4OLg0k0AsKEVjlDRGhsRQAeLnWD6TYrzRfp4M6mt0Tz75ZDd6phcllgH7kF72I+0YQYygS3zUyJKx2R5DEoEg8zIKJQMcERdpYIr4sZz4/EeaESjSTVx09EdUEB2OB2zDflwDhIu+pgg6+2A0cg25rhhvCDfwfcG7777bGWHs78/DMIyOCfqFvvGSJ3+jAbzk0RLm0TVqDzBqWEZhGv2VaGIF5POFwRBi9HNqNNkHJxWDBUcR/aDvFcs8aA7GD32i0BPiJFDDi2ahyWgueoMm0bKEfvDeQGQbpmgj58IncjgXjoFOoYPe+EHv2Be9wxj0mkscGIwMbERhIEaQ757BNjjX6D0GGqP1MsCJ12auDfsxeBzp47g0D2RffnONfZcRjEkMKJxUfhuGsfjx+RoHi8IpHDfyIPkR+wXbCX1jPcuxodiefIv9hg0D5G9vv6GROIYM0EPepfazXF8ojGL5pZde6pru4vyxH6AVFFTxFQY0Di3DPvI2GtuhF9hQHBtnFN0DnEO+ooDjix3GcdE+BmbDgb355ptdP1kgHuJgiiYx0CfH4Rw4z1//+tfOIWceG5LKDrQOJxudQucogMTW5PoQiIv0MqIxLflYT/987FfWsS8ONPpHYQDnwzVH61nvj++vJVP6jbI9DjMVK96WRUu5R9iRfFGC7dkfG5N+tDjBXFecb94t7EPBAudD4SLX6P/+7//cwJ4cn2N1J6wmtRNCJiHT+JpUHmoechxKllPaT+ka4kJGZD2ZHyHjN5mP/kqIGBkF5xIjBqcQgSMzMCw2kIHZnrbxxMexgYzCcdiejEWpGXERP6U9t9xyy4JaCZ+RPfwmHvbzfVMRE9JBoOaAUiaajDDqmf+OFPtxLhyXeT6dg7GJWLIcyNQYhwgzn5wAjsV60uDTxLVgGwSM0kSOiziSDgSXc0UYGBwEJ57jE4c/jmEYHQ/0CEMD7WAEX172lETjmKKV5HXyPDrJyL4UfmE8UMNIHke/fGFcOTi5OHMYIOgLOkO8GDNAKbw3wIgbfUKbKCVnHww+jo1WodWkCweTNKHDxE3BGniNIS0YKOgUU2onKGHHMWZfdArjjnPAgPRNib1Okg4K7jDccHDRZ9JMIP2kncHtMJwoUETz2JdryDxxY2hx7TgmDjPazL7Ex/lyXAxKHHyum+mjYSwZyM/kMewZagUpHKLmDVsJDcGGQZvIq9iC6CCOIZ+comaP/cjb2EDkfZw1dM8XzmH/oFnEg1YQDy0sKPwiHgrlfP4mHvQSbWLkXqY4klSEMDItukPcpAvNQDvYhsB+/2tNKpAGzp804ljjUKOLpB+NYp5+q7Tq43M8aCzHIB6m2MhU1PwvNangNRebkv0pUOTaoe2+sIBzpiCU64LDym/fBBvdpsUNwdugpIl7yHpsUPblXPyxuhNWk9rNIGP5khwyCxkZESFTklExaMg8bEfAoMGo8p3UfcYkDjILcSCcZEpK4xEKangpoWIb1nGsb4PtECZK9YkHcSUdiBH7kzG/K44fC8KPscc1QKARGcQG55nSOMMwOjdoiy+88o4fRp5vNvZ98HpHaxO0AkMIcHTRRmoMAH1cXEaE12ofnz8250K6MS5xJNHn7zoP4sGYRWPROTSWkSMxmtDWb9NYrhkGF8YThhMaiT5Sqs+xgfiXlEYbhrFoKLRH28ifFIb5/InOYcuhDd+Wv72th+OKPuAs4chSu4jz6B03r23oEHqHLgDrcfi8FrAdYFuhG3y/FDuTwn5qDn3XqsUJ58fxOA6OHg4sDjFOHo7w4tLk9uB8F9Zpfx2xmbFlSQu27KLSQW0r9499OA/uGwWt1AovzPd9Z3UVzEnthpChyVg87GQan8ERMcSJ3+XrgHXlmZHtvQPJ/P777+9Gc6NUiCG0fSnYd2Uo9iU+Ag4vMM9+Xuw49pLKmBzDB9LCcb5NTAzD6Hz4/I1++fz9QzTFa4TXJe+UYQz5+Pw2i0s7yo8DXpdZxrw/bvk27bGwxhKH3559oXxZOaTBH4sp2/tz9XGCX24YxtKDfEdeJO+Sz8HPM/0++dPrDOuZks/Zl3nyvddJvw0aQg0hY3bQIoRWetRmgtdY7EivVXTLojaSgkGaBlMJsDi0gnSXp43gYZ60A+fjW9AtCfz18/rJ8UiXX+6vIfPfdg8I7AvE5c9tYRa1vKvy37tqdBvIAD4TkDHIOF5UEBmm5ZnJZx6mfj+/PdA5naYbiBdNJmhmR4b08X0bCwsJx2Vfn65ykVwScCwMTaBEkOORFpYbhtH5QYN88zTyOHri8/z3hX3KtQl8lwrWeb0o183/FeIl+OORfjTWO8Zei5l+GwtrLPswT/Aa+11xcH4EriWB/fy5kj7iNAxj6UIeJO+SBwloAxrh7SavV9+mS15D2I4p+xIH8z5fl+dx1tH6jP75DOyzxRZbOE3gWOzjNRGo2aVrAFpD9y7099vS8kPw5wb+OgDH5hy8Znn9W1JwPIJPC+ngPvh3jr8W33XebOe3Z1+umaHPntWkdj/IuOV4AfLB442Y8mWAINGEjmHL6bNK53v6eTEACU19ad5ACRvNOshs7ZVicUyCz7g+DT6jg59n6gVoSVJ+7IXP2TCMzo3XPZ+3f0geX3hf8HpFYN6vY9vFZYiVxw/lxyifb08f/b4La6zHr/fzi4rDn4/f1+/j4ffiOl/DML4/5D0CeXPh/OmnPm8uSpfK4yjfx88D835f5imgO/HEE93ovwyq9vTTT7uuB9h8bEeTV5oPM24KA2TioDLOCX3YcXIXR3Nfn75yTQOWE8qvR3vnvThZ+Jh+Wq7T35aO8u3Kt28Pv767YE5qN2RRD7+nPDPR7wAn0wscgXlGqWT0NUrJ6JtEh/nbb7/ddZoHtqEEC0f3uxxMX2K0cOYsz9DdLWMahrH4QVt8+CEFX16TvA6hb17jFoZtF6de+fQSp58H9NEv+67jlWvsovZpLw5/vHItJq7yeMrXGYaxdCnPy2iSrxhYOF+2l+c9rPMwTzxeX6B8Pyop0E6a8DKiLV9XoFKCGlQP+6MTOK00BaaFHQMYMdga8S+p2k2OS1rL0/tt57044Tj+WH4evo9O+239du2dh2dRcXRVzEnthngB8vgMVb6MbcAvW/g3A4ecdNJJrmP3Qw895ErRGEAEECefMRc+1sJ8V8YlLqbt1cYahmF8X7yGLerl/11gnAEGmtc2H5fX0B8bd3t8mzYCx/dp+DaH+7viYT3xfFsc3+dYrP82rTcMY/Hj86+3ufwy5pn6+W/TAG9neW3z+ywMx2FbX3FB31Q+c0VtKYNe4qwCAysxOBuf1qICw3+eq3yApSUJ6SedsKSb+y7qWnm+b1q4nv4eAPPt8W3H6oqYk2r8KNrLQN0t8xiGYRiGYXR3cMRo5osdiCPqHV7D+F8oFS0bhmEYhmEYhmH8QHBKad7LJ1+oMVxUTaBh/BDMSTUMwzAMwzAM4weDQ0pz1fKaU3NSjcWBOamGYRiGYRiGYfxgcE7L+8TCovquG8YPwZxUwzAMwzAMwzB+MNSa+ppTX6tqNanG4sCcVONHQYnZwsEwDMMwDMPoPpTbf2YPGosTc1INwzAMwzAMw/hRmKNqLAnMSTUMwzAMwzAMwzA6DOakGoZhGIZhGIZhGB0Gc1INwzAMwzAMwzCMDoM5qYZhGIZhGIZhGEaHwZxUwzAMwzAMwzAMo8NgTqphGIZhGIZhGIbRYTAn1TAMwzAMwzAMw+gwmJNqGIZhGIZhGIZhdBjMSTUMwzAMwzAMwzA6DOakGoZhGIZhGIZhGB0Gc1INwzAMwzAMwzCMDoM5qYZhGIZhGIZhGEaHwZxUwzAMwzAMwzAMo8NgTqphGIZhGIZhGIbRYTAn1TAMwzAMwzAMw+gwmJNqGIZhGIZhGIZhdBjMSTUMwzAMwzAMwzA6DOakGoZhGIZhGIZhGB0Gc1INwzAMwzAMwzCMDoM5qYZhGIZhGIZhGEaHwZxUwzAMwzAMwzAMo8NgTqphGIZhGIZhGIbRYTAn1TAMwzAMwzAMw+gwmJNqGIZhGIZhGIZhdBjMSTUMwzAMwzAMwzA6DOakGoZhGIZhGIZhGB0Ekf8HoWa0OD8PsKwAAAAASUVORK5CYII=;" vertex="1" parent="1">
          <mxGeometry x="87" y="100" width="653.29" height="350" as="geometry" />
        </mxCell>
        <mxCell id="2XhEkTOICneemovFG1xt-2" value="&lt;font style=&quot;font-size: 16px;&quot;&gt;Feature-Sliced Design&lt;/font&gt;" style="text;html=1;align=center;verticalAlign=middle;resizable=0;points=[];autosize=1;strokeColor=none;fillColor=none;" vertex="1" parent="1">
          <mxGeometry x="340" y="35" width="180" height="30" as="geometry" />
        </mxCell>
        <mxCell id="2XhEkTOICneemovFG1xt-3" value="&lt;ol style=&quot;box-sizing: border-box; margin: 0 0 var(--ifm-list-margin); padding-left: var(--ifm-list-left-padding); font-family: Ubuntu, system-ui, -apple-system, &amp;quot;segoe ui&amp;quot;, roboto, ubuntu, cantarell, &amp;quot;noto sans&amp;quot;, sans-serif, blinkmacsystemfont, &amp;quot;Segoe UI&amp;quot;, helvetica, arial, sans-serif, &amp;quot;Apple Color Emoji&amp;quot;, &amp;quot;Segoe UI Emoji&amp;quot;, &amp;quot;Segoe UI Symbol&amp;quot;; font-size: 16px; font-style: normal; font-variant-ligatures: normal; font-variant-caps: normal; font-weight: 400; letter-spacing: normal; orphans: 2; text-align: start; text-indent: 0px; text-transform: none; widows: 2; word-spacing: 0px; -webkit-text-stroke-width: 0px; text-decoration-thickness: initial; text-decoration-style: initial; text-decoration-color: initial;&quot;&gt;&lt;li style=&quot;box-sizing: border-box; overflow-wrap: break-word;&quot;&gt;&lt;font color=&quot;#333300&quot;&gt;&lt;code style=&quot;box-sizing: border-box; vertical-align: middle; border: 0.1rem solid rgba(0, 0, 0, 0.1); border-radius: var(--ifm-code-border-radius); font-family: var(--ifm-font-family-monospace); font-size: var(--ifm-code-font-size); padding: var(--ifm-code-padding-vertical) var(--ifm-code-padding-horizontal);&quot;&gt;shared&lt;/code&gt;&amp;nbsp;— переиспользуемый код, не имеющий отношения к специфике приложения/бизнеса.&lt;small style=&quot;box-sizing: border-box;&quot;&gt;(например, UIKit, libs, API)&lt;/small&gt;&lt;/font&gt;&lt;/li&gt;&lt;li style=&quot;box-sizing: border-box; overflow-wrap: break-word; margin-top: var(--ifm-list-item-margin);&quot;&gt;&lt;font color=&quot;#333300&quot;&gt;&lt;code style=&quot;box-sizing: border-box; vertical-align: middle; border: 0.1rem solid rgba(0, 0, 0, 0.1); border-radius: var(--ifm-code-border-radius); font-family: var(--ifm-font-family-monospace); font-size: var(--ifm-code-font-size); padding: var(--ifm-code-padding-vertical) var(--ifm-code-padding-horizontal);&quot;&gt;entities&lt;/code&gt;&lt;span&gt;&amp;nbsp;&lt;/span&gt;(сущности) — бизнес-сущности.&lt;small style=&quot;box-sizing: border-box;&quot;&gt;(например, User, Product, Order)&lt;/small&gt;&lt;/font&gt;&lt;/li&gt;&lt;li style=&quot;box-sizing: border-box; overflow-wrap: break-word; margin-top: var(--ifm-list-item-margin);&quot;&gt;&lt;font color=&quot;#333300&quot;&gt;&lt;code style=&quot;box-sizing: border-box; vertical-align: middle; border: 0.1rem solid rgba(0, 0, 0, 0.1); border-radius: var(--ifm-code-border-radius); font-family: var(--ifm-font-family-monospace); font-size: var(--ifm-code-font-size); padding: var(--ifm-code-padding-vertical) var(--ifm-code-padding-horizontal);&quot;&gt;features&lt;/code&gt;&lt;span&gt;&amp;nbsp;&lt;/span&gt;(фичи) — взаимодействия с пользователем, действия, которые несут бизнес-ценность для пользователя.&lt;small style=&quot;box-sizing: border-box;&quot;&gt;(например, SendComment, AddToCart, UsersSearch)&lt;/small&gt;&lt;/font&gt;&lt;/li&gt;&lt;li style=&quot;box-sizing: border-box; overflow-wrap: break-word; margin-top: var(--ifm-list-item-margin);&quot;&gt;&lt;font color=&quot;#333300&quot;&gt;&lt;code style=&quot;box-sizing: border-box; vertical-align: middle; border: 0.1rem solid rgba(0, 0, 0, 0.1); border-radius: var(--ifm-code-border-radius); font-family: var(--ifm-font-family-monospace); font-size: var(--ifm-code-font-size); padding: var(--ifm-code-padding-vertical) var(--ifm-code-padding-horizontal);&quot;&gt;widgets&lt;/code&gt;&lt;span&gt;&amp;nbsp;&lt;/span&gt;(виджеты) — композиционный слой для соединения сущностей и фич в самостоятельные блоки&lt;small style=&quot;box-sizing: border-box;&quot;&gt;(например, IssuesList, UserProfile)&lt;/small&gt;.&lt;/font&gt;&lt;/li&gt;&lt;li style=&quot;box-sizing: border-box; overflow-wrap: break-word; margin-top: var(--ifm-list-item-margin);&quot;&gt;&lt;font color=&quot;#333300&quot;&gt;&lt;code style=&quot;box-sizing: border-box; vertical-align: middle; border: 0.1rem solid rgba(0, 0, 0, 0.1); border-radius: var(--ifm-code-border-radius); font-family: var(--ifm-font-family-monospace); font-size: var(--ifm-code-font-size); padding: var(--ifm-code-padding-vertical) var(--ifm-code-padding-horizontal);&quot;&gt;pages&lt;/code&gt;&lt;span&gt;&amp;nbsp;&lt;/span&gt;(страницы) — композиционный слой для сборки полноценных страниц из сущностей, фич и виджетов.&lt;/font&gt;&lt;/li&gt;&lt;li style=&quot;box-sizing: border-box; overflow-wrap: break-word; margin-top: var(--ifm-list-item-margin);&quot;&gt;&lt;font color=&quot;#333300&quot;&gt;&lt;code style=&quot;box-sizing: border-box; vertical-align: middle; border: 0.1rem solid rgba(0, 0, 0, 0.1); border-radius: var(--ifm-code-border-radius); font-family: var(--ifm-font-family-monospace); font-size: var(--ifm-code-font-size); padding: var(--ifm-code-padding-vertical) var(--ifm-code-padding-horizontal);&quot;&gt;processes&lt;/code&gt;&lt;span&gt;&amp;nbsp;&lt;/span&gt;— сложные сценарии, покрывающие несколько страниц.&lt;small style=&quot;box-sizing: border-box;&quot;&gt;(например, авторизация)&lt;/small&gt;&lt;/font&gt;&lt;/li&gt;&lt;li style=&quot;box-sizing: border-box; overflow-wrap: break-word; margin-top: var(--ifm-list-item-margin);&quot;&gt;&lt;font color=&quot;#333300&quot;&gt;&lt;code style=&quot;box-sizing: border-box; vertical-align: middle; border: 0.1rem solid rgba(0, 0, 0, 0.1); border-radius: var(--ifm-code-border-radius); font-family: var(--ifm-font-family-monospace); font-size: var(--ifm-code-font-size); padding: var(--ifm-code-padding-vertical) var(--ifm-code-padding-horizontal);&quot;&gt;app&lt;/code&gt;&amp;nbsp;— настройки, стили и провайдеры для всего приложения.&lt;/font&gt;&lt;/li&gt;&lt;/ol&gt;" style="text;whiteSpace=wrap;html=1;fontSize=16;" vertex="1" parent="1">
          <mxGeometry x="19.999999999999986" y="520" width="560" height="280" as="geometry" />
        </mxCell>
        <mxCell id="2XhEkTOICneemovFG1xt-5" value="&lt;font color=&quot;#ffffff&quot;&gt;1&lt;/font&gt;" style="text;html=1;align=center;verticalAlign=middle;resizable=0;points=[];autosize=1;strokeColor=none;fillColor=none;fontSize=16;fontColor=#333300;" vertex="1" parent="1">
          <mxGeometry x="100" y="350" width="30" height="30" as="geometry" />
        </mxCell>
        <mxCell id="2XhEkTOICneemovFG1xt-6" value="&lt;font color=&quot;#ffffff&quot;&gt;2&lt;/font&gt;" style="text;html=1;align=center;verticalAlign=middle;resizable=0;points=[];autosize=1;strokeColor=none;fillColor=none;fontSize=16;fontColor=#333300;" vertex="1" parent="1">
          <mxGeometry x="100" y="310" width="30" height="30" as="geometry" />
        </mxCell>
        <mxCell id="2XhEkTOICneemovFG1xt-7" value="&lt;font color=&quot;#ffffff&quot;&gt;3&lt;/font&gt;" style="text;html=1;align=center;verticalAlign=middle;resizable=0;points=[];autosize=1;strokeColor=none;fillColor=none;fontSize=16;fontColor=#333300;" vertex="1" parent="1">
          <mxGeometry x="100" y="280" width="30" height="30" as="geometry" />
        </mxCell>
        <mxCell id="2XhEkTOICneemovFG1xt-8" value="&lt;font color=&quot;#ffffff&quot;&gt;4&lt;/font&gt;" style="text;html=1;align=center;verticalAlign=middle;resizable=0;points=[];autosize=1;strokeColor=none;fillColor=none;fontSize=16;fontColor=#333300;" vertex="1" parent="1">
          <mxGeometry x="100" y="240" width="30" height="30" as="geometry" />
        </mxCell>
        <mxCell id="2XhEkTOICneemovFG1xt-9" value="&lt;font color=&quot;#ffffff&quot;&gt;5&lt;/font&gt;" style="text;html=1;align=center;verticalAlign=middle;resizable=0;points=[];autosize=1;strokeColor=none;fillColor=none;fontSize=16;fontColor=#333300;" vertex="1" parent="1">
          <mxGeometry x="100" y="210" width="30" height="30" as="geometry" />
        </mxCell>
        <mxCell id="2XhEkTOICneemovFG1xt-10" value="&lt;font color=&quot;#ffffff&quot;&gt;6&lt;/font&gt;" style="text;html=1;align=center;verticalAlign=middle;resizable=0;points=[];autosize=1;strokeColor=none;fillColor=none;fontSize=16;fontColor=#333300;" vertex="1" parent="1">
          <mxGeometry x="100" y="170" width="30" height="30" as="geometry" />
        </mxCell>
        <mxCell id="2XhEkTOICneemovFG1xt-11" value="&lt;font color=&quot;#ffffff&quot;&gt;7&lt;/font&gt;" style="text;html=1;align=center;verticalAlign=middle;resizable=0;points=[];autosize=1;strokeColor=none;fillColor=none;fontSize=16;fontColor=#333300;" vertex="1" parent="1">
          <mxGeometry x="100" y="130" width="30" height="30" as="geometry" />
        </mxCell>
        <mxCell id="2XhEkTOICneemovFG1xt-13" value="&lt;div&gt;&lt;br&gt;&lt;/div&gt;&lt;ol style=&quot;box-sizing: border-box; margin: 0 0 var(--ifm-list-margin); padding-left: var(--ifm-list-left-padding); orphans: 2; text-align: start; text-indent: 0px; widows: 2; text-decoration-thickness: initial; text-decoration-style: initial; text-decoration-color: initial;&quot;&gt;&lt;li style=&quot;box-sizing: border-box; overflow-wrap: break-word;&quot;&gt;&lt;font face=&quot;Ubuntu, system-ui, -apple-system, segoe ui, roboto, ubuntu, cantarell, noto sans, sans-serif, blinkmacsystemfont, Segoe UI, helvetica, arial, sans-serif, Apple Color Emoji, Segoe UI Emoji, Segoe UI Symbol&quot; color=&quot;#333300&quot;&gt;shared — переиспользуемый код, не имеющий отношения к специфике приложения/бизнеса.(например, UIKit, libs, API)&lt;/font&gt;&lt;/li&gt;&lt;li style=&quot;box-sizing: border-box; overflow-wrap: break-word;&quot;&gt;&lt;font face=&quot;Ubuntu, system-ui, -apple-system, segoe ui, roboto, ubuntu, cantarell, noto sans, sans-serif, blinkmacsystemfont, Segoe UI, helvetica, arial, sans-serif, Apple Color Emoji, Segoe UI Emoji, Segoe UI Symbol&quot; color=&quot;#333300&quot;&gt;entities (сущности) — бизнес-сущности.(например, User, Product, Order)&lt;/font&gt;&lt;/li&gt;&lt;li style=&quot;box-sizing: border-box; overflow-wrap: break-word;&quot;&gt;&lt;font face=&quot;Ubuntu, system-ui, -apple-system, segoe ui, roboto, ubuntu, cantarell, noto sans, sans-serif, blinkmacsystemfont, Segoe UI, helvetica, arial, sans-serif, Apple Color Emoji, Segoe UI Emoji, Segoe UI Symbol&quot; color=&quot;#333300&quot;&gt;features (фичи) — взаимодействия с пользователем, действия, которые несут бизнес-ценность для пользователя.(например, SendComment, AddToCart, UsersSearch)&lt;/font&gt;&lt;/li&gt;&lt;li style=&quot;box-sizing: border-box; overflow-wrap: break-word;&quot;&gt;&lt;font face=&quot;Ubuntu, system-ui, -apple-system, segoe ui, roboto, ubuntu, cantarell, noto sans, sans-serif, blinkmacsystemfont, Segoe UI, helvetica, arial, sans-serif, Apple Color Emoji, Segoe UI Emoji, Segoe UI Symbol&quot; color=&quot;#333300&quot;&gt;widgets (виджеты) — композиционный слой для соединения сущностей и фич в самостоятельные блоки(например, FriendsList, UserProfile).&lt;/font&gt;&lt;/li&gt;&lt;li style=&quot;box-sizing: border-box; overflow-wrap: break-word;&quot;&gt;&lt;font face=&quot;Ubuntu, system-ui, -apple-system, segoe ui, roboto, ubuntu, cantarell, noto sans, sans-serif, blinkmacsystemfont, Segoe UI, helvetica, arial, sans-serif, Apple Color Emoji, Segoe UI Emoji, Segoe UI Symbol&quot; color=&quot;#333300&quot;&gt;pages (страницы) — композиционный слой для сборки полноценных страниц из сущностей, фич и виджетов.&lt;/font&gt;&lt;/li&gt;&lt;li style=&quot;box-sizing: border-box; overflow-wrap: break-word;&quot;&gt;&lt;font face=&quot;Ubuntu, system-ui, -apple-system, segoe ui, roboto, ubuntu, cantarell, noto sans, sans-serif, blinkmacsystemfont, Segoe UI, helvetica, arial, sans-serif, Apple Color Emoji, Segoe UI Emoji, Segoe UI Symbol&quot; color=&quot;#333300&quot;&gt;processes — сложные сценарии, покрывающие несколько страниц.(например, авторизация)&lt;/font&gt;&lt;/li&gt;&lt;li style=&quot;box-sizing: border-box; overflow-wrap: break-word;&quot;&gt;&lt;font face=&quot;Ubuntu, system-ui, -apple-system, segoe ui, roboto, ubuntu, cantarell, noto sans, sans-serif, blinkmacsystemfont, Segoe UI, helvetica, arial, sans-serif, Apple Color Emoji, Segoe UI Emoji, Segoe UI Symbol&quot; color=&quot;#333300&quot;&gt;app — настройки, стили и провайдеры для всего приложения.&lt;/font&gt;&lt;/li&gt;&lt;/ol&gt;" style="text;whiteSpace=wrap;html=1;fontSize=16;" vertex="1" parent="1">
          <mxGeometry x="600" y="505" width="560" height="310" as="geometry" />
        </mxCell>
        <mxCell id="2XhEkTOICneemovFG1xt-14" value="" style="shape=image;verticalLabelPosition=bottom;labelBackgroundColor=default;verticalAlign=top;aspect=fixed;imageAspect=0;image=data:image/png,iVBORw0KGgoAAAANSUhEUgAAAOsAAADVCAYAAAC2egcIAAAAAXNSR0IArs4c6QAAAARnQU1BAACxjwv8YQUAAAAJcEhZcwAADsMAAA7DAcdvqGQAAB8mSURBVHhe7Z0LbFzVmcf/QB6OPTcPO6k9E1tDnYyTONbCDCqOCp60qqvWYftIWWW7aovaorJFILW01dIC3ba79IG0BdqlKgIJUSi7bCQIatW4XYJa7IDqtLWDlprEj2wcr8fjhuDgOw4mDs2e79xzZ+69M7Znxh5nzsz3k64y930H5u/v+845938u29L0NxfBMEzRc7n6l2GYIofFyjCawGJlGE0ompq1dff7sP2qq9VaikO/eA5jJ0+qNYYpX4pCrDuESNs/9nG15mbq7FkcefF3mHrzrNqSwhT7aH/O1IaxN1InPiTQ39WN49PWZoYpZoperPNBQs058lZtQXs0gFEWKaMZ+Yl1w1qsm5zCm2p1btagsvItnDunVufAFquMoDlGSoq4OYlVRlWgp7MPMbVpsRhb29AeiOFQ1zBMtY1hlpo8GpjCuPWu+3DvHbuxTm3JTCP+7p578fBdN2KT2rIQr71yVC5jIyezXigVXrt+vboCw5Qu+UXWLTfiX7/WjvUDT+OeB17MEGEb0fFP/4h/CIzjP//9QXQOq81zYEfWn/34QWwOXplXSkznLhSVA+EOtFKpajM9oKJhLVo7IgiozantCpk6N8FQq6n9PmyLtqG5Sm0n5L4JBMT29cc70TOhtgvcEdg6tyHWi9FARF4j1quO994v3osDfakLeb9H8jympLmiuqb22+pz9ky+ht8eq8B7P/JR7GlK4OXfj+BttStXoRKb6urQuH07Xun5PXZcfbVcz5Xu3/xafZobMz6EY6aBHf6ESIO78YeRSZxXQoX4wR86KvYPDWGqeheiTRdF5Kb9QhwtV+J0tzhe7Ds2FMfFYASt1SaOxSdxZmQIY/CjseIkDr1wBK/Ic1ZhYzCIijNin6MuXl0dRKNh4oTjmPo6A6d//wIO96tjkzW1tU3er0k8j7zftBR8dKO6Fz2P+D71iLvuw5Qm+fezDj+Db/5bJ05v/aQjJV6L9jtyE6oXiqy5QqlzvhhbmxAQkcsZmWIDAzCrAgioiBnrc9a3CcRiCXGiLxX5FkN8wNXQFWhqAgb7HNsSOH48DtSJ5xFrhrgvzEQq6k/0cVQtExY3KGL4F/iX+23BtqPjjrtxU/AUnvhOfkIl8qk/F9MPK3/8dRHs7ehILc4UVEGpp72/PSTOWSJM0xkSxR8AcWMj1OZ+HtnNZCH/kMjnbcM2Z/rNlDz5pcFOJo/jxeNX4D03fBS7jUEh1J/g0KTalyV2Gnx+Zgabr8w9snb/96/xtjg3K3x+kQYLgYv0kqKT4Q9h3Xg3Dh7plylwajmFM7PiAEpL23ehMSHqxu6jcp9Me5PprDe9JbJPg9eZp3DiDess+7zZV1MpeWqxnhezkzhB62YNorvC2BHy4+K4elampFma4YYUYW+7FTd9OXehOsknBSbyGhihMEVKaQRq50xpDX8ABjUaORp4skVGbQfe9XREeisUGRDPsyAi/T0g6u7+aR8a/EsX6ZnipSjGBtujk/KJqoupVwlzPCbq0ya0bnX+4GvRGrYEQ2JG1dqUmEWkbfWkwWnHqLrWCIVSLcy1YXdL9BzEYlSfRtDq1CvdUz1fIBxOXZMpK4piBBPVqdR9k2ls8HxQH+uzTzyu1rIk06AIb1eJZxiiq6tERNmeWACtrkEQji6cubp14r04ZDZl6LrpxqEhIXYnyeGQNvHk83q7bczBDOczJUlRiJVhmIUpijSYYZiFYbEyjCawWBlGE1isDKMJLFaG0QQWK8NoAouVYTSBxcowmsBiZRhNYLEyjCawWBlGE1isDKMJ2g3kZ+d+plxZvFPEMkKv0bV96MNYXVGRttCL6+Q0sXpNhXzlzrlcJs7N2kmiENArb1E/pmy3h5ygV+k+gGhzCDsME1P+KNqTZm7WvvDKuMNtgilVtIqsy+rcv5Qswlhcvr+KlBWpXDfc78xmfCeWKTm0FGvhnftT9qRL4hyYt1gXEqN3P4u3lCloA1PlhrWoVJ/npXJNdscp2LmfKUcKF1nf1YF//lYHVr78E3z/qeOYc7qbyutw63f+Hlf933/hiz96SW3MzLI496dZqjgc7732L0kLFwuv5UryPG9kta/jOd9FmtWMdb3RgDMtdkTS8dq0452WL3I2AId3lNPF3061exCRz2+fN+f3YS4JhWtgmh7CH6Ya8JG9f4v3GCfQ8z9nkOaWWRnGzfd8Gq1/PYJHHvwVYgvYaS6Lc/90HMeGTKwL+WGKHydZgtp2onM78y/glO+yPxUpdnsLVgtBHBSCm7NZSFqOinsEgqgYsaxS6VpknVqPcXlP27pU2plOTKQdbzc6JaftsJ9t/CJ27NqFTab13eQ16/y4fMD6vnQeO/8XHwVNg88dfgR3Pv4q1r//NnzjU9vcqa4U6ufwXhzBT+/9Of64wExzXpbbuZ+Yz5k/O6d8NacOmactW01Zi+YQ0P8nRwSfHkZ/XPzxcVqeiijf73hedv4vPgo+KMIS7FFU7nYItnIbbrozf6ES+dSfS9EaTKlhJmf+hZ3yfWiOWkJ1TjJlpbIO932xuGxIF0sV/TGhe3vu4U1KnMIUsPN/8bEs/ayzp/pweNKPD33so9i1YQoNH/kcduNl/PD7/4FXchDq8jn3+1Av0mCMOxz1qYacz5l/Pqd8mQavEseswurVJuwJryzOy8mtnO77qVQz3bV/zjRY7s/g8r+qGo3BWRylibgc95CLvIb3mgp2/i86lm244bnDj+GbT4gIe/2nLaHe9zT684ioxKVw7s/amX9Op3zLi7gfTWiPbnE1BBWUaYqYdWjIN1qz83/RsKxjg0mwX73lVtz8rfyEunzO/dM4K4KMc7qLhZz5s3PKT+B4QQVrTb9hGM68dQKjVJ9G3M9nbA3Pm96y83/xsSxp8FJBwwYpBTZEvUrpbLbL6/E4frX/aesiWSFS0xkDV7XsFOlfSKSVIjWdiGPKCKM1HJLbdmw8g6Mjq1Gv0uDVfse+kNUim2xEcrUGU9prYl1zC65aMLXMNQ2mPyoXUb+Trk3HWcMQaV5a17OLpXF2AIdPzZ0GG/N9H+aSwI78DKMJy5oGMwyTPyxWhtEEFivDaAKLlWE0gcXKMJrAYmUYTWCxMowmsFgZRhNYrAyjCSxWhtEEFivDaELJjg2e8e9Qn3JnhXkaKxKvqzWGKQ5KUqwk1PGOu9Ra7vg7v4eK8dfUGsMUB5wG6wC5VDgsX6S1zHK+wM4UBSzWoqcWrdEm6bR4oJOtQMsZFmuxIw3PEjjreO871ieEO5ffcFaQy+ISG7MxBYfFyjCawA1MGcipgcnr4O9y2Vc+wfIzYZmmHbfdU2yn/q4pNDvc9G3ne6+LPhCXrv5QDvpOS1O3e744rhdozTS/znwzDnj3pdmmMpcSrTyYsuWCsQmJUJtayx1jqDurrhsS0w0tq4QAX8DhfrL3jONitQ9mfBLnpXWpct4/0m9ZfypbT+npRIKV3kx1qN94Bt3K+Z7sTa9qqZHTQ55545R0z68PrsawvIc1ZaTXM0kKlWaWSzruV6F1VxCrxR8Hy/fJwVwzDtDz7qpR96HvIo4h3yinPSlzSSmbNHhT9yNpC+ETYqJIur7vgFzPHnK694mo5IiU5F7YZ0XVQJOIlF7nfXK19zrhU7R1uOWbQwMiEuZgHSpE1lznvgY57h/qFTfKBR85NyZgJr/LBHo4qhYVZSHWFYnTmPVtktGSxEmf36rbIVNdEi19XhN/Lbe+VdnwE8doxt+z2Cdy2lgsfWcsJkSkptywcAokD0hk0zHEFhsAJwbRP10nG57at7I/cDFSFmK9IMR5NrwXpkhbCfrsTZOpxl3MqCf9IU9j6h7qhSn+21CfLou2uCjr1uALxkZMhj+BDX3PomH/HTICZ828TveW2bY73bUIBOrS5pVZNFUBBDyG3U6D8twQ6W+nqGUHEzDE8/PAi+KhvMWqIu7ovvvl+qbuR+W/2TGBfvGDDkScEzf5sC1sjSyyJ3ZyRafaMFqpvhxYwlpQpq8+NF/jGNHkmS2A6mt3eps+44B8Nu53LWrKWqxUv1JErRg/JluQL/g2qj3ZYQ51iwgExwxtbWgwJ6yoSY08XQOASinlIrtSnA1SSwGlr2pKDvs+14j7zNvAJM45Hoehns0WaSCizheLnM91UQMvmKWmrPpZ7Qal0X0PyHVKe32Dh2EMdkmx2ueUxEB+uw/X28/KaEtZRVYSsS1UIpUGP7CoQRTFiKyN4zEWaglRkpGV0lmKlPmiV1SlyZhDMLtSEdQa+QT3aClGe0r25fNywj3UkPAMa2RKAhYrw2hCWbcGM4xOsFgZRhNYrAyjCSxWhtEEFivDaAKLlWE0gcXKMJpQsv2si3k3lR35mWKkrAbyZws78jPFCKfBDKMJLNZFsFTTWMjrhPnNb2Z+WKwMowks1kWw+GksCg29PsfGZ6UCi5VhNIFbgzOQbWuwfI80OY0FRbE2NMS60W+0pd4vdU2nQXim1Ij3ogeRBabDSL2fmunFcmtbwm3hQg77jik5CHOw2zId52kytKRsps8g76WqU39yLeeC10jTtJojT8l+VbtvNuvpM1zTWKzCxmAQ9XVBXD5gTUshp6BobkEj4jjxxnlxjCVUQ9zTnlJjzBdBNLhK6NG+juOPQPdRx7QbIVwcP4XYxClMGTsRrjGt44UooxEDw109ODkrT7eYncQJms4jEETFiHU/+Qw8TYa2lEUaXBBH/rmgSJkMUpZdqe2/a2xtQkBE2h7HlBrkkEhTaiSR02HE3VNXKLvRBr9Ve1o2p03YViWi+TVNwGBf9q4QPE2GtpSFWJfTkd+cZy4M8uk1Y8qqdC6kmKxpLGxbULI4bXaaeE8Po0daoIrtcIt/QXiaDG0p6wamRTnyFxKqczutmc6di3OSK9PMQaAuEjxNhqaUt1gX5cifH+lTUliTWCVJTMHMMB2GG1H7RnyykYnMvVvzEhtPk6EbZS3WxTry54qsNavc4jK2hj0p7gRGvdNhCALhsGpBplbnCALxAVGniigpnfXDagoP7zQZ1pw7huG4AU+ToS1lJVbpJ+wQ5Ix/u0gFozINJk633SL/LRgZptRohTVnawpKUz3TYYil2RyU3TKBMNWvjgYoOeerEHfUFrMbe84dZ7rL02ToCfezZoDfumGKkZIUa3k58jPlQsm+fM4wpUZZNzAxjE6wWBlGE1isDKMJLFaG0QQWK8NoAouVYTSBxcowmsBiZRhNYLEyjCaUjVgL/UYNwxSakh9uSCId33OX+HdT0sbF9luavHqv/JdeOvcf/J7czjDFSkkapjl5c+eH8ddVldh0+FEp2Nej9BrcZXi97RYpTtr+11VVUrRkora00LunH0C0WpmbMcwiKPk0eKZuOyrix5JRlV44J3eI9X0Hkq/CkVkap8lMsVNWDUwkSDJKo7SXBGsLlNwOC4PyO5rLPZD8ezsyvzTOMF5Kvmall9DJGI2gNNgLRVZKgSnikmPEstat0mwbbnNuhpmDkq1ZyaLlL+1fpvJUivTy8+fksvm5e7Duz7+RC5l80zZ6Uf18TRBTor6lE1aKyEvb58eqR7fODGHMUY6SO/4NLSsxNjKJ8+qY8Erb5DsFGXm3h8hmxYf6UAg7QgamhuIw7Tq3mbbR4pfm3qtbxPFh+xgLeY2mi+peTKlTkmkwCZX8lagmbdj/FZn2kmA3iDqVoujovgek95Jv8HCyNfjdj31GHp8IXS/3FRo5qVUvmS/FpcvgARVdpceS2ZuyHx20LEdjfd3S77fZNkMj4zMyA2f/pLKhJMVKQiVh2vYs5F5IgqRUd1LUqgSJ0jZKo/3Wv9QI9aisZy8Nli2p0yjcHLLd9kX9K50MQ6LGJSvSOsR6OX0uJ0pSrBQxSZQUNQlqVKLISv/SPhKuHWUJErfd+HS67QtJkS8/tiDJ/TBDw5N0MiQ3fbIidU7TwZQDJSlWipgULUl4tsshCZAEbAx2yQEQtG4Lk4RMAycofabzKB2+ZAhBWumvT02h4RZt/k78jO6UbNcN9alSvWpjtwhTvWovJFLaTpF2hfm6NPym83KB5q9x4l3PF5qwiqa4iKEODbYpd9UWtMqpHcX2ugibdZcZJStWJzQAgoRrDSk8LaMpYTdAUWpM5NZtk0AsllA1pEI2+qjPGaCWYlekpKkyqE5NGub7sC3sduJPIerUKM0YR2bf1ux0gQj30ZYTZSFWGxIjRVC7X9UWLXXV5AM1/tgzskmHe3K3V623WTE9jH7ppu9Idw2nE38E6O0UtSl154g61TFdZPLe0bnEzZQaJT8owp4SgyZItgfuk1CpUYnqU3s7DUm0W4cZphgpq7duSKQkToqoJFrnWzfUZWNHWoYpRtiRn2E0oaxqVobRGRYrw2gCi5VhNIHFyjCawGJlGE247GtfupNbgxlGA7jrhmE0gdNghtEEFivDaAKLlWE0gcXKMJqgXQNT6+73YftVV6u1FId+8RzGTp5UawxTemgl1h1CpO0f+7haczN19iyOvPg7TL15Vm1JYYp9tF8rvn43hvcAm6PfRYXaVBQU63OVASUj1vkgoWoXeVmsjIeCirVyw1pgcgoL2WWjcg0qz7214HG2WGUEzTFSUsTNXqw3YrLrg8DBL2LDD9Sm5WbJRLHE34XFeskoXAPTuzrwtXvvxTc+tQ2ValNGKq/Drd+5D/d/6Tq1YWFee+WoXMZGTma9UCq8dv16dQWG0Y/CRtbrb8F9n23B2d/+BN9/6nh65KwM4+Z7Pof34gh+eu/P8ccFQqsdWX/24wexOXhlXikxnTtvVJaRo0GtWFQ7otI7P7ofJ8OOPz8jz2PLZ55RKxYzTz6MsaBawSg2HwTGPNHIfZ1zqD14Aok9jfA99BX49otNGSKY997O58rIPN/Fe62qvsdQ96Ujas37HRz38j7XvtsRv70F04lXceWeh3AFbWMKQkG7bs4dfgR3Pv4q1r//tvQIm6NQvWy+8kr1KTcWTJ9/8F1siT6PavGRfqBboilB0A/4ZPiM+KFa27dEH0NtzQcxfPB2vGMdYv3Ia8QP1z7moTdx1iMYSyjO67yE2T3iB6/2Z0KeEzrhuO6reHvPw5j8ujogE3N+lxsxVf2Surd1LYQ/n7wW3cv1HQ6OWjvSECm2ECqE0LewUAtOwftZLcEeReVuh2Art+GmO/MXKkGRNVcodc4bEUHOBkUEfMhZqx2BT/wxqvI14q19YtU+5nHHD3f/Q6hz/diFUEREqz7ovM4z2CAEk3QkTYPOQdp1148Ab+y8UW3IBXE/ZzawX3yPBPC2/1q5Olst/i+dGU/dS4g+PYJbtfAbIrNwRmSmcCzLoIhzhx/DN59Qgr3pOiHU27AbL+OHeQqVyKf+XFRrcOM6keqdwBpKUZ3IH3olZhvF57mOcbLPj7dFarwm7cc/D/KcSkzc/jCGu1JLKk29FomD7n3zRlwJic0+/vOYcHiTV/xS/OEIioyh634k6I9QGjU4e9ASqrcEYArHso1gSgr2+k9bQr3vafTnKVSqXfOBGpr0RdS+dlrqXKRYxB+MPe7t6ZEwBaW5w6qF2DpepPNOu2PKBmj7wTPqD8Qcoq3xJ9N/pvAsm1gJEuxXb7kVN38rf6ES+aTAxKIGRpx4M5XuOtknoprvHFaeUOsZjnnHX6M+2TTgLW/ko6isPqaxfxyrM52TF9firVClbFCaT9ASWfOSkCuRuM5KkS3OYP0esR0tOOmo15nCsqxiXSz26KR8Gpdyq1dHsdJRw0lkjUip6N2YUZtk+vnZFkyPvGS14P7gefnDnvis4wcs6tjTztZju9bc47yOSEk9jVBunsGatHMoQt49R5rqxPtdjmDFGWC6OnW/d370SVcaPPOk+z6ZoWjOgl1OtBrBRHUqpcCZxgbPB/WxPvvE42otSxzdHs4uEm+XhrfLw6ofHTUgdWl0rcNJTzdMWvcOtRrfPn/XjffembqNMpL2XVTjkNxC3+F5+EIfRGLQ+i7zfse057KvRY1v6tmZgqCVWLUlg/DSkP2VDrEyjAet0mBdmdkpotrIsbmFKnjnusaFW5KZsobFuqRQCuytK+8XKaVIEX+ZSldnnvS0rorIS6OJqrt4YAEzN5wGLzFpdWWGWs4aweQaz+WqixkmEyxWhtEEToMZRhPY5JthNGFZ0uD3RJrxh95+tcYwTD5wGswwmsBiZRhNYLEyjCaUbM0649+hPuXOCvM0ViReV2sMUxyUpFhJqOMdd6m13PF3fg8V46+pNYYpDjgNZhhNYLEugkC4A3ujW2Co9XyR1wnXqjWGyQyLlWE0gcW6CGJ9nTjQNQxTrRcfPmyLdqB9q8MGgtEWFivDaMIV1TW131afC8Zm/ybExk+rtcJzwdiERKhNreWOMdSdVdcN1ZrtfhPH4mR1RlHsAwivjGMm+AG0h0PYERJL4CLGRiZx3jpFUIvWjiiupX20GCbG4Ec9xtV1LOS17WuE/Lg4fgpnZsWzbW3DDa3B5DphbavB1FA8FeWrtqC9PYL6VcDqmqC8Tj3iOPGGeJLasKi1w+ra1jM4780UJ2Uj1k3dj6Dq1J9cy7ngNfANdqPmyFNSnHbfbLZiNfwkAFtkq7AxGER9XRCXD3Ti0NEhHBsysa65BY22SKRQIzDEPQ8e6Rf7hzDmiyAaFIpKpMRKQm1FLw50H5XHHDNrEN0VkgKNTZzClLET4RolMCHKaMTAcFcPTirxSmYncUKI92IgiIoR637yGUjEu2rE8S/gcL96Rj8wxmItesoiDV6ROI1Z3yYpQBInfX6rbofsSyUR0+c18deWpm813oueCfUZE+gfTMAI1MoWY2NrEwLTA+gZSpn0muIPQ09crRBCTM11cfT0JS8iLjOI/mkfGvxW7RkbGIBZ14RtVSKaX9MEDPbheLZa860Vz5KAmTx+wn0vpmgpC7FeEOI8G94LU6SLBH32Rl4aRLGYUU82ZkoFaRiGD2ZsYv4GKSmmOhGBO7A3ubSh2Tm3xvQwegaB5qjYDrf4F0QK37o+NzzpRVk3MF0wNmIy/Als6HsWDfvvkBG4KBDR91BnJw54lkPOiGzmIFAXCRzvouv1whR/sOiPAYtWD8pbrCriju67X65v6n5U/ltI7JQ4hU9EXPWRSEzBrAogMPcsVQJR+0Z86O/qRj+a0JqX2ET6S38AHGk6U9yUtVipfqWIWjF+TDZKXfBtVHsKg6w1q9ziMraGPSnuBEZFfdp8jXtkVCAcRkB+olbnCALxAVGniih5PA4jFBb1K+2jBixnpBS1qci5DcNxg9owWnmwlJaUlVhJjE5Bzvi3i1QwKtNg4nTbLfLfgiFqzUNdA4BKP2lpRZ+7gUmmqVbEbFfH0NJsDiIm9gbCVL86GqAm6Hwh7qgtZjdWY1TEle4GIqnrtgdi4pmKeWAHY8Nv3WSA37phipGSFKuMoCKtzRcWKlOMsGEaw2hCWTcwMYxOsFgZRhNYrAyjCSxWhtEEFivDaAKLlWE0gcXKMJrAYmUYTWCxMowmlI1YC/1GDcMUmpIXK4mU3lcd3feAHNxvi9Ye7P+/n39S7mcxM8VOyYuVXoFbYb4u36QhDyYSLblD2G/lWG/YHJPblh7Lt5fd9pmloOTFOlO3HRXxY/JNGjJHoxfOyR1ifd+B5KtwZJbGkZUpdsqqgYkESUZp5LVEgrUFSm6HhUH5Hc3lHkj+vR2ZXxpnGC9lIdZE6Ppk3UqQ9xJh17EkXEqROboyxUxJmnwTZNHyl/YvA5dZ4rz8/Dm5bH7uHqz782/kQibftI1eVD9fE8TUzg+LMy/DShF5afv8WA78W2eGMOZwH5Xu+C0rlQt/yqXfMvlOIR33Q2Sz4kO9dMY3lKO+dU602e3Gv7pFHB+2j7GQ12jyOv4zpUpJRlYSKvkrUU3asP8rMu0lwW4QdSq1AlNEpYYn3+BhuU773/3YZ+TxFIVpX6GRk1r1kvlSXLoMHujsS3ksmb0p+9FBy3I01tct/X6bbTM0Mj4jM3D2TyobSlKsJFQSpm3PQq29JEhqXJoUKS9BorSN0mi/9S81Qj0q0+JLg2VL6jQKN4dst33byTAkalyyIq1DrNcSOFMelKRYKWKSKG2HfWpUoshK/9I+Eq4dZQkSt934dLrtC0mRLz+2IMn9MEPDk3QyJDd9siJ1TtPBlAMlKVaKmBQtSXh2fyoJkARsDHbBf9DqsrGFSUIe33OXTJ/pPEqHLxlCkFb661NTaLhFm78TP6M7JdsaTH2qVK/a0FQZBNWr9kIipe0UaWngBBl+03m5QPPXOPGu5wtNWEVTXMRQhwZ7TEXVFrSGEqLGFdvrImzWXWaUrFid0AAIEi5FVBKmnebaDVCUGhPZTPOYIoFYLKFqSIVs9FGfM0Atxa5ISVNlUJ2aNMz3YVvY7cSfQtSpUZoxjsy+rdnpAhHuoy0nykKsNiRGiqBUq1Jjky1a6qrJB2r8sWdkkw735G6vWm+zYnoY/dJN35HuGk4n/gjQ2ylqU+rOEXWqY7rI5L2jc4mbKTVK3jfYnhKDJkievNpqdCKhUqMS1af2dhqSaLcOM0wxUvKRlQRIwqSGJoqslPpSXUpdNNQCTNupbqXxwQxTzLAjP8NoQlnVrAyjMyxWhtEEFivDaAKLlWE0gcXKMJqwLK3BDMMsHo6sDKMJLFaG0QQWK8NoAfD/niR9/1GXtbMAAAAASUVORK5CYII=;" vertex="1" parent="1">
          <mxGeometry x="550" y="834" width="235" height="213" as="geometry" />
        </mxCell>
        <mxCell id="2XhEkTOICneemovFG1xt-15" value="" style="shape=image;verticalLabelPosition=bottom;labelBackgroundColor=default;verticalAlign=top;aspect=fixed;imageAspect=0;image=data:image/png,iVBORw0KGgoAAAANSUhEUgAAAOgAAAE4CAYAAABR4L/jAAAAAXNSR0IArs4c6QAAAARnQU1BAACxjwv8YQUAAAAJcEhZcwAADsMAAA7DAcdvqGQAAC4TSURBVHhe7Z0NdBxXlef/dmxZlrps2bIjdccaGduSbdm7ptszkZdEnbARC0r4iMlsZnISsgMcMuSEHcgEJpAAmUD4OnwkzMIBwh6WScghm93EnOwk3rMoC5EygBwiOQsosiQb24paLfwhWdWSFVux9t1Xr6qr+kPdarWk1637O6dOd72qel0t9b/vfa+q/3fZ1vp/Ow2GYbRkuXpkGEZDWKAMozFapriN11yLHXveqtbitD77MwweP67W9CUQbEGj0YvWtqMwVVsi2eyjPVVB7A8BHQe7EFFNTH7RLoLuFMK8Ugh0TUVF0tL83hvl9is2b05aaPtSZcWKFXjLn/0ZVpeWqhamWNAugpIAm993o1rLnrHR0UWJsMa2JjQHIjNGwmz2mSsb1q9HSUkJItGoaklFFRpbRMjrPIiOYdU0FziCzjtzF+i6NVg7MoZzajU9q1FWdh4TE2o1DbZAD734Sym62TB2bnTJCpSiZ/Xll2MgEsHU1JRqTYQFWmjMUaBB3Pn1O9AQeRKfffjFGUS6BX/52bvw3tJf4Z7PPo1TqjUVtkD/+Z8ekQLNJXWdjbDlWLBarSCG7rZ2HBm31uQ2dKLVrEdznc9qRFR9IH3YHm5CQ7lqJsatMaWhjjvQNZ7FPnGlzHQuKN+K5nA9DLVq92MLfvny5agJBDAuvgFPnz2rWl1IMTmdSyK2UDP07T0v13GJArX7STieyZ25R9CtN+GLn2xGRW86kW5Byz/8LW4JDOGn/+URHDyqmtPgFugVtZtzSndtcWfCFqAjEvmB8znCsD+YZl87WvtjYgclSjN+TKromNhvNvvMfC6JkU+cR7AKkS6vCAyfD+vFFxpF0UuXLqlWN6kjaCAYBLrsKOh9j0nnLs6rEV0pBGr1bTh/KyYfzH2S6OjT+Nw3WjFa/9d46O5rsFY1W8xOnInQ5E8uZBVBxbd9Q7WIhrYgiOE+dI/7UOO3o6VARIMO5wMXw5EjYoxXHUBAteSFTOdS7hPRLYZR53MvziNBnMT5yUkZSVeJsehsiDjiJGKIRMQLGfSa4kE8wozFX2tYidODJc5AVGQbLM68kp9ZXCnSgzi1zS3SNWi+O3dxEhRBZ8trrx5WzzLgWyM+gNXig9WC/c6SkI4S7g/nfJHpXMaPojvqQ0NYtIvImQ4ae5qxGNblMCygCG6/djydF+Lt7YVZHZLnsz3xbyOh87LE6UR/Jm/k7zLL0WfxhW/ZIm1Gy9334/bak3jswdzESeQy/pzVJBGNlQ4exIGEZVGiQIZziXTReju6DRJLeqHSGJQiKF16yQoaN4r+ZHptv2af6/2LLwd5Xp0x6wsinVBVxGXyS36vgzoivQm3SHF+F60jatssobFoLgyeyFKgsTGY5SJVTRkVFpisz0Wktm0klvRpNqW5b1y4gIo1a1TLzBj+gDWpkyn6idRWfkEkDgHEOdE4uRv1aA5vZZHmmfzfqEAivetO3P6J3MVJ5JLeElnP4I4PY0B82Br2ej9UNGEym/GlKVJglFOKmp6M+2Q6FxHlGre5RTEzlOaWl5XJ8aiXcYyOq3GlIunc6LVcKW52fw/64mCRzgeXra+s+kf1XAtWrS6V0TOX9JbGn8eO9Ki1TFzAmRNRTNeG0NhQh5111rJ2qAuvnr0g9zD8ddiEIfRE7WsdAp8fO/0iUvdHrbHpeAzTgV0IUh+BaRHBR7Aq8biM+2Q4l5L12BkKYY9q3+mPzXjtkWZwKYJOimjqvSYqXmfSwJ7du6z+zX4MDkcxZgTRGFR9bziDwydWYZNh4pg8T9e2ulqUnnDN0nr+FvQeTKxt2C3O04/poZM4c9Hajckd7e4kImGSQFPdizsTpoiczzz2Y7XGZHdnEaM72gmUyQ90Z9EV1dUYFAKlcSlTmLBAGUZj8j9JxDBM3mCBMozGsEAZRmNYoAyjMSxQhtGYvAr0L0IN6hnDMPmAIyjDaAwLlGE0hgXKMBrDAmUYjWGBMozG5PVeXJrFfbmzW63NP3dUrcO7K5J/ffjg66fwyvh5tcYwhUtefw96hX8jIkMzmWrmj/esM3CPvxLGZcuTlr3lqxG7dEk8vwyBkpWeZdkywHwzleOdJpAFSfNurMz295TkrBf2Y8z+fSpTVBRlihsoWYEHNm3ED7b4k5bvvyUgBcwwhcCCpbhl69YAI2PIYCwvdlyNsonzGfejCEoifPRPIxi6kM5JHVhfWamexRm+OIX/feJ1taYZFEHDAQy4TatnwuNNyxQbCyPQy1vw+QdasPJX38VXnjiSXnxlV+HOB/8Ke17/7/jot/9VNabGFuh7j5xERAiUomYiT33zG6jesEGteYmePo17vvcDdHS/plo0gQXKuFiYMeh4P14eq8F79r8bf2EcQ8fvziBpeFUWxIc/exsaLx3Co488h0iG8df21atw7Zpy/PTMOfn4gy0B3LJhrbPcurUWlddep/ZOxldWhrGRs2j/Q4ZJLXuMZ/qFcIKWN4/tK7StCTc0Wv4+dpvlZmRBruzOdloM0+tvJPDu48f0GRNr/QbGTsTHoIn9SC8hu5tEjySmqFiwMejES4/i3h//HhVvvwufuXU7ylS7RIrzg3gbDuF7D/0Ev82YB3sJledWdi/7yaJqNAYiyje2E5Hyeukl22z0etrczntkBN1cR+Zeltes42nrcr2TZRU8+/SiIuSqkSJwSi/Y+7T1wgi1oDG9fzVTRCzoJJEl0sMou8Yl0rLtuP3e3MVJzDTpM/EvB1Iuw0f71R7Z4C7LMIxuaeyc3GYEqixxiTS1oZr8Yr0lFY680uvyv61CQ50PkU73PsPoEAKMR0LaB+h+xVXmQbrMiy8A8VpM8bPgs7gTL/0In3tMifT2q4Q478I1+BW+maM4iVTjT+LSuVFc+H9dKZcTf5rj5aDxsfQpJZVyGI8gkjiGVP63FRRoZb2VKAZm8ouW+6iSD6osAy3uSmNMcbMol1kckV59myXOrz2J7hzF+e51udkkn5l6Uz3THSp3aKfAroXroCwJFu06KIn0njvuxIcfyF2cxN4Zxp/L11ag4r4vpFxamq5We80D6Uo5lFehptxdpawaNYmZqiykpBinwk0p9mGWDIsm0LlCl1aImcaflOKOfvnzScvjn7obT7/YpvaaB5xqZO6yCT5s31sPI9prXT6xx5Ih9z5VaPQU2RUpcdI+NHEUTFNpjCk2ClagQxcvypsUSKipluGLb+LN6emkdrpHl+7VnW+oGllH1F1SsAk1kXZPapq8D13/dE8SpdqHZo8j2V0jZQqegr5ZfiY2bdyI/3zTftx0TVi1eHn91Cnc+/1H9btRgWFcFK1AGaYYKNgUl2GWAixQhtEYFijDaAwLlGE0hgXKMBrDAmUYjWGBMozGsEAZRmNYoAyjMUviTqJJ/071bPasME9hRey0WmOYhaXoBUriHGq5T63NHv/BL6N0iO/XZRYHTnEZRmNYoHmCTMLchmC5IvsJ8i+0GQsWKMNoDAs0T9APqw+0udz3tMOH7eEWNLusQRn9YYEyjMYUbHWzbJkyNiJW16TWZo/R357VZRZpVO23neMpWl2H4MooJmuvQ3NQOcsnuc9XobEljCuVYzw5zw/Cj00Y8jjQy77tPsh9XlU+sxzna511wmqr9FY7kxXTQthUAqyqrJX9bEIUx86KM5HO+coxX51Dovs9s3gsSYFubH8U5Sdf8SwTtXvh62tH5aEnpCDta6fZCtTw04feFlYJNtTWYlN1LZb3HkTr4X709JtY27AbW2xhSHGGYIjXfP5Qt9jej0FfCOFaoaJYXKAkzkZ04kD7YblPj1mJ8L46KcrI8EmMGbsQrFSiEkIMhwwcbevAcXfpjIsjOCYEOx2oRekJ6/XkOZBw91WK/V/AS93qHKmMBAtUG5ZcirsidgoXfRul6EiQ9Px89U55rZOES89XR1/Lz7XPaCc6HI8wr/u8sa0egfFedPQ7HpwwxZdBR1StENKh3u1gLxjuQ/e4DzV+aywZ6e2FWV2P7eWWayD6urI3FJMWnzGYzv7D3tdiFp0lJ9ApIcjR4H6YIhUk6HlihKUbG+Zy95GNGf/kJ2EYPpiR4ZknlaSAvI5+5A7Y4LbcHD+Kjj6gISza4RV8RqTYrf558khPeJJIMWVswEjw/VjX9QxqnrpbRlotEFHWKZzkWlrdkdechSg9xHCkjfrrhCm+pKSlJwtVK1igCjuyDtz8Lbm+sf2H8nE+cYotOfhEZFVPiXQO9R7I7NqH7rZ2dMNbYS17RGpLoncXgGK0gAWqoPEoRc7SoR45sTTlS134N1/IsWNCyUJyjPemr1axpYa93juUAkHbaZ5mi0MISLd6EQ2PRGHU2a7zNAnljohirCnyacNwvUBVkMsYas6SFSgJ0C3CSf8OkeaFZYpLnGq6Qz7OG2Ls2NrWC6jUkpZGdHkniWQKakVGqkdq79dg9smShYEgjUddk0jDdHxiyYk41oRSyJPKBkLxfmUdUq1vtlh68K9ZMsC/ZmEWk6IXqIyUImXNFRYns5hw6QeG0RieJGIYjWGBMozGsEAZRmNYoAyjMSxQhtEYFijDaAwLlGE0hgXKMBrDAmUYjeHSDxng0g/MYsI3y2eAb5ZnFhNOcbWEPWwZCxYow2gMCzRfkL9sS+ofSi8eHIkLHRYow2gMTxJlIJtJImkuXa1WJFF0HOxStiTebZHOgy6vXIpwbhvNmDT/OjJutddE2h33Prsf+/iZ+xWQKXW43uNlZPap/ijah1wHRztxgP1wtYRLP2QgG2d5M0qO7wZ2+mNCmO142S67QMbTJd1oVc7xtM+VIcsVnko1BILXIXgh7ho/iEoYsajYZjnTrzVPSgd4KucQrj0r++4ZJ3Mxsb7hOFpfOIRXVb9UymHQbcPLbvJFwZJMcclBPnEhyNmPImZF1wG5PmfIVNptJD0cEVHVhwo5JLQsNt3m1mZ/sis8ibG5DiKyWhFZthmiAzMWN/cis7BsAyC7yRcUS06gC1r6gaCIpVzz9reEXJNItk0mufqlmVwKBJU4Ke1VbYK4O1+TsticBewmX1AsOYEuZOkHGifuDwcwIN3bLQd3OwpKROSTLvF9PlXewStUGj+aTsR1QZad1F9nDA1hOm42QiUrT3aTLxR4FleR/9IPVaiRkzre6JcKKppkibcaNS4jaTPShdbOqPSuTWkwLQXe7immlD3sJl8IsEAVcy79QGUaaFzpRLJxjAphyvGiIhB0p7g+bA96HeNTQiJMEGncWT4ZK2rb/bKbfKGzZGdxS86elHVBR0XUJGg8WvXCI1KoK8dPSz9dqhmabX1QmjWdpFqdu6gQroGx/pM4fnoaW0Ih7FHFcZf3irTS7xc5dD8Gx0uwoT6ExgZVOLfOD9O5VOKdxcV4VBb23bN7lyryW4dGp6CvNUtrX46RdUpXncExVSjYNKexaddueQ6yaO+FSlwZihfs3VJ6nN3kNWbJXge1J4UGbn5YrlNK6+t7CUZfmxS1fQzfLM8sJks2xSXh2uIk4inuw3O6sYFh8knRR1Au/cAUMkviB9sMU6jwLC7DaAwLlGE0hgXKMBrDAmUYjWGBMozGsEAZRmNYoAyjMSxQhtEYFijDaAwLlGE0pqBv9Wu85lrs2PNWtRan9dmfYfD4cbXGMIVLwf4edKcQZtM734VVpaVJyxW1m3FhchKrVpdiTUWFZ1kmjn1DbMsrZGMZjrv1MUy+KNgISgJtft+Nai17xkZH8x9hpc+sL8nci2HmyoIJtGzdGmBkDBNqPS1lq1E2cT7jfrZAD734Sym62TB2bpRTYKYgWJgU9/IWfOYLf4tr1h1Dx+/OIG0WWHYV7nzwE/hPDWP4l44B1ZiajdXV2LJjhxUNTxzHhTcmYQrhZbPI9FekwnlPdRkmzyxcBL36Dnztb3Zj9BffxVeeOJIcIcuC+PBnP4i34RC+99BP8NsMIdSOoP/8T4/IMWcu6S4dmyn6SuNoo9dbGkGWVSA7TZXSyhQXTrkHhskXC3aZZeKlR3Hvj3+Pirffhc/cuh1lql0yS3EmcsXmzerZ7JhtaswwC82CXge1RHoYZde4RFq2Hbffm7s4CYqgs+W1Vw+rZwyjLwt+o8LESz/C5x5TIr39KiHOu3ANfoVv5ihOgi6fzBaeJGIKgUW5k8gR6dW3WeL82pPozlGcNBbNBZpYYhjdWbRb/Uik99xxJz78QO7iJHJJb4lZjT8Nn9cBXlYIY5j5Z9EEOlfoWiaRywTRbMaf5lAEZnk9GpxyCVVodBe/ZZh5pGBv9aNb9uh6piHGn3Q9M9vldDSK55560uokGy6O4JRddkGWS1iG7rYI1tYaGDuhbu3z+bGTiuDahXsZJk+wLy7DaEzBprgMsxRggTKMxrBAGUZjWKAMozEsUIbRGBYow2gMC5RhNIYFyjAawwJlGI1hgTKMxrBAGUZjWKAMozEsUIbRmCXxa5bCKxHhw/ZwE2oi7Wjtj6k2ndD9/IqHoo+gZIlypRBoYgkIWprfe6PcTj/6TlxoO8MsNgX7g+1ssQ2uU0Hm1bSNRJq4bNm+A6eHozCztUaR9Vn8GMvLj7ZLsKG2FmvNkzh29oJq0wndz6940CzFXYO168ZwbkStzkBZ2WpMTJxXa+khsS1IiYi8mldzistYaCXQP//IF/F3u6J47MHvonUGkW7b/yl88oYyvHjfg/jpn1RjGmyB2i7yuaSumYQdCLag0WNTFHWEmrgt0nkQHY5JvfVBbyhXq4ipAkzJArD78R6fGumGX+dTa4Jop3LGr0JjSwgBq1UQP09CvgY60YGQfC2zT72+dNKvd4zSzL5ODARCLNAFQLMIugW3PPAJtKw7klak21o+gY/f5Mfg0z/AVw8eU63pcQt0PktEpIyg4oPd6B9Gh/0hTqiCZgvCLithbAsiMNSVJFBLcLGsorMlZLfwhCiD4rzEa8T7lxusfY1etLYdlWl5yi8BJU7T1Wbv5wiYmTc0myQ6hp8++AgOjmzH7Q/cheZ1qlkxW3EmQpM/uTDb1Nhh/GhcnMRwRIjGhwoZ3HwwREgyzXi9QrM/Lh4bS5wQos4sThJTQzVFYfe+4gtCfQEk9h+JRMUxCRai473otsUpCNSLyCkisDtqR7ra0Z1wnsz8oOEsriXSZ09v8Yh07dvvmpM4iUUpEUERqKUF++XiTi9jOHIkCqOuSbSLyKZaPQSCSpwJdUcpEjt9iiW81RIZ+fWOiy+BGcRDgneOS2UfasZck1zWl0gk4lIns6BoepnlGP7nQ991RNryH+7CQ7f+GY4/8aWcxUnkMv6cy3VSSgX3yypoB3HgIC2d3ig43CXbW/t8YmxIovEKlURnOhHXhTrOWVSKOjM0/mxBcyCCVvu4ThFBGa3R+DpoXKS33GKJ85u/GFPbZg+NRXMh9xIRVaiR47nMVbfN/nYhGBJvNWocg2zRHulCqxBRICTGfK72tMTGYJYHEHAmnVxUiXaaFMpKzF4CgcQXL0dFqtdg8o7GAiVIpPfg9g/eOydxEvNeIoLEQSmh88Edx6gQpmHEw18g6E5xfdgeVKnpTFC0zFakYszbHfWhIeyOxDRJJA5MOr9sHPKtNBzVIc9re98HM58U/Y0Kq1aXyuiZS3pL489jR3rUWgYujmDS2IXgLnKfNzDWfxLHT09jSyiEPdKRvg7Lezth+v3AUD8Gx0uwoV588BusbTvr/K6Z0oQbAcajGLTd7Q0TPdH0IdmM9mPMCApRuvrtPYzBEXLIrxWidDnkd8awyeWIb/jrsAlD3v7Fa/eYBq4MBdVx9D7aMbCGb1RYCIr+XlwSJgk01b24M0F3ED3z2I/VGsMsDkviZnmGKVQ0H4MyzNKGBcowGsMCZRiNYYEyjMawQBlGY1igDKMxLFCG0RgWKMNoDAuUYTSGBcowGsMCTcOUb4N6xjCLBws0ARLmwM3fEsvDGGq5zxHqpH+nXP/jhx6X21nAzELAAk3ArAtjhXka/oNfxorYaSnUkeD7pTgJai8d6pFtDDPfsEATmKzegdJojxDha9jY/ih8fe0YDe5HRdcBJc7XsDr6Wm4RVPkTZeWOMCPk+teC5m2JXihMscECnQESYayuSUTSU1Kktigv+jbKR4aZb1igKYjVXe2MQ4kpJUh7XEpipfR31lF0/Kg07MpkPL2oSMfANC6DzILDAlWcarpDTgBNGRscQVLkrHnqbmehdRuKrPb4lCeMmPmi6D2JsoHEOenfgaoXvo3Kjiek+Eik9HzK2Iih6+/H8gvnUXL2pJPy1v7ko2Is2iOjKbBMjkszQmPQ5t1YOXQSZy6KdYpWVHBpqByNzfsc76K1JnkWWYdI5HHx7ZtwBmOG3+sJlLBP3LuI7DbDuNLjZWS17UTU4ylENqFWyQgfNsl+yFuJ/IpozHsdwi7/pGnxHi7UNuGGxlr5XL4fAfnu3tBYmaciUgxHUAGJc13XATkBRNAsLYmQJohGpACttHdd1zPyOW23Hmki6YdKpLlSjca9VDLC8qpt7YshEHKlmCQ8VXrB9sHtNkKuei4CuY/bf7dd7rOf3PzIWb6tF2Z1PbarY6QrX7QzqWxDpEscK71yqXQE9WM51AeCTWgwO53Xp3MkyC60g1wE69WslziPxmxd8JmsYIEKfH0vSSHStU7CjqD0SNtIrCRgezsJ2p5AOtX0EUfYuRFD9ytxr1qzv9fjj5tN6QXaB33usg62XSZ54QpsO04SkojasnaLKgeRmZlLVER6bfGLKLs38TyYucICFVBkpKhIYrOvd5LoSLRGXxv8z1uXV2wxkniHrr9PpsZ0HF1+yZ0YXJ/9BLIpvWDtY5WQUCUdaEnwvI10dSJSLaKqaI90zibCZShRQfVn+oAGqtKGXm8tGmbOsEAVdM2z5qm/V2uQk0UETQTZCwmT2imi0s0MNHFEx+kAVSSzU9D44haiZaSdExlKVJgmi3K+YIGmgG5KILFS5CQx2iksRUpqp7SXoEstC8HMpRdEBBb5cfI+Xqj0oBxHSpf63C6jpC5RQQ71VknFbtSjkW+eyCss0BkgAVKkpLEnTRjZQl0pRLsw2GPJmUsvyDKCCfvICRtbLGLc2UyTN70iVR7uE+PXaqscBEETTO67m5JKRMxUooJmd2nCqVeMO+1UOOhMRjFzhy+zJEBivFRShssuTqjLL5Y4aWLowvpa2X6u4Z3ydsCsLq24KVmPLbUGxk6oyxI+P3a6Si9Y0CUOuzyEWM2m9EKKfXbWXkT3oZMwSYD7anGhrwMvD9MllQs4c3oam3btxha6zBLziXOqxAX79ZJKWJzFqjQlKgLB6xBcH0VHe791/uI8xuSx9uUZZq6ws3wCNDtLE0A03iRhGiKto8hJQh15qzXTS2kvXV6xIyrDzBcsUIbRGB6DMozGsEAZRmNYoAyjMSxQhtEYFijDaAwLlGE0hgXKMBrDAmUYjWGBMozGsECzwH9ZmVzuXrNLLrf6tqotDDO/8K1+M0Ci/IhRh7qVa8Xz1TCWr1RbgONTMTw7MYAnYkdVC8PkH46gafh8xR58r3IfbiirketvYhpPxv6IL4y+iueEMM9duoD/WFaL0KpKuZ1h5gMWaAIUNX9W9e8dYZIYP3CqDe+M/h88PPYHuU4inZh+E6uXr8DQ1Hm532JALnyWMVhhM+v3IX/D2rQkfnfKAnVB4nx8Y5N87L04hjvP/EaKMRWrli3Hm9N5Gx0wTEpYoC6+vv7P5TiTxElRc+jNCbXFyyOVjQiVVOI3b/wp7T6zh7xq81G3hSkmWKAKipp1K9fg/PQU/uHsb2XbO1YH5KwtjTNpOwn48Y1h/LtVG/HrN06lja4Mky94FldBAvzp5WEMTE3I6Gm3fW/DPvlIUGSl1Par536HzjfOyLbZQuOtRpcjJrnxdSCYbJPZ3Qujgcyo270+s+RGHyKj6y6A+kInDrg8br39x6SZl3M8jd3C9XF/ofFetLbFPXltZB+i3w6EnL7Mvna09gPbyV5Tjf2sNrejH3kUxbcT8v15XEMpU3B5KpHnL72O8z5oez1GE963fU5yH/k+Ev42ie9N9Ov+u3iQf0PX39uz7wzvIe1xicck/N3nAHsSKWLTF9FYuhG7S9bBWLZSpK+nZNuT43/EcxOvy8fHYv34H+PHRVqb28QQlUUIbziO1hcO4dX+fukjtAlRDA5H0dNvYq3y+2k93I/BcxexMlCHmsTyDPVBbIr14uXoOAw/lYEYcko6OB/i9sOiP+q/EuF9dao0g/jgN+/GBdV/T38U0+t9MKMjiPduIfut9mN5r9pXnOee3buws64WF3/vbnOXfSBh7cOWs67XH5rGzn2izXkPljgNIeznD3XLfQZ9IYRrS8Q/wH4f5MlUiUnbt0nhea+J3k6OYF/AS93qvdXvQ3i9u9yFgvbdV4mjzr7i706+UHK/FO/B/h8h/XHSm+lC/JhBVMKIRT3nnyuc4rr4wsirckxpp7Y21JaPsaZh+ETYicUj1nDXDJXOYpZLXqDK5ahXhZpq8e1M7nyJiA9eQ6JjvHTw86HGL1633Cf6iWHUCXii/67k6OngdrOX/YjHpDbVt8DYVo8ARWT360tT65jzHux93ObWVvkItZIjGZ313fjWyL9D3Cx82PmbpXwP9v8o7XEzO+/PFRaoCxLhnad/g+fOD+B95TV4dMPb5OWWu9bskKKdK1aZhBD2Z3uJYDiCSLn4kNn7Vonn46It1T9ffoCqRQRQzvJycaVddvmHcO6XZtwfwkToy8eMDCcJ3hyKwCync0u/z9zIzlnfwbYdFfskFkCe8fzSHqe+SNM5788RFmgCJNJnxk9i9NIF7BGp1KfX/hspzofWhfBC9Tud8WhOqPqgBzpjllAyCnUYA0JUdpQKBKoROTJD1KNvf4+zvLXY40RZHMkurEQf4iK4hmqT2VnfRghKFpnqhKlEnV2l8hmOy+C8PxdYoAnQjO1Tl1+L2KUpJ7W9cfj/ysUUY9K/Ln+L2nMOyH8oFUCKiy8dFHUhU0RKb6MYcGVfHshw2h1t06I+aFTFLFUKmCNU/sGbjlsY/gCMcTLDVutJ+1gR0IsPFZ4/S6p9bLJz1k9GpKhSVPHzTvcevCQfZ5PaeX9usEBdkDgfqgjhxFQMt8nroOcRURNCJNQzb76BP12alOu5EAjO9M1q1U6R41Q34yKKiqMC28QSFemtak6C9hOCb9jrdYF3XlOMUdOVZaDJq7l+68uqbOX1aHZHZXrNOp8T9WWKL/Zxn4csSeH5UqGsQZz39vj7SN7HSyZnfc/7o+puacST8j3Y+6c9bibn/bnDl1lc0K9U/m7NTvxXsxe7StbhrWL5+7MvO5dUaOKIbvfLlcRLLEmXKVzT+O7LE/QBa5Z1N2e49CBJvkTgvAbNXrovQ4BqgFopoNV/zFlP129NxH2+qdqsWdq40FNcbkg4Dzq/bqMp4fW8/STtI/tIuMySeAkk3ftL3C/pUlPie1D9pD0u+W+efGkpd1igLkigH/Rtw4plyzA1PS0vr8xFkPlCfsACkZTXLJnihlNcF/TTsf8W68fXz/0BHzjVroU4KVIFAvMx+8kUAizQBEik9IsVGnNqQVWdSJ+i6HanwsySgQWqLTQWout5VHvTGksxSw8egzKMxnAEZRiNYYEyjMawQBlGY1igDKMxLFCG0RgWKMNoDAuUYTSGBcowGsMCZRiN0fpOorKy1ZiYmLtze+M112LHnreqtTitz/4Mg8ePqzWdSPVTLmYpoq+rX91t+OKX/gp7zEP49fE3VOPs2SmE2fTOd2FVaWnSckXtZlyYnMSq1aVYU1GRtJijo6qXhaYEG2prsdY86XH0Y5YeWkfQbfs/hU/esAF9T3wJ3/zFmGqdHSTQ5vfdqNZmx5gQ6IHHfiwfMyJ/0Gv51c79xnaOoIyF1mPQ/gNfxzeeO426W+/HPW9fo1oXDoqiFGUZZrHQ3rj6bM+v0HNZEO+56V3YfvZf8euTU2pLdmysrsaWHTvU2uw5dqQHp4ejai01ZBHSXEf+N2S6XIeddQbG+qPyB9ZyW5DarGWt2Y9BxwKEIuV1CDfY2/3KCDo5xbX78R6fiNVfcKWJlbvDst/4/vTztTCuVOcRfy3aJKJ/2O+cM0EuDjc0VnrapBWKz2ukzcwvBTGLKyPp00PY/Df/iHuuXq1a9UHaWZJLnvSvcdk9lm9FjUlOb9Rm7RMIxa02A8EmNJidznZyiksFiaWRTKnFPtl43Rh19cArVp9yf/LwUY7u8XOxrD+lEdYwmZG5negsFwd42shVENL5jlk4CuYyS//BR/DtAyLd/fDduEW1aQ85q7vHkFIItqVkdo7kluEVGYbNYmwb7fWai9XXw4h2esez5JguvlMsu0rLSc9xFCwXYiyPgszy4m3ifMUXUFrbT2ZeKBiBouwqvO8dW7Dy+BG8rJoKAhm9yMyYFq/jXUZH8kAwpZufTEmdPsUS9to+eh3grS+CSCRZWdKuUgiQjvV4wpJLfTSCDrHdbpP+tjPZfjLzQmEIVIjzni/fhoaRVnzlwafRr5p1h8Zs+6U9pEorpamxiwyO5FI4TsR1oY5zljy4/VklGizja+lgT4KmiC/brJQ3lciZ+UV/gdriPFdY4rTHbJHOzGXo0jmSm5EutMpxqxor5kR653USolPMSRlfV/jcDvaU+lJbOSpEysvp7cKjt0Dd4nxAc3FS6QVKJx0D42Sn+EDQneL6snMkp2g5R5HaRZs8NUhEmtzoqZQWExEyJl5HnKMrlaXUV7a5yjcwC4e+As2TOMfOze1uoKyPd1cPk6mqGGO+0gu4qm7VRBJSXKPeMz5FOkdyIVKa4SWR5lTwiIo2tXnPxbqpwhvdZZorHt2prN3GvryLg8Z3Em3BX96+G4cfe3ZOkZNuNqC7iVLdi5uJnlcPo+PFX6o1hll42HaTYTSmMGZxGWaJwgJlGI1hgTKMxrBAGUZjWKAMozEsUIbRGBYow2gMC5RhNIYFyjAawwJlGI1ZErf6Tfp3qmezZ4V5Citip9UawywsRS9QEudQy31qbfb4D34ZpUOvqTWGWVg4xWUYjWGB5gnL3iSLH2BnQPaTy28+maKEBcowGsMCzRPSGzcP5l3zB5lat3htTxjtYYEyjMZoX/phrkwZGxGra1Jrs8fob8/qMosszeA30RMlkx+7BEMUk7XXxUs/BKYxeGIE8cIJCeUYDBOD8GMThlQ/FrJvp3xEvGSDVZ6hNl7CQZCqZIP05m0OYVMJsKqyVvazCaqEgyz7EFR9W+fgfm1mcVmSAt3Y/ijKT77iWSZq98LX147KQ09IQdrXTrMVqOGnD70tLKu2yqbqWizvPYjWw/3o6TextmE3ttjCkOK0yjE8f6hbbO/HoC+EcK1QUSwuUBJnIzpxoP2w3KfHrER4X50UZWT4JMaMXQhWKlEJIYZDBo62deC4Eqzk4giOCcFOB2pResJ6PXkOJNx9lWL/F/BStzpHPzDIAtWGJZfiroidwkXfRik6EiQ9P1+9U17rJOHS89XR1/Jz7TPa6XLpG0Z3X9y93dhWj8B4r6c0BPnjUjkGByGgBqrJ0uWy+hvuQ/e4DzV+ayxpWWrWY3u5iNp764G+5PIRaSEHefLNdfYf9r4Ws+gsOYFOCUGOBvfDFKkgQc8TIyzd2DCXu49svCUYvJBfbkYrSymgahFplVWmXJrQ4HjvCqj+Sx/QEBbt8Ao+I1LsVv88eaQnPEmkmDI2YCT4fqzregY1T90tI60WiCjb6i7zoBZ3IaTcK47FcESWpeiEqTxzWah6wQJV2JF14OZvyfWN7T+Uj/OJU6zIwSp05EBu9apeSnrEWDbkkwWWulGPxpwEJlJbEr0rBWf0gAWqoPEoRc7SoR45sTTl26C2zA9y7FjuFZSxLZiQvlr1Uhr2eu9QCgTtIks0W0ylGqjcoIiGslpaUNUfpUkod0S0arQY8doUcgY395ovzEKwZAVKAnSLcNK/Q6R5YZniEqea7pCP80aKcgyNsGp2xqEU1IqM8RIRLWgw+2QJCVkAuNw1iSRrflL5idTlDO0aLe5UVpaTUP02ByLinHS+2WLpwb9myQD/moVZTIpeoDJSipQ1V1iczGLCtVkYRmN4kohhNIYFyjAawwJlGI1hgTKMxrBAGUZjWKAMozEsUIbRGBYow2gMC5RhNKag7yTikg5MsVOwAuWb4JmlAKe4mSDXu5Ym9RvLOUAGXfnoh1lSsEAZRmNYoJkY7sKBg+3ZO+UtAuSFm4+6MIx+sEAZRmMK1rh6oRzjLed1v+PUbjvIk8n0DY27lCO74XVyF1gO7/Z2P6bPkCm02O9E3AXecnzfhz2Jru6qPW5yHd93o9mPQSeaWw72jdUlQEkltlAftnt9Yt9JrvZMIcARNBeqQ9I/yLLAbLe8ZV0lA0mczXUx6ZRn7dOLilC9NwUlAYUDGJC2l6ofI2SVHiS/ok4yAKuLm4NJU+p2lxE2YdlmkhufY88pPYWq0Biuh9np6puNhgqSohIoOcMnLgQ59tFllYquA3J9zngc4S03PVQHlJiq0FDnQ6SzSxp7WQyjo63XE2ED9Yku8An9KFPphm0+y+1vNqbU5eIY0d+os7vou4vNwAqRohHogpZ0MGPpP+xSHFEMzFhBwfK/NVyOfnIJVavthBDVK5brX3Md0P3KLAQmInC3dPcTfXIx4IKmaAS6kCUd8kXESUHdiyvyjs/wRZABWa/UTptJ/CzUgqTox6CLU9KhGjWJepB1VmwsE+lAYGbRBIJW9bNWqr2SYF6dHSIK0xhXjGfjKThTSBS/QBe6pINML8kQ2m0eTeUZ3OmriHAREk3I6+xevtVxmqeJpsbqKLrFuNPs70XE5UIvr3u2xPuXtVnKXV8Arn6YwqboBbrQJR0ISi87ou6qZDRb650kkjdAiMjmdnbfH16DAZoIqgqKcad7omkYHXJWV4g2VdB1VSmzb1jwjG9DQIc7dWYKhqK7Wd6eFBq4+WG5Timtr+8lkSq2SYHax/DN8kwhUHQRlIRri5OIp7gPz+nXLwyzGBRsBOWSDsxSgEs/MIzGFP0kEcMUMixQhtEYFijDaAwLlGE0ZtknP35v3iaJXh8+gU1VtWqNYZi5wrO4DKMxnOIyjMawQBlGYwo6xWVneabYKbqb5bOFb5ZnCgFOcRlGY1igmfj0/Tjadj8m1erk49/H0ec/hjfd64/fpNYYJr+wQBlGY1igs6T0Ax/F1uu/g8vU+uy5ErHnv4/ot69U6wyTHhYow2gMC3SWpB1zyrGq2CaXbyF2s2p3c/PHEG37EIZ9wHjwQ3JfJ5J6jk/zGsySo6gE6naUtxci787yidS+A0d39WBrWKS/YtncBQx/LIVIn/oOqsM/QhWZ8HX9SO5b/fFDlnCvr0TVd6zjt4Z/jvXqEGZpUzQCXVBn+URiv8fmDzytVoDLPv6kEGEZYldlOc7cshbjOIMVT6l1PI11rv6YpUvRCHRRneXPDCVMGh3CijMijV1fo9Yz8NWfC0HXYNCd8jKMoOjHoIvjLD9bDsF3vZXarkocmzJLmuIX6EI7y0tuwvlaYP0fZpumitRWjmEnMF53pXMzBLN0KXqBLoizfO07PBFv8vF34CwGsPqrtHYTRjwRMUX6++n7MfJp9ZxhXBSdQKVfrkuEk/4dMOvCMsUlTjXdIR/zyomfo2K9lZrSMlg7gCvCX0Kp2pxI6f/6Pcpp5tcl3LPXxy+xHK87hs1zuhmCKRb41ywMozEFK1B2lmeWAuxJxDAaU/STRAxTyLBAGUZjWKAMoy3A/welWLgXotLHSAAAAABJRU5ErkJggg==;" vertex="1" parent="1">
          <mxGeometry x="280" y="834" width="232" height="312" as="geometry" />
        </mxCell>
        <mxCell id="2XhEkTOICneemovFG1xt-16" value="" style="shape=image;verticalLabelPosition=bottom;labelBackgroundColor=default;verticalAlign=top;aspect=fixed;imageAspect=0;image=data:image/png,iVBORw0KGgoAAAANSUhEUgAAAP4AAAEcCAYAAADnbQlsAAAAAXNSR0IArs4c6QAAAARnQU1BAACxjwv8YQUAAAAJcEhZcwAADsMAAA7DAcdvqGQAACabSURBVHhe7Z19cFxXmeYfG3/IUrdlW3akbtsoI1tyLGvwdHvG8iaxAhUl4Gyxi8lsIAVkA9Rkkw21hGWYQGAmw24GyEACzISCZaqoDJAiEzaYYqqsYZGLGcnJjpSJ5DBBsfU1loVarXVkOeqW7dgm2vOee2737VZ3q7tlSd19n1/Vte4599N/POe855zb77NiR8M7ZkEIcRUrzV9CiIsomh6/deO7sc/zB6YU58dnn8XwpUFTIoRkw9s2VVX/udkvWETw7616H9atXDdnq1u3A5feuqj2y7Fx1aaETZBj14TqAA63+DA9GEbEVC0rhfY+pKgoih5fhP+fttxtStkzdfXctYsIRGhBoKutFyFTtawU2vuQomJxhL9xPSqnpvGGKaZnHcrLL+LCBVNMgy389vM/x9SVc6Y2O6auTlH4hCSxCJN7ATzwyON47FO3oNLUpKYOf/iFx/CdR+7EFlMzHy9HXsLL0ZeUkIey3qTXt8N+QojF4vT4O+7E//zjVmzofxZf+Po/pej563DoT/4L7vaP40d//Q20DZnqNNg9/uOjj6GubEdeYb9cK43AvOietMYUFOEeHOmdiPewHdNobGmA1xwO9bShSx228QcOodlxufO4PoYedCGoz4kMdKJ9MKqOVKP5UBB+6zRgph/tHUMJY/fE+4bR1QM0s8cnebI4k3tTr+GXJ8tw43v/A+5oiOLFfx7Bm+ZQrqIX/Gu2Yk/F7+KF6Q7s8+7XZSebf3cDan6/Chvr16fcfvvmW3j+335szs5AxQ60HqjCUMcxHO8bxMnBCCp9wFh4BvD4sNtXg22bJ9F5rBuvDA5iDD7sbaqKT7Cp6xvX9KG9u09dq66PeLE/WI/Z8TOYvAJ4ffXYVuPDyv42tJ8YxPC5y+oiS/RQDYTUyXXTmw6gpWEWYyNTkDO06L2qMTDPPTlegeYDtViLKMY4uUfyYPHW8Yeex59+rQ1nd37QEfavR+unchN9MtLjJ1N3x1Yt/nTb+gNl5sx58KxXPXkUEaVziwl0SW8fI4q+l+M9cWSwX/W2NdhebSpmhtCle3DDREgd92CDx5QF1Zv3OW7p3dkAv4oqnFFDqL8fkQo//BWqII1JTeJz5TntPWFTICR3FvcDnqGf4X88aYu/FYc+9XncU3sG3/9ifqIXshmvT5+ZwfDRMVMCLma7pDcxgL6ZGtUDH0LrTqdabZyNQhokalDXH9abI3y3iah7mF3B61XPqQma883mGEroxmhGNSDzPZeQHFj8L/di4r8Td2vRfwvtU+ZYjuzzzv2AJ5mTPzqtt9f/9bzehOzX8qM41dGGI209iNQf1CJM3QCkRkLywy1+jOp7WPfJZvwtY33rfOfWiVMUO1kkFl/4goj/wQdwz0P5i15IFeY7GXvhLDY3bcDe+xtww93X6zBfuDJ7Vf/NHhXiK/G1D0Th9VfHe9+MVGN7jUzm5SbYiIoA5n2GHfY70JECIXmyNMJfILIWL9SV7dR/07H1pi1a7GsrV2P92+NKCU9mOR6uDqDZHq/nzAzOK8E7BekPpAj1k4iMh9R4vgHNCZFFNZoD5kX08MODxn074o2DGk4011P4JH+K4pNd4dLsRT2+l7DduW27+Tqs27AWq8tWmTPnEr04g4nJCdUAOCfqUuDxYX8wgN319XqrKzsdX1bTs/oqqkiYRfdgW72qHB/E2MxlTL4+i7pgEHvN9Sv71ZDBZx83s/oYx0lZJbC5MoXh8cTrdtd7MdrTp1cCAHXfkTBma4NobjTHZWXh1Suom/M+hGRH0f8s993/7nazl5kJ1euf6P+VKRHibope+ISQ3CmKMT4h5NpC4RPiQih8QlwIhU+IC6HwCXEhFD4hLoTCJ8SFUPiEuBAKnxAXQuET4kIofEJcCIVPiAspuR/pfOK9szh8oyk4+NzTK9B9yhQKAUnR1dKASFKWXkKWgqL5PX42iOAf+QCwvnzutn8XELm4Qu9v3Zy4CZFr5LSVNWs2oa62CpfNb/UJWUpKqscX4X/53tz/O2OTBRgRELKILKvwyzeuB6amMY+DljpxHcovXJz3PFv4T/29iHmFqc0OET+FT9zC8gn/ukP4s0cPYfWL38KXnzmVXtTlN+GBL34Ae3/zd7j/my+YytTYwr/1cyu0kLdWmQM5INdlQybHnLivXQjbHSm24845Cj3Gl4y8zKZLlp7l7fFvvg+P39uE879MI/7yAD7+hY/iRnTj24/9EP8yT5fvFL6M6dOF/Surb8fspQnMvvHKnLLdaGREkl36JuLmGVroHvTZIo7ZcIXjFldmMg+2+Cl8sows63LehePfxcNPv4oN73oQn/vQLpSbek2Ook9mf0OG9qzyHVhRfZspqNZP7dvlrHr8bBxzxHWnw+FrJ9fklK6bkMVj2dfxLfGfQPktDvGX78I9D+cvekF6/GSkZ19Z+xGsKJubQ3tF5V70r/wImve/w9TMg/TYMfebVGm057ruSA59VIhNFyHLS0F8wHPh+Pfwp9834r/nJiX6B3ELXsQTeYpeSDm+V4JfoXp7zZvxxXMJ8/FmGGs378W2rY6BexrydcwhpFAomC/3YuK/+cOW6B9/Fn15iv7wjanD/LdGfoDf/uozepN9m7f6v6brPvbxz+D5I//H1KYjP8ccwe9XF4ZlWEDI8lIwwhdE/J++7wF8/NH8RS/sbzA7OZLdjH62jjk1aG5xuN+IS480GCF+pkeWn5L6ck++ypOZfftrvGRkjL9i62GsqLoRK1Z5MDtjWfZK/ejqw9gTuBGV67147WQmK9/5HXMs150oul5di5YW48zj8yQu+ekv97yYHrG88wlZSkrqyz0Z10uYL+JPheftt6tx/DtQpsbyl15/BZM9X9P1G5q/ishbNejqfgU/+ekv1N8FOu7E1vEds/qEFBAlJfxsefxLn9Z/H37kCf33mb/9Kn4zFo6VFwyFTwqcghrjLxXdL/2r3my6XvpVQpmQUseVPf6iwx6fFDgUPiEuxJWhPiFuh8InxIVQ+IS4kBV//MmHOcYnpMSQ35BkgpN7hJQY8ovR+YTPUJ8QF0LhE+JCKHxCXAiFT4gLce3kXvMt78QNe3/PlOK0/+ynGDt92pQIKT6ymdwrqd/jZ8tuJfiD734P1paVzdm21l6Py5cuYe26MqzfsCFhk0z9b6pjy82lH3wHI390PSqf6V68kO2uTyD87Q8CMz/Hml+bOlIUSP6Hk4ODppQahvpJiMBb/+P78P577p2zHVbb1uuvN2cSUrwUQai/HpUbp/HGlClmoLx8HS5cmN8ET3p8EXf3P/0jps+fN7XZMf3G+eyHAp/9PIbuALa2/AXKTFXRID3+J+rgeeq/w/OcqSNFQUms4//+H30Gf/3og2jdaCrSsPPwZ/DkX/0J7r7OVGTBa6+c0NvYyOmst4hqKCQqIKSYKYIevw53P/oQDm08he9/8VtoT9Hz7zz0ED55pw9jz/8vfKVt2NSmx+7x//avvqHH9LKfK3JtpmhBxuFjtaagGcXWo8BYigjgt998Eqfrh3H9Hd24ePRjiA58D1vwQZwO2BYj6lrHNfre+AV2fOR5U2PuETtfMeI4riOP7da+EH1VPespvM0UhcTrL6D66DCidyT1+DoKaEIsubDzGaRgKJEv94bxoy9+A21Tu3BPip4/V9Enk++Yfb4hQtlH7seOo6NqT0Sr9kW4XzmJTdiOi5+1zrHYj4v15agY6I4JcSbwMZzFs+oaue5+bB3ZjrGOzyPdtKI0BKcDk+Y5sv1CPcdCBD10RxWqn7KPqftNNuG0436W6J3Xv4ArdzgELsRCf/uc76G66jYM/eBOcwIpJopkcs8S/89er0sQf+W7HlyQ6AXp8XNFhgf58TzW917AuT0Osdy1H1HPKDZ8sttUKFRPWuMol31EhJzcYBiUIM/Xqh76KWcU8Tw26p74TkyrXnzT0cRxeuL97HOSrn/qVVSYknDpvU1A77OO+3TD06Eattob0jZIpHApoln9Yfzvx74VE/+h2x/EYx96O04/8xd5i17IZ7y+kHX+t70wjAqHWH57Ux1mRk4mhP4V5yRScDKK1VHgTd9+U3ZQV4mZ6DDWpZqAu8uHN9W1675iyjGex7oRc7+05zjZj6tVViQy1PGd+OYcPpCiosiW8+Liv/tuS/RP/HLaHMsdGevng0zy5c1zqqeM2r2thPlA9d8Xxzh501E7zHduifMVpDgoMuELIv5P456PPrwg0Qv5hPlCrkuAiVghsg73JcxX/5+UvbUTPRy4AM8LjuGAzfAbqPDU4eJdpuzkuXGsTTlEuBMXa4G14/b9UpwjkYTZlXdeNYnEIQopaopQ+AtH1uKFfCb2chrfiyhRhavJopRJPhXuR1WYD8ekno2E1FMxISrR39uUPpx/7ilsGCnHxCeck393YkpPupk5hTueRNTxDpd+cBvORV/Fegnv9fVK1HckXZ8Uxpf9WsbztzneS3HXJzD1zRTDD1LwuPJbfRnXS5if6lv9TMga/k++/7QpZUd8WS/FklxtYp0WuV7O+wU89bdhwrbnS1p+S7WcF3+OhYTlG824PeNSnyHxevVeT72B88kf8CQvCyb9n0hhkM1yHjPwLBOpxBsX/vcSZvUJyQVm4ClYrDH2pl8Xx6QeKT0o/GXgt9+8KT7GJmQZoPCXEvn6rcN8ZZf0ySwhSwnH+ISUGBzjE0JSQkMNQkqQklrO+4NgI17q6TMlQki+MNQnxIVQ+IS4EAqfEBfCMX4GLvl2m73cWRU5i1XR102JkMKCwk+DiH780COmlDu+ti+hbPw1UyKksGCoT4gLofCXm4odaD10ELucCe4IWWQofEJcCIVPEvDuPIjDLTvgNWVSmlD4hLgQzuqnYclm9WWM3+LHaEcvsO8gGu2xfrgHR3onTEGhz2uI98Qz/WjvGELEFFEdwOFgjSkonNcnX5t8b40Hu1oczxfsZ8z3bFJ0FJVN9lbfFoTGz5rS4nLVuwXR+oOmZLGl87uoOPNywnahdh88A52o6n5Gr9vba//ewc7s1vHXbEJdrQ/baqtw9p+P4XjfIE4ORlAZCGK/N4KTYSvXrb/pepzt7MRLg3I8jNnaIJo3meMizANVGOpwXO8DxuxjumGxj6lrGw6gxb42xmVMjgxiDD7UlZ1G+7FuvDIypWqr0dzahMs9bWg/Ya7f5EEkLMdIscJQP0tWRc/iimeLFrMIXfYv1uzWvbo0CLK/Lvxa3mv3oZ5OnIrpcAJdPWGgxg+/qQn19iJk9oEoQqGoal08Vi/sWa/+RhFxXm96dH9DAzDQ67h3FKdOJd47IxXyjCjOq8dZqOt72dsXOxR+llxVQj8fOIzITisKkP3kiECGBvl97ecUliE6rcSlROcIvf2BQzrJgmyt9XYKXsXEAPpmatAs9Tsd9XK9ahm86j3t6/TmHBLMx8wQ+sIeNLao6wLVppIUOxT+Arnq3YypwPuxsfcn2P7cp3RkcM2RcF0JthlqbN7Wprf2AWdLoXrhDqnvQcSI3NkAhFSYbl8X35wRRGZCvXJ+J/q8QavhYANQ9FD4C8SOBEbvelKXt3T+jf67ULw+P7wzIYRUiG7t96N9zoRcMirEN42C119thf8qJver/YVjGpekIQgpTij8BSLjfenpy8ZP6gnBq57N5kguSCgdiItJ9fDNKpSPhCb0WDoSUb17hYzjDeZ4jOoAmtNoOxQSoQYTj8v1JiLQ6/aH4s9O+ayE4QMpBTirn4ZUs/rCyssX9CTe9J736PJba8WhZgUqf/0Par8CE7c+pOtzm9Vfi6Ge17Gz5QD21tdjd20VLqsGpX3QhPMzYUx7lbgD6pgc3zyJEyNrsc0bwbDMvHt82B8MWMfUpmfl7eU2de3JiDfh+O7aK+jrPqOPr91Ui7qqyxgbDJvzo5j170GgUZ3nn8XYOFAXDFrvJZsvqqKK7IcJpDDhOn4a+Os8UspQ+GmQkF16/Xyh6EkhQ+ET4kI4uUeIC6HwCXEhFD4hLoTCJ8SFUPiEuBAKnxAXQuET4kIofEJcCIVPiAvhl3sZyC+phgUttEghQ+GngT/SIaUMQ/3lxs6us+BcGZIlNzn1FiGpofAJcSEU/nIzM4T2tjZ0zZdVazmRnP2OLD2k+KHwCXEhTL2VhnSpt7Il69RbMsZvbcLq8TOYvKLK0ru2+DA9XoHmVpOKS22VkUGMOf0v9HXx49swiWmvT513BsPnjNVF0jm7YwYd1Wg+1JJg2GHX7UY4fr1CUnpbqbw92Kbv48W0TtMlcwq3okVSdOl6H2bt/wMpeNjjFyQ1aN4HnTHXTqXtDyYm4xRLq4gjbbakvk6wv9LniIOOfY5Jj61TY0+gq6MfkZqGmD23PxCEP9wTz/Nn0Km1JbOuahCs97Hy7fkDB9EYSZfumxQ6FH4OiGNO8iZIpl1ZvtvQe0SXF04UfS/H3Woig/1KbDXYbmb+xR3Hq0TqnBcI9SphOyKCeR10bKOMBnVTydJbo4Q9b/puG8uoIxK37lHv6HwWKXQo/CxZbAutRJx2WMlYoguFMok0OwedUG8PQjUqClD1oZ5cMudajYh1f076FSMUfpYsroXW4jC/g84MzufbS0/06vu1D3i0dRcbgOKCwl8gS2KhlYK57jgV2BAb42fnoOPdGbDG6WoMnzCHkAORwU7VAKjIwTEUIYUPhb9AFstCKz32WD3RHUdPzpl9YT4HHRnXt9YDff1qyGCbbtqeeDIx6PyacI6Bpwe7Ajvibjuk6KDwF8i1sdDKEQmzdS8dH79vDyVO7qU653DLeozKrL0IW43rI7HJP9WYvCyz/MHUn/w6HXPtkN7boBsH695BQA0rCvojJJIAf6SThnQ/0rEn80bv+rouS2jvGTgO70CHFr59DX+kQwoZ9vg5Ig2CLXohHup/fUG/5iNkKWGPnwZaaJFShsInxIUw1CfEhVD4hLgQCp8QF0LhE+JCKHxCXAiFT4gLofAJcSEUPiEuhB/wZIBOOqRUofDTQCcdUsow1CfEhVD4bkMn2TgYy647L7meT4oCCp8QF0Lhk0VCDDquhRkoWQwofEJcCGf107Bks/oyhhbHm54QtgcbTAJLca3pRUjstGK58E2dKWkSjitm+tHeETfiELw7DxoLLCGKPv0ccdjpjBtg6Hewn60I9+CIba5hv1/sfLHOOuhw7VH3dN5LSH4vhaT6lpx8YsnV7Dhk15Olhd55aUjlnSe59irOvJywXajdpxNuVnU/o9ft7bX/rL3z1mxCXa0P29ZPovNYN14ZDGPWvwcB8aRbH0K7s25T3OtOBP3vm9Yo0R3D8b5BnBwcxPSmA2gJ2N52tuijqsHoxEvq+MnBN7GzpQmbcRlnR4zPXUzY9n3UsxrUfexn6fdT9zTn+wO3InBZNQydJ/Qzx1AFbzSc6Jk3E1bHIqis92mbr/YTlu+fvE/L5tPm/6SeFfFim2rQEjwByZLAUD9LFtdJx2mZZdJnp6qz7a/U+LlR9eKhnsSeVjvjxPLb2+c4owTjmWdKwrxWWwkszDrL61WRRyQaf/5EL3v7ZYLCz5Kld9LJYKNVoQSoesrROaKZwKjSrBZY2nOcZGe1FcdqFPK1zgr1Wym8D3N5cNmh8BfIcjnpXEvmt9pysBDrrJkhtMu9e6ImRz8bgOWCwl8gS++ko5iRcDmVZVU1tqvOOqLCaYsU53jWOxxwsrPaSsWCrLN04yEGIB5s96Uw8CCLDoW/QJbFSUeF9H3aMz+xx9Q2WjP96JPwXrvfqLoET7xqNCfPts9ntZVABussmSRMWLe3DDn1sMPgD+Tnz0euPRR+juh8+w5xX/LdgEh9iw71hbMH79N/FxvpcdsHYEJma2tGD444lvNCvW3oCteYkFw2mb1PnNzLaLWViqyts5zzAXaD4HyXg9r2qz3dc8iiwnX8NPDXeaSUofDTQCcdUspQ+IS4EI7xCXEhFD4hLoTCJ8SFUPiEuBAKnxAXQuET4kIofEJcCIVPiAuh8AlxIfxyLwMLSapBCy1SyFD4aeCPdEgpw1C/1NC/i2dmG5IZCp8QF0LhLzuSp/4QWlNmvFlO6IRTylD4hLgQTu6lYakm9ySNlTOHXWTApKPSRhcOd5tkl5xktxrb/SZmkGHn3JeeOwh/zImHTjiETjppSeWkkwvZOukMa5ecWpSNdOJodx+Gz13W9f6m63G203bAUefUBtFsu9uIuA9UYSjmfhNBpQ8Ym+N8IyI/gLpz4nwzqBsNOuEQgaF+DohjTvImSKZd6eE39B7R5WtBqNeZ1z6KUEhFAV4xyVDoFNlOw40JdNledzFMzw4VKcSO0QmHWFD4WbK4FlqpkbDaznwbN75UTAygb8bKWJtuUnD7PiP6BBNNZ+ZbOuG4GQo/S5bUQsvOUS/pso2zTfuAMw21EnCH1PcgYtJXJzYAsi/zBE7zDAOdcIiCwl8gi2Gh5fX54ZXJvDnhezIqxDeNgtdf7RB5FKMvd5qc+qmFTSccd0PhL5CFW2hZNlZeb7zr1BZYzt5aRQDNzlC/OpDV+nrcUMMWP51wiAVn9dOQblZ/zbkz2hf/vOrlBRnvVx/7hm4AVs+8rvPxi2d+1v74ikhkFtv2NGFvfb2eJR8ePYNprxJ3oB67Vd3uzZM4MbIW27wRDI9M4bLHh/3BgHVMbXVlp+Nj+SQ/+0g47rdfGTmDS/4gmsV7X19rzdrrCTp9XRUuj1sz+MBlTF7yYm/THn1uZWQw8Z3qrZUIOuEUJ1zHT0O6dXx7Mm/0rq/rsoT2noHj8A506MbCvoY/0iGFDEP9HJEGwRa9EA/1v76gD34IWUrY46eBFlqklKHwCXEhDPUJcSEUPiEuhMInxIVQ+IS4kKKa3COEXBvY4xPiQih8QlwIhU+IC3HtGH8hv5unSw4pdlwp/KVKpElIocJQnxAXQuEvIjpnXkuaxBc5oO8ToLMFuXZQ+IS4EAp/EZHUV0cSstwWGoVq30UWGwqfEBfCWf08yHZWX9tNSYpsnS3XMrjYHupEn/dg3IYq2RorZnllCPegC0HHfSwSraziNljidtNajwRbLKsuaiy0DNpqy2HRpYjZd6Wz5yIlQ1El27xWpEqkKXn0JImmc5OkmZJMs6r7Gb1ub6/9Z5tI0+uT5Jnjlu0V1mBzbS221dRiZb9lS6VtqhqbUCcJNrV1liV6r3qm2GlpiytPEC21a5S27fs4GhRjg3UyUoWWA/WYHT+D0IQk6tyDQFXcbqsl6MVQRxdOO22yrkyltu+SBiGdPRcpGRjqK5bUJUd68FjnOYE+R058784G+FUE0OXIXCv577vCpiAoYTbWhBMts7SzTjzHveV404BdFSrK2NcADGRvk5WdPRcpdih8xVK65Dh965KRHPaR0ETmyUAtTMs+y7bXEkebuPutYmYIXQNAo/HOczYk85KFPRcpfij8DCyGS841QeYFjLWWc3PmuNemHHkRnceei5QCFH4GFu6SkzuJVliC5XAbIzqNSIUf/oyeddVoDnr0BF8fGtCcl3DT2XORUoDCz4CM96WnLxs/qScEJeX2YqLH5hWJQvXuDCSF8RMYVeP5xn2JXwTG7a1k9SAIf7hfjetV763dcQPG3FImD509+Fz7rmztuUhxQ+E70Ln0HeK+5LtBhbstOtQXzh68T/9dNMSNtqMfMCG2bM3oTZzc06G41ZOL1519XmNkQC/V+QMy3ndM/omHfVg1FC2pfe/i1tfxBsEfjN+31R9KWm4kpQDX8fOAv84jxY4rhU+XHOJ2XJuIgxA3wzE+IS6EwifEhVD4hLgQCp8QF0LhE+JCKHxCXAiFT4gLofAJcSGu/YBnIb+tp5MOKXb4rX4e8Ft9Uuww1CfEhVD4JURujjvMqe9mKHxCXAiFT3JG8vRfC09AsnxQ+IS4EM7q50GuTjraCccY01huNdCuOnYuvZiDTYwkNx2HU06chTnuWGN8y9kn9ux5HXSsaxJzABonoGRnnjkOQaSQoJOOYdGcdGp8ceeciBd7m/Zgd30trrzqrKvVLjiT4nQjAmptwlr1XNtNx3LKCaAyMogxLdqFO+5MXrGcfSojZ3Jw0LmMyRH1LPhQV3Ya7ce68crIlKpV76Pe+XKP7RAUxuwmDyJhOUYKEYb6ikV10nE652izCvV3Tl3cBcffoHpNdTwhAtAJM9UxvzVjf60cdxJYiINOhUdfez72OlGc6mVvX8hQ+IqldNIR0rvpWDn0Q6G5gguFlKq9IjD151o57jhZiIPOzBD6dCbfXJYTyXJC4WegYJ10siULx504qpdegINOqFeuFSdgK1U3G4DChsLPwNI76VgGF3ZI78Tvr1GhgjpuytfGcScVC3HQMY1Hj4pOatSzTS0pPCj8DCy1k45gG1wk9LbiblMTRV+/NQS4No47SWRw0NFfBDrW7bUvX4UMJQwVO/K06SLLBWf1Hay8fEFP4k3veY8uv7W2XP27ApW//ge1X4GJWx/S9fn54wtJM+mp6sS3fnwWdcEg9tbXY7dsvqjqhR3+9inO2XKuCyeu1DqeJzPwYczWBtHcaO6jtsrxXryin530XI8P+4OB2Hl61t4sx+n/x9pJDOsZfMVMFLP+PQjIff2zGBtHivft1c4+pDDhOn4e8Nd5pNhxpfDppEPcjmsTcRDiZji5R4gLofAJcSEUPiEuhMInxIVQ+IS4EAqfEBdC4RPiQih8QlwIhU+IC6HwCXEhFD4hLqTkvtU/d+sdiASbTSnOdc//EOuGB0ypeIhlyZVsOi8DzS0NiPS0xXP2EZIHJSV8Efz/+8MPm1Iiq6bOYdOxo1h1/pypibN6alIfLzTEuKLVH4qnqTYprCl8slBcI/xMiOgLMSKIpcfONtstIVmyrMIv37gemJrGBVNOS/k6lF+4OO95tvA3HmvTvXguSCRA4RO3sHzCv+4Q/uzRQ1j94rfw5WdOpRd1+U144IsfwN7f/B3u/+YLpjI1tvBrv/qo7sWvbtxkjszl5vv/K+pveSeiZ8/ix//tQVNr9f7ZkcntZq7jTCghPI+72PR5D8adbmLuM8n3Vv+3gU60j1erUN+PUaerjgn/Y/nwBnow6g8mOuQQksTy9vg334fH723C+V+mEX95AB//wkdxI7rx7cd+iH+Zp8t3Cv/i79TPCfs3rFmNDWtX4/ybV3BvQ60uCz8dCeF05AKu95Zj6rMPzS9+IzaIGI24JNmlf7xXCdKI1mk/Nef8eMMQbxDi7jj2Pef0+Po+DuGnGPPbk4FzbbkIibOsy3kXjn8XDz/9Kja860F87kO7IKktY+Qo+mQu1tWbvTjvq/Xj3vpaPNS0MyZ64Z2+LbpO/m7dvt3UpieV201kUEQvDYDlctPuDM9nhtCVKl2101EHE+jLMaW1/R7Oib5Qr4oi7GiAkDQs+zq+Jf4TKL/FIf7yXbjn4fxFL0iP70R6c9lszl++gn8cf1339HYjIH933Ha73k9PercbIZ3LTWQ8hIgzJbUivaNONmR+D0IyURAf8Fw4/j386feN+O+5SYn+QdyCF/FEnqIXksf3InARus3T/SOqfBZPD4zoY8LY8L/hxSe+qvcJKWUK5su9mPhv/rAl+sefRV+eop8OHjB7iZy/bOeyt3p8G3v/bZeyeWB6txtBzCZShetenx/emek5kcBCmfseFdiQs3sOcRsF9cmuiP/T9z2Ajz+av+iFS7+z0+zFkTBfxvg2Mp4XJLz/vapKvV/TuAd7P3yP3s9EKrcbmdzbpQQXGexHqKIBrU7vuIodaK73IHTqWjrIRnHqlFhVBRMccPyBxNUAQlJRUMJfKPZXeakm9mQm38k7fZvx58HdelLPSXQiizHzzBDaO/oBYy6pDSb90wjpIbt4z/UgpARpHzusZ+IX4Wu7iV7tU+cPmueoTS8RcnKPzENJfbkn43oJ82VZLxV7fdfh7Rut3l32bc6cfR3nf34UFdXVJTDGj38jwOU8ko6SEn4u3P6XT6D6HXv1/pH//GHV06uwuRRIXusnJAWuNM0UJKSfUdvEr17B6P/N/EVgwVIdQKsv6jDgrEZzaxM2h1/F8TNUPUmPa3v8ksB8uZewguD8YpCQNFD4hLiQkprVJ4RkB4VPiAuh8AlxIRQ+IS6EwifEhVD4hLgQCp8QF+LadfxLvt1mL3dWRc5iVTT+235Cig1XCl9EP37oEVPKHV/bl1A2/popEVJ8MNQnxIVQ+IuIZLw93LIj6+SZ6dD3cSb2IGSBUPiEuBAKfxEJ9bbhiO17V5BI0o5DCSnEiDug8AlxIZzVz4NsZ/UTnXDms82ySbLPEsMMBOd46NmOORZx+y7tsFsPh52XXRdFV1svQlZVyt/yx9x3qgM4HIzdnL/xL0FcmYHnqncLovUHTcliS+d3UXHm5YTtQu0+eJQYqrqf0ev29tq/d7Azq3V8r68e2zCOk2FR4Bpsrq3FtpparOxvQ/uJQZwcjKCysQl1CJssOnEbraPdfer4IMY8QbTUrlHatu/jaFA6T+hzTkaq0HKgHrPjZxCaOINp7x4EqiLW+UrgLUEvhjq6cNqZb/TKFIYHw5j116JsxHqefgdpEA5UqfOP4XifeUcfMGaeTUoDhvqKVdGzuOLZosUsQpf9izW7da8uDYLsrwu/dm3W7jPYZtn2W10J1lyd6HKmA1TCbKwJo8vZA08MoG/Gg+0+a6xupf9uwK4KFWXsE88+y94rKzzi9hNF3ORnIvFZpCSg8BVXldDPBw4jokJiQfaTIwIZGizkaz+bTLZZ6ey3EtDCrFGRQTyl9uFDic68llcf0CjGnEhsSOZFNyLW/TnpV7pQ+Bm46t2MqcD7sbH3J9j+3Kd0ZFAQyLxAWxuOJG0JJp6RfFNrR3GqQ+7Xg4jxDWADUHpQ+BmwI4HRu57U5S2df6P/LiZz7bcsc8wY0WlEKvzwZ7TJqkZz0KMn+PrQgOa8hCvGIKoxydHBlxQHFH4GZLwvPX3Z+Ek9IXjVs9kcWRz02LwiUahizZUYxk9gVI3nG/clfhHoDwTMSoCsHog/f78a16ve+1QY3nrL3suaPHT24JYPoNfreEB1IMGSi5QmFL4DEbZT3Jd8N6hwt0WH+sLZg/fpv4tGCmuuZvQmTu7pUNzqyVvNObI1Rgb0Up0/ION9x+TfhFyvGooWu2FIxPYBdIb0TkuuVn8oabmRlAJcx88D/jqPFDuuFL7u2VXoni8UPSl2XJuIgxA3wzE+IS6EwifEdQD/H0vtVrT7aqvZAAAAAElFTkSuQmCC;" vertex="1" parent="1">
          <mxGeometry x="10" y="834" width="254" height="284" as="geometry" />
        </mxCell>
        <mxCell id="2XhEkTOICneemovFG1xt-17" value="" style="shape=image;verticalLabelPosition=bottom;labelBackgroundColor=default;verticalAlign=top;aspect=fixed;imageAspect=0;image=data:image/png,iVBORw0KGgoAAAANSUhEUgAAAOEAAADSCAYAAAC8Xad5AAAAAXNSR0IArs4c6QAAAARnQU1BAACxjwv8YQUAAAAJcEhZcwAADsMAAA7DAcdvqGQAACpGSURBVHhe7Z0LdBzVmef/fuhhqduWJStSN9aKyJZsy05Mt2csJ2DBDGKJzSRgMsOSQ+AQcsLCkhMCmbPkQZJNjkOGkx0eeSw7ZCZhIGxY9gQTdmLtBpEEyZsgE0t2DpFlPRzbilotZEu2qiXLkmzt/W7dqq7ql1otW9Vlvt85dbrr1q1Xd/37++691f9atKbmgzNgGMYxFqtXhmEcgkXIMA7DImQYh7mkbcLPVRfi1tV5ai7KI3/Q0HpqSs0xzHubSybCj6/Ox+Mf9Ko5O38+ex7f6x6Xr7H0j19IWM4wlyuOiDAVJECOlMx7iUsuwu+KiNc/x8hGQmQRMu8VoiJcuRwrRkZxRs6kYhkKCs5ifFzNJsEQ4XW/HpaiWr1siVqic/fN/169S87rf+hGa0ePmmOYyxMlwgDu/869qA29hEeffDOFEKvwt48+gI/l/xZfePRnGFKlibCKsK4kJz41veU/AZ4VaiYxz732Ona/1KjmkuHBuvrtqAi1oFWcR0O1R5WH0drYjpCaA8pQtyMIv5qLXw74AztQV65maHkbUBeErZ537XbLPoBQWyNaB9WMOpbaQjWLCDqaW3BkTM0yTAKWFJeU/Re64H5/NB8f/ujHsLMmgt++dRznVIUoVdjxn/8j/rasHz/9px/j0IgqTkLt8qW4oSwPzx07i1uFIGneRkXNrCL86a/34/Bxq0wSkYtVlZVYXV6J0uFW7N3fgc6eHox6A6gLeDHaE4YmannX1iDnjy3YJyKrubxmBv3HRzAplksBervQ9MZ+HBLLOwcKUbetEnlCSP3mNoQA/SFLnRls2LYNpVoP+oXQ/IHrEZhsw56Wg3If/SiBNxIGZ9ZMKqLjhL0/w1f/axNO19yO3Q9dC7s8dAF+wj+An37vKTT2quI0oUiYkoiIvTQNnlAFGRBuQ1NPRM2ICNXeJqJXOSrK9Hmtp90WkUKhMFC4HDI+F65BbbmIWgd6pdgkY71oahN1TMpQW424Oh2iit9PO/HAKzamadGdxO6TYRJhH6yXQmzE0FqrEJej4aHMBUjEtgclkdP66x/2AU0vigtaifDV/2aK8c8nZwm3FqwXv84YTosirzeaOlIk27Vjhz4FzbxT6EeIcSyEUCrBFAqRCaHV1qv11RRNXyM4ciQMbzXtI2BJexkmNSodtTByBG8eWYK/vGkXPrpOJKUfuhufrDyB57/xPfxytszQgpGOjk7PJI6ExeLqPfoHobSuaPuw7N8BK0VUef1FHMzz43+9+TZGx8+qFZKhp6MrtBM4OkyJpYG1fKVoD9Zjc/6xaCqpebHBBz3V9PiwYdU5HFWpqQmVG3Vyi1FVOYWDjS14m9a3TmGl3rGwSkOrUV+3ERuqo+kwwyQj8W1rva/hm09QRPw4PiEF+AM0pR+UbNQVp0hFP7BdZLof1KMfpaO9QpS/+zfgg9tx1bo1qlKGFJahojCCvgGRopb5RWQKo7XZkkrGUijqmB0qOtYoirGIWDea3qZC62nBnkZ7OswwyUh+7ygJ8YH7cdfnMxOgcddL0vbgmEhHKfp98Bqg4Q49HSUoKlKZ4M9Dw/I1HSgNrDMveA/WbamJppiRUSEgkU6aIitDnTUdHexGx5hINbes0duIhGgn1ll6QUUl9FH7L2hPNb1rA1gntyv2GbCszzBpcskG66kdSL2iie4dJfJ8lSj9mzvVXDwkwOse3K3mUmEMUbShzx+MDg+MdaHJEvnsQwuJhh9ihhdo/SOiPRwzRGEfxhCE27CnncYoYocnYocvGCYxl0yEs7G6tBi/efpRNRcPDdLfsVukqbNiiLDF1jt6USgLYFeMCBnmYuPoX5m++7P/G3dHDEXAnzW/jVfE5DR+vwh5YZHSqnmGuRQ4FgmtUFSs27BGDknM/Ta1ixEJaRvV0Jpj74wB3/HCXHKyQoTz4+Kko3FtPb7ljFkgLgMRMoy7cbRNyDAMi5BhHCehCEtXrcSSJaxPhlkIWGkM4zAsQoZxGBYhwzgMi5BhHIZFyDAOwyJkGIdJeMcMDVEMj5zB+fMXVMmlpe7a67B+81VqLkrTa6+i/9gxNZdlXNR/WFzCf4KY6Puo1dRfrwrXoKHejz6+Nc9xHI+EG4T4tgoRLi8qipsaPnaLXH7FlVfGTbScYS4H4j1mBIUFy3B24hxmZi79baWl5eWoWr9ezdnJy8+Xy0iIsVPVuvU4ORiGdloZRs0K+Y7WY7WyJ5w3Vv8ZVZQ5yXxykkFR7XoEcsJp1icmceq4xQ9HeuZ4MXr8BFsyOsycI2HByuUoUO9TIoScVj3F/jd/g6afv5r2RPUZ5nJgbm3C9+3A176+Azm//QG+/eIRJHXCL7ga93/jP2Dzn/8n7nv6/6nCxFBUa7j5Fvzrd5/CqIhqmaSZtF5KZPvN9j+lqPWEbBvVRL1hYmwxYv/iZK4X2yY0thOzfkJi9ql169YctjZh7HEZNhqx5QKtW62X8lxi2p2yrrVNqNqMpj0H/5VroZhzx0zBNffi8bs34fSvkwixIIBPP/opfBj78czun+D3szyzwirCKyqvlO/niiHg1Og2+IjxffEHAkC70bli77wwHbeNC1kIrw7tCUSob9triCEVSiia5TgModvFlEAgRqdKrKAUqc4lbp2YfchjgFFXN7DyD7B58UIw53R0fN+zeOS5d1D0Vw/gS3ess6eccxRgLNThkgmzCzA5IfOiJSIIhcQF6iWjX/FClocaWR0qBpUAbahnXMQ4gCfDXyMilahr3U6ovQUdloud6qDbKgDdWBjlZN2YnFTnkhp2D3eSjHpHdSEeRMG1FiEWrMNdj2QuQIIi4Vw5fOigepc5FAUMR23bw166uqCVB0X5dmVrGAs5cusCNCKIDkWdGKduaceoX+yhUJySLeh1dCdvyzZi0ulkJDuX1LB7uJNk3Ds6daId+0Z8uPHmj2HbylFUfPRTuBa/xT9++3/g0BwEaPSOHmp9S44XzhVaj3pJZ8eD1dU+YMDSO0opWcM2VEWEiMyHuPhQ5dV0N+6pERwlh22tBPXbAtgg1p8ZUL2Jsnc0V9TJRV6eZj5YRkf1RBoO3bRduU+9FzT/VGwPrbV3FPL91DuNaDpo30an2ROboDd1tnOJXSe2d5Tdwx1jXuOE4/t+hK8+LyLiNZ/UBfj4S+jIIAIS1DbMhP7jmQ/me31+vSPFFsUSINLQPY2UMnpQ4bNGF73zogM1on2VvvGv/gAZK4UosnSIaOLKj6+TmrTPZRbYPXzhmfdgPQnxC/fej09/PXMBEpmkokT67cH4B8Roor1nPpmJENHE6rpNHR2zp2YilUtbiEbbLmhxC6f9WJ+bSOlqfB15bGuNY9OF6o1ais96LqkR6TO7hzuG44P1ecvyZRTMZGiC2oNHj3SqudkQKeKEF5s3UapVLdIykXqJNFZ/jmG1LNuw6hQOHs/DapXC5fksy6pFGnnc0htpG6yn9FPDitpN2GxNWRNBaZ/mxdYgpbf6thd3taBvuSVVTFBnQ+UUOvafMNNDTZvB6o20v2qsRhhH+06kPJfU6ahYViNEX6vWFedg7b1lLi2O3ztK4iMRJrp3NBV0p8wrzz+n5hjGvWTFDdwM815m3m1ChmHmB4uQYRyGRcgwDsMiZBiHYREyjMOwCBnGYTIWIQ1jsFU+w8wfVhHDOAyLkGEchkXIMA7jahFOe1apdwzjXjK+d9TJ+0tJfAM7vyxeS5E/cBilLc9iaeQkJnwbMHLVLvm6NDIE397HZDnDZDMZ/5VpIf/uFMuZjR/BhdwClO77oRTiyfp7RekinNx+rxQdlV/ILZRiLDxxQF+JYbIUV6ajE+XrkR/uNKOgp7sFpwO7UNS+B77Gx2T5svDhjNJV6dEyh3/JJ0NuJ8B/TWdmx/UdMyS0SPV2mX6SEA3hTYkIyTBuwJVtwoEdoj3o1cVG6WgsFAkpFaUIubL9FUfahbE+nhePxJ6jjHtxVSQcEm2+P93zghSgIT6KgBUvP2RONG9AEbLvticxErg1o9SUYRYC13TMkAAnfOtR9sbTKGl9UQqMhEjvp72lGNj5FSyePIvc4RNmelr5k/tE27BTpqnUcUPtxNmgCNbg09SDUyjq6A9emai8Hg2Gf4t/JsbiUH/YzFbpzyImrybtBldjIPoAFoHctulZE/WiIafvm+oqbd40elmJ3XZQ2hoGsToXyCuplNuR/jLkGUOO4PUWTxpxDJ1auW6DaNQxt7ENpRfrwTjMvHFNJCQBrmzfI1NNIn+gUwqNUs4RKTKKfNfI9JOg5fordd78UAkxM8gUtyLUiD2NNLUhVFhjcT6LWuDryxvRpInlMV69Znqq6uxpi6BWpJVkKkw2g61hD2prVEeOdEoDOpqtjtqCsV40SetFsY7an2lpH/SI+pZjNOq3kalvtXJzEz8qW8jdW+yPTZyyBteI0NO9T4qN2nqEEQnplZaRIEmkxnISrdFpM7T9M6Z4M8JmWz+Iju4IvP4y2YPqXVsD/1gXWi3tM11UaoYQIqktD6PV2j4c7Lb5mOpu3zVClIZQ5mBD7yGrwwiiLvaD0X3J/ZSjVvxo0PMlamE/VsZ5XCNCinAU3UhQ1DFDkLBImN7uZjkwT/OG4EigNKBPaSytR0MXmWJ9RkMs5GOqhQZTO1VLkZSLiBm1qCdr/egTkAQiarV2Q0bHOQtFCY2232BGaIMIjhzoAsSPUQNF1wOzPDGKWXBc1TFDY4IVLz+s5mD2kFLnizGR+KicIuNS7aTsrKH1HIfcsY1U1DJZezilgW9GCKHJVLQNmhCbfA6FVYxjlofaMFmHq0RohQbmSZD6rWlDMvoRFPGonFJUYiGGJ4zUNIr+UBeTyCi0Qj/8CR8qYyDalrJdp7t5R9ucc0GkoSRsS7pMkMO3fGwbRdot7LSdbbhWhAYkMop4xrigIcYcIcyFQLblbB011E4UbS9bqjmIPtH+ixVA1GafemHp6U5doh0oopp8QlJAPQmKOn6skS3eAl8+NzHJzTnUy1on2qMdIuJqPV0xnUpMNuDKe0dJcHTv6JKpcTV0oQuQOmMmiytl+ZnaG+WtbekMS1jx+qjb3xhaSPD0I0Ge2IftyU0DM6gKBqUlPQ0PlA634uBUpWU7ZJMfxkyl1Wq+GisG2nFIbNcfuB6B4jBaW3r0tHGM7Pk3IrCRnoykYUW1D3nD0WOIs8CfLLFZ5lflH9MfbCrEedOmYoTaWtApm7Vj6Nf0RwHIxwAkb+oyC4jr/0VB4vP26BGQxGj9FwUNTRiRkWGyFVeKkGEuJ1zfJmQYt8MiZBiHYREyjMOwCBnGYViEDOMwLEKGcRgWIcM4DIuQYRyGRcgwDsMiZBiHuWxE6FtSIKeHlm+U0x2eNWoJw2Q3rr93lIT3GW81qnNWiPfL4F2co5YAx6YjeG28Dy9GelUJw2Qfro6EXyvajGdKtuGmggo5fx4zeCnyJ3zz9CH8QojvzIVJ/F1BJYJ5JXL5gkMGTDt0MydXk8F5sAN5+rhShBT9Xi37a1N8JLg7h5pxY/iXeHL0j3KehDg+cx7LFi/FwPRZWY9hshHXiZAE+ELpdvnaNTWK+0+9JQWXiLxFi3H+ov3pmP79nshIiWHmh+tE+J3iv5DtPhIgRb+B8+NqiZ2nSuoQzC3BW+feTVqHYbIBV3XMGGno2ZlpfOJdXYA3LPNjU85KvHkuLNPOh1fUolzUq8lZjt+dG8LnT7WqtdOE2j/1NVEvGHJJOwDUWcsEWvcB9Pm3JHgmhG4GjLZGtEZoW370NbdEPURjtx+2Pq+Coq3VCjEijZ/i/EfJbVvsorVNHFdQuQzTcTb3AmvJ2lBFa1VmdVojzxlzOWHbv469jjiGthAqgsZ56MdYdEScn2U1uY4/ZO4v0bM4ZJlpipzk3CSpP4ek55DouzPOX35mFkfmBOftFK7ymKEIeHNhBfqmx/F8pEeWnRXtvgdWrMfthVW43fN+nJu5INPQL40cwI+1blknfYSAGjZhUgio6WAPOnvCmCn2QDvRq7/3VyL/eAv27u/A0eExTOb44i3xy2qw1ScumoNhaLnFqKr0YvS4sreXFwldzG9gX4fafs021BfrtvvSa2ZSXBwtB8WyHvSjBN5I2LTGN/GI/frKsXpRl6qrYUWt7jlTNfWOrcxqgU8iqK8cRmtjC94W2zf3Xxk9B/0Cj1jqnMPa+k1YJZYOyfPQfXfyT9k9amy+O2Le7tVjEaU6t06tBPXbqm3W/wapPof4cxDn6QP6w57E311YHA997ttK0Gt+7sY6CX8BFhxXpaMU+Q5PnZFRjsYCjbJbBn9lTpSi3vbub9B27pRcPicKPeJXNILTZmCL4Eh7crNc3b3MbmXo95eLKNltt69X+GtinbV1ZzWUi20om0Sr0bDWk8qF2+rorbuCJyozrQ/FhVhbThHFaq0v9n+A3OKMcyhDrYgwoTZrnUG0Nos6ai4j5L5TO5BHSfE5JDwH5Tae6rtL5VCeBbiuTfjNkUNmGmoIkaAymubFWC866JkQ9el2rw+iT9SPXkhlqBAXSd9AIhNf/eKi51pEXbjFZKZIuiD15YYV4hwZG00uFroQx0IIxYpa2TEW0SnICzmMvot9fabjQG6S4nNIdg5Equ8upUO587hOhCS0+0++hV+c7ZOp6bOrPiyHKh5Yvl4Kc76E2snJugUd3qB+scwixlBIXDBGtCkTEUV6h8pFCQmJdCnWhXtPo/plH2yX803dIrWSF2qGYsxG0nAgN8nwc0j+3Qlhp3IodxjXiZAgIb4ydgKnL0xis2h3fXHFB6QAd68M4o3yG2UHzvxQX1qbkSqmgH5lRQ1K5ygVDYWShRHdtNcvBDsb9EAZ/clK5ahIJyCnQzIX8EIRvQutaVyCfcpIZoeewWEldt5GWg7k8cR9DmltJ9V3l9ih3GlcKUK6A+bl912HyIVpMw012oTazBRuL3y/qjlHRJsjuTt1AudrSUQIDyIlXSNS0dSpHEVNlAftbtnmPj1YF0hmUR/rwp0BZrpmjSpin1tq4DWit6wjfiiC1jpkz299zhudr7iIq43HrQnIAdxaJZbZHMjFZ9Agzk//XFJ8DgnPQRwfRbxU310Kh/JswHX3jpIAdxcFMXzhHD451IxnVn1I9ogaQxH/supq/GoinNn9onQx2IYiwuKX09IJYFlOzwc0UylVTs/9s6VXsjxmiCK2q9zcR2y3vJ666sMA+rCHfJ4Ebd8YorAcW+wQQbIy+zBBzHko7HXE8TWPigvfeh4xxxpuk89kTD1EEX9+5r7V56fJ8031OejEnoNcLoeDknx3sZ95gqEbJ3GdCOnfEZ9bvgH/rHVhY+5KXCWmh4ffNntDqbOGbl1bUBKJjWHSxJXpqHZhSoixCptyivDzsT7bcMSCC1Dg9fmT99oxzCy48q9MFA2pU4bEN+9hiXmjp4ryDpkU7UGGSYbr/0/oJEbbJFG7imHShUXIMA7jyjYhw1xOsAgZxmFYhAzjMIv+/sFH4tqEY2c1FOQXYtEi1ijDXGoy7phhGObiwKGOYRyGRcgwDsMiZBiHYREyjMNkRcdM3bXXYf3mq9RclKbXXkX/sWNqjmEuTzJ2W7tYbBDi237jR5CXnx83XVF5JSYnJpC3LB/Li4ps0yKx7jmxzDG++BX0PlaPgh+3YKkqmh9bEdn7VQxvfRee/9MP3PZZhJ+5B1Nl/4Zl+1QV5rIkq9NRElvDzbfg1rvujpt2iemKK69UNRnGvcw5HS1YuRwYGcWsfyAS0bRg/Oys9SgSktD2v/kbjJ4+rUrTY/TM6Tmkqx/HSPMNwN77sPIfVNF8oEi4E7ii/lvIV0XzgyLhPYh0/wjlD+5XZWly0Y+FWUjmFgnftwN/v3s3vnTHOqS0Uiq4Gvd/43E88eDVqmB2Dh86KKf+48fSnjQhWoqWDONm5h4Jr7kXj9+9Cad//QN8+8Uj8ZGuIIBPP/opfBj78czun+D3s4RCIxL+63efkm1Aej9XaN2UUVRGCv0JTgbFRkSkttdnN8H8U3zkHVy58/tYomYnXvjv6K9UMwJzvdjoY2zHWH+W7cYTEwnl+lXwfP9heF6OLh80vYzGUSaWLf2o/fiAPo6ILmPObcLxfc/ikefeQdFfPRAfEecowFgybePNmsb+w7ewpv51FIu3JKI19dGUdOKjK1Ak5qlsTf2PUIZNOPbCx+Wy808/gf4SIR5j+d4+WR6PSHWF4ND+I6yRQtPn89S+5HYzMAS3MvGCEOCp19X27sOV7foG8+80jovER8tYgG4jo44ZXYgHUXCtRYgF63DXI5kLkKBIOFcohZ0P+XdaL9r9WNYtDrzEh/NibqpYnNmpgWj0EmKOb0/qbc3h469H23K3+XBORKqco/osbddzZ6ooOBtbMV0CFA5HfwSWPPgtFSEZt5Nx7+j4vh/hq88rId51tRDgA7gWv8U/ZihAIpP23cUYR6SUs7dZn44ForE9/3+/g8LKG0T5E4jcpgptlOD0Xl2Aa+78mSoTvPx9FB0vwOBnxTZVVDWhNFbtS057PysFnxoh4uY+jAXuEet8BQ4OzDCXgHkNUZhCvOaTugAffwkdGQqQ2oaZQB00GUPtLiGEfljTPMsJCDGVU/neU7qgkolRRU4rMk2kNLSERGwRo0yN9X3JKWU70YJa78r2EvRLAbMYLxfmJUKChPiFe+/Hp7+euQCJTFJRYq7DGlbOX12ld6RYo1gipACEoCIFiFy9VRUSp1C0U7UjE0Y0EcF2kohFGlm5/qKIZsmDD4tjofZtBc5+URUyrmbeIpwvNNZHZNIpM7f2YB9yIsA5X1RESwZOAZ4VMB+PJyLjkCUdnXghnWhDQosRotjOyNNWsc6XrYi8kCJtPXoGhSI1nk6YMjPZjuP3jlI7kFLRRPeOpoLGCF95/jk1lyaWoQpjqME2BCGi4hXdVeivPiqHE6ZihicK2y0D6XED5KqDhoYO9h1F5BrL8ERawwaphihihycsQyWK6HnwEIXb4H/WM4zDOJ6OMsx7HRYhwzgMi5BhHIZFyDAOwyJkGIdh81+GcZiMhyj+MliLt9s61BzDMJnCoY5hHIZFyDAOwyJkGIdxtQinPavUO4ZxL64UIYmv77YnxPQkBnZ82RTjhG+DnP/TPS/I5SxSxg24UoRadT2Waifha3wMSyMnpRhHArdKARJUnj/QKcsYJttxpQgnytcjP9wphHYYpS3PwtPdgtOBXShq36MEeBjLwoczioT+wA7sql8Dr5rPFLmdQJmaY5jkuL5jhoQWqd4uIuKQFKIhvClPqXxlmGzHtSKMVF9jtguJaSU6o51IgqRUda7RMNTeiD3NvdDUfPbhwbr6HWhYa/mHL+NqXCXCoe33yk6Xae8qU3QUAStefsicaN6AIqTRXuROGiZbyfipTFf4ShEaiF7wlxoS4IRvPcreeBolrS9KgZEQ6f20txQDO7+CxZNnkTt8wkxPK39yn2gbdsqoCCyS7cTZoLZcg09DZ5jMKSjqXI9AThgTldejIVCNDdVi8s+g//gIJvVVBGWo21GPrbSMJq+GfviwGgNqOzpy28Y2qn2YGTiBU1OAd+123FRXac4TelkJRnvC0ahcuAYNDUGszgXySirldlYjjKPD4kjKAqItG1Db1o+hUysX9behyqhjbmMbSrUe9EcPjXEQ10RCEuDK9j2y04Wg3k8SGnXKjEiR6SnqyvZX5Htarr9S580PlRAzwytEXRESaWojTW0IFdagzkwHSYBBeMVx6Msb0aSJ5eVqsYIEWIc2s86etghq67djXSGg9bSgNexBbY3qyBFCqasGOprbEdJLdMZ60dTYgg4hHk3tr6knogsr6BH1Lcdo1G8Li+Ovhl9uQPyobKkBxLqtg7KAyQJcI0JP9z4pNhoLJIxISK+0jARJIjWWk2iNTpuh7Z8xxZsR4TbLRTuIju4IvP4y2YPqXVsD/1gXWkkMCl1UaoYQIqktD6O13XLlD3YLMXlQ4dPFHOrqglZeI0RpCKUdR9KNVJ7l4lgi0Mz6g9F9yf2Uo1b8aHjXBlAL+7EyzuMaEVKEo+hGgjLGA0lYJExvdzN8e/WhCUNwJNCBnV+WaSytR0MXmaJFr+44vF4PtNBg6o4cKZJyETF3YJc5bUetiIImImq1dkNGxzkLRQmNth/fYRPBkQNdgPgxaqDoeiCbO53em7iqY4bGBCtefljNQXbQENT5YkwkPiqnyEgD+tRZQ+s5joiWTUYqaplkOqnQtEwjlBCaTEXboAmxkchtYhwTUVK9ZbIPV4nQCg3MkyApApLgjHSTIh6VU4pK0DDFpcZITaOI1M9aEBmFVuiH3xr54hBtS9muE20+WNucc0GkoSRsS7pM+AN6m7WJIu2W+d+IwFxcXCtCAxIZRTxqC1InjSHGHCHMhUC25WwdNdROFG0vW6o5iD7R/osVgD8QiHaY1AfhD3eJdqCIakeoMyUgO230jh9rZBNRTYQ1r9eyg7IA6pLcnEO9rHWiPdohIq7W0xXTqcRkA64UoTEIb9ywbQiQOmP0oYwN0MTFR7e2XXKoB7JZb3MZ7b06tNs7ZmS6qEe4BlWHplqtW/Zi+gPUPrR03AzS+kK09YZI7eidOEFb2ukPRrfb4A+JYxJtPyHOhmoPQm1GL6uIlLK3VAiT76jLGlxpb0ECpE4Xav+R+Lw9egQk8Y1cpfegUopKQxNGZGSYbIU9ZhjGYVzfJmQYt8MiZBiHYREyjMOwCBnGYViEDOMwLEKGcRgWIcM4DIuQYRyGRcgwDsMiZBiHuWxE6FtSIKeHlm+U0x2eNWoJw2Q3rr93lIT3GW81qnNWiPfL4F2co5YAx6YjeG28Dy9GelUJw2Qfro6EXyvajGdKtuGmggo5fx4zeCnyJ3zz9CH8QojvzIVJ/F1BJYJ5JXL5gkMGTDt0MydXk8F5sAN5+rhShBT9Xi37a1N8JLg7h5pxY/iXeHL0j3KehDg+cx7LFi/FwPRZWY9hshHXiZAE+ELpdvnaNTWK+0+9JQWXiLxFi3E+hXfq3GDna+bS4DoRfqf4L2S7jwRI0W/g/LhaYuepkjoEc0vw1rl3k9ZhmGzAVR0zRhp6dmYan3hXF+ANy/zYlLMSb54Ly7Tz4RW1KBf1anKW43fnhvD5U61q7TSh9k99TdQLhlzSDgB11jKB1n0Aff4tqAi12BzTDDNgtDWiNULb8qOvuSXqIRq7/XAb9ph+pBRtrVaIEWn8FOc/Sm7bYhetbeK4gsplmI6zuRdYS9aGKlqrMqvTGnnOmMsJ2/517HXEMbSFUBE0zkM/xqIj4vwsq8l1DFsNMW+aHVu2LctMU+Qk5yZJ/TkkPYdE351x/vIzszgyJzhvp3CNDT5BEfDmwgr0TY/j+UiPLDsr2n0PrFiP2wurcLvn/Tg3c0GmoV8aOYAfa92yTvoIATVswqQQUNPBHnT2hDFT7IF2old/769E/vEW7N3fgaPDY5jM8cVb4pfVYKtPXDQHw9Byi1FV6cXocWVvLy8SupjfwL4Otf2abagv1m33/YHrEZgUF0fLQbGsB/0ogTcSNq3xTTxiv75yrF7UpepqWFG7CZurq1E19Y6tzGqBTyKorxxGa2ML3hbbN/dfGT0H/QKPWOqcw9r6TVgllg7J88jFqkrxOZyy2+jnFVeiyqvhqLEdH1n0D5iPATBFqc6tUytB/bZqm/W/QarPIf4cxHn6gP6wJ/F3FxbHQ5/7thL0mp+7sU7CX4AFx1XpKEW+w1NnZJSjsUCj7JbBX5kTpai3vfsbtJ07JZfPiUKP+BWN4LQZ2CI40p7cLFd3L7NbGfr95SJKdtvt6xX+mlhnbd1ZDeViG8om0Wo0rPWkcuG2OnrrruCJykzrQ3Eh1pZTRLFa64v9HyC3OOMcylBrM4YiBtHaLOqouYyQ+07tQB4lxeeQ8ByU23iq7y6VQ3kW4Lo24TdHDplpqCFEgspomhdjveiQLmfpdq8Pok/Uj15IZagQF0nfQCITX/3iIqczwxVNTmaKpAtSX57YZW1WxkaTi4UuxLEQQrGiVnaMRXQK8kIOo+9iX5/pOJCbpPgckp0Dkeq7S+lQ7jyuEyEJ7f6Tb+EXZ/tkavrsqg/LoYoHlq+Xwpwv8vmE9NAVr24pOJsYQyFxwRjRpkxEFOkdKhclJCTSpVgX7j2N6pd9sF3ON3WL1EpeqBmKMRtJw4HcJMPPIfl3J4SdyqHcYVwnQoKE+MrYCZy+MInNot31xRUfkALcvTKIN8pvlB0480N9aW1GqpgC+pUVNSido1Q0FEoWRnTTXr8Q7GzQA2X0JyuVoyKdgJwOyVzAC0X0LrSmcQn2KSOZHXoGh5XYeRtpOZDHE/c5pLWdVN9dYodyp3GlCOkOmJffdx0iF6bNNNRoE2ozU7i98P2q5hwRbY7k7tQJnK8lESE8iJR0jUhFU6dyFDVRHrQb75r79GBdIJlFfawLdwaY6Zo1qoh9bqmB14jeso74oQha65A9v/U5b3S+4iI2H7cmIAdwa5VYZnMgF58BmSLrn0uKzyHhOYjjo4iX6rtL4VCeDbju3lES4O6iIIYvnMMnh5rxzKoPyR5RYyjiX1ZdjV9NhDO7X5QuBttQRFj8clo6ASzL6fmAZiqlyum5f7b0SpbHDFHEdpWb+4jtltdTV30YQB/2kM+ToO0bQxSWY4sdIkhWZh8miDkPhb2OOL7mUXHhW88j5ljDbfKZjKmHKOLPz9y3+vw0eb6pPged2HOQy+VwUJLvLvYzTzB04ySuEyH9O+Jzyzfgn7UubMxdiavE9PDw22ZvKHXW0K1rC0oisTFMmrgyHdUuTAkxVmFTThF+PtZnG45YcAEKvD5/8l47hpkF14mQ0swfR3rwnTN/xJ1DLY6Izo4aWzuSPekN4y5cGQlJiPRPiXmPC84TapvsUm01fgY8kymuFGG2oI9LJRnrYpg0YREyjMOwCBnGYViEDOMwGYuQHxDKMBcHjoQM4zAsQoZxGBYhwzhMVopw2rNKvWOYy5+Mb+C+FJD4BnZ+WbyWIn/gMEpbnsXSyElM+DZg5Kpd8nVpZAi+vY/Jcoa5HMjY6OlScGbjR3AhtwCl+34ohXiy/l5Ruggnt98rRUflF3ILpRgLTxzQV2IYl5NV6ehE+XrkhzvNKOjpbsHpwC4Ute+Br/ExWb4sfDizdJX+U3YxLOnpb0uXg7U9kzVkbccMCS1SvV2mnyREQ3hTIkIyzOVEVrUJB3aI9qBXFxulo7FQJKRUlCLkyvZXnGkXXsI/8Cb6Jzxz+ZMVkXBItPn+dM8LUoCG+CgCVrz8kDnRvAFFyL7bnsRI4NbMUlOGySIc75ghAU741qPsjadR0vqiFBgJkd5Pe0sxsPMrWDx5FrnDJ8z0tPIn94m2YadMU6njhtqJs0JtwnofRnvCpgdKg09DvyeIm+o2YkN1tZi85nIDik7R5T7MnCL3ZourNkHRsWGbdMCW9by6o7ZRbnXBNspKNauDNfmqXI+68lwgtwRVtA3D2Tt226p8FR1/wH688pxqYhzBmazH8UhIAlzZvkemmkT+QKcUGqWcI1JkFPmukeknQcv1V+q8+aESYoaQ8xl0j0vpV0kGsRaf0aglvP6/wT2NXSgKWs2EBGZ6atRRvpe0nbFeNLWRka3hTCbEtkU3hLL/CTgibfrIis/055QpaZl8BgYZIJnbVooLtevHW2s4jIkfmTpyueZU1nU4LkJP9z4pNmrrEUYkpFdaRoIkkRrLSbRGp83Q9s+Y4s0IccG3mn/IFUIwLemJ9CzhU1vbC5T7M4nFuzaAWlj3OQspbfn1/egC120J7cfKuAXHRUgRjqIbCYo6ZggSFgnT290sB+Zp3hAcCZQG9CmNpfVo6CJjtEjyqJGWJfxs1vaEEMuBLkDUaagGOg7MIVKlsnYnBtvRGiZ79yD84Ta22HApWdExQ2OCFS8/rOZg9pBS54sxkfionCLjUu2k7Kyh9bKBlNb2xFgKsc/CbLb8mvghYdxNVojQCg3MkyD1W9OGZPQjKOJROaWoxMIMT8xmCZ+etb0/oIx7uxHnQp0eIpomsnYX7dE62WZtQyjW2ZtxDVknQgMSGUU8Y1zQEGOOEOaCkJYlvIhUKa3t9c4d6jDpEO1A/VFqNbZl1oedyKhWaBG5ZTvx6J02kI9h0x+DZj9Wxi1k1b2jJDi6d3TJ1LgautAFSJ0xk8WVsvxM7Y3y1ra0hiWsyAdrAv2qSz/2IZaSmDpauAej3gDqAmp4oHoROppDWGF98OdYGJ2aF1uFAPQ6YqqcQsf+E9DKArhpU7FIV1vQKXczhn5Rd/OmjVih9WAorxJVJZPm/ihtnfFvRKBWDUUMAFXBYHR4wkdRj9JcGtLYhqqpLrS0D8rhiMnhYX1dywM/GXeQtf+iIPF5e/QISGK0/ouChiaMyMgwbierRMgw70Wytk3IMO8VWIQM4zAsQoZxGBYhwzgMi5BhHCahCIdOjnDPKMMsCMD/B+8y7D9JgzF7AAAAAElFTkSuQmCC;" vertex="1" parent="1">
          <mxGeometry x="200" y="1190" width="225" height="210" as="geometry" />
        </mxCell>
        <mxCell id="2XhEkTOICneemovFG1xt-18" value="" style="shape=image;verticalLabelPosition=bottom;labelBackgroundColor=default;verticalAlign=top;aspect=fixed;imageAspect=0;image=data:image/png,iVBORw0KGgoAAAANSUhEUgAAANwAAAEiCAYAAACStbxcAAAAAXNSR0IArs4c6QAAAARnQU1BAACxjwv8YQUAAAAJcEhZcwAADsMAAA7DAcdvqGQAAC+cSURBVHhe7Z17cFxXnee/jm1ZVnf7JYt+RKKDbEmxbOJ0G9yeJOqEiqigmMA6oQIsbAbITjZsKCAJOwkJmcAuAbI7AcIOAyRVPAIuZjIF5jXRHzgFSCaMHCw5S+jIkmxsKWq1kC3Z6patSE6053fuud233w+rr7pbv0/Vrb733Kda99u/3znn3u9ZsaX5qoW6zRsxOXUOr7/+BhiGKR6XqU+GYUyABccwJrIkKeVd9o149wabWorxhVcncGTmglpimMrDdMHdstGGR+vr1FI8wbmLePqvU/IzkbH5+ZTlDFNOlJTgMkFi4wjIlDvZBbdxHdZPTeOcWkzPWtTUXMD582oxDbrgnhKRbCxFxNra3Cw/J8+ckZ+bamvl59DAAObXrceURUtFewKvyE+GKSeyNJp48PGHHscX770e61VJahrxvs99Ed9+6DbkGrt+NRXGL8VEEcs43fPpe+VUv+ttWOW+Iro8utaCvXvfjf2PPIxP3narOgrDlBcrN9XaP2+pWYsLs69hYWFBFeuE8McT1bjmlvfg5uYIXviPU3hNrYnRiI6//294n30UP/7O9/DSlCpOQ8vaNbhhnQU/PnNOfn6n0YUPbl4fnarb3iG32zYxBt/qy7C6eZtcvmnoZTSL6LfS7sSEiH7/9rsuWZ4Ryxa0t+/BzqYmbKPJtYDRU1OYkyutaPHfCM/qECY2+bDXt13bpsmG6aEQwjlvwzC5k0VwgqlX8Jv+dKLTxPZB1xh+/H+/js7jqjgDRsG9W6SXtGzk4vBJzP3pKC6e+gveOHcW84P9cvn18ZCcaPlvf/YcprPlrgLXjisw0d2NF4eG0C8EsuD2wrcpjP7QjFhbhc1uN+odbtRN9uC5wwGxzRCmbR74PLqgctmGYXInt3644z/BI//YiYmtHzCkl+vQfm9+Yktkl2WtmotR9dar5bTK/RZctmFjdPmy9Rtk2XjLdtx6fZvaOjPBvj4E1TwQQTAYAWxWxHVIhHpxcEiUK4J9vWIfBxrsqoDIZRuGyYHcO76P/wL/86u66NrRce/DuMM9jGe+UJjYCFfVKjUXo+oqj5xIYDTpy8SqN1+BLW/bDd82Lc3MBZenA/s6tKm9yapKY4TDFO2MzOCsKLIJYerksg3D5EJ+T5pERXcbPijF9k0czFJnSwelk6mgNJIm47xxOXT6NF6dmJDLGaH6mxCZD7040Nkpp4ODsSjFMEvBkvXDUYtkqpQyG2/70wk1lxnb1ja0u4I42HU8Ws+KL6MGkTY0BLvj0kUpVL8LI13dODaTyzaqjGFywPRnKfWnRdKJbd0998mJWiupzqYvU3o5/PZr8dtvfE12DWQjHBYCsayL1deESHwpUkpbUxt80bqYENiuZthmgggahJTLNgyTC6YLjh7Rok5vEl6qSa+7hUW0nbbYost/ujCLwaq1qK/LsadvvA89IQd8qv62bxcQSJFShgd7cbZFr+e1oRUDcVGRyGUbhsmFJXl4OROffJ/WqU1PkoxOnI62SP70d924vG4zfK3bZPlPcumHy0iadDGOXLZhmNwpOcGZBwuOMR/TU0qGWc6w4BjGRJZxSskw5sMRjmFMhAXHMCaSl+Ao9Vy5kjXKMIXC6mEYE2HBMYyJsOAYxkRYcAxjIiw4hjERFhzDmEheT5qY/UTKJ99zGrdeM62WYjzwPQd6jtWopTJGvsjajHBvJ3rGVVkS/AB1JVGyEe62a87hk7ecQX3tfNL0+EdDcr2v5XzSROsZplQp2QhHgiJh5curZ1ZXTgSUcISrJBZNcDUb1wFT08jqFlmzFjXnL2TdThfcN35Zi9HTq1VpbpDoWHBMKbI4gntTB/7h0Q6sfuGb+PL+Y+nFVHMtPv6F92Pnq/+Ku5/8vSpMjS64Gx5slALKlCo++OBH8a53XYNQ6DQ+8IHPqlJNeFmxe7DPC/R0BtHQ4YVLFYcHDTe4bhrUK7bxNsOGkNheeV7K/R1yM8lMzH6BLPqka1ifsYJmENCYPdmMSNXrdC8WsncYcXkTBGeHz3CtxnPGjq/t12oBglRHjMQfN34fxiwWL8Jddxce/8gOnP1NGtHVeHDn5z6Ka3AY3/rij/DHLCHOKDiqmyWll2vETb7GDrwmbubWJ7Rl4vj/BqZfAtbtxA13DmYXXVQwBhGpmx666HQRJNyk0gWsCQgYBCNF5lDHiorZYEhrLNOFrO+vzmNsRNGOZ/wB0MSGxG1s+rVpgmu1RAzXlbiP2MZjR7CPBWc2i9Zocv7QU3jg+y9jwzvuwWc/1IK4hC5PsSWyuyXFEFVb/l4I7auAZ39MbET9HVqZ+Ly8cbsqzAbdnAZRzBxHz2AENpc9zqU5eMx4g9rR2mQV0SPeKi/OlXk8GJtXuFziWkNUnoyrWYg61BvXYhns60bAcHzb1ma4ErcZGEDY4oJLRLMooQFD1CS36QjORjPSCI6x2JaERW2l1ER3FDXXG0RX04I7HihcbARFuDhE9JKTzmsi+r36jBbZdPGJz1vfs0ebz0oEiebKSTZ7cTesQN7EIYwYbnyNcYyIy9FcmcelU5hLCFfDjgaHEPdA0k4CcTxxsmAw1boY8rgOr3IQU5MxVVTEuUWLH5BAyIpWv9hWRDZm6Vj0boHzh76LR55RorvjWiG2e3A9XsATBYqNSKq/kbBIYDqB+8XyD8Tnfdo6wYmBV/DAI4ZtlojwWBBhh4g+tGAXn4vgZ0nppe4mHZviI20iwT5tm4BNiZWFtyQUpR8uKrrrPqyJ7fF/QaBAsd16bZqhICmq6aSYnz5/aX9aptRPMiOiYsoBPSiKqQhJzIiIN6NtR8cMiwiWKZWLRUMdCzYYUkU6bmKqmzsilewSwusV35H+I8CYSlEER5Do7r/r47jz0cLFRviaU9TfKJ2kOpxO/d9qn5RO1t0kZ6++ugWf/O975Xx2HPD5t8RuYrtHNlRkTu9UuuhtQ4tBEC6PV0SxAQSiu4qb/FhICMkjhBhCIG3TvrYdpYsxl2d1PDVPyIhpaYZvq9FF2g5fpohl2ZKwPbNUlGzHN9Xb9n9mRC0lQMKihpEsPPC5Z/CTn/+HWkqD3mrYK85paN6XTem6aBJbEw1oLZWGmzmU2A1AqGb8xHWpjhttNdWgRpmzLQn9cKo101i/jLVIpui3S9re0CLLmErJCo7qbZROpnqWkrDUvxNVtVdF53WmQ3/C9w8M43JnbW51uFRN9wxTJEpWcPmw/7ufhu/t2mD8N9z0CF4NagPy5wQLjjGRotXhzOQb33pOTP8up7zExjAmUxGC63lxAN/4ZyE4MTFMKVMRgrskxvtwgNNJxiRYcAxjIiw4hjERFhzDmMiiC466DtgOnWFSw8pgGBNhwTGMibDgGMZEFv3RrqV4/GvWuU3N5c+q8ARWRU6rJYYpLmUvOBLbWMdDail/nJ1fQvXYK2qJYYoLp5QMYyIsuBwhZ6x9xpdUC0Qeh+0Nli0sOIYxERZcjkgTnpI2TqU3vTvQzlYKJQ0LjmFMZOWmWvvnLTVrcWH2NSwsLKji1OSyXa7HWiwu2uoQaWpTS/ljG+rOqVuA6l7tzjD6Q2QcQtHkRnhWhzDrvhHtniZsaxKTawGjp6Ywp+0iIC8TP3bTOppsYYzCiXqMqeNoyGPrx2hyYmFsGGfmNb+UvT53dJnQymoxPRSKRVvyLGn3or4KWFPrlsepRwgnJsWV0Bvtfo86tnYNxnMz5lKRgqvrfgqW4SNx03n3LlgHu1F7eL8UmN53l6vgbE66iXWhVGGz2416hxuXDXTi4NEh9A+Fsb51Bxr1G10ZB9nEOZ87HBDrhzBq9cLvFqqIxAQnbcpp/IHuo3Kb/nAt/HuapMiC48OYtm2Hp1aJRAjL77XheFcPThqtOuencEIIcMHlRvUp7XzyGkiIe2rF9s/jUEBdoxMYZcEtGRWXUq6KTGDeWidFRAKj+QuObbKvjYRI82tDryxO31uc5bhmm6d7RkpL8pkB9Bhs8cJC3D0GC00SRCuNQ2B08hofRGDGiganVheTNuaOZrRYRFTdReMd9GU0fI3DSs7RRlfp8fhzMaZTcYK7KAR21rMPYZF6ETSfGAGpo/xSnk7RibMTT4AsybOZvmqCcIhI2GGwLqeBONR6Qo5zALTSAB2IF3BWpHi143NjSmmwbBpNLto2Y8pzKzb2/RQNz94rI2FJQCPyJNmWizTVGBl1F+e8iWhOy529CIsfHRI0C29pWT6CU5Fv5PavyuW67qflZzFJtiTXBuyIEplOHvUmCVEX9Fql0WsAiY7LuSJSSRJxihGBGHNZNoKj+hxFtuqxftnQctG6Wa0pDtoQUvECsW31JKSLNO6AFa274p9gcXk8yt6cWkPJsZmGnhLR6lgItiaPslanRhljxBJ1NZG/2myGE9g9cbbpzNJTsYIjQRlFNeu8UqRVfplSEhNtd8nPoiHqXge7BgCVytHkQ198o4lM+bTI1a62oak1PChdxFweqs8ZGlXGaX8adkoXZDxaA4s2Oo4uRJc3dtx2V5BHPV1i+G0BfluAMZGyF5yMZCJFLBQWG2MmFfECKsOUC8um0YRhSgEWHMOYCAuOYUyEBccwJsKCYxgTYcExjImw4BjGRFhwDGMiFSm4Yj+YzDCFUlGCI6HR6zcjt39NPl+pC09/3vIvH/uhXM+CZJaKihIcvQ2wKnxaPpBMFgskPHrpVH+4WXtQuV+WMcxSUFGCm3VciepQv3wgmfxL6B04eul0Q9+B6FsB5GdS9AhHTlkdbeq9tTTIbVK/ZsNULhXbaEKiIi8TslIg0ekiI1MhhlkqKk5wkabrovU4gqwVCL1eR+KjdLOoUW68Dwc6u2PuWss4mpGP5mKMyVApVITg6O1tahAhoyBdYBTZyFJBn4ymQRT59PodN6AwZlL2RrAkNrJPsD//JGp79ksxkehonl5MHbv5YVw2dwFVk8PRFNP9o7tFXa5fRjtghazXZSLedZnQnJf9m4xlmvGrlVySN5HbsVO6I9to3yayO7CiXrof2zTXZKsT28iUdcwCX/se7FTOyOvDQxhN774XQ7otx/arRxird/ilG3TUcXmXJaUTdL3xHAnHiXNmlut2YHV4NTx+2saGVTYPro37LoiYE7Vmghsr8zmqgKpaNNKxo87U6vtrVedUbtNrdojvyqO+H3UU+d03Jzpaly9lH+FIbBv7DkTf3KZWSBIVNZhMSUFpaabuZULrtU9qWHlaiS4zwWAIcLhiKaHFjgZqEDGW2WneaLqqIQcB6SUjk5B0zjrQ2Sf9SjQc8O2CKtdctVzeHFJPEoK/GeFebT+aAjZvvEFRLsjjuDAirfRo6pbHiR9Oy4rWFv0a+/By4ndByO8jgpExo50f+bVof1PUClD5qUivlnBv9NrlNoJgnzj/jAOtujESmSCRUW4F+bCUveCsg4eksHRjVz3C0SetI/GRIPX1JFC9QWWi7e+iQs3IeFCIxArdEMvmdMEWCsWX2cRNEqLt8iGCwJHYzRQeGhD7O9CQxWnL1dwszm90fdZvVrWQI3SceCdnzRksUVDBY4YbXpnLGq9R+z7IWUwVZESzCjSa6IaH9GvQzm8TUc8l7QEdCPYaf6DKn7IXHEUuilokHr2/jUREIrQNdsH5nNYdoIuLxDh280MyFaX9qLsgOzM4a7AfJ3EFg30YCellVrhcVJavjXhyRIxBaVfMcYsmzfJOu2HzP1ci2nFs4ofHeI594iaPJ4KzcT60EXFuEYlduuLy/dt1UdF5U0Rz6UxGbtFkDxj/o1IJVESjCfW5NTx7n1qCbDwhqGFEn0hoVE4RjzrHqSGF9ssN7SbTTFRF+iTSnBFxI1CqKctkSqWVLR5aSqanXTQV4+YLGtLS2JQ5qoTHggjrUZD+dgwgkM+1yVZcSiWt0lszUXiFO02XPhUhOCPUyU3io8hG4tJTRopkVE5pJpHLiDlG5E1mWQcb1dX01JFSTSqjMQLyTicvjViE0bFgQ2Idjq5NzUosIqqpWRI0GccmHycHZo4jIKIQpZWUTiLbGAppoMFNyIY9Lo0W9UpfU0TUGUW5w1txRrYVJzgdEhRFMqq7UQOKLrzVQoQFIV2SRapD9Ypo+kSpplaWaWAPaWlOKVy+jRop0etZ8TejyyNSMDUvoR8DcSNHGyAoRd0l6n5qidAagxJuarrhDW7R6aB9Xa4tYhKZhKGxRPa7GSKWjFZxwhfX4UnXLyfqbX6qVw6Ka9dGI8qpEamMqCjB6R3a+sPKutiooUTrPtgmR9Whx7/yR0srqbUxljrqZYktdAnIiECOycnpU0FQStYrbniDq3JDMLHRZBw9YptYHc0DHKFoYiDFcfb512EklxF6SNCOZrSGszSWGEbwiXaA24xO015ApLU941RnFT8ahiG+qDFF7ltBHecV5UtJYqMGEaqvkdBosEWKbCS0qau1lkxKM6k7QI94lQPdsG1SeMaRd4qH1u+oiUUVMVlhI9iKwWTBUce60FtPlgYWJp6KrcMxxUSIu0XUW2Vdi8kHFhyTF1qjiPakiDmpa2XBKSXDmAhHOIYxERYcw5gIC45hTIQFxzAmwoJjGBNhwTGMibDgGMZEKlJwbAzElCoVJTgSGludM6VMRQmuZKzOpQ8lOy8zyVSU4ErG6pxh0lCxjSYkKt2H0nSr8zJ3Xi6aWzJH9coTXElYnTNMGiribQGyT9CjGQmMPgkyEtKhN8F1jxMdSjXJSi+boRC5//rQiwN9+qvN2sue0sw0WkZvQDfjbJeIbNbYy5mgfeOc58gQtg9B/QXOrmm0+mNeI+SilfUNan3fXkg/FWm0qsxSKTppTs+KUPJ1bzgWfw65jysojjEOF/1dxrpnhmPHXWuGayLkd5jqe9C/y+g5IwiI7zDopHNBzuuZgnZ+Mhgq35de2eo8B6vz8IINUYtyKrA0wNNUizXWFbEyezN2O+dwImCwMRfrgqEh9IfF/k66Ubrxor693MaB+s1n0P38Ybw0NIRROLFzR22c1XdK9H1XDOBA91H0Kxtwuqn97kl1HnFecZyF5j2iTLcKr8JmtxvVZ+Lt1NdscqPRFsaJU+MIntKuo7H6JA7SdaljR0WprrV/bAHb9uxBnW6bnuaadMJpvgeX50Z45sSPAu0jv4Na2CLiexsfxrRtOzy1ylbdsgV+rw3Hu3pwcl47ZjlS9imlGVbnpea8rCH2HTCEKXFDtjooOhh//SM4dmQAYYsLrkwtplmxo5WijeFaNWMkIZg4m72Ea8qKZkab2oVZRNABce2OZrRYRBTclegSXZ6UveBMsTovKedlnYR9yRtzRgg+8XjS3s+KDYYsM2+kn6XuOma4nkST5ox/TyrED0ImF2Yh6p5BiPOKlBMxN69ypuwFZ47VeeU6L+eOPhhJwhStHxbIMnNhrohWyuJbnYt/fIk5LydBZrOpUkc1so1xfACZ/hpIXE5iRkSunFPdwkjpwkwNUV6rbDgJoDkng9pSpyIEZ6RYVuel47ychqjZrDFCaHWf2Mg2KlLL0WkUdhoSSs0rkt2Sxd9O9bUEF2TbVk/Gp2mooSUuYiV9D+L60rowU0pNA3rQteupZ+bzlQMVJzgdEtSiWp2rm5VSqyV3Xk4DjUWnjTyj17M0n0pj2hd1M9a3oZZHNT5blBRuycnH7kC7LZhfI0aq7yGlCzO1XlJXgUhj9WsXqWdP0g9K+VFRrl1ULyPIcVl3Wtatzqm+ppfT4196qyXDmElFRTgSEYmLGk8owlEaSfU0av6nlkkqp3pctn43hikW7EvJMCZSsXU4hilFWHAMYyIsOIYxERYcw5gIC45hTIQFxzAmwoJjGBNhwTGMibDgGMZEKlJwbBDElCoVJTgSGjsvM6VMRQmuZJyXGSYNFSW4knFeloanbHXOJFOxjSYkKt0Wz3TnZYZJQ8UJriScl5fS6nxJIyeZ4Sa6izFGKkJw9KY3NYjQy6W6wCiykVGQPtGyDkU+vX7HDSiMmZT9C6i68zK91U11NK0Vsi7qyEXrqQ5HaNGNhHifbLkk6zwyFcpmt1ByVuf6+aN1RM0ePNyc5lxynq7Pa4h82j7RKGzZgna/CyO9QTR46Xpi+8bblCfspyP/nng3oujfkriO7NcHrOJ8ZO7ajYO636S8hmaEc/oOypOytzqf3PMhafRac+qIXJ7b5MYba2qkAMfbP403qiwy8tmf/7oQ3K1iu15Yho/ItHLN5DBOC0HS/pkoNavzdPbgJ4fTnItu5PYdWCNu7ucOB+Q+/eFa+Pd4sF63Kq/ahEa3E/Xr9OvR9o3+2Khzafs1YWFsGGeMluMzIbE+jPVNTimYg0fVcence2pxvOt5HAqI/Wkb+m6GR3BCXGvs7xU/In/jxfpT3egeMZqkVxZln1Ka4rw8Tp6TBlvzJbU6F+fMYA+eClczWeX1xiIJIV2wxLo4q3IRlY4Z7MylfbrBOYuQjl4xF+qskGen+DtjlztucOLS3MFat4q/aaunYtyVM1H2gjPHebmUrM4jme3Bk9AEmurayDka4m+J+ULGG8ZqYom3xqPujrjRdbJhsNxrTzJyFX/LkQFA/C1ypBzj2AUVSkU0mhTfebnErM6z2IMvKjTslOEa9CkuWmZE/zt6EZY/EgnCk67Oy4eKEJyRYjkvl6LVeWp78ETEDS3u6MTUkXC5HOIgGW74dPbpBSFSSRLqoP7DpeHyeEUm0i3KgdZdRRh1tcSoOMHpkKAW1Xm5ZKzORaqZ1h5ckOJc2rBP3vjIYieL8yzDS6mRdxKF4PLoEVXrd4sdl74PVZ/VofOk+TEgK3SfyBYCIlrK+qulMsYPyETZt1IaIXG9UVWDlfPnZR1NFxs1lFDrJZWfa71JPv6VvxnsHOZWO9FYO4nAUb0VUS+bw/E/D8Va7QytlHK7+SnM0uCC25tirZ2J20isqG8ShWOqhS8lVdjc7IWvlY5Fk9YqGE03U51LlJ0YW0Cj14udch8xyZZMw+CGspVSbH/K2Po4hzOnQlhwG8/XhPVjfXhpkloSteul1t4TcllsP0stj9u17agFFE7s9nqi+8qBHmlkVCHEvTs2IdjbjX75t85gVLZabo+1nFYgFWUES62P1CBC9TUSGlmbU2Qj4enW55Rm6n12DGM27LzMMCZSsXU4hilFWHAMYyIsOIYxERYcw5gIC45hTGTFZz71wMLMhTBqqi1YsSKz/nLdjmGY1Cx6twDDMOnhUMUwJsKCYxgTYcExjImw4BjGRFhwDGMiJd1K6bv+Bly582q1FOPgL36G0ZMn1RLDlA8lK7htQmjt7/1Paime6bNncfh3v8X0ubOqJEZYrKP1DFOKlKXgMkFiW7QI+ODDOH4zcLn/MVSrIoa5FBZNcDUb1wFT0zivltNSsxY15y9k3U4XnIxkeUYsinwsOKYUWRzBvakD//BoB1a/8E18ef+x9GKquRYf/8L7sfPVf8XdT/5eFaZGF9wPvvF1Kbh1GzaoNbmTm1B3I/LcxzAetdI4D/s/3YdVt3wbo25VJBkxCO82THW9E5NyntD2sT6rFm//BEKfaIT1uROI3LwDM4Z9Z39oPG7CfkzFs3gR7rq78PhHduDsb9KIrsaDOz/3UVyDw/jWF3+EP2YJcUbBXe6+oqD0UhdrJqQA8Gts+S8/kcuvP/kwLvz+MU0EqSKcFNMOoO+7cHzqsFYmt2vApufuxsavxLaZibyMK27+J6zUtko6l7ZfLYtuGbFo3QLnDz2FB77/Mja84x589kMtqFHlkjzFlsjlV1yh5vIje4TbjYu1gGVyRC0DKz+lxJaG2VuEkE79OiY24iuP4fJTwOT221SBxqaumNhIhGfdItLpYiO+8mvYIzWIXLtbFTCVzqL2w2miO4qa6w2iq2nBHQ8ULjaCIly+vPLSUTWXicOwdo1gxvMxHO96GLOqND2aQDf92SAaRfWfhWhrnXhdLVO6uPqEmiUa14vUsgGjXd8W59InYyrLLAcWveP7/KHv4pFnlOjuuFaI7R5cjxfwRIFiIwqpv+XcaCKi0xb/3biir1aJIRfhFQilmOJcdD7jFBctmYqmKE+aREV33Yc1sT3+LwgUKDaqyxXC6Kn8WilXfuo+cfP/GptEFLrwoCpM4jBWnUlOHYnZ7Q3AmbFYCpnIiXOwWBtx4Xa1zCxLivZoF4nu/rs+jjsfLVxsRCHpJJFzC+UPP2FIAxMgkaAWFw0iqf7ly7C434nQk4Z614MPY9R9HvZfJqeaUZ4V6auor41/JP58sz8sYkRlSo6S7fimhpJb7/iIWsoPqr8d/PnP1FImErsERP1Mb2lUxJrxDd0CeiskzUuMXQYCvVsgqfUx+XwWY2snU/GUrOCo3kbpZKpnKTNBj3b99JnvqyWGKS1KVnAMU4kUrQ7HMEwyLDiGMREWHMOYCAuOYUyEBccwJsLOywxjIoveLfB2byte7A2oJYZhjHCoYhgTYcExjImw4BjGRCqiDjfr3Kbm8mdVeAKrIqfVEsMUl7IXHIltrOMhtZQ/zs4voXrsFbXEMMWFU0qGMREWXI64PB3Y598Cm1ouFHkcj10tMcsNFhzDmAgLLkeCfZ040HUcYbVceljR4u9A+1a2AStlWHAMYyIrN9XaP2+pWYsLs69hYWFBFacml+0ud9YhODahlorPRVsdIk1tail/bEPdOXULUN2r3RlGf4icTCia3AjP6hBm3Tei3dOEbU1ici1g9NQU5rRdBHb4OvzYTetosoUxCifqMaaOoyGPrR+jyYmFsWGcmRfXtrUNe33u6DKhldVieigUi7aWLWhv96K+ClhT65bHqUcIJybFldg9ou7pUcfWrsF4bsZcKlJwdd1PwTJ8JG46794F62A3ag/vlwLT++5yFZzNSTexLpQqbHa7Ue9w47KBThw8OoT+oTDWt+5Ao36jS7F5YRPnfO5wQKwfwqjVC79bqCISExyJzYdeHOg+KrfpD9fCv6dJiiw4Poxp23Z4apVIhLD8XhuOd/XgpBKgZH4KJ4QAF1xuVJ/SzievgYS4p1Zs/zwOBdQ1OoFRFtySUXEp5arIBOatdVJEJDCav+DYJvvaSIg0vzb0yuL0vYV60TOu5jGOwGAENpddtmTatjbDNTOAnqGItloQFuLuCakFQgii1RFCT1/0IOIwgwjMWNHg1OpiwYEBhB3NaLGIqLqrGRjsw7Fc9WJdJ64lgnB0+/H4czGmU3GCuygEdtazD2GRehE0nxgBqaP8Up5O0QnH7uQkbDYrwsHxzI0sUhAOEQk7sC86taHVotYTM8fRMwi0+kU54gWcFSle7fjcmFIaLJtGk4u2zZjy3IqNfT9Fw7P3ykhYEogoeLCzEwcSpoPGyBjOQ2RxRHCsi47Xi7D40SFBs/CWluUjOBX5Rm7/qlyu635afhYTPb2MYRWRT80SkWmELS64jBEtCVEX9FoR6OpGAM3wFSQYkUqSiA0pL7M0LBvBUX2OIlv1WL9saLlo3azWFAdZ97LEC8S21ZOQLo5jRNTXWnfFP8Hi8njgknPUGuqFKzQg6m0iWh0LwdbkEfU5WkeNMsaIJepqIn+12QwnsHvg44daSoqKFRwJyiiqWeeVIq3yy5SSmGi7S34WDVH3Otg1AKhUjiYf+uIbTWTKp0WudrUNTa3hQQTFWpeH6nOGRpVx2l8I1K8LMh6tgcUblzq6vLHjtruC4ppKufO+8uG3BfhtAcZEyl5wMpKJFLFQWGyMmbCJEMOYyLJpNGGYUoAFxzAmwoJjGBNhwTGMibDgGMZEWHAMYyIsOIYxERYcw5gIOy+z8zJjIhXxLOXU1ftQHepXJbkz67gSG48e4Me7GNOoCMGRbYL+FkA+0Aupi2a3wDA5wHW4SoZMhDra1PtzTCnAgmMYE2HB5Qr5O3akfvGzXCGPy8UYL4HJHRYcw5gIN5rk0GgizVodakESQk8v4PMCPZ190g5Bh6KGZmUwDpe/DQ3BbvTAg/Ym3XtE7Jtqn+h6INjbGfO7pHqYvzkWhcjlK41NQvxxIgj0BtHgdWGkqzvBy5K8UhLt+NRx8zgfkz8V4bxMjlwkHEJaLtz8EKa33xSd5ja5sWbyFM74PozJPR/CG1UWuT1tuzpyOms/XDhEjsg2bHNGhFi68SLZjM8sYH1TE9aHhzAavZmteMuOJlQHA+ifRNSduW6yJ+q+PG3zwOexRa3KowJ9/jBeIuflsQVs27MHdfK4dvjad2BOCFBzdw5hYZNVXI/RTl1DE5t+fbTta9jq34HNYsuJUzGrdI05nDkljg8nGqtPaueWFu25n48pjIpLKakje2Mf9a1p/XI0T3bmFM3IEHbx7PE0p2WXy2CLZbGjwRJCwGjWGuqN85gM9vWK6OZAg9zNjtYmIHDEEEFmjiMQElGVjmuxikgTwdno7hEc60sVbeg4VhEZjZFzHD1dA/lFppzPxxRK5QlOWZzT56qwNk8pI0U0Mn8tNP1MRXgsiLDDFW1IsTldsIWCcelisjvzDM6KInJm1m5wcuGKOWvRFE1fpfjU+kyDOMrjhDByqS7muZ6PKZhl02hCorMOHoqawVI6eclIX0k9WllFVBLRaiDfu57qdMnOyweUNZ4cl06kiQGbZn9XbCGYfb7lxrJqpbQNdmk25yLyUaS7dETKdSyk0j+RTorYFkw/3ICGTDsjGBkTedtMRKRrumAzIc5DluW9Itc0RNR4UhxHjl1QCLmcjymEZSM4Mn6lxhSqy1F00xtZcoZsyUUUMxobS8aFyMRN2SLSSaQYvMMm6o0x92NtBBzbjC5MESGpvuaN798jh2b5dIhlS3prc/kUiUg/6dh6vS/uOGSRHte0Kltbjf1ucswCi0GUmc7HLAoV10qp87ptM9ZMDqNKTIS2fgXeqKqRY8RRiplrK6VkfgqzNFbbdhrYMNbKKO52LNg88LgncfTwsEFw2hhy1ad68de3+OFvpf3cqJuPb2anFlCt5VINmCimRrHNoWGhyKpN2Ob1Yqc+mKJsJVUNI2Jdo7sWc2NaK2nycVYg0BXEere4VtVKKce4W3MGJ/RBI0WEXXCJv4mujQaTHAMa052PWRT4bYFFeFsgOqhi3NhrWl8X9cMZWymZ5U3Zp5SyG0CIhiJYvtPivJoj6mQicwuKdJJhslH+ghPpIImm0OlS0Uc6DbDemBxYVq2Ui4pqtJBPd/CjT0yOVITFAsOUCxzhGMZEWHAMYyKLLjhOJxkmPRzhGMZEWHAMYyIsOIYxERYcw5gIC45hTIQFxzAmsuhPmujU1KzF+fMX1FJhbLjhv8Ky82a1FOPMz7+I2ZO9aqmU4DcEmMws+vtwkqYP43899n7sDB/GH06+pgrzw3r1Xmy86dO4rNqWNFVf4cXCaxE5v2qDM2m6eHZMHcVstHfg1oeHcWKSfa6YZIoW4bbu+x/4zN7NGNz/GJ74zbQqzR0SXO17P6eW8oMEN/6Dey5deOS2nMJ7Mj0c4ZjMFK0ON3Tg/+Af//00mj70MO5/xzpVag4U5SgKMkypUbQIpxONdN//PJ44lHudLpcI19awUs0lc76/C3OhQfzqR99RJelIdCGOINDVjXDzpbktxyKcHb4Ob8xrJNHJWEZRw4lCiW+OM5VEcepwBib7X0D//A686z/fgtbJ3+MPwxfVmsxUOZpRc6VfLSXz1rrL0H7FKrx53WUppy2Nb8GZ8SBe+sNv1R6pcXluhGdO3OTdR6Uz8ihqYYuEcHK4cLflWB1OExuiTsZDmN60B/7mBYySrwi9U7enFse7nsehAK0PY70TGA1ls/5iyhVTugWGOr+OJw+I9PLOe/FBVXapDE8vYP+f51NOh159XW2VDStstniz1vBQX4IPv5Ec3ZYV8m1wEbGi4wQIggMDCFtccFFElTZ2ESFkbZ10S+boVtGY0w9Xcy3e+85GrD55DC+qokvlzetW4K1vWplyonXEwP87Ij/To/lKkpVdrkNR5eK2rCPdlR3KUFWfjANljA8iMOMQUbAD7WxPtywoekpJYrv/Sx9G69RBfPkLP8GQKs5GtpTyfVeuglukjnbLiqRp/RpNcP/2nSdwYSaL+cFMSKWSTfD7tiPOAs/qFCmlSPGilniC+Xmsdm2HfZbSSkonnZh4OaAGy4jvFiBbuvVj3dGBPGKTPriGNqgGpZJ1vj3YLdLVelFX5C6FyqW4EU4X27n8xJYL+/98Ef/cO59yOvea9oNAdbhcCQ9140CncaCNdOTutkxGqzaxXXb3Y5FKdop6nkhXc9ueKVeKJzij2B5dXLFRynhdg5Y6krgSJ4pwLx7pU1tnwooWT4YRQAt0W9aR6aelOcHN2A6f7tdv9xhcmZnlQHFSykUQGz1FQl0DqbhK1NPe7lwp08fZi8Bfz2si2+1aKbsKaH701F/Q97tOtUc6RArY7IVPuiLT5ETYOBhigW7L0VZKsf+JsYV4N2NxnJFelYKKlHW316PKm7Sx2tgBrKIpUj9cI953xw4cfeYXBUc26rwmwaV6lnLn5Va856patQScvXARG9auUkvA1LkwvvfY/Tk0mhROardlhslM0Tu+i0Wt3YXmq3bJ6W/eeYusr/3h17/KoaN7MYj1rxmb/BkmG2UruKUk9mQJp39MfhS3lbLSYLdl5hLhCMcwJsIRjmFMhAXHMCbCgmMYE2HBMYyJsOAYxkRYcAxjIiw4hjGRshLcRetmNccw5UlZdHyT0MZufkh81smB8Ou6n5KD6c86t2Hq6n3yc1VkAs7nviTLGaZUKf4b34vAue3vwhtVNag79LQU3Wn/XaJ0BU633SUFRuVvVFmk8CzDxXtDgGEulbJIKWcdV6I61B+NbtbBbpz17MOGvgNwdn5Jlq8NvVJYykk2dR1taEl8yTRf5HOWi3AcpqIpu0YTElWkqU2mkCQ6XWTzIvIxTKlTFnW4sQ5Rf7NpwqKUMhGKcJROUuTb2PfTpanHUYTzuzDS1Z3BZq8w+HWgyqGkI9yEqKP95WM/lGLThUaRreHZe6MTLetQ5Bu5/WuY8txaWHrJMEWmZBtNSGyzzithf/5J1Pbsl2Ii0dH8RVsdxm5+GJfNXUDV5HA0xXT/6G5Rl+uXqSY1qlC9LitUh/M7o34lZJ3Q7gxj1OrFXmmbl+hnokFRJ7beiYUz5JostjulW+AJKOq174n5mdjC6CdXZVXeaLTEU2V1Ca7OLf4b4XNUAVW1aKRjuAyuzcZjq/LNdP2e+OuVf5Pu9qzKmKWhZCMciW1j3wGZLhLVY/1SVJQ2TklBUUS7TqaQBK3XPqlh5WklugJxeOFDHw50doqpWzNr1Z22BDLFo5dQ5XqaBrDBazB4JaIppr6NOI7Ni310nJnjONhLBrRNylBWCGtXMyD+tnjLhgiOif3JPk+OSUDHkWmlHT5/szQ8ih5bqSvYp11vq+4URs5gjhC/MFsilKzgrIOHpLCobkboEY4+aR2JjwSpryeB6g0qE21/FxVqQYibuydqXS5u+mMhIULdbdmO1iYrgr3GAT3GxQ09EHdDu5pJQEbb9ITjKNdlEoZtqwetMJ4zCxaxjzje2ejm4th9uqC082hiFsL0OhKulVlKSlZwFLkoapF4qNGEIBGRCG2DXbKTm5Z1cZEYqXOcUlHaj7oLCiYcSR8N5M0ewkhG8yBtzALNQt1gc24cJYeEcWQAENu0NwGBI3lEIBEhAyErWv3imIbIG2W8Dz0hslD3Jo1twCwtJd1oQn1uDc/ep5YQbamkhhF9IqFROUW8VeHTsiGF9isFgtGUzzgZos1MBmFnIdhHx1JpKok5QXjk+syUHiUtOCPUyU3i0x7fmpBRjaBIRuWUZhLmdAmksEOXI+HoCCEJJcWNspMCl8cronW3qKMBrbsyOECnRURJqiOK+mAs5RWI+qNP1jF7EaT6aObLYEykbASnQ4KiSKb3u+nCWy1EaAoynRNi8RpH29HqSkaCQRJBws1OQlCNGdTwQo0ZNMxVeGgAQYMlOq0zjuYjo5XFIGjDcZLRGlQwOCgiqRpeK+5amaWkLJ6lJHHRs5Qr58+r7gJNbNRQMrfJLcvPtd4kH//KqSvASMIIOTTiTT3GtOZ7nYRtwqEhTNs88HlUk3zTCgS6gljvNnQL0Kg8YVuclfk29zwCZI1u92Dvjk0i5exGvzzNDEbFtjt3bJeDPU6scaOxdi42ao9IPRdc2+EhS3Zq/h9DvH26HDSSUlXqRtiDxvkBdPeNyy6AuclJbV83dwuUAmX3tgAJzTakRTYSnvFtAeoO0CMew5Qi7EvJMCZSdnU4hilnWHAMYyIsOIYxERYcw5gIC45hTCQvwU2cnuIWSoa5BDjCMYyJsOAYxjSA/w/yX0zwt/sfGAAAAABJRU5ErkJggg==;" vertex="1" parent="1">
          <mxGeometry x="512" y="1190" width="220" height="290" as="geometry" />
        </mxCell>
      </root>
    </mxGraphModel>
  </diagram>
</mxfile>
